<svg id="svg" version="1.1" xmlns="http://www.w3.org/2000/svg" xmlns:xlink="http://www.w3.org/1999/xlink" width="400" height="397.6608187134503" viewBox="0, 0, 400,397.6608187134503"><g id="svgg"><path id="path0" d="M180.697 0.128 C 180.587 0.235,178.280 0.413,175.569 0.522 C 172.859 0.631,170.530 0.896,170.395 1.109 C 170.260 1.323,168.370 1.573,166.195 1.665 C 163.609 1.775,162.187 1.998,162.083 2.309 C 161.980 2.619,160.952 2.786,159.158 2.786 C 157.067 2.786,156.337 2.932,156.164 3.383 C 155.999 3.812,155.329 3.980,153.788 3.980 C 152.146 3.980,151.642 4.120,151.642 4.577 C 151.642 5.036,151.132 5.174,149.440 5.174 C 147.850 5.174,147.175 5.340,147.010 5.771 C 146.845 6.200,146.173 6.368,144.622 6.368 C 143.070 6.368,142.398 6.536,142.233 6.965 C 142.078 7.370,141.443 7.562,140.256 7.562 C 138.967 7.562,138.507 7.719,138.507 8.159 C 138.507 8.588,138.070 8.756,136.958 8.756 C 135.948 8.756,135.329 8.964,135.179 9.353 C 135.028 9.747,134.405 9.950,133.346 9.950 C 132.185 9.950,131.741 10.115,131.741 10.547 C 131.741 10.989,131.277 11.144,129.950 11.144 C 128.624 11.144,128.159 11.299,128.159 11.741 C 128.159 12.184,127.695 12.338,126.368 12.338 C 125.148 12.338,124.609 12.497,124.677 12.836 C 124.736 13.134,124.257 13.383,123.483 13.458 C 122.709 13.533,122.189 13.803,122.189 14.132 C 122.189 14.493,121.611 14.722,120.498 14.803 C 119.405 14.882,118.841 15.102,118.905 15.423 C 118.968 15.733,118.551 15.920,117.798 15.920 C 117.093 15.920,116.497 16.168,116.363 16.517 C 116.237 16.846,115.705 17.114,115.181 17.114 C 114.600 17.114,114.229 17.347,114.229 17.711 C 114.229 18.109,113.831 18.308,113.035 18.308 C 112.239 18.308,111.841 18.507,111.841 18.905 C 111.841 19.281,111.462 19.502,110.817 19.502 C 110.254 19.502,109.525 19.771,109.197 20.100 C 108.869 20.428,108.254 20.697,107.832 20.697 C 107.410 20.697,107.065 20.876,107.065 21.095 C 107.065 21.313,106.626 21.493,106.089 21.493 C 105.553 21.493,104.967 21.756,104.786 22.078 C 104.606 22.400,104.025 22.730,103.494 22.811 C 102.964 22.892,102.460 23.166,102.376 23.420 C 102.291 23.673,101.784 23.881,101.248 23.881 C 100.712 23.881,100.170 24.149,100.044 24.478 C 99.918 24.806,99.387 25.075,98.863 25.075 C 98.317 25.075,97.910 25.310,97.910 25.625 C 97.910 25.928,97.534 26.274,97.074 26.394 C 96.614 26.515,96.356 26.804,96.501 27.038 C 96.665 27.304,96.307 27.463,95.546 27.463 C 94.729 27.463,94.328 27.659,94.328 28.060 C 94.328 28.458,93.930 28.657,93.134 28.657 C 92.338 28.657,91.940 28.856,91.940 29.254 C 91.940 29.582,91.672 29.851,91.343 29.851 C 91.015 29.851,90.746 30.119,90.746 30.448 C 90.746 30.846,90.348 31.045,89.552 31.045 C 88.756 31.045,88.358 31.244,88.358 31.642 C 88.358 31.970,88.090 32.239,87.761 32.239 C 87.433 32.239,87.164 32.507,87.164 32.836 C 87.164 33.234,86.766 33.433,85.970 33.433 C 85.174 33.433,84.776 33.632,84.776 34.030 C 84.776 34.358,84.507 34.627,84.179 34.627 C 83.851 34.627,83.582 34.896,83.582 35.224 C 83.582 35.552,83.313 35.821,82.985 35.821 C 82.657 35.821,82.388 36.090,82.388 36.418 C 82.388 36.816,81.990 37.015,81.194 37.015 C 80.398 37.015,80.000 37.214,80.000 37.612 C 80.000 37.940,79.731 38.209,79.403 38.209 C 79.075 38.209,78.806 38.478,78.806 38.806 C 78.806 39.177,78.430 39.403,77.811 39.403 C 77.192 39.403,76.816 39.629,76.816 40.000 C 76.816 40.328,76.547 40.597,76.219 40.597 C 75.891 40.597,75.622 40.776,75.622 40.995 C 75.622 41.214,75.353 41.393,75.025 41.393 C 74.697 41.393,74.428 41.662,74.428 41.990 C 74.428 42.318,74.159 42.587,73.831 42.587 C 73.502 42.587,73.234 42.856,73.234 43.184 C 73.234 43.558,72.857 43.781,72.226 43.781 C 71.672 43.781,71.116 44.050,70.990 44.378 C 70.864 44.706,70.511 44.975,70.206 44.975 C 69.901 44.975,69.652 45.244,69.652 45.572 C 69.652 45.900,69.383 46.169,69.055 46.169 C 68.726 46.169,68.458 46.438,68.458 46.766 C 68.458 47.095,68.189 47.363,67.861 47.363 C 67.532 47.363,67.264 47.632,67.264 47.960 C 67.264 48.289,66.995 48.557,66.667 48.557 C 66.338 48.557,66.070 48.826,66.070 49.154 C 66.070 49.483,65.801 49.751,65.473 49.751 C 65.144 49.751,64.876 50.020,64.876 50.348 C 64.876 50.677,64.607 50.945,64.279 50.945 C 63.950 50.945,63.682 51.214,63.682 51.542 C 63.682 51.886,63.322 52.139,62.833 52.139 C 62.011 52.139,59.303 54.604,59.303 55.352 C 59.303 55.555,59.035 55.721,58.706 55.721 C 58.378 55.721,58.109 55.990,58.109 56.318 C 58.109 56.647,57.841 56.915,57.512 56.915 C 57.184 56.915,56.915 57.095,56.915 57.313 C 56.915 57.830,55.442 59.303,54.925 59.303 C 54.706 59.303,54.527 59.572,54.527 59.900 C 54.527 60.229,54.259 60.498,53.930 60.498 C 53.602 60.498,53.333 60.721,53.332 60.995 C 53.332 61.269,52.795 61.851,52.139 62.289 C 51.406 62.779,50.947 63.429,50.946 63.980 C 50.946 64.510,50.702 64.876,50.348 64.876 C 50.020 64.876,49.751 65.055,49.751 65.274 C 49.751 65.790,48.277 67.264,47.761 67.264 C 47.542 67.264,47.363 67.532,47.363 67.861 C 47.363 68.189,47.095 68.458,46.766 68.458 C 46.438 68.458,46.169 68.726,46.169 69.055 C 46.169 69.383,45.900 69.652,45.572 69.652 C 45.244 69.652,44.975 69.901,44.975 70.206 C 44.975 70.511,44.705 70.864,44.374 70.991 C 44.044 71.118,43.797 71.361,43.825 71.531 C 43.983 72.498,43.706 73.234,43.184 73.234 C 42.856 73.234,42.587 73.502,42.587 73.831 C 42.587 74.159,42.318 74.428,41.990 74.428 C 41.662 74.428,41.393 74.697,41.393 75.025 C 41.393 75.353,41.124 75.622,40.796 75.622 C 40.468 75.622,40.199 75.891,40.199 76.219 C 40.199 76.547,40.034 76.816,39.833 76.816 C 39.631 76.816,39.348 77.353,39.204 78.010 C 39.060 78.667,38.777 79.204,38.575 79.204 C 38.374 79.204,38.209 79.473,38.209 79.801 C 38.209 80.129,37.940 80.398,37.612 80.398 C 37.284 80.398,37.015 80.667,37.015 80.995 C 37.015 81.323,36.746 81.592,36.418 81.592 C 36.046 81.592,35.821 81.968,35.821 82.587 C 35.821 83.206,35.595 83.582,35.224 83.582 C 34.892 83.582,34.627 83.936,34.627 84.378 C 34.627 84.816,34.403 85.129,34.129 85.075 C 33.850 85.019,33.577 85.454,33.506 86.070 C 33.434 86.696,33.136 87.164,32.809 87.164 C 32.496 87.164,32.239 87.433,32.239 87.761 C 32.239 88.090,31.970 88.358,31.642 88.358 C 31.244 88.358,31.045 88.756,31.045 89.552 C 31.045 90.348,30.846 90.746,30.448 90.746 C 30.119 90.746,29.851 91.015,29.851 91.343 C 29.851 91.672,29.582 91.940,29.254 91.940 C 28.925 91.940,28.678 92.075,28.704 92.239 C 28.877 93.336,28.571 94.328,28.060 94.328 C 27.662 94.328,27.463 94.726,27.463 95.522 C 27.463 96.318,27.264 96.716,26.866 96.716 C 26.537 96.716,26.269 96.966,26.269 97.271 C 26.269 97.576,26.000 97.928,25.672 98.054 C 25.343 98.180,25.075 98.737,25.075 99.291 C 25.075 99.921,24.851 100.299,24.478 100.299 C 24.104 100.299,23.881 100.676,23.881 101.306 C 23.881 101.860,23.612 102.417,23.284 102.543 C 22.955 102.669,22.687 103.181,22.687 103.682 C 22.687 104.182,22.418 104.695,22.090 104.821 C 21.761 104.947,21.493 105.426,21.493 105.887 C 21.493 106.347,21.224 106.992,20.896 107.321 C 20.567 107.649,20.299 108.263,20.299 108.685 C 20.299 109.107,20.119 109.453,19.900 109.453 C 19.682 109.453,19.502 109.798,19.502 110.220 C 19.502 110.643,19.234 111.257,18.905 111.585 C 18.577 111.913,18.308 112.643,18.308 113.205 C 18.308 113.850,18.087 114.229,17.711 114.229 C 17.313 114.229,17.114 114.627,17.114 115.423 C 17.114 116.219,16.915 116.617,16.517 116.617 C 16.119 116.617,15.920 117.015,15.920 117.811 C 15.920 118.607,15.721 119.005,15.323 119.005 C 14.930 119.005,14.726 119.398,14.726 120.156 C 14.726 120.813,14.470 121.406,14.129 121.537 C 13.755 121.681,13.532 122.289,13.532 123.172 C 13.532 124.156,13.353 124.577,12.935 124.577 C 12.493 124.577,12.338 125.041,12.338 126.368 C 12.338 127.695,12.184 128.159,11.741 128.159 C 11.343 128.159,11.144 128.557,11.144 129.353 C 11.144 130.149,10.945 130.547,10.547 130.547 C 10.105 130.547,9.950 131.012,9.950 132.338 C 9.950 133.665,9.795 134.129,9.353 134.129 C 8.911 134.129,8.756 134.594,8.756 135.920 C 8.756 137.247,8.601 137.711,8.159 137.711 C 7.717 137.711,7.562 138.176,7.562 139.502 C 7.562 140.829,7.407 141.294,6.965 141.294 C 6.637 141.294,6.389 141.428,6.415 141.592 C 6.675 143.234,6.290 145.672,5.771 145.672 C 5.307 145.672,5.174 146.202,5.174 148.060 C 5.174 149.917,5.041 150.448,4.577 150.448 C 4.114 150.448,3.980 150.974,3.980 152.793 C 3.980 154.511,3.820 155.200,3.383 155.368 C 2.938 155.538,2.786 156.247,2.786 158.148 C 2.786 159.930,2.606 160.848,2.189 161.194 C 1.752 161.557,1.592 162.520,1.592 164.792 C 1.592 166.585,1.417 167.952,1.178 168.032 C -0.179 168.484,-0.226 229.158,1.129 230.015 C 1.333 230.143,1.570 231.668,1.657 233.403 C 1.757 235.412,1.990 236.617,2.300 236.720 C 2.615 236.825,2.786 237.772,2.786 239.408 C 2.786 241.122,2.978 242.125,3.383 242.530 C 3.758 242.905,3.980 243.884,3.980 245.158 C 3.980 246.596,4.154 247.256,4.577 247.418 C 5.006 247.583,5.174 248.254,5.174 249.806 C 5.174 251.358,5.342 252.030,5.771 252.194 C 6.161 252.344,6.368 252.964,6.368 253.985 C 6.368 255.007,6.575 255.627,6.965 255.776 C 7.394 255.941,7.562 256.611,7.562 258.152 C 7.562 259.795,7.702 260.299,8.159 260.299 C 8.601 260.299,8.756 260.763,8.756 262.090 C 8.756 263.416,8.911 263.881,9.353 263.881 C 9.795 263.881,9.950 264.345,9.950 265.672 C 9.950 266.892,10.109 267.431,10.448 267.363 C 10.746 267.304,10.995 267.783,11.070 268.557 C 11.147 269.358,11.412 269.851,11.767 269.851 C 12.179 269.851,12.338 270.350,12.338 271.642 C 12.338 272.968,12.493 273.433,12.935 273.433 C 13.333 273.433,13.532 273.831,13.532 274.627 C 13.532 275.423,13.731 275.821,14.129 275.821 C 14.561 275.821,14.726 276.263,14.726 277.413 C 14.726 278.563,14.892 279.005,15.323 279.005 C 15.721 279.005,15.920 279.403,15.920 280.199 C 15.920 280.995,16.119 281.393,16.517 281.393 C 16.915 281.393,17.114 281.791,17.114 282.587 C 17.114 283.383,17.313 283.781,17.711 283.781 C 18.109 283.781,18.308 284.179,18.308 284.975 C 18.308 285.632,18.484 286.169,18.699 286.169 C 18.914 286.169,19.210 286.662,19.357 287.264 C 19.505 287.866,19.772 288.456,19.952 288.574 C 20.131 288.693,20.341 289.201,20.417 289.702 C 20.494 290.203,20.739 290.732,20.963 290.879 C 21.187 291.025,21.491 291.637,21.638 292.239 C 21.785 292.841,22.081 293.333,22.296 293.333 C 22.511 293.333,22.687 293.787,22.687 294.341 C 22.687 294.895,22.955 295.451,23.284 295.577 C 23.612 295.703,23.881 296.216,23.881 296.716 C 23.881 297.217,24.149 297.729,24.478 297.855 C 24.806 297.981,25.075 298.454,25.075 298.905 C 25.075 299.357,25.343 299.830,25.672 299.956 C 26.000 300.082,26.269 300.434,26.269 300.739 C 26.269 301.044,26.537 301.294,26.866 301.294 C 27.264 301.294,27.463 301.692,27.463 302.488 C 27.463 303.284,27.662 303.682,28.060 303.682 C 28.388 303.682,28.657 303.950,28.657 304.279 C 28.657 304.607,28.925 304.876,29.254 304.876 C 29.652 304.876,29.851 305.274,29.851 306.070 C 29.851 306.866,30.050 307.264,30.448 307.264 C 30.821 307.264,31.045 307.641,31.045 308.271 C 31.045 308.825,31.313 309.382,31.642 309.508 C 31.970 309.634,32.239 309.986,32.239 310.291 C 32.239 310.596,32.507 310.846,32.836 310.846 C 33.209 310.846,33.433 311.223,33.433 311.853 C 33.433 312.407,33.701 312.964,34.030 313.090 C 34.358 313.216,34.627 313.568,34.627 313.873 C 34.627 314.178,34.896 314.428,35.224 314.428 C 35.552 314.428,35.821 314.697,35.821 315.025 C 35.821 315.353,36.090 315.622,36.418 315.622 C 36.789 315.622,37.015 315.998,37.015 316.617 C 37.015 317.236,37.240 317.612,37.612 317.612 C 37.940 317.612,38.209 317.881,38.209 318.209 C 38.209 318.537,38.388 318.806,38.607 318.806 C 38.826 318.806,39.005 319.075,39.005 319.403 C 39.005 319.731,39.274 320.000,39.602 320.000 C 39.930 320.000,40.199 320.345,40.199 320.768 C 40.199 321.190,40.468 321.804,40.796 322.132 C 41.124 322.461,41.393 322.921,41.393 323.156 C 41.393 323.390,41.662 323.582,41.990 323.582 C 42.318 323.582,42.587 323.851,42.587 324.179 C 42.587 324.507,42.856 324.776,43.184 324.776 C 43.512 324.776,43.781 325.045,43.781 325.373 C 43.781 325.701,44.050 325.970,44.378 325.970 C 44.752 325.970,44.975 326.347,44.975 326.978 C 44.975 327.532,45.244 328.088,45.572 328.214 C 45.900 328.340,46.169 328.693,46.169 328.998 C 46.169 329.303,46.438 329.552,46.766 329.552 C 47.095 329.552,47.363 329.821,47.363 330.149 C 47.363 330.478,47.632 330.746,47.960 330.746 C 48.289 330.746,48.557 331.015,48.557 331.343 C 48.557 331.672,48.826 331.940,49.154 331.940 C 49.483 331.940,49.751 332.209,49.751 332.537 C 49.751 332.866,50.020 333.134,50.348 333.134 C 50.677 333.134,50.945 333.403,50.945 333.731 C 50.945 334.060,51.214 334.328,51.542 334.328 C 51.871 334.328,52.139 334.597,52.139 334.925 C 52.139 335.254,52.408 335.522,52.736 335.522 C 53.065 335.522,53.333 335.791,53.333 336.119 C 53.333 336.448,53.602 336.716,53.930 336.716 C 54.259 336.716,54.527 336.985,54.527 337.313 C 54.527 337.642,54.796 337.910,55.124 337.910 C 55.453 337.910,55.721 338.090,55.721 338.308 C 55.721 338.527,55.990 338.706,56.318 338.706 C 56.647 338.706,56.915 338.956,56.915 339.261 C 56.915 339.566,57.195 339.923,57.538 340.054 C 57.880 340.185,58.048 340.473,57.912 340.694 C 57.776 340.914,57.854 341.095,58.086 341.095 C 58.620 341.095,60.100 342.556,60.100 343.085 C 60.100 343.303,60.368 343.483,60.697 343.483 C 61.025 343.483,61.294 343.751,61.294 344.080 C 61.294 344.408,61.562 344.677,61.891 344.677 C 62.219 344.677,62.488 344.945,62.488 345.274 C 62.488 345.602,62.756 345.871,63.085 345.871 C 63.413 345.871,63.682 346.139,63.682 346.468 C 63.682 346.796,63.950 347.065,64.279 347.065 C 64.607 347.065,64.876 347.333,64.876 347.662 C 64.876 347.990,65.144 348.259,65.473 348.259 C 65.801 348.259,66.070 348.527,66.070 348.856 C 66.070 349.184,66.338 349.453,66.667 349.453 C 66.995 349.453,67.264 349.721,67.264 350.050 C 67.264 350.378,67.490 350.647,67.766 350.647 C 68.042 350.647,68.711 351.184,69.254 351.841 C 69.819 352.525,70.625 353.035,71.140 353.035 C 71.674 353.035,72.040 353.277,72.040 353.632 C 72.040 353.960,72.308 354.229,72.637 354.229 C 72.965 354.229,73.234 354.498,73.234 354.826 C 73.234 355.154,73.421 355.423,73.651 355.423 C 73.880 355.423,74.462 355.846,74.944 356.363 C 75.426 356.879,76.224 357.429,76.716 357.583 C 77.209 357.738,77.612 358.032,77.612 358.236 C 77.612 358.440,77.881 358.607,78.209 358.607 C 78.537 358.607,78.806 358.876,78.806 359.204 C 78.806 359.536,79.160 359.801,79.602 359.801 C 80.040 359.801,80.353 360.025,80.299 360.299 C 80.243 360.578,80.678 360.851,81.294 360.922 C 81.920 360.994,82.388 361.292,82.388 361.618 C 82.388 361.932,82.638 362.189,82.942 362.189 C 83.247 362.189,83.600 362.458,83.726 362.786 C 83.852 363.114,84.408 363.383,84.963 363.383 C 85.593 363.383,85.970 363.607,85.970 363.980 C 85.970 364.308,86.239 364.577,86.567 364.577 C 86.896 364.577,87.164 364.846,87.164 365.174 C 87.164 365.572,87.562 365.771,88.358 365.771 C 89.154 365.771,89.552 365.970,89.552 366.368 C 89.552 366.697,89.821 366.965,90.149 366.965 C 90.478 366.965,90.746 367.234,90.746 367.562 C 90.746 367.960,91.144 368.159,91.940 368.159 C 92.736 368.159,93.134 368.358,93.134 368.756 C 93.134 369.085,93.403 369.353,93.731 369.353 C 94.060 369.353,94.328 369.622,94.328 369.950 C 94.328 370.348,94.726 370.547,95.522 370.547 C 96.318 370.547,96.716 370.746,96.716 371.144 C 96.716 371.509,97.088 371.741,97.669 371.741 C 98.193 371.741,98.724 372.010,98.850 372.338 C 98.976 372.667,99.533 372.935,100.087 372.935 C 100.717 372.935,101.095 373.159,101.095 373.532 C 101.095 373.861,101.286 374.129,101.521 374.129 C 101.756 374.129,102.216 374.398,102.544 374.726 C 102.873 375.055,103.487 375.323,103.909 375.323 C 104.331 375.323,104.677 375.483,104.677 375.678 C 104.677 375.873,105.146 376.151,105.720 376.295 C 106.293 376.439,107.023 376.817,107.340 377.134 C 107.658 377.452,108.263 377.711,108.685 377.711 C 109.107 377.711,109.453 377.891,109.453 378.109 C 109.453 378.328,109.990 378.507,110.647 378.507 C 111.443 378.507,111.841 378.706,111.841 379.104 C 111.841 379.502,112.239 379.701,113.035 379.701 C 113.831 379.701,114.229 379.900,114.229 380.299 C 114.229 380.730,114.671 380.896,115.821 380.896 C 116.971 380.896,117.413 381.061,117.413 381.493 C 117.413 381.891,117.811 382.090,118.607 382.090 C 119.403 382.090,119.801 382.289,119.801 382.687 C 119.801 383.080,120.194 383.284,120.952 383.284 C 121.609 383.284,122.202 383.540,122.333 383.881 C 122.484 384.275,123.108 384.478,124.167 384.478 C 125.328 384.478,125.771 384.643,125.771 385.075 C 125.771 385.517,126.235 385.672,127.562 385.672 C 128.889 385.672,129.353 385.826,129.353 386.269 C 129.353 386.667,129.751 386.866,130.547 386.866 C 131.343 386.866,131.741 387.065,131.741 387.463 C 131.741 387.905,132.206 388.060,133.532 388.060 C 134.859 388.060,135.323 388.214,135.323 388.657 C 135.323 389.099,135.788 389.254,137.114 389.254 C 138.335 389.254,138.874 389.412,138.806 389.751 C 138.738 390.093,139.425 390.286,140.995 390.368 C 142.674 390.456,143.284 390.641,143.284 391.065 C 143.284 391.505,143.851 391.642,145.672 391.642 C 147.529 391.642,148.060 391.774,148.060 392.239 C 148.060 392.703,148.590 392.836,150.448 392.836 C 152.305 392.836,152.836 392.968,152.836 393.433 C 152.836 393.890,153.340 394.030,154.982 394.030 C 156.523 394.030,157.193 394.198,157.358 394.627 C 157.536 395.092,158.327 395.224,160.940 395.224 C 163.553 395.224,164.343 395.356,164.522 395.821 C 164.701 396.286,165.491 396.418,168.104 396.418 C 170.609 396.418,171.511 396.559,171.671 396.974 C 172.107 398.112,227.441 398.200,228.272 397.065 C 228.641 396.559,229.454 396.418,231.997 396.418 C 234.520 396.418,235.300 396.284,235.478 395.821 C 235.656 395.356,236.443 395.224,239.028 395.224 C 241.503 395.224,242.430 395.078,242.669 394.651 C 242.872 394.289,243.793 394.033,245.176 393.955 C 246.664 393.870,247.331 393.672,247.264 393.333 C 247.193 392.980,247.854 392.836,249.552 392.836 C 251.410 392.836,251.940 392.703,251.940 392.239 C 251.940 391.774,252.471 391.642,254.328 391.642 C 256.186 391.642,256.716 391.509,256.716 391.045 C 256.716 390.588,257.220 390.448,258.863 390.448 C 260.404 390.448,261.074 390.279,261.238 389.851 C 261.390 389.457,262.013 389.254,263.072 389.254 C 264.233 389.254,264.677 389.089,264.677 388.657 C 264.677 388.214,265.141 388.060,266.468 388.060 C 267.794 388.060,268.259 387.905,268.259 387.463 C 268.259 387.065,268.657 386.866,269.453 386.866 C 270.249 386.866,270.647 386.667,270.647 386.269 C 270.647 385.826,271.111 385.672,272.438 385.672 C 273.765 385.672,274.229 385.517,274.229 385.075 C 274.229 384.632,274.693 384.478,276.020 384.478 C 277.347 384.478,277.811 384.323,277.811 383.881 C 277.811 383.483,278.209 383.284,279.005 383.284 C 279.801 383.284,280.199 383.085,280.199 382.687 C 280.199 382.289,280.597 382.090,281.393 382.090 C 282.189 382.090,282.587 381.891,282.587 381.493 C 282.587 381.061,283.029 380.896,284.179 380.896 C 285.329 380.896,285.771 380.730,285.771 380.299 C 285.771 379.900,286.169 379.701,286.965 379.701 C 287.761 379.701,288.159 379.502,288.159 379.104 C 288.159 378.706,288.557 378.507,289.353 378.507 C 290.010 378.507,290.547 378.328,290.547 378.109 C 290.547 377.891,291.001 377.711,291.555 377.711 C 292.109 377.711,292.661 377.454,292.782 377.139 C 292.903 376.824,293.524 376.451,294.163 376.311 C 294.801 376.171,295.323 375.891,295.323 375.690 C 295.323 375.488,295.669 375.323,296.091 375.323 C 296.513 375.323,297.127 375.055,297.456 374.726 C 297.784 374.398,298.244 374.129,298.479 374.129 C 298.714 374.129,298.905 373.861,298.905 373.532 C 298.905 373.159,299.283 372.935,299.913 372.935 C 300.467 372.935,301.024 372.667,301.150 372.338 C 301.276 372.010,301.788 371.741,302.289 371.741 C 302.789 371.741,303.302 371.473,303.428 371.144 C 303.554 370.816,304.110 370.547,304.664 370.547 C 305.294 370.547,305.672 370.324,305.672 369.950 C 305.672 369.622,305.940 369.353,306.269 369.353 C 306.597 369.353,306.866 369.085,306.866 368.756 C 306.866 368.358,307.264 368.159,308.060 368.159 C 308.856 368.159,309.254 367.960,309.254 367.562 C 309.254 367.234,309.522 366.965,309.851 366.965 C 310.179 366.965,310.448 366.697,310.448 366.368 C 310.448 365.970,310.846 365.771,311.642 365.771 C 312.438 365.771,312.836 365.572,312.836 365.174 C 312.836 364.846,313.104 364.577,313.433 364.577 C 313.761 364.577,314.030 364.308,314.030 363.980 C 314.030 363.582,314.428 363.383,315.224 363.383 C 316.020 363.383,316.418 363.184,316.418 362.786 C 316.418 362.458,316.687 362.189,317.015 362.189 C 317.343 362.189,317.612 361.920,317.612 361.592 C 317.612 361.219,317.989 360.995,318.619 360.995 C 319.174 360.995,319.730 360.726,319.856 360.398 C 319.982 360.070,320.345 359.801,320.663 359.801 C 320.981 359.801,321.123 359.610,320.978 359.376 C 320.834 359.142,321.092 358.853,321.552 358.733 C 322.012 358.613,322.388 358.356,322.388 358.163 C 322.388 357.969,322.651 357.811,322.971 357.811 C 323.292 357.811,324.104 357.274,324.776 356.617 C 325.448 355.960,326.171 355.423,326.382 355.423 C 326.593 355.423,326.766 355.154,326.766 354.826 C 326.766 354.498,327.035 354.229,327.363 354.229 C 327.692 354.229,327.960 353.960,327.960 353.632 C 327.960 353.270,328.329 353.035,328.896 353.035 C 329.466 353.035,330.188 352.569,330.746 351.841 C 331.250 351.184,331.903 350.647,332.199 350.647 C 332.494 350.647,332.736 350.378,332.736 350.050 C 332.736 349.721,333.005 349.453,333.333 349.453 C 333.662 349.453,333.930 349.184,333.930 348.856 C 333.930 348.527,334.199 348.259,334.527 348.259 C 334.856 348.259,335.124 347.990,335.124 347.662 C 335.124 347.333,335.393 347.065,335.721 347.065 C 336.050 347.065,336.318 346.796,336.318 346.468 C 336.318 346.139,336.587 345.871,336.915 345.871 C 337.244 345.871,337.512 345.602,337.512 345.274 C 337.512 344.945,337.781 344.677,338.109 344.677 C 338.438 344.677,338.706 344.408,338.706 344.080 C 338.706 343.751,338.975 343.483,339.303 343.483 C 339.632 343.483,339.900 343.214,339.900 342.886 C 339.900 342.557,340.169 342.289,340.498 342.289 C 340.826 342.289,341.095 342.020,341.095 341.692 C 341.095 341.363,341.363 341.095,341.692 341.095 C 342.020 341.095,342.289 340.826,342.289 340.498 C 342.289 340.169,342.468 339.900,342.687 339.900 C 342.905 339.900,343.085 339.632,343.085 339.303 C 343.085 338.975,343.353 338.706,343.682 338.706 C 344.010 338.706,344.279 338.527,344.279 338.308 C 344.279 338.090,344.547 337.910,344.876 337.910 C 345.204 337.910,345.473 337.642,345.473 337.313 C 345.473 336.985,345.741 336.716,346.070 336.716 C 346.398 336.716,346.667 336.448,346.667 336.119 C 346.667 335.791,346.935 335.522,347.264 335.522 C 347.592 335.522,347.861 335.254,347.861 334.925 C 347.861 334.597,348.129 334.328,348.458 334.328 C 348.786 334.328,349.055 334.060,349.055 333.731 C 349.055 333.403,349.323 333.134,349.652 333.134 C 349.980 333.134,350.249 332.866,350.249 332.537 C 350.249 332.209,350.517 331.940,350.846 331.940 C 351.174 331.940,351.443 331.672,351.443 331.343 C 351.443 331.015,351.711 330.746,352.040 330.746 C 352.368 330.746,352.637 330.478,352.637 330.149 C 352.637 329.821,352.905 329.552,353.234 329.552 C 353.562 329.552,353.831 329.303,353.831 328.998 C 353.831 328.693,354.100 328.340,354.428 328.214 C 354.756 328.088,355.025 327.532,355.025 326.978 C 355.025 326.347,355.248 325.970,355.622 325.970 C 355.950 325.970,356.219 325.701,356.219 325.373 C 356.219 325.045,356.488 324.776,356.816 324.776 C 357.144 324.776,357.413 324.507,357.413 324.179 C 357.413 323.851,357.682 323.582,358.010 323.582 C 358.338 323.582,358.607 323.313,358.607 322.985 C 358.607 322.657,358.772 322.388,358.973 322.388 C 359.175 322.388,359.458 321.851,359.602 321.194 C 359.746 320.537,360.119 320.000,360.430 320.000 C 360.741 320.000,360.995 319.731,360.995 319.403 C 360.995 319.075,361.174 318.806,361.393 318.806 C 361.612 318.806,361.791 318.537,361.791 318.209 C 361.791 317.881,362.060 317.612,362.388 317.612 C 362.760 317.612,362.985 317.236,362.985 316.617 C 362.985 315.998,363.211 315.622,363.582 315.622 C 363.910 315.622,364.179 315.353,364.179 315.025 C 364.179 314.697,364.448 314.428,364.776 314.428 C 365.104 314.428,365.373 314.178,365.373 313.873 C 365.373 313.568,365.642 313.216,365.970 313.090 C 366.299 312.964,366.567 312.407,366.567 311.853 C 366.567 311.223,366.791 310.846,367.164 310.846 C 367.493 310.846,367.761 310.596,367.761 310.291 C 367.761 309.986,368.030 309.634,368.358 309.508 C 368.687 309.382,368.955 308.825,368.955 308.271 C 368.955 307.641,369.179 307.264,369.552 307.264 C 369.950 307.264,370.149 306.866,370.149 306.070 C 370.149 305.274,370.348 304.876,370.746 304.876 C 371.075 304.876,371.343 304.607,371.343 304.279 C 371.343 303.950,371.612 303.682,371.940 303.682 C 372.338 303.682,372.537 303.284,372.537 302.488 C 372.537 301.692,372.736 301.294,373.134 301.294 C 373.532 301.294,373.731 300.896,373.731 300.100 C 373.731 299.443,373.910 298.905,374.129 298.905 C 374.804 298.905,376.119 297.355,376.119 296.560 C 376.119 296.146,376.388 295.703,376.716 295.577 C 377.045 295.451,377.313 294.914,377.313 294.383 C 377.313 293.853,377.582 293.315,377.910 293.189 C 378.239 293.063,378.507 292.526,378.507 291.995 C 378.507 291.465,378.776 290.927,379.104 290.801 C 379.433 290.675,379.701 290.119,379.701 289.565 C 379.701 288.935,379.925 288.557,380.299 288.557 C 380.697 288.557,380.896 288.159,380.896 287.363 C 380.896 286.706,381.075 286.169,381.294 286.169 C 381.512 286.169,381.692 285.632,381.692 284.975 C 381.692 284.179,381.891 283.781,382.289 283.781 C 382.687 283.781,382.886 283.383,382.886 282.587 C 382.886 281.791,383.085 281.393,383.483 281.393 C 383.881 281.393,384.080 280.995,384.080 280.199 C 384.080 279.403,384.279 279.005,384.677 279.005 C 385.108 279.005,385.274 278.563,385.274 277.413 C 385.274 276.263,385.439 275.821,385.871 275.821 C 386.264 275.821,386.468 275.428,386.468 274.669 C 386.468 274.013,386.724 273.419,387.065 273.289 C 387.459 273.138,387.662 272.514,387.662 271.455 C 387.662 270.294,387.827 269.851,388.259 269.851 C 388.657 269.851,388.856 269.453,388.856 268.657 C 388.856 267.861,389.055 267.463,389.453 267.463 C 389.895 267.463,390.050 266.998,390.050 265.672 C 390.050 264.345,390.205 263.881,390.647 263.881 C 391.089 263.881,391.244 263.416,391.244 262.090 C 391.244 260.763,391.399 260.299,391.841 260.299 C 392.300 260.299,392.438 259.789,392.438 258.097 C 392.438 256.507,392.604 255.832,393.035 255.666 C 393.420 255.518,393.632 254.903,393.632 253.930 C 393.632 252.958,393.844 252.342,394.229 252.194 C 394.658 252.030,394.826 251.358,394.826 249.806 C 394.826 248.254,394.994 247.583,395.423 247.418 C 395.852 247.254,396.020 246.582,396.020 245.030 C 396.020 243.593,396.198 242.803,396.553 242.667 C 396.912 242.529,397.114 241.590,397.173 239.787 C 397.228 238.087,397.469 236.902,397.834 236.537 C 398.230 236.141,398.408 235.056,398.408 233.040 C 398.408 231.089,398.570 230.062,398.895 229.954 C 400.382 229.458,400.427 169.638,398.941 168.152 C 398.591 167.802,398.408 166.601,398.408 164.654 C 398.408 162.504,398.244 161.553,397.811 161.194 C 397.394 160.848,397.214 159.930,397.214 158.148 C 397.214 156.247,397.062 155.538,396.617 155.368 C 396.180 155.200,396.020 154.511,396.020 152.793 C 396.020 150.974,395.886 150.448,395.423 150.448 C 394.959 150.448,394.826 149.917,394.826 148.060 C 394.826 146.202,394.693 145.672,394.229 145.672 C 393.771 145.672,393.632 145.163,393.632 143.483 C 393.632 141.802,393.493 141.294,393.035 141.294 C 392.593 141.294,392.438 140.829,392.438 139.502 C 392.438 138.176,392.283 137.711,391.841 137.711 C 391.399 137.711,391.244 137.247,391.244 135.920 C 391.244 134.594,391.089 134.129,390.647 134.129 C 390.205 134.129,390.050 133.665,390.050 132.338 C 390.050 131.012,389.895 130.547,389.453 130.547 C 389.055 130.547,388.856 130.149,388.856 129.353 C 388.856 128.557,388.657 128.159,388.259 128.159 C 387.816 128.159,387.662 127.695,387.662 126.368 C 387.662 125.041,387.507 124.577,387.065 124.577 C 386.633 124.577,386.468 124.135,386.468 122.985 C 386.468 121.835,386.302 121.393,385.871 121.393 C 385.473 121.393,385.274 120.995,385.274 120.199 C 385.274 119.403,385.075 119.005,384.677 119.005 C 384.279 119.005,384.080 118.607,384.080 117.811 C 384.080 117.015,383.881 116.617,383.483 116.617 C 383.085 116.617,382.886 116.219,382.886 115.423 C 382.886 114.627,382.687 114.229,382.289 114.229 C 381.891 114.229,381.692 113.831,381.692 113.035 C 381.692 112.378,381.512 111.841,381.294 111.841 C 381.075 111.841,380.896 111.387,380.896 110.833 C 380.896 110.279,380.627 109.723,380.299 109.597 C 379.970 109.471,379.701 108.933,379.701 108.403 C 379.701 107.872,379.433 107.335,379.104 107.209 C 378.776 107.083,378.507 106.545,378.507 106.015 C 378.507 105.484,378.239 104.947,377.910 104.821 C 377.582 104.695,377.313 104.182,377.313 103.682 C 377.313 103.181,377.045 102.669,376.716 102.543 C 376.388 102.417,376.119 101.860,376.119 101.306 C 376.119 100.676,375.896 100.299,375.522 100.299 C 375.124 100.299,374.925 99.900,374.925 99.104 C 374.925 98.308,374.726 97.910,374.328 97.910 C 374.000 97.910,373.731 97.642,373.731 97.313 C 373.731 96.985,373.463 96.716,373.134 96.716 C 372.736 96.716,372.537 96.318,372.537 95.522 C 372.537 94.726,372.338 94.328,371.940 94.328 C 371.542 94.328,371.343 93.930,371.343 93.134 C 371.343 92.338,371.144 91.940,370.746 91.940 C 370.418 91.940,370.149 91.672,370.149 91.343 C 370.149 91.015,369.881 90.746,369.552 90.746 C 369.179 90.746,368.955 90.369,368.955 89.739 C 368.955 89.185,368.687 88.628,368.358 88.502 C 368.030 88.376,367.761 88.024,367.761 87.719 C 367.761 87.414,367.504 87.164,367.191 87.164 C 366.864 87.164,366.566 86.696,366.494 86.070 C 366.423 85.454,366.150 85.019,365.871 85.075 C 365.597 85.129,365.373 84.816,365.373 84.378 C 365.373 83.936,365.108 83.582,364.776 83.582 C 364.405 83.582,364.179 83.206,364.179 82.587 C 364.179 81.968,363.954 81.592,363.582 81.592 C 363.254 81.592,362.985 81.323,362.985 80.995 C 362.985 80.667,362.716 80.398,362.388 80.398 C 362.060 80.398,361.791 80.129,361.791 79.801 C 361.791 79.473,361.626 79.204,361.425 79.204 C 361.223 79.204,360.940 78.667,360.796 78.010 C 360.652 77.353,360.369 76.816,360.167 76.816 C 359.966 76.816,359.801 76.547,359.801 76.219 C 359.801 75.891,359.532 75.622,359.204 75.622 C 358.876 75.622,358.607 75.353,358.607 75.025 C 358.607 74.697,358.338 74.428,358.010 74.428 C 357.682 74.428,357.413 74.159,357.413 73.831 C 357.413 73.502,357.144 73.234,356.816 73.234 C 356.488 73.234,356.219 72.888,356.219 72.466 C 356.219 72.044,355.950 71.430,355.622 71.102 C 355.294 70.773,355.025 70.313,355.025 70.078 C 355.025 69.844,354.756 69.652,354.428 69.652 C 354.100 69.652,353.831 69.383,353.831 69.055 C 353.831 68.726,353.562 68.458,353.234 68.458 C 352.905 68.458,352.637 68.189,352.637 67.861 C 352.637 67.532,352.368 67.264,352.040 67.264 C 351.711 67.264,351.443 66.995,351.443 66.667 C 351.443 66.338,351.174 66.070,350.846 66.070 C 350.517 66.070,350.249 65.801,350.249 65.473 C 350.249 65.144,349.980 64.876,349.652 64.876 C 349.323 64.876,349.055 64.607,349.055 64.279 C 349.055 63.950,348.786 63.682,348.458 63.682 C 348.086 63.682,347.861 63.306,347.861 62.687 C 347.861 62.067,347.635 61.692,347.264 61.692 C 346.935 61.692,346.667 61.423,346.667 61.095 C 346.667 60.766,346.398 60.498,346.070 60.498 C 345.741 60.498,345.473 60.229,345.473 59.900 C 345.473 59.572,345.204 59.303,344.876 59.303 C 344.547 59.303,344.279 59.035,344.279 58.706 C 344.279 58.378,344.010 58.109,343.682 58.109 C 343.353 58.109,343.085 57.841,343.085 57.512 C 343.085 57.184,342.816 56.915,342.488 56.915 C 342.159 56.915,341.891 56.647,341.891 56.318 C 341.891 55.990,341.622 55.721,341.294 55.721 C 340.965 55.721,340.697 55.548,340.697 55.337 C 340.697 54.631,337.895 52.139,337.101 52.139 C 336.671 52.139,336.318 51.871,336.318 51.542 C 336.318 51.214,336.050 50.945,335.721 50.945 C 335.393 50.945,335.124 50.677,335.124 50.348 C 335.124 50.020,334.856 49.751,334.527 49.751 C 334.199 49.751,333.930 49.483,333.930 49.154 C 333.930 48.826,333.662 48.557,333.333 48.557 C 333.005 48.557,332.736 48.289,332.736 47.960 C 332.736 47.632,332.468 47.363,332.139 47.363 C 331.811 47.363,331.542 47.095,331.542 46.766 C 331.542 46.438,331.274 46.169,330.945 46.169 C 330.617 46.169,330.348 45.900,330.348 45.572 C 330.348 45.244,330.099 44.975,329.794 44.975 C 329.489 44.975,329.136 44.706,329.010 44.378 C 328.884 44.050,328.328 43.781,327.774 43.781 C 327.143 43.781,326.766 43.558,326.766 43.184 C 326.766 42.856,326.498 42.587,326.169 42.587 C 325.841 42.587,325.572 42.318,325.572 41.990 C 325.572 41.662,325.303 41.393,324.975 41.393 C 324.647 41.393,324.378 41.214,324.378 40.995 C 324.378 40.776,324.109 40.597,323.781 40.597 C 323.453 40.597,323.184 40.328,323.184 40.000 C 323.184 39.629,322.808 39.403,322.189 39.403 C 321.570 39.403,321.194 39.177,321.194 38.806 C 321.194 38.478,320.925 38.209,320.597 38.209 C 320.269 38.209,320.000 37.940,320.000 37.612 C 320.000 37.214,319.602 37.015,318.806 37.015 C 318.010 37.015,317.612 36.816,317.612 36.418 C 317.612 36.090,317.343 35.821,317.015 35.821 C 316.687 35.821,316.418 35.552,316.418 35.224 C 316.418 34.896,316.149 34.627,315.821 34.627 C 315.493 34.627,315.224 34.358,315.224 34.030 C 315.224 33.632,314.826 33.433,314.030 33.433 C 313.234 33.433,312.836 33.234,312.836 32.836 C 312.836 32.507,312.567 32.239,312.239 32.239 C 311.910 32.239,311.642 31.970,311.642 31.642 C 311.642 31.244,311.244 31.045,310.448 31.045 C 309.652 31.045,309.254 30.846,309.254 30.448 C 309.254 30.119,308.985 29.851,308.657 29.851 C 308.328 29.851,308.060 29.582,308.060 29.254 C 308.060 28.856,307.662 28.657,306.866 28.657 C 306.070 28.657,305.672 28.458,305.672 28.060 C 305.672 27.725,305.316 27.463,304.862 27.463 C 304.417 27.463,303.528 26.925,302.886 26.269 C 302.244 25.612,301.373 25.075,300.952 25.075 C 300.530 25.075,300.082 24.806,299.956 24.478 C 299.830 24.149,299.288 23.881,298.752 23.881 C 298.216 23.881,297.709 23.673,297.624 23.420 C 297.540 23.166,297.036 22.892,296.506 22.811 C 295.975 22.730,295.394 22.400,295.214 22.078 C 295.033 21.756,294.447 21.493,293.911 21.493 C 293.374 21.493,292.935 21.313,292.935 21.095 C 292.935 20.876,292.590 20.697,292.168 20.697 C 291.746 20.697,291.131 20.428,290.803 20.100 C 290.475 19.771,289.746 19.502,289.183 19.502 C 288.538 19.502,288.159 19.281,288.159 18.905 C 288.159 18.507,287.761 18.308,286.965 18.308 C 286.169 18.308,285.771 18.109,285.771 17.711 C 285.771 17.347,285.400 17.114,284.819 17.114 C 284.295 17.114,283.763 16.846,283.637 16.517 C 283.511 16.189,282.974 15.920,282.443 15.920 C 281.912 15.920,281.375 15.652,281.249 15.323 C 281.098 14.929,280.475 14.726,279.415 14.726 C 278.255 14.726,277.811 14.561,277.811 14.129 C 277.811 13.731,277.413 13.532,276.617 13.532 C 275.821 13.532,275.423 13.333,275.423 12.935 C 275.423 12.493,274.959 12.338,273.632 12.338 C 272.305 12.338,271.841 12.184,271.841 11.741 C 271.841 11.299,271.376 11.144,270.050 11.144 C 268.723 11.144,268.259 10.989,268.259 10.547 C 268.259 10.119,267.821 9.950,266.709 9.950 C 265.699 9.950,265.080 9.742,264.931 9.353 C 264.781 8.963,264.161 8.756,263.140 8.756 C 262.118 8.756,261.498 8.550,261.349 8.159 C 261.199 7.769,260.579 7.562,259.558 7.562 C 258.536 7.562,257.916 7.356,257.767 6.965 C 257.602 6.536,256.930 6.368,255.378 6.368 C 253.827 6.368,253.155 6.200,252.990 5.771 C 252.825 5.340,252.150 5.174,250.560 5.174 C 248.868 5.174,248.358 5.036,248.358 4.577 C 248.358 4.120,247.854 3.980,246.212 3.980 C 244.671 3.980,244.001 3.812,243.836 3.383 C 243.663 2.932,242.933 2.786,240.842 2.786 C 239.048 2.786,238.020 2.619,237.917 2.309 C 237.813 1.998,236.391 1.775,233.805 1.665 C 231.630 1.573,229.744 1.329,229.613 1.123 C 229.171 0.424,181.383 -0.548,180.697 0.128 M198.674 110.746 C 198.404 114.085,198.007 120.040,197.793 123.980 C 197.578 127.920,197.225 132.572,197.009 134.318 C 196.794 136.063,196.619 138.840,196.622 140.487 C 196.625 142.135,196.363 146.617,196.041 150.448 C 195.173 160.764,194.670 168.326,194.201 178.109 C 193.802 186.435,193.086 191.492,192.266 191.765 C 192.060 191.834,191.370 192.730,190.732 193.756 C 183.381 205.580,198.684 218.704,208.058 208.616 C 212.172 204.189,212.229 196.735,208.184 192.129 C 206.856 190.617,206.430 187.842,205.784 176.517 C 205.256 167.252,204.623 158.006,203.957 149.851 C 203.636 145.910,203.375 141.574,203.378 140.215 C 203.381 138.855,203.204 135.989,202.985 133.846 C 202.766 131.704,202.411 126.905,202.195 123.184 C 201.980 119.463,201.598 113.764,201.346 110.521 C 200.762 103.001,201.101 102.468,203.390 107.317 C 205.350 111.468,207.751 116.578,209.444 120.199 C 210.109 121.622,210.809 123.055,210.999 123.383 C 211.190 123.711,211.517 124.377,211.727 124.862 C 212.110 125.744,213.816 129.418,216.356 134.826 C 217.102 136.413,218.319 139.010,219.062 140.597 C 220.472 143.608,222.665 148.280,225.368 154.030 C 226.243 155.891,227.812 159.204,228.856 161.393 C 229.899 163.582,231.490 166.940,232.391 168.856 C 233.292 170.771,234.729 173.816,235.583 175.622 C 236.438 177.428,237.803 180.338,238.618 182.090 C 239.433 183.841,240.771 186.706,241.592 188.458 C 242.413 190.209,243.756 193.075,244.576 194.826 C 245.396 196.577,247.052 200.070,248.255 202.587 C 250.543 207.374,252.662 211.882,254.988 216.915 C 255.746 218.557,256.535 220.212,256.741 220.592 C 256.946 220.972,257.122 221.688,257.132 222.184 C 257.145 222.866,257.273 222.739,257.658 221.661 C 258.174 220.218,259.529 217.941,263.086 212.537 C 264.166 210.896,265.238 209.194,265.467 208.756 C 265.695 208.318,266.236 207.423,266.668 206.766 C 267.100 206.109,267.579 205.310,267.732 204.990 C 267.885 204.670,268.748 203.327,269.650 202.005 C 270.552 200.683,271.413 199.333,271.563 199.005 C 271.842 198.394,272.588 197.190,273.151 196.440 C 273.487 195.993,277.444 189.698,281.268 183.530 C 282.541 181.476,283.851 179.381,284.179 178.874 C 284.507 178.366,285.818 176.285,287.091 174.249 C 288.364 172.213,290.558 168.756,291.967 166.567 C 293.376 164.378,294.651 162.318,294.800 161.990 C 294.949 161.662,295.665 160.522,296.391 159.458 C 297.843 157.330,297.990 156.596,297.155 155.653 C 289.777 147.325,300.405 135.433,308.589 142.859 C 313.602 147.406,310.490 158.010,304.142 158.010 C 302.375 158.010,302.193 158.538,301.711 165.082 C 301.465 168.424,301.180 171.379,301.079 171.649 C 300.978 171.919,300.725 174.378,300.517 177.114 C 300.308 179.851,299.947 183.970,299.715 186.269 C 299.482 188.567,299.019 193.403,298.686 197.015 C 298.352 200.627,297.902 205.284,297.685 207.363 C 297.469 209.443,297.121 213.114,296.912 215.522 C 296.703 217.930,296.365 221.512,296.159 223.483 C 295.954 225.453,295.582 229.483,295.334 232.438 C 295.086 235.393,294.628 240.408,294.317 243.582 C 293.030 256.710,292.528 261.902,292.173 265.762 C 291.968 268.001,291.686 270.016,291.548 270.240 C 291.380 270.511,281.941 270.647,263.268 270.647 L 235.239 270.647 234.976 269.600 C 234.832 269.024,234.812 266.413,234.933 263.798 C 235.053 261.184,235.042 259.154,234.908 259.287 C 234.775 259.421,234.567 261.987,234.447 264.989 L 234.229 270.448 200.442 270.550 C 175.809 270.624,166.508 270.530,166.113 270.202 C 165.726 269.881,165.549 268.492,165.492 265.324 L 165.412 260.896 165.194 265.672 L 164.975 270.448 137.512 270.558 C 122.408 270.618,109.660 270.573,109.183 270.458 C 108.217 270.224,108.366 271.105,107.266 259.104 C 106.915 255.274,106.446 250.348,106.224 248.159 C 105.442 240.446,104.631 231.795,104.301 227.662 C 104.118 225.363,103.761 221.512,103.509 219.104 C 102.817 212.501,101.109 194.639,100.103 183.483 C 99.757 179.652,99.220 174.100,98.909 171.144 C 98.599 168.189,98.240 164.259,98.112 162.410 C 97.851 158.643,97.526 158.010,95.858 158.010 C 90.989 158.010,87.213 150.295,89.624 145.274 C 92.499 139.285,101.018 138.938,104.146 144.682 C 105.838 147.788,105.168 153.728,102.915 155.598 C 101.867 156.468,102.845 158.592,107.390 165.318 C 107.961 166.164,108.614 167.175,108.841 167.567 C 110.965 171.229,111.685 172.338,111.940 172.338 C 112.104 172.338,112.239 172.527,112.239 172.757 C 112.239 172.988,113.014 174.376,113.961 175.842 C 114.908 177.308,116.386 179.635,117.245 181.014 C 118.103 182.392,119.117 184.004,119.497 184.596 C 119.876 185.188,120.365 186.030,120.583 186.468 C 120.800 186.905,122.370 189.430,124.071 192.078 C 127.472 197.373,127.391 197.244,129.830 201.147 C 130.772 202.654,131.811 204.298,132.139 204.799 C 132.468 205.301,133.811 207.436,135.124 209.543 C 136.438 211.650,137.781 213.794,138.109 214.307 C 140.982 218.792,142.493 221.430,142.519 222.004 C 142.544 222.546,142.592 222.564,142.754 222.090 C 143.045 221.234,143.934 219.266,146.082 214.726 C 147.118 212.537,148.721 209.134,149.645 207.164 C 154.716 196.349,157.103 191.286,159.402 186.468 C 161.174 182.754,164.215 176.287,165.578 173.333 C 167.210 169.797,170.228 163.370,171.746 160.199 C 174.113 155.252,177.381 148.341,178.897 145.075 C 179.709 143.323,181.055 140.458,181.887 138.706 C 183.638 135.019,186.320 129.334,188.457 124.776 C 190.623 120.158,192.863 115.436,195.263 110.429 C 196.423 108.011,197.566 105.519,197.805 104.891 C 198.846 102.152,199.184 104.429,198.674 110.746 M256.420 223.781 C 255.586 224.832,253.883 227.738,254.223 227.528 C 254.602 227.294,257.176 223.284,256.948 223.284 C 256.874 223.284,256.636 223.507,256.420 223.781 M146.108 228.235 C 146.568 229.014,147.021 229.652,147.114 229.652 C 147.397 229.652,146.105 227.333,145.674 227.066 C 145.453 226.930,145.648 227.455,146.108 228.235 M148.099 231.420 C 148.559 232.200,149.097 232.938,149.294 233.060 C 149.492 233.182,149.277 232.643,148.816 231.863 C 148.356 231.083,147.818 230.345,147.621 230.224 C 147.424 230.102,147.639 230.640,148.099 231.420 M250.595 232.935 C 248.674 235.965,246.775 239.313,247.265 238.806 C 247.955 238.092,251.604 232.040,251.344 232.040 C 251.244 232.040,250.907 232.443,250.595 232.935 M152.475 238.423 C 152.823 238.962,153.869 240.612,154.799 242.090 C 155.729 243.567,156.583 244.776,156.698 244.776 C 156.813 244.776,156.584 244.284,156.189 243.682 C 155.794 243.080,154.855 241.553,154.102 240.290 C 153.349 239.027,152.532 237.870,152.287 237.719 C 152.042 237.567,152.126 237.885,152.475 238.423 M243.834 243.682 C 241.848 246.845,241.207 247.960,241.376 247.960 C 241.533 247.960,243.196 245.490,244.524 243.284 C 245.063 242.387,244.411 242.763,243.834 243.682 M239.335 250.883 C 237.022 254.426,235.094 257.913,235.323 258.142 C 235.430 258.249,235.837 257.659,236.227 256.830 C 236.617 256.001,237.625 254.281,238.468 253.007 C 239.311 251.732,240.000 250.582,240.000 250.451 C 240.000 250.319,240.297 249.883,240.661 249.482 C 241.024 249.080,241.241 248.670,241.142 248.571 C 241.042 248.472,240.229 249.512,239.335 250.883 M160.412 251.106 C 161.096 252.217,161.828 253.233,162.039 253.364 C 162.250 253.494,161.863 252.692,161.180 251.580 C 160.496 250.469,159.764 249.453,159.553 249.323 C 159.342 249.192,159.729 249.995,160.412 251.106 M164.868 259.502 C 164.868 260.269,164.950 260.582,165.050 260.199 C 165.151 259.816,165.151 259.189,165.050 258.806 C 164.950 258.423,164.868 258.736,164.868 259.502 M164.739 283.139 C 165.049 283.512,165.161 285.480,165.086 289.209 L 164.975 294.726 137.910 294.726 L 110.846 294.726 110.378 291.343 C 109.759 286.861,109.740 283.654,110.328 283.065 C 111.085 282.308,164.110 282.381,164.739 283.139 M233.993 283.139 C 234.302 283.512,234.415 285.480,234.340 289.209 L 234.229 294.726 200.000 294.726 L 165.771 294.726 165.661 289.293 C 165.568 284.744,165.654 283.756,166.187 283.223 C 167.087 282.323,233.247 282.241,233.993 283.139 M289.908 283.217 C 290.286 284.201,290.136 288.461,289.609 291.741 L 289.129 294.726 262.077 294.726 L 235.025 294.726 234.914 289.448 C 234.847 286.257,234.970 283.857,235.226 283.379 C 235.818 282.273,289.485 282.114,289.908 283.217 " stroke="none" fill="#f37314" fill-rule="evenodd"></path><path id="path1" d="M197.805 104.891 C 197.566 105.519,196.423 108.011,195.263 110.429 C 192.863 115.436,190.623 120.158,188.457 124.776 C 186.320 129.334,183.638 135.019,181.887 138.706 C 181.055 140.458,179.709 143.323,178.897 145.075 C 177.381 148.341,174.113 155.252,171.746 160.199 C 170.228 163.370,167.210 169.797,165.578 173.333 C 164.215 176.287,161.174 182.754,159.402 186.468 C 157.101 191.291,154.536 196.731,149.692 207.065 C 147.542 211.651,144.999 217.035,143.828 219.477 C 142.511 222.223,142.391 221.852,146.866 228.858 C 147.413 229.715,148.894 232.080,150.158 234.113 C 151.421 236.147,153.614 239.602,155.030 241.791 C 156.446 243.980,157.727 246.040,157.875 246.368 C 158.024 246.697,159.080 248.398,160.223 250.149 C 165.066 257.574,165.261 258.097,165.484 264.311 C 165.615 267.959,165.849 269.983,166.169 270.248 C 166.490 270.515,178.080 270.617,200.442 270.550 L 234.229 270.448 234.484 265.075 C 234.822 257.946,234.861 257.837,239.971 249.881 C 241.191 247.981,242.726 245.564,243.383 244.508 C 244.040 243.452,244.935 242.026,245.373 241.338 C 245.811 240.651,247.040 238.680,248.105 236.959 C 250.251 233.491,252.855 229.375,255.423 225.392 C 257.152 222.710,257.399 221.809,256.741 220.592 C 256.535 220.212,255.746 218.557,254.988 216.915 C 252.662 211.882,250.543 207.374,248.255 202.587 C 247.052 200.070,245.396 196.577,244.576 194.826 C 243.756 193.075,242.413 190.209,241.592 188.458 C 240.771 186.706,239.433 183.841,238.618 182.090 C 237.803 180.338,236.438 177.428,235.583 175.622 C 234.729 173.816,233.292 170.771,232.391 168.856 C 231.490 166.940,229.899 163.582,228.856 161.393 C 227.812 159.204,226.243 155.891,225.368 154.030 C 222.665 148.280,220.472 143.608,219.062 140.597 C 218.319 139.010,217.102 136.413,216.356 134.826 C 213.816 129.418,212.110 125.744,211.727 124.862 C 211.517 124.377,211.190 123.711,210.999 123.383 C 210.809 123.055,210.109 121.622,209.444 120.199 C 207.751 116.578,205.350 111.468,203.390 107.317 C 201.101 102.468,200.762 103.001,201.346 110.521 C 201.598 113.764,201.980 119.463,202.195 123.184 C 202.411 126.905,202.766 131.704,202.985 133.846 C 203.204 135.989,203.381 138.855,203.378 140.215 C 203.375 141.574,203.636 145.910,203.957 149.851 C 204.623 158.006,205.256 167.252,205.784 176.517 C 206.430 187.842,206.856 190.617,208.184 192.129 C 212.229 196.735,212.172 204.189,208.058 208.616 C 200.362 216.899,186.509 209.080,189.056 197.890 C 189.551 195.715,191.485 192.026,192.266 191.765 C 193.086 191.492,193.802 186.435,194.201 178.109 C 194.670 168.326,195.173 160.764,196.041 150.448 C 196.363 146.617,196.625 142.135,196.622 140.487 C 196.619 138.840,196.794 136.063,197.009 134.318 C 197.225 132.572,197.578 127.920,197.793 123.980 C 198.007 120.040,198.404 114.085,198.674 110.746 C 199.184 104.429,198.846 102.152,197.805 104.891 M166.187 283.223 C 165.654 283.756,165.568 284.744,165.661 289.293 L 165.771 294.726 200.000 294.726 L 234.229 294.726 234.340 289.209 C 234.415 285.480,234.302 283.512,233.993 283.139 C 233.247 282.241,167.087 282.323,166.187 283.223 " stroke="none" fill="#1d1414" fill-rule="evenodd"></path><path id="path2" d="M93.584 141.292 C 86.404 145.300,88.133 158.010,95.858 158.010 C 97.526 158.010,97.851 158.643,98.112 162.410 C 98.240 164.259,98.599 168.189,98.909 171.144 C 99.220 174.100,99.757 179.652,100.103 183.483 C 101.109 194.639,102.817 212.501,103.509 219.104 C 103.761 221.512,104.118 225.363,104.301 227.662 C 104.631 231.795,105.442 240.446,106.224 248.159 C 106.446 250.348,106.915 255.274,107.266 259.104 C 108.366 271.105,108.217 270.224,109.183 270.458 C 109.660 270.573,122.408 270.618,137.512 270.558 L 164.975 270.448 164.963 264.677 C 164.950 258.604,164.783 257.909,162.461 254.274 C 162.093 253.696,160.827 251.662,159.648 249.752 C 156.135 244.060,151.680 237.049,151.249 236.534 C 151.027 236.270,150.846 235.947,150.846 235.817 C 150.846 235.686,149.892 234.112,148.726 232.317 C 147.560 230.523,146.119 228.249,145.525 227.264 C 144.930 226.279,144.227 225.114,143.963 224.677 C 143.699 224.239,143.362 223.789,143.216 223.678 C 143.069 223.566,142.815 222.940,142.651 222.287 C 142.398 221.281,140.983 218.794,138.109 214.307 C 137.781 213.794,136.438 211.650,135.124 209.543 C 133.811 207.436,132.468 205.301,132.139 204.799 C 131.811 204.298,130.772 202.654,129.830 201.147 C 127.391 197.244,127.472 197.373,124.071 192.078 C 122.370 189.430,120.800 186.905,120.583 186.468 C 120.365 186.030,119.876 185.188,119.497 184.596 C 119.117 184.004,118.103 182.392,117.245 181.014 C 116.386 179.635,114.908 177.308,113.961 175.842 C 113.014 174.376,112.239 172.988,112.239 172.757 C 112.239 172.527,112.104 172.338,111.940 172.338 C 111.685 172.338,110.965 171.229,108.841 167.567 C 108.614 167.175,107.961 166.164,107.390 165.318 C 102.845 158.592,101.867 156.468,102.915 155.598 C 109.738 149.935,101.294 136.988,93.584 141.292 M298.701 141.836 C 294.220 144.859,293.477 151.501,297.155 155.653 C 297.990 156.596,297.843 157.330,296.391 159.458 C 295.665 160.522,294.949 161.662,294.800 161.990 C 294.651 162.318,293.376 164.378,291.967 166.567 C 290.558 168.756,288.364 172.213,287.091 174.249 C 285.818 176.285,284.507 178.366,284.179 178.874 C 283.851 179.381,282.541 181.476,281.268 183.530 C 277.444 189.698,273.487 195.993,273.151 196.440 C 272.588 197.190,271.842 198.394,271.563 199.005 C 271.413 199.333,270.552 200.683,269.650 202.005 C 268.748 203.327,267.885 204.670,267.732 204.990 C 267.579 205.310,267.100 206.109,266.668 206.766 C 266.236 207.423,265.695 208.318,265.467 208.756 C 265.238 209.194,264.162 210.896,263.077 212.537 C 259.881 217.370,257.512 221.432,257.512 222.081 C 257.511 222.590,256.300 224.652,253.629 228.696 C 253.354 229.112,253.005 229.721,252.853 230.050 C 252.702 230.378,252.417 230.826,252.220 231.045 C 252.024 231.264,250.850 233.086,249.613 235.095 C 247.316 238.823,242.346 246.754,241.099 248.682 C 240.718 249.270,240.281 250.013,240.128 250.334 C 239.975 250.654,239.200 251.908,238.407 253.120 C 235.448 257.638,235.188 258.430,234.940 263.688 C 234.814 266.357,234.829 269.014,234.975 269.594 L 235.239 270.647 263.268 270.647 C 281.941 270.647,291.380 270.511,291.548 270.240 C 291.686 270.016,291.968 268.001,292.173 265.762 C 292.528 261.902,293.030 256.710,294.317 243.582 C 294.628 240.408,295.086 235.393,295.334 232.438 C 295.582 229.483,295.954 225.453,296.159 223.483 C 296.365 221.512,296.703 217.930,296.912 215.522 C 297.121 213.114,297.469 209.443,297.685 207.363 C 297.902 205.284,298.352 200.627,298.686 197.015 C 299.019 193.403,299.482 188.567,299.715 186.269 C 299.947 183.970,300.308 179.851,300.517 177.114 C 300.725 174.378,300.978 171.919,301.079 171.649 C 301.180 171.379,301.465 168.424,301.711 165.082 C 302.193 158.538,302.375 158.010,304.142 158.010 C 306.245 158.010,309.272 155.597,310.480 152.957 C 314.019 145.222,305.545 137.220,298.701 141.836 M110.328 283.065 C 109.740 283.654,109.759 286.861,110.378 291.343 L 110.846 294.726 137.910 294.726 L 164.975 294.726 165.086 289.209 C 165.161 285.480,165.049 283.512,164.739 283.139 C 164.110 282.381,111.085 282.308,110.328 283.065 M235.226 283.379 C 234.970 283.857,234.847 286.257,234.914 289.448 L 235.025 294.726 262.077 294.726 L 289.129 294.726 289.609 291.741 C 290.136 288.461,290.286 284.201,289.908 283.217 C 289.485 282.114,235.818 282.273,235.226 283.379 " stroke="none" fill="#f3f3f2" fill-rule="evenodd"></path></g></svg>