<svg id="svg" version="1.1" xmlns="http://www.w3.org/2000/svg" xmlns:xlink="http://www.w3.org/1999/xlink" width="400" height="396.50145772594755" viewBox="0, 0, 400,396.50145772594755"><g id="svgg"><path id="path0" d="M198.181 104.650 C 197.776 105.257,197.144 106.379,196.777 107.143 C 194.340 112.217,191.567 118.066,190.475 120.437 C 188.875 123.909,185.219 131.677,180.856 140.873 C 179.666 143.383,178.382 146.151,178.003 147.024 C 177.625 147.897,177.151 148.879,176.950 149.206 C 176.750 149.534,176.396 150.248,176.165 150.794 C 175.783 151.692,174.767 153.856,171.412 160.913 C 167.882 168.338,166.667 171.023,166.667 171.402 C 166.667 171.635,166.488 171.825,166.270 171.825 C 166.052 171.825,165.873 172.034,165.873 172.290 C 165.873 172.546,165.354 173.840,164.720 175.167 C 162.199 180.442,159.354 186.460,158.046 189.286 C 157.288 190.923,156.038 193.601,155.269 195.238 C 151.022 204.270,150.176 206.062,148.623 209.325 C 142.745 221.677,142.908 221.073,144.725 223.810 C 145.377 224.792,146.250 226.220,146.665 226.984 C 147.081 227.748,147.525 228.462,147.653 228.571 C 147.781 228.681,148.406 229.634,149.042 230.690 C 149.678 231.746,150.466 233.020,150.794 233.522 C 151.121 234.024,152.362 236.017,153.552 237.951 C 154.742 239.886,155.948 241.704,156.231 241.993 C 156.514 242.281,156.746 242.772,156.746 243.084 C 156.746 243.396,156.882 243.651,157.049 243.651 C 157.215 243.651,157.528 244.002,157.743 244.431 C 158.126 245.193,161.022 249.867,162.395 251.938 C 162.774 252.509,163.264 253.333,163.485 253.770 C 163.706 254.206,164.038 254.831,164.223 255.159 C 164.408 255.486,164.810 256.200,165.117 256.746 C 165.497 257.422,165.738 259.637,165.873 263.690 L 166.071 269.643 200.099 269.744 L 234.127 269.846 234.127 265.133 C 234.127 260.215,234.756 257.219,236.361 254.493 C 237.101 253.237,240.054 248.518,241.365 246.500 C 241.744 245.915,242.182 245.169,242.337 244.841 C 242.492 244.514,242.778 244.067,242.973 243.849 C 243.168 243.631,244.105 242.202,245.057 240.675 C 251.878 229.722,253.443 227.220,253.968 226.423 C 257.124 221.637,257.337 220.810,256.024 218.425 C 255.792 218.004,255.066 216.498,254.411 215.079 C 253.219 212.498,249.347 204.282,247.212 199.802 C 246.588 198.492,245.371 195.903,244.507 194.048 C 243.644 192.192,242.093 188.889,241.062 186.706 C 240.031 184.524,238.562 181.399,237.797 179.762 C 237.033 178.125,235.427 174.732,234.230 172.222 C 233.032 169.712,231.343 166.141,230.477 164.286 C 229.610 162.431,228.312 159.663,227.592 158.135 C 226.872 156.607,225.703 154.107,224.995 152.579 C 224.286 151.052,222.771 147.837,221.628 145.437 C 220.485 143.036,218.922 139.732,218.154 138.095 C 214.794 130.933,211.333 123.592,208.516 117.659 C 204.501 109.200,202.778 105.438,202.778 105.132 C 202.778 104.944,202.410 104.593,201.961 104.353 C 201.058 103.870,201.063 104.924,202.020 117.857 C 202.222 120.585,202.567 126.032,202.787 129.960 C 203.006 133.889,203.362 138.621,203.576 140.476 C 203.791 142.331,203.962 145.010,203.958 146.429 C 203.953 147.847,204.218 152.490,204.546 156.746 C 205.411 167.988,206.292 180.507,206.568 185.481 C 206.804 189.743,206.831 189.841,208.285 191.632 C 214.711 199.551,209.847 211.500,200.198 211.500 C 190.331 211.500,185.475 199.490,192.101 191.472 C 193.638 189.612,193.651 189.567,193.654 186.167 C 193.656 184.281,193.844 181.131,194.071 179.167 C 194.299 177.202,194.645 172.649,194.840 169.048 C 195.247 161.555,195.867 152.450,196.464 145.203 C 196.690 142.455,197.028 137.366,197.214 133.893 C 197.531 127.967,197.785 124.262,198.864 109.803 C 199.340 103.421,199.284 102.996,198.181 104.650 M0.489 221.429 C 0.489 222.192,0.571 222.505,0.670 222.123 C 0.770 221.741,0.770 221.116,0.670 220.734 C 0.571 220.352,0.489 220.665,0.489 221.429 M166.488 282.378 C 165.954 282.912,165.869 283.889,165.961 288.432 L 166.071 293.849 200.110 293.951 L 234.148 294.052 234.038 287.998 L 233.929 281.944 200.527 281.843 C 170.311 281.751,167.064 281.802,166.488 282.378 " stroke="none" fill="#1c1414" fill-rule="evenodd"></path><path id="path1" d="M180.142 0.149 C 180.027 0.264,177.811 0.459,175.217 0.583 C 172.622 0.707,170.305 0.970,170.067 1.168 C 169.829 1.365,168.143 1.578,166.321 1.640 C 164.065 1.717,162.944 1.916,162.810 2.265 C 162.678 2.609,161.789 2.778,160.105 2.778 C 158.515 2.778,157.398 2.976,157.055 3.319 C 156.757 3.617,155.391 3.942,154.019 4.041 C 152.647 4.141,151.401 4.422,151.249 4.667 C 151.098 4.911,150.048 5.154,148.915 5.205 C 147.647 5.263,146.779 5.501,146.655 5.824 C 146.534 6.140,145.812 6.349,144.841 6.349 C 143.774 6.349,143.152 6.550,143.001 6.944 C 142.837 7.372,142.168 7.540,140.632 7.540 C 138.994 7.540,138.492 7.679,138.492 8.135 C 138.492 8.564,138.053 8.730,136.924 8.730 C 135.970 8.730,135.231 8.954,135.036 9.304 C 134.852 9.633,133.999 9.919,133.032 9.977 C 131.964 10.040,131.349 10.265,131.349 10.593 C 131.349 10.904,130.873 11.111,130.159 11.111 C 129.365 11.111,128.968 11.310,128.968 11.706 C 128.968 12.147,128.505 12.302,127.183 12.302 C 125.860 12.302,125.397 12.456,125.397 12.897 C 125.397 13.310,124.981 13.492,124.036 13.492 C 123.288 13.492,122.408 13.760,122.080 14.087 C 121.753 14.415,121.026 14.683,120.465 14.683 C 119.860 14.683,119.485 14.885,119.544 15.179 C 119.600 15.460,119.160 15.730,118.528 15.802 C 117.915 15.873,117.316 16.185,117.196 16.497 C 117.076 16.809,116.570 17.063,116.071 17.063 C 115.572 17.063,115.061 17.331,114.936 17.659 C 114.785 18.052,114.164 18.254,113.108 18.254 C 111.950 18.254,111.508 18.419,111.508 18.849 C 111.508 19.222,111.132 19.444,110.503 19.444 C 109.951 19.444,109.396 19.712,109.270 20.040 C 109.145 20.367,108.641 20.635,108.150 20.635 C 107.660 20.635,106.777 21.081,106.188 21.627 C 105.600 22.173,104.681 22.619,104.146 22.619 C 103.547 22.619,103.175 22.847,103.175 23.214 C 103.175 23.587,102.798 23.810,102.170 23.810 C 101.618 23.810,101.063 24.077,100.937 24.405 C 100.812 24.732,100.383 25.000,99.986 25.000 C 99.588 25.000,99.019 25.244,98.720 25.543 C 98.422 25.841,97.784 26.211,97.303 26.363 C 96.822 26.516,96.429 26.807,96.429 27.011 C 96.429 27.214,96.161 27.381,95.833 27.381 C 95.506 27.381,95.238 27.649,95.238 27.976 C 95.238 28.373,94.841 28.571,94.048 28.571 C 93.254 28.571,92.857 28.770,92.857 29.167 C 92.857 29.494,92.589 29.762,92.262 29.762 C 91.935 29.762,91.667 30.030,91.667 30.357 C 91.667 30.754,91.270 30.952,90.476 30.952 C 89.683 30.952,89.286 31.151,89.286 31.548 C 89.286 31.920,88.910 32.143,88.281 32.143 C 87.729 32.143,87.174 32.411,87.048 32.738 C 86.923 33.065,86.571 33.333,86.267 33.333 C 85.963 33.333,85.714 33.601,85.714 33.929 C 85.714 34.256,85.446 34.524,85.119 34.524 C 84.792 34.524,84.524 34.792,84.524 35.119 C 84.524 35.491,84.148 35.714,83.519 35.714 C 82.967 35.714,82.412 35.982,82.286 36.310 C 82.161 36.637,81.809 36.905,81.505 36.905 C 81.201 36.905,80.952 37.173,80.952 37.500 C 80.952 37.870,80.578 38.095,79.960 38.095 C 79.343 38.095,78.968 38.320,78.968 38.690 C 78.968 39.018,78.751 39.286,78.485 39.286 C 78.219 39.286,77.639 39.687,77.195 40.179 C 76.752 40.670,75.699 41.423,74.855 41.853 C 74.011 42.283,73.233 42.863,73.126 43.143 C 73.019 43.422,72.682 43.651,72.378 43.651 C 72.074 43.651,71.825 43.829,71.825 44.048 C 71.825 44.562,70.356 46.032,69.841 46.032 C 69.623 46.032,69.444 46.300,69.444 46.627 C 69.444 46.954,69.107 47.222,68.695 47.222 C 68.283 47.222,67.131 48.026,66.135 49.008 C 65.138 49.990,64.136 50.794,63.908 50.794 C 63.679 50.794,63.492 51.062,63.492 51.389 C 63.492 51.716,63.224 51.984,62.897 51.984 C 62.569 51.984,62.302 52.157,62.302 52.368 C 62.302 52.867,59.613 55.556,59.114 55.556 C 58.903 55.556,58.730 55.758,58.730 56.006 C 58.730 56.254,58.284 56.870,57.738 57.376 C 57.192 57.882,56.746 58.483,56.746 58.711 C 56.746 58.940,56.571 59.127,56.358 59.127 C 56.144 59.127,55.003 60.109,53.821 61.310 C 52.640 62.510,51.475 63.492,51.233 63.492 C 50.992 63.492,50.794 63.849,50.794 64.286 C 50.794 64.722,50.635 65.035,50.440 64.980 C 49.900 64.829,48.413 66.693,48.413 67.521 C 48.413 67.924,48.145 68.254,47.817 68.254 C 47.490 68.254,47.222 68.522,47.222 68.849 C 47.222 69.177,46.954 69.444,46.627 69.444 C 46.300 69.444,46.032 69.712,46.032 70.040 C 46.032 70.367,45.764 70.635,45.437 70.635 C 45.109 70.635,44.841 70.903,44.841 71.230 C 44.841 71.558,44.613 71.825,44.335 71.825 C 44.057 71.825,43.476 72.627,43.045 73.607 C 42.614 74.587,42.039 75.391,41.766 75.393 C 41.493 75.395,41.270 75.665,41.270 75.992 C 41.270 76.319,41.002 76.587,40.675 76.587 C 40.347 76.587,40.079 76.855,40.079 77.183 C 40.079 77.510,39.901 77.778,39.683 77.778 C 39.464 77.778,39.286 78.124,39.286 78.548 C 39.286 78.972,38.482 80.134,37.500 81.130 C 36.518 82.126,35.714 83.297,35.714 83.732 C 35.714 84.171,35.449 84.524,35.119 84.524 C 34.792 84.524,34.524 84.792,34.524 85.119 C 34.524 85.446,34.256 85.714,33.929 85.714 C 33.532 85.714,33.333 86.111,33.333 86.905 C 33.333 87.698,33.135 88.095,32.738 88.095 C 32.411 88.095,32.143 88.344,32.143 88.648 C 32.143 88.952,31.875 89.304,31.548 89.429 C 31.220 89.555,30.952 90.110,30.952 90.662 C 30.952 91.291,30.729 91.667,30.357 91.667 C 30.030 91.667,29.762 91.858,29.762 92.092 C 29.762 92.326,29.494 92.785,29.167 93.112 C 28.839 93.440,28.571 94.052,28.571 94.473 C 28.571 94.894,28.304 95.238,27.976 95.238 C 27.579 95.238,27.381 95.635,27.381 96.429 C 27.381 97.222,27.183 97.619,26.786 97.619 C 26.458 97.619,26.190 97.887,26.190 98.214 C 26.190 98.542,26.026 98.810,25.825 98.810 C 25.624 98.810,25.342 99.345,25.198 100.000 C 25.055 100.655,24.776 101.190,24.579 101.190 C 24.382 101.190,24.113 101.624,23.980 102.154 C 23.847 102.684,23.486 103.214,23.178 103.332 C 22.871 103.450,22.619 103.999,22.619 104.551 C 22.619 105.104,22.444 105.556,22.230 105.556 C 22.016 105.556,21.718 106.045,21.568 106.643 C 21.418 107.241,21.057 107.968,20.766 108.259 C 20.476 108.549,20.238 109.131,20.238 109.552 C 20.238 109.973,20.060 110.317,19.841 110.317 C 19.623 110.317,19.444 110.853,19.444 111.508 C 19.444 112.302,19.246 112.698,18.849 112.698 C 18.452 112.698,18.254 113.095,18.254 113.889 C 18.254 114.683,18.056 115.079,17.659 115.079 C 17.262 115.079,17.063 115.476,17.063 116.270 C 17.063 117.063,16.865 117.460,16.468 117.460 C 16.038 117.460,15.873 117.901,15.873 119.048 C 15.873 120.194,15.708 120.635,15.278 120.635 C 14.881 120.635,14.683 121.032,14.683 121.825 C 14.683 122.619,14.484 123.016,14.087 123.016 C 13.696 123.016,13.492 123.407,13.492 124.158 C 13.492 124.786,13.224 125.522,12.897 125.794 C 12.569 126.065,12.302 126.872,12.302 127.585 C 12.302 128.373,12.068 128.973,11.706 129.112 C 11.317 129.261,11.111 129.879,11.111 130.897 C 11.111 131.916,10.905 132.534,10.516 132.683 C 10.123 132.834,9.921 133.455,9.921 134.511 C 9.921 135.669,9.756 136.111,9.325 136.111 C 8.887 136.111,8.730 136.569,8.730 137.854 C 8.730 139.038,8.539 139.671,8.135 139.826 C 7.715 139.987,7.540 140.642,7.540 142.051 C 7.540 143.561,7.395 144.048,6.944 144.048 C 6.506 144.048,6.349 144.506,6.349 145.791 C 6.349 146.974,6.158 147.607,5.754 147.763 C 5.331 147.925,5.155 148.599,5.146 150.087 C 5.139 151.297,4.887 152.508,4.551 152.953 C 4.206 153.408,3.968 154.595,3.968 155.858 C 3.968 157.227,3.755 158.207,3.373 158.588 C 2.957 159.004,2.778 160.021,2.778 161.961 C 2.778 163.901,2.598 164.919,2.183 165.334 C 1.756 165.761,1.587 166.800,1.587 168.997 C 1.587 170.683,1.418 172.233,1.212 172.440 C -0.116 173.773,-0.130 222.897,1.197 223.347 C 1.416 223.421,1.587 225.111,1.587 227.187 C 1.587 229.955,1.738 231.047,2.183 231.491 C 2.598 231.907,2.778 232.924,2.778 234.864 C 2.778 236.804,2.957 237.821,3.373 238.237 C 3.760 238.624,3.968 239.607,3.968 241.043 C 3.968 242.744,4.106 243.254,4.563 243.254 C 5.080 243.254,5.499 246.713,5.202 248.523 C 5.174 248.693,5.421 248.935,5.750 249.061 C 6.159 249.218,6.349 249.846,6.349 251.035 C 6.349 252.320,6.506 252.778,6.944 252.778 C 7.401 252.778,7.540 253.285,7.540 254.960 C 7.540 256.636,7.678 257.143,8.135 257.143 C 8.566 257.143,8.730 257.585,8.730 258.743 C 8.730 259.799,8.933 260.420,9.325 260.571 C 9.730 260.726,9.921 261.359,9.921 262.542 C 9.921 263.827,10.077 264.286,10.516 264.286 C 10.947 264.286,11.111 264.728,11.111 265.885 C 11.111 266.941,11.313 267.563,11.706 267.714 C 12.046 267.844,12.302 268.436,12.302 269.090 C 12.302 269.846,12.505 270.238,12.897 270.238 C 13.327 270.238,13.492 270.680,13.492 271.838 C 13.492 272.894,13.694 273.515,14.087 273.666 C 14.415 273.792,14.683 274.327,14.683 274.856 C 14.683 275.386,14.950 275.921,15.278 276.047 C 15.666 276.196,15.873 276.813,15.873 277.820 C 15.873 278.929,16.041 279.365,16.468 279.365 C 16.865 279.365,17.063 279.762,17.063 280.556 C 17.063 281.349,17.262 281.746,17.659 281.746 C 18.056 281.746,18.254 282.143,18.254 282.937 C 18.254 283.730,18.452 284.127,18.849 284.127 C 19.242 284.127,19.444 284.520,19.444 285.284 C 19.444 285.921,19.618 286.501,19.830 286.574 C 20.042 286.647,20.281 287.143,20.362 287.677 C 20.443 288.212,20.716 288.718,20.969 288.802 C 21.222 288.886,21.429 289.392,21.429 289.926 C 21.429 290.461,21.696 291.001,22.024 291.126 C 22.351 291.252,22.619 291.788,22.619 292.317 C 22.619 292.846,22.871 293.375,23.178 293.494 C 23.486 293.612,23.847 294.142,23.980 294.672 C 24.113 295.201,24.397 295.635,24.611 295.635 C 24.825 295.635,25.000 295.908,25.000 296.243 C 25.000 296.577,25.268 296.953,25.595 297.079 C 25.923 297.204,26.190 297.734,26.190 298.257 C 26.190 298.836,26.422 299.206,26.786 299.206 C 27.183 299.206,27.381 299.603,27.381 300.397 C 27.381 301.190,27.579 301.587,27.976 301.587 C 28.304 301.587,28.571 301.855,28.571 302.183 C 28.571 302.510,28.839 302.778,29.167 302.778 C 29.563 302.778,29.762 303.175,29.762 303.968 C 29.762 304.762,29.960 305.159,30.357 305.159 C 30.729 305.159,30.952 305.535,30.952 306.163 C 30.952 306.716,31.220 307.271,31.548 307.396 C 31.875 307.522,32.143 307.873,32.143 308.177 C 32.143 308.481,32.411 308.730,32.738 308.730 C 33.110 308.730,33.333 309.106,33.333 309.735 C 33.333 310.287,33.601 310.842,33.929 310.968 C 34.256 311.093,34.524 311.445,34.524 311.749 C 34.524 312.053,34.792 312.302,35.119 312.302 C 35.453 312.302,35.714 312.656,35.714 313.109 C 35.714 313.552,36.250 314.439,36.905 315.079 C 37.560 315.719,38.095 316.428,38.095 316.653 C 38.095 316.879,38.262 317.063,38.465 317.063 C 38.669 317.063,38.958 317.449,39.107 317.919 C 39.256 318.390,39.804 319.169,40.324 319.651 C 40.844 320.133,41.270 320.730,41.270 320.978 C 41.270 321.226,41.538 321.429,41.865 321.429 C 42.192 321.429,42.460 321.696,42.460 322.024 C 42.460 322.351,42.728 322.619,43.056 322.619 C 43.383 322.619,43.673 322.887,43.700 323.214 C 43.728 323.542,43.772 323.971,43.800 324.168 C 43.827 324.365,44.340 324.982,44.940 325.538 C 45.541 326.094,46.032 326.737,46.032 326.965 C 46.032 327.194,46.300 327.381,46.627 327.381 C 46.954 327.381,47.222 327.649,47.222 327.976 C 47.222 328.304,47.490 328.571,47.817 328.571 C 48.145 328.571,48.413 328.839,48.413 329.167 C 48.413 329.494,48.681 329.762,49.008 329.762 C 49.335 329.762,49.603 330.097,49.603 330.508 C 49.603 331.273,54.710 336.786,55.254 336.607 C 55.420 336.553,55.556 336.776,55.556 337.103 C 55.556 337.431,55.823 337.698,56.151 337.698 C 56.478 337.698,56.746 337.966,56.746 338.294 C 56.746 338.621,57.014 338.889,57.341 338.889 C 57.669 338.889,57.937 339.088,57.937 339.332 C 57.937 339.576,58.651 340.469,59.524 341.316 C 60.397 342.163,61.111 343.035,61.111 343.254 C 61.111 343.472,61.468 343.651,61.905 343.651 C 62.341 343.651,62.654 343.791,62.599 343.962 C 62.410 344.557,65.363 347.222,66.211 347.222 C 66.704 347.222,67.063 347.473,67.063 347.817 C 67.063 348.145,67.331 348.413,67.659 348.413 C 67.986 348.413,68.254 348.681,68.254 349.008 C 68.254 349.335,68.522 349.603,68.849 349.603 C 69.177 349.603,69.444 349.871,69.444 350.198 C 69.444 350.526,69.712 350.794,70.040 350.794 C 70.367 350.794,70.635 351.062,70.635 351.389 C 70.635 351.716,70.826 351.984,71.060 351.984 C 71.294 351.984,71.753 352.252,72.080 352.579 C 72.408 352.907,73.020 353.175,73.441 353.175 C 73.862 353.175,74.206 353.442,74.206 353.770 C 74.206 354.097,74.474 354.365,74.802 354.365 C 75.129 354.365,75.397 354.633,75.397 354.960 C 75.397 355.288,75.584 355.556,75.813 355.556 C 76.041 355.556,76.642 356.002,77.148 356.548 C 77.653 357.093,78.449 357.540,78.915 357.540 C 79.403 357.540,79.762 357.792,79.762 358.135 C 79.762 358.462,80.011 358.730,80.315 358.730 C 80.619 358.730,80.970 358.998,81.096 359.325 C 81.222 359.653,81.598 359.921,81.932 359.921 C 82.266 359.921,82.540 360.188,82.540 360.516 C 82.540 360.886,82.914 361.111,83.532 361.111 C 84.149 361.111,84.524 361.336,84.524 361.706 C 84.524 362.034,84.797 362.302,85.132 362.302 C 85.466 362.302,85.842 362.569,85.968 362.897 C 86.093 363.224,86.623 363.492,87.146 363.492 C 87.725 363.492,88.095 363.724,88.095 364.087 C 88.095 364.415,88.344 364.683,88.648 364.683 C 88.952 364.683,89.304 364.950,89.429 365.278 C 89.555 365.605,90.110 365.873,90.662 365.873 C 91.291 365.873,91.667 366.096,91.667 366.468 C 91.667 366.796,91.915 367.063,92.219 367.063 C 92.523 367.063,92.875 367.331,93.001 367.659 C 93.126 367.986,93.681 368.254,94.234 368.254 C 94.862 368.254,95.238 368.477,95.238 368.849 C 95.238 369.177,95.584 369.444,96.007 369.444 C 96.430 369.444,97.363 369.980,98.080 370.635 C 98.797 371.290,99.706 371.825,100.101 371.825 C 100.496 371.825,100.921 372.093,101.047 372.421 C 101.173 372.748,101.684 373.016,102.183 373.016 C 102.681 373.016,103.192 373.284,103.318 373.611 C 103.444 373.938,103.979 374.206,104.509 374.206 C 105.038 374.206,105.573 374.474,105.699 374.802 C 105.825 375.129,106.303 375.397,106.762 375.397 C 107.221 375.397,107.864 375.665,108.192 375.992 C 108.519 376.319,109.131 376.587,109.552 376.587 C 109.973 376.587,110.317 376.766,110.317 376.984 C 110.317 377.202,110.853 377.381,111.508 377.381 C 112.302 377.381,112.698 377.579,112.698 377.976 C 112.698 378.373,113.095 378.571,113.889 378.571 C 114.683 378.571,115.079 378.770,115.079 379.167 C 115.079 379.539,115.456 379.762,116.084 379.762 C 116.636 379.762,117.191 380.030,117.317 380.357 C 117.466 380.745,118.083 380.952,119.090 380.952 C 120.199 380.952,120.635 381.120,120.635 381.548 C 120.635 381.944,121.032 382.143,121.825 382.143 C 122.619 382.143,123.016 382.341,123.016 382.738 C 123.016 383.130,123.408 383.333,124.164 383.333 C 124.818 383.333,125.410 383.589,125.540 383.929 C 125.691 384.321,126.313 384.524,127.368 384.524 C 128.526 384.524,128.968 384.688,128.968 385.119 C 128.968 385.560,129.431 385.714,130.754 385.714 C 132.077 385.714,132.540 385.869,132.540 386.310 C 132.540 386.737,132.976 386.905,134.085 386.905 C 135.092 386.905,135.709 387.112,135.858 387.500 C 136.009 387.894,136.631 388.095,137.698 388.095 C 138.765 388.095,139.388 388.297,139.539 388.690 C 139.681 389.061,140.286 389.286,141.142 389.286 C 141.898 389.286,142.785 389.554,143.112 389.881 C 143.477 390.245,144.449 390.476,145.621 390.476 C 146.955 390.476,147.603 390.656,147.763 391.071 C 147.927 391.499,148.596 391.667,150.144 391.667 C 151.691 391.667,152.360 391.834,152.524 392.262 C 152.695 392.707,153.408 392.857,155.357 392.857 C 157.306 392.857,158.019 393.007,158.190 393.452 C 158.360 393.897,159.069 394.048,160.983 394.048 C 162.735 394.048,163.738 394.237,164.144 394.643 C 164.586 395.084,165.668 395.238,168.338 395.238 C 171.307 395.238,172.025 395.360,172.444 395.933 C 172.919 396.582,174.707 396.627,200.198 396.627 C 225.689 396.627,227.478 396.582,227.953 395.933 C 228.372 395.359,229.092 395.238,232.100 395.238 C 234.969 395.238,235.788 395.112,235.968 394.643 C 236.140 394.193,236.867 394.048,238.944 394.048 C 241.020 394.048,241.747 393.902,241.920 393.452 C 242.092 393.003,242.818 392.857,244.884 392.857 C 247.051 392.857,247.619 392.733,247.619 392.262 C 247.619 391.799,248.148 391.667,250.000 391.667 C 251.852 391.667,252.381 391.534,252.381 391.071 C 252.381 390.614,252.889 390.476,254.576 390.476 C 256.161 390.476,256.834 390.311,256.999 389.881 C 257.149 389.492,257.767 389.286,258.785 389.286 C 259.803 389.286,260.421 389.080,260.571 388.690 C 260.720 388.301,261.338 388.095,262.356 388.095 C 263.375 388.095,263.993 387.889,264.142 387.500 C 264.291 387.112,264.908 386.905,265.915 386.905 C 267.024 386.905,267.460 386.737,267.460 386.310 C 267.460 385.869,267.923 385.714,269.246 385.714 C 270.569 385.714,271.032 385.560,271.032 385.119 C 271.032 384.688,271.474 384.524,272.632 384.524 C 273.687 384.524,274.309 384.321,274.460 383.929 C 274.590 383.589,275.182 383.333,275.836 383.333 C 276.592 383.333,276.984 383.130,276.984 382.738 C 276.984 382.311,277.420 382.143,278.529 382.143 C 279.536 382.143,280.153 381.936,280.302 381.548 C 280.428 381.220,280.988 380.952,281.548 380.952 C 282.107 380.952,282.667 380.685,282.793 380.357 C 282.919 380.030,283.430 379.762,283.929 379.762 C 284.428 379.762,284.939 379.494,285.064 379.167 C 285.190 378.839,285.745 378.571,286.297 378.571 C 286.925 378.571,287.302 378.349,287.302 377.976 C 287.302 377.579,287.698 377.381,288.492 377.381 C 289.147 377.381,289.683 377.202,289.683 376.984 C 289.683 376.766,290.218 376.587,290.873 376.587 C 291.667 376.587,292.063 376.389,292.063 375.992 C 292.063 375.620,292.440 375.397,293.068 375.397 C 293.620 375.397,294.175 375.129,294.301 374.802 C 294.427 374.474,294.962 374.206,295.491 374.206 C 296.021 374.206,296.556 373.938,296.682 373.611 C 296.808 373.284,297.343 373.016,297.872 373.016 C 298.402 373.016,298.937 372.748,299.063 372.421 C 299.188 372.093,299.682 371.825,300.160 371.825 C 300.639 371.825,301.466 371.298,302.003 370.652 C 302.538 370.006,303.378 369.470,303.869 369.461 C 304.391 369.451,304.762 369.197,304.762 368.849 C 304.762 368.452,305.159 368.254,305.952 368.254 C 306.746 368.254,307.143 368.056,307.143 367.659 C 307.143 367.331,307.411 367.063,307.738 367.063 C 308.065 367.063,308.333 366.796,308.333 366.468 C 308.333 366.071,308.730 365.873,309.524 365.873 C 310.317 365.873,310.714 365.675,310.714 365.278 C 310.714 364.950,310.982 364.683,311.310 364.683 C 311.637 364.683,311.905 364.415,311.905 364.087 C 311.905 363.690,312.302 363.492,313.095 363.492 C 313.889 363.492,314.286 363.294,314.286 362.897 C 314.286 362.569,314.554 362.302,314.881 362.302 C 315.208 362.302,315.476 362.034,315.476 361.706 C 315.476 361.310,315.873 361.111,316.667 361.111 C 317.460 361.111,317.857 360.913,317.857 360.516 C 317.857 360.188,318.125 359.921,318.452 359.921 C 318.780 359.921,319.048 359.653,319.048 359.325 C 319.048 358.955,319.422 358.730,320.040 358.730 C 320.657 358.730,321.032 358.505,321.032 358.135 C 321.032 357.808,321.267 357.540,321.556 357.540 C 322.212 357.540,324.603 355.435,324.603 354.857 C 324.603 354.621,325.139 354.310,325.794 354.167 C 326.448 354.023,326.984 353.741,326.984 353.540 C 326.984 353.339,327.252 353.175,327.579 353.175 C 327.907 353.175,328.175 352.907,328.175 352.579 C 328.175 352.252,328.442 351.984,328.770 351.984 C 329.097 351.984,329.365 351.716,329.365 351.389 C 329.365 351.062,329.633 350.794,329.960 350.794 C 330.288 350.794,330.556 350.526,330.556 350.198 C 330.556 349.871,330.823 349.603,331.151 349.603 C 331.478 349.603,331.746 349.335,331.746 349.008 C 331.746 348.652,332.112 348.413,332.658 348.413 C 333.183 348.413,333.981 347.916,334.542 347.239 C 335.078 346.594,335.739 346.058,336.012 346.049 C 336.285 346.039,336.508 345.764,336.508 345.437 C 336.508 345.109,336.776 344.841,337.103 344.841 C 337.431 344.841,337.698 344.573,337.698 344.246 C 337.698 343.919,337.966 343.651,338.294 343.651 C 338.621 343.651,338.889 343.383,338.889 343.056 C 338.889 342.728,339.157 342.460,339.484 342.460 C 339.812 342.460,340.079 342.192,340.079 341.865 C 340.079 341.538,340.347 341.270,340.675 341.270 C 341.002 341.270,341.270 341.002,341.270 340.675 C 341.270 340.347,341.538 340.079,341.865 340.079 C 342.192 340.079,342.460 339.812,342.460 339.484 C 342.460 339.157,342.639 338.889,342.857 338.889 C 343.075 338.889,343.254 338.621,343.254 338.294 C 343.254 337.966,343.522 337.698,343.849 337.698 C 344.177 337.698,344.444 337.520,344.444 337.302 C 344.444 337.083,344.712 336.905,345.040 336.905 C 345.367 336.905,345.635 336.732,345.635 336.521 C 345.635 336.022,348.323 333.333,348.823 333.333 C 349.034 333.333,349.206 333.149,349.206 332.923 C 349.206 332.698,349.742 331.989,350.397 331.349 C 351.052 330.709,351.587 329.822,351.587 329.378 C 351.587 328.926,351.849 328.571,352.183 328.571 C 352.510 328.571,352.778 328.304,352.778 327.976 C 352.778 327.649,353.046 327.381,353.373 327.381 C 353.700 327.381,353.968 327.113,353.968 326.786 C 353.968 326.458,354.236 326.190,354.563 326.190 C 354.891 326.190,355.159 325.923,355.159 325.595 C 355.159 325.268,355.427 325.000,355.754 325.000 C 356.081 325.000,356.349 324.809,356.349 324.575 C 356.349 324.341,356.617 323.882,356.944 323.554 C 357.272 323.227,357.540 322.615,357.540 322.194 C 357.540 321.773,357.808 321.429,358.135 321.429 C 358.462 321.429,358.730 321.161,358.730 320.833 C 358.730 320.506,358.998 320.238,359.325 320.238 C 359.653 320.238,359.921 320.035,359.921 319.788 C 359.921 319.540,360.367 318.923,360.913 318.418 C 361.458 317.912,361.905 317.133,361.905 316.686 C 361.905 316.228,362.165 315.873,362.500 315.873 C 362.827 315.873,363.095 315.624,363.095 315.320 C 363.095 315.016,363.363 314.665,363.690 314.539 C 364.018 314.413,364.286 313.859,364.286 313.306 C 364.286 312.678,364.509 312.302,364.881 312.302 C 365.208 312.302,365.476 312.034,365.476 311.706 C 365.476 311.379,365.744 311.111,366.071 311.111 C 366.468 311.111,366.667 310.714,366.667 309.921 C 366.667 309.127,366.865 308.730,367.262 308.730 C 367.589 308.730,367.857 308.462,367.857 308.135 C 367.857 307.808,368.125 307.540,368.452 307.540 C 368.849 307.540,369.048 307.143,369.048 306.349 C 369.048 305.556,369.246 305.159,369.643 305.159 C 369.970 305.159,370.238 304.891,370.238 304.563 C 370.238 304.236,370.506 303.968,370.833 303.968 C 371.230 303.968,371.429 303.571,371.429 302.778 C 371.429 301.984,371.627 301.587,372.024 301.587 C 372.351 301.587,372.619 301.339,372.619 301.035 C 372.619 300.730,372.887 300.379,373.214 300.253 C 373.542 300.128,373.810 299.573,373.810 299.020 C 373.810 298.392,374.032 298.016,374.405 298.016 C 374.768 298.016,375.000 297.646,375.000 297.066 C 375.000 296.544,375.268 296.014,375.595 295.888 C 375.923 295.763,376.190 295.227,376.190 294.698 C 376.190 294.169,376.458 293.633,376.786 293.507 C 377.113 293.382,377.381 292.846,377.381 292.317 C 377.381 291.788,377.649 291.252,377.976 291.126 C 378.304 291.001,378.571 290.465,378.571 289.936 C 378.571 289.407,378.839 288.871,379.167 288.745 C 379.494 288.620,379.762 288.065,379.762 287.512 C 379.762 286.884,379.985 286.508,380.357 286.508 C 380.754 286.508,380.952 286.111,380.952 285.317 C 380.952 284.663,381.131 284.127,381.349 284.127 C 381.567 284.127,381.746 283.591,381.746 282.937 C 381.746 282.143,381.944 281.746,382.341 281.746 C 382.738 281.746,382.937 281.349,382.937 280.556 C 382.937 279.762,383.135 279.365,383.532 279.365 C 383.904 279.365,384.127 278.989,384.127 278.361 C 384.127 277.808,384.395 277.253,384.722 277.128 C 385.110 276.979,385.317 276.361,385.317 275.354 C 385.317 274.246,385.486 273.810,385.913 273.810 C 386.305 273.810,386.508 273.417,386.508 272.662 C 386.508 272.007,386.764 271.415,387.103 271.285 C 387.496 271.134,387.698 270.513,387.698 269.457 C 387.698 268.299,387.863 267.857,388.294 267.857 C 388.735 267.857,388.889 267.394,388.889 266.071 C 388.889 264.749,389.043 264.286,389.484 264.286 C 389.925 264.286,390.079 263.823,390.079 262.500 C 390.079 261.177,390.234 260.714,390.675 260.714 C 391.102 260.714,391.270 260.278,391.270 259.169 C 391.270 258.162,391.477 257.545,391.865 257.396 C 392.254 257.247,392.460 256.629,392.460 255.610 C 392.460 254.592,392.666 253.974,393.056 253.825 C 393.485 253.660,393.651 252.986,393.651 251.401 C 393.651 249.715,393.789 249.206,394.246 249.206 C 394.709 249.206,394.841 248.677,394.841 246.825 C 394.841 244.974,394.974 244.444,395.437 244.444 C 395.899 244.444,396.032 243.919,396.032 242.097 C 396.032 240.600,396.208 239.690,396.517 239.587 C 396.825 239.484,397.058 238.284,397.156 236.280 C 397.261 234.147,397.488 233.033,397.862 232.818 C 398.260 232.588,398.413 231.615,398.413 229.317 C 398.413 227.122,398.585 225.962,398.967 225.580 C 400.208 224.338,400.209 171.636,398.967 171.160 C 398.555 171.002,398.412 170.115,398.410 167.715 C 398.409 165.625,398.198 164.083,397.815 163.347 C 397.484 162.713,397.222 161.174,397.222 159.863 C 397.222 158.142,397.063 157.454,396.627 157.286 C 396.191 157.119,396.032 156.432,396.032 154.719 C 396.032 152.905,395.898 152.381,395.437 152.381 C 394.969 152.381,394.841 151.833,394.841 149.830 C 394.841 148.091,394.652 147.089,394.246 146.684 C 393.919 146.356,393.651 145.445,393.651 144.659 C 393.651 143.754,393.432 143.145,393.056 143.001 C 392.638 142.840,392.460 142.189,392.460 140.818 C 392.460 139.447,392.283 138.796,391.865 138.636 C 391.476 138.486,391.270 137.868,391.270 136.850 C 391.270 135.832,391.064 135.213,390.675 135.064 C 390.285 134.915,390.079 134.297,390.079 133.278 C 390.079 132.260,389.873 131.642,389.484 131.493 C 389.145 131.363,388.889 130.771,388.889 130.116 C 388.889 129.360,388.686 128.968,388.294 128.968 C 387.863 128.968,387.698 128.526,387.698 127.368 C 387.698 126.313,387.496 125.691,387.103 125.540 C 386.715 125.391,386.508 124.774,386.508 123.767 C 386.508 122.658,386.340 122.222,385.913 122.222 C 385.516 122.222,385.317 121.825,385.317 121.032 C 385.317 120.238,385.119 119.841,384.722 119.841 C 384.325 119.841,384.127 119.444,384.127 118.651 C 384.127 117.857,383.929 117.460,383.532 117.460 C 383.135 117.460,382.937 117.063,382.937 116.270 C 382.937 115.476,382.738 115.079,382.341 115.079 C 381.900 115.079,381.746 114.616,381.746 113.294 C 381.746 112.312,381.582 111.508,381.381 111.508 C 381.180 111.508,380.897 110.971,380.753 110.314 C 380.609 109.657,380.347 109.209,380.170 109.318 C 379.993 109.428,379.732 108.893,379.589 108.131 C 379.446 107.369,379.178 106.746,378.993 106.746 C 378.809 106.746,378.545 106.300,378.408 105.754 C 378.272 105.208,377.984 104.762,377.770 104.762 C 377.556 104.762,377.381 104.488,377.381 104.154 C 377.381 103.820,377.113 103.444,376.786 103.318 C 376.458 103.192,376.190 102.681,376.190 102.183 C 376.190 101.684,375.923 101.173,375.595 101.047 C 375.268 100.921,375.000 100.367,375.000 99.814 C 375.000 99.186,374.777 98.810,374.405 98.810 C 374.032 98.810,373.810 98.433,373.810 97.805 C 373.810 97.253,373.542 96.698,373.214 96.572 C 372.887 96.446,372.619 96.095,372.619 95.791 C 372.619 95.487,372.351 95.238,372.024 95.238 C 371.627 95.238,371.429 94.841,371.429 94.048 C 371.429 93.254,371.230 92.857,370.833 92.857 C 370.461 92.857,370.238 92.481,370.238 91.853 C 370.238 91.300,369.970 90.745,369.643 90.620 C 369.315 90.494,369.048 90.143,369.048 89.838 C 369.048 89.534,368.780 89.286,368.452 89.286 C 368.080 89.286,367.857 88.910,367.857 88.281 C 367.857 87.729,367.589 87.174,367.262 87.048 C 366.935 86.923,366.667 86.571,366.667 86.267 C 366.667 85.963,366.399 85.714,366.071 85.714 C 365.738 85.714,365.476 85.360,365.476 84.910 C 365.476 84.468,364.673 83.303,363.690 82.320 C 362.708 81.338,361.905 80.247,361.905 79.896 C 361.905 79.545,361.458 78.844,360.913 78.338 C 360.367 77.833,359.921 77.232,359.921 77.003 C 359.921 76.774,359.653 76.587,359.325 76.587 C 358.998 76.587,358.730 76.236,358.730 75.807 C 358.730 75.378,358.194 74.479,357.540 73.810 C 356.885 73.140,356.349 72.419,356.349 72.209 C 356.349 71.998,356.081 71.825,355.754 71.825 C 355.427 71.825,355.159 71.558,355.159 71.230 C 355.159 70.903,354.891 70.635,354.563 70.635 C 354.207 70.635,353.968 70.269,353.968 69.723 C 353.968 69.198,353.472 68.400,352.795 67.839 C 352.149 67.303,351.613 66.642,351.604 66.369 C 351.595 66.096,351.319 65.873,350.992 65.873 C 350.665 65.873,350.397 65.605,350.397 65.278 C 350.397 64.950,350.129 64.683,349.802 64.683 C 349.474 64.683,349.206 64.415,349.206 64.087 C 349.206 63.760,349.028 63.492,348.810 63.492 C 348.295 63.492,346.825 62.023,346.825 61.508 C 346.825 61.290,346.623 61.111,346.375 61.111 C 346.127 61.111,345.511 60.665,345.005 60.119 C 344.499 59.573,343.898 59.127,343.670 59.127 C 343.441 59.127,343.254 58.924,343.254 58.676 C 343.254 58.429,342.808 57.812,342.262 57.307 C 341.716 56.801,341.270 56.200,341.270 55.971 C 341.270 55.743,341.002 55.556,340.675 55.556 C 340.347 55.556,340.079 55.288,340.079 54.960 C 340.079 54.633,339.812 54.365,339.484 54.365 C 339.157 54.365,338.889 54.097,338.889 53.770 C 338.889 53.442,338.621 53.175,338.294 53.175 C 337.966 53.175,337.698 52.907,337.698 52.579 C 337.698 52.252,337.431 51.984,337.103 51.984 C 336.776 51.984,336.508 51.716,336.508 51.389 C 336.508 51.062,336.240 50.794,335.913 50.794 C 335.585 50.794,335.317 50.526,335.317 50.198 C 335.317 49.871,335.050 49.603,334.722 49.603 C 334.395 49.603,334.127 49.335,334.127 49.008 C 334.127 48.681,333.904 48.405,333.631 48.396 C 333.358 48.387,332.697 47.851,332.161 47.205 C 331.600 46.528,330.802 46.032,330.277 46.032 C 329.731 46.032,329.365 45.793,329.365 45.437 C 329.365 45.109,329.097 44.841,328.770 44.841 C 328.442 44.841,328.175 44.573,328.175 44.246 C 328.175 43.919,327.972 43.651,327.724 43.651 C 327.476 43.651,326.879 43.225,326.397 42.705 C 325.915 42.185,325.136 41.637,324.665 41.488 C 324.195 41.339,323.810 41.050,323.810 40.846 C 323.810 40.643,323.586 40.469,323.313 40.459 C 323.041 40.450,322.379 39.914,321.844 39.269 C 321.282 38.592,320.485 38.095,319.959 38.095 C 319.413 38.095,319.048 37.856,319.048 37.500 C 319.048 37.173,318.780 36.905,318.452 36.905 C 318.125 36.905,317.857 36.637,317.857 36.310 C 317.857 35.982,317.608 35.714,317.304 35.714 C 317.000 35.714,316.649 35.446,316.523 35.119 C 316.398 34.792,315.843 34.524,315.290 34.524 C 314.662 34.524,314.286 34.301,314.286 33.929 C 314.286 33.601,314.037 33.333,313.733 33.333 C 313.429 33.333,313.077 33.065,312.952 32.738 C 312.826 32.411,312.271 32.143,311.719 32.143 C 311.090 32.143,310.714 31.920,310.714 31.548 C 310.714 31.220,310.523 30.952,310.289 30.952 C 310.055 30.952,309.596 30.685,309.269 30.357 C 308.941 30.030,308.329 29.762,307.908 29.762 C 307.487 29.762,307.143 29.494,307.143 29.167 C 307.143 28.770,306.746 28.571,305.952 28.571 C 305.159 28.571,304.762 28.373,304.762 27.976 C 304.762 27.649,304.513 27.381,304.209 27.381 C 303.905 27.381,303.554 27.113,303.428 26.786 C 303.302 26.458,302.856 26.190,302.436 26.190 C 302.016 26.190,301.569 25.923,301.444 25.595 C 301.318 25.268,300.763 25.000,300.211 25.000 C 299.583 25.000,299.206 24.777,299.206 24.405 C 299.206 24.077,298.938 23.810,298.611 23.810 C 298.284 23.810,298.016 23.645,298.016 23.444 C 298.016 23.243,297.480 22.961,296.825 22.817 C 296.171 22.674,295.635 22.411,295.635 22.234 C 295.635 22.056,295.146 21.789,294.548 21.639 C 293.950 21.488,293.359 21.202,293.236 21.002 C 293.112 20.802,292.530 20.599,291.942 20.550 C 291.354 20.502,290.873 20.233,290.873 19.953 C 290.873 19.652,290.386 19.444,289.683 19.444 C 288.889 19.444,288.492 19.246,288.492 18.849 C 288.492 18.452,288.095 18.254,287.302 18.254 C 286.508 18.254,286.111 18.056,286.111 17.659 C 286.111 17.229,285.670 17.063,284.524 17.063 C 283.377 17.063,282.937 16.898,282.937 16.468 C 282.937 16.071,282.540 15.873,281.746 15.873 C 280.952 15.873,280.556 15.675,280.556 15.278 C 280.556 14.881,280.159 14.683,279.365 14.683 C 278.571 14.683,278.175 14.484,278.175 14.087 C 278.175 13.646,277.712 13.492,276.389 13.492 C 275.066 13.492,274.603 13.338,274.603 12.897 C 274.603 12.500,274.206 12.302,273.413 12.302 C 272.619 12.302,272.222 12.103,272.222 11.706 C 272.222 11.268,271.764 11.111,270.479 11.111 C 269.295 11.111,268.662 10.920,268.507 10.516 C 268.363 10.141,267.756 9.921,266.865 9.921 C 265.974 9.921,265.367 9.700,265.223 9.325 C 265.075 8.941,264.461 8.730,263.492 8.730 C 262.523 8.730,261.909 8.519,261.761 8.135 C 261.612 7.746,260.994 7.540,259.976 7.540 C 259.054 7.540,258.336 7.326,258.218 7.017 C 258.094 6.696,257.218 6.458,255.943 6.400 C 254.779 6.347,253.616 6.053,253.294 5.732 C 252.953 5.391,251.947 5.159,250.808 5.159 C 249.473 5.159,248.825 4.979,248.666 4.563 C 248.498 4.124,247.802 3.968,246.016 3.968 C 244.392 3.968,243.398 3.772,242.999 3.373 C 242.602 2.976,241.610 2.778,240.023 2.778 C 238.435 2.778,237.443 2.579,237.046 2.183 C 236.619 1.755,235.576 1.587,233.338 1.587 C 231.600 1.587,230.166 1.411,230.092 1.188 C 229.855 0.477,180.833 -0.542,180.142 0.149 M198.864 109.803 C 197.785 124.262,197.531 127.967,197.214 133.893 C 197.028 137.366,196.690 142.455,196.464 145.203 C 195.867 152.450,195.247 161.555,194.840 169.048 C 194.645 172.649,194.299 177.202,194.071 179.167 C 193.844 181.131,193.656 184.281,193.654 186.167 C 193.651 189.567,193.638 189.612,192.101 191.472 C 185.475 199.490,190.331 211.500,200.198 211.500 C 209.847 211.500,214.711 199.551,208.285 191.632 C 206.831 189.841,206.804 189.743,206.568 185.481 C 206.292 180.507,205.411 167.988,204.546 156.746 C 204.218 152.490,203.953 147.847,203.958 146.429 C 203.962 145.010,203.791 142.331,203.576 140.476 C 203.362 138.621,203.006 133.889,202.787 129.960 C 202.567 126.032,202.222 120.585,202.020 117.857 C 201.063 104.924,201.058 103.870,201.961 104.353 C 202.410 104.593,202.778 104.944,202.778 105.132 C 202.778 105.438,204.501 109.200,208.516 117.659 C 211.333 123.592,214.794 130.933,218.154 138.095 C 218.922 139.732,220.485 143.036,221.628 145.437 C 222.771 147.837,224.286 151.052,224.995 152.579 C 225.703 154.107,226.872 156.607,227.592 158.135 C 228.312 159.663,229.610 162.431,230.477 164.286 C 231.343 166.141,233.032 169.712,234.230 172.222 C 235.427 174.732,237.033 178.125,237.797 179.762 C 238.562 181.399,240.031 184.524,241.062 186.706 C 242.093 188.889,243.644 192.192,244.507 194.048 C 245.371 195.903,246.588 198.492,247.212 199.802 C 249.347 204.282,253.219 212.498,254.411 215.079 C 255.066 216.498,255.792 218.004,256.024 218.425 C 257.337 220.810,257.124 221.637,253.968 226.423 C 253.443 227.220,251.878 229.722,245.057 240.675 C 244.105 242.202,243.168 243.631,242.973 243.849 C 242.778 244.067,242.492 244.514,242.337 244.841 C 242.182 245.169,241.744 245.915,241.365 246.500 C 240.054 248.518,237.101 253.237,236.361 254.493 C 234.756 257.219,234.127 260.215,234.127 265.133 L 234.127 269.846 200.099 269.744 L 166.071 269.643 165.873 263.690 C 165.738 259.637,165.497 257.422,165.117 256.746 C 164.810 256.200,164.408 255.486,164.223 255.159 C 164.038 254.831,163.706 254.206,163.485 253.770 C 163.264 253.333,162.774 252.509,162.395 251.938 C 161.022 249.867,158.126 245.193,157.743 244.431 C 157.528 244.002,157.215 243.651,157.049 243.651 C 156.882 243.651,156.746 243.396,156.746 243.084 C 156.746 242.772,156.514 242.281,156.231 241.993 C 155.948 241.704,154.742 239.886,153.552 237.951 C 152.362 236.017,151.121 234.024,150.794 233.522 C 150.466 233.020,149.678 231.746,149.042 230.690 C 148.406 229.634,147.781 228.681,147.653 228.571 C 147.525 228.462,147.081 227.748,146.665 226.984 C 146.250 226.220,145.377 224.792,144.725 223.810 C 142.908 221.073,142.745 221.677,148.623 209.325 C 150.176 206.062,151.022 204.270,155.269 195.238 C 156.038 193.601,157.288 190.923,158.046 189.286 C 159.354 186.460,162.199 180.442,164.720 175.167 C 165.354 173.840,165.873 172.546,165.873 172.290 C 165.873 172.034,166.052 171.825,166.270 171.825 C 166.488 171.825,166.667 171.635,166.667 171.402 C 166.667 171.023,167.882 168.338,171.412 160.913 C 174.767 153.856,175.783 151.692,176.165 150.794 C 176.396 150.248,176.750 149.534,176.950 149.206 C 177.151 148.879,177.625 147.897,178.003 147.024 C 178.382 146.151,179.666 143.383,180.856 140.873 C 185.219 131.677,188.875 123.909,190.475 120.437 C 191.567 118.066,194.340 112.217,196.777 107.143 C 199.114 102.278,199.399 102.641,198.864 109.803 M100.834 140.774 C 105.881 143.480,107.225 149.937,103.720 154.636 C 102.746 155.942,102.495 157.318,103.157 157.727 C 103.365 157.856,104.749 159.941,106.232 162.360 C 107.715 164.779,109.196 167.175,109.524 167.684 C 109.851 168.193,111.190 170.329,112.500 172.430 C 113.810 174.531,115.149 176.663,115.476 177.169 C 115.804 177.675,116.773 179.224,117.630 180.612 C 118.487 182.000,119.965 184.337,120.913 185.807 C 121.862 187.277,123.572 189.988,124.712 191.833 C 126.480 194.691,129.548 199.560,131.746 202.997 C 132.073 203.509,133.413 205.646,134.722 207.747 C 136.032 209.848,137.414 212.045,137.793 212.629 C 138.173 213.213,138.596 213.920,138.734 214.200 C 138.872 214.481,139.767 215.901,140.722 217.356 C 141.678 218.812,142.460 220.212,142.460 220.469 C 142.460 221.056,143.464 223.280,144.358 224.674 C 144.733 225.259,145.843 227.013,146.825 228.571 C 147.808 230.130,148.926 231.884,149.310 232.469 C 149.695 233.053,150.117 233.844,150.249 234.226 C 150.381 234.608,150.606 234.921,150.749 234.921 C 150.892 234.921,151.448 235.724,151.984 236.706 C 152.521 237.688,153.097 238.492,153.266 238.492 C 153.434 238.492,153.571 238.747,153.571 239.059 C 153.571 239.371,153.805 239.862,154.090 240.150 C 154.375 240.439,154.734 240.942,154.888 241.270 C 155.042 241.597,155.520 242.401,155.951 243.056 C 156.382 243.710,156.923 244.603,157.154 245.040 C 157.711 246.093,158.252 246.960,160.127 249.802 C 162.012 252.659,162.579 253.577,162.942 254.365 C 163.092 254.692,163.420 255.228,163.670 255.556 C 164.964 257.253,165.502 260.181,165.390 264.906 L 165.278 269.643 137.302 269.746 C 105.502 269.863,108.333 270.201,108.334 266.293 C 108.334 265.080,108.159 262.659,107.945 260.913 C 107.553 257.716,106.964 251.582,106.346 244.246 C 106.162 242.063,105.815 238.403,105.575 236.111 C 104.822 228.909,104.338 223.759,103.989 219.241 C 103.803 216.838,103.460 213.177,103.226 211.106 C 102.992 209.035,102.525 204.395,102.188 200.794 C 101.851 197.192,101.384 192.371,101.150 190.079 C 100.916 187.788,100.578 183.948,100.399 181.548 C 100.219 179.147,99.889 175.754,99.665 174.008 C 99.440 172.262,99.136 168.822,98.989 166.365 C 98.606 159.945,98.065 157.769,96.818 157.624 C 86.685 156.449,87.123 140.194,97.289 140.100 C 98.709 140.087,100.017 140.336,100.834 140.774 M306.266 140.837 C 313.798 144.711,312.072 156.231,303.770 157.496 C 302.355 157.712,302.172 157.867,302.085 158.929 C 302.032 159.583,301.724 162.708,301.401 165.873 C 301.078 169.038,300.538 174.663,300.200 178.373 C 299.863 182.083,299.405 186.905,299.182 189.087 C 298.958 191.270,298.616 194.841,298.420 197.024 C 298.223 199.206,297.875 202.956,297.645 205.357 C 297.415 207.758,296.952 212.758,296.617 216.468 C 296.282 220.179,295.834 224.554,295.620 226.190 C 295.407 227.827,295.235 229.970,295.237 230.952 C 295.239 231.935,294.985 234.970,294.674 237.698 C 294.362 240.427,293.821 245.784,293.472 249.603 C 292.582 259.352,291.614 268.759,291.441 269.345 C 291.326 269.736,285.316 269.841,263.115 269.841 L 234.936 269.841 234.675 268.801 C 234.296 267.293,234.774 259.909,235.282 259.400 C 235.520 259.163,235.716 258.602,235.718 258.155 C 235.723 257.210,236.779 255.140,239.286 251.159 C 240.268 249.599,241.254 248.030,241.476 247.673 C 241.699 247.316,242.369 246.268,242.964 245.345 C 243.560 244.422,244.048 243.484,244.048 243.262 C 244.048 243.039,244.223 242.857,244.437 242.857 C 244.651 242.857,244.938 242.411,245.075 241.865 C 245.212 241.319,245.455 240.873,245.614 240.873 C 245.774 240.873,246.113 240.471,246.369 239.980 C 246.625 239.489,247.187 238.552,247.619 237.897 C 248.051 237.242,248.527 236.438,248.677 236.111 C 248.827 235.784,249.063 235.427,249.202 235.317 C 249.340 235.208,250.147 233.958,250.995 232.540 C 251.844 231.121,252.681 229.901,252.856 229.828 C 253.031 229.755,253.175 229.456,253.175 229.162 C 253.175 228.868,253.405 228.392,253.688 228.104 C 254.725 227.043,257.937 221.376,257.937 220.605 C 257.937 220.167,258.963 218.208,260.218 216.252 C 261.473 214.296,263.571 210.991,264.881 208.907 C 266.190 206.824,268.289 203.511,269.544 201.545 C 270.799 199.579,271.825 197.802,271.825 197.596 C 271.825 197.391,271.992 197.222,272.195 197.222 C 272.399 197.222,272.689 196.834,272.839 196.360 C 272.990 195.886,273.286 195.305,273.498 195.070 C 273.709 194.835,274.662 193.393,275.615 191.865 C 279.929 184.950,282.785 180.391,283.333 179.546 C 284.064 178.420,287.309 173.245,288.015 172.080 C 288.298 171.613,288.834 170.752,289.206 170.168 C 290.325 168.409,294.460 161.763,294.965 160.913 C 295.224 160.476,295.535 160.030,295.656 159.921 C 297.565 158.194,297.843 156.333,296.498 154.286 C 291.432 146.573,298.499 136.842,306.266 140.837 M165.235 282.374 C 165.368 282.719,165.476 285.487,165.476 288.525 L 165.476 294.048 138.318 294.048 L 111.160 294.048 110.966 292.361 C 110.047 284.385,109.993 282.740,110.629 282.242 C 111.701 281.403,164.912 281.531,165.235 282.374 M234.038 287.998 L 234.148 294.052 200.110 293.951 L 166.071 293.849 165.961 288.432 C 165.807 280.840,161.172 281.723,200.527 281.843 L 233.929 281.944 234.038 287.998 M289.955 282.390 C 290.091 282.745,289.951 285.468,289.645 288.442 L 289.087 293.849 261.905 293.849 L 234.722 293.849 234.604 289.087 C 234.538 286.468,234.591 283.745,234.721 283.036 L 234.957 281.746 262.332 281.746 C 287.225 281.746,289.730 281.804,289.955 282.390 " stroke="none" fill="#83b343" fill-rule="evenodd"></path><path id="path2" d="M94.048 140.770 C 86.593 145.643,88.402 156.648,96.818 157.624 C 98.065 157.769,98.606 159.945,98.989 166.365 C 99.136 168.822,99.440 172.262,99.665 174.008 C 99.889 175.754,100.219 179.147,100.399 181.548 C 100.578 183.948,100.916 187.788,101.150 190.079 C 101.384 192.371,101.851 197.192,102.188 200.794 C 102.525 204.395,102.992 209.035,103.226 211.106 C 103.460 213.177,103.803 216.838,103.989 219.241 C 104.338 223.759,104.822 228.909,105.575 236.111 C 105.815 238.403,106.162 242.063,106.346 244.246 C 106.964 251.582,107.553 257.716,107.945 260.913 C 108.159 262.659,108.334 265.080,108.334 266.293 C 108.333 270.201,105.502 269.863,137.302 269.746 L 165.278 269.643 165.390 264.906 C 165.502 260.181,164.964 257.253,163.670 255.556 C 163.420 255.228,163.092 254.692,162.942 254.365 C 162.579 253.577,162.012 252.659,160.127 249.802 C 158.252 246.960,157.711 246.093,157.154 245.040 C 156.923 244.603,156.382 243.710,155.951 243.056 C 155.520 242.401,155.042 241.597,154.888 241.270 C 154.734 240.942,154.375 240.439,154.090 240.150 C 153.805 239.862,153.571 239.371,153.571 239.059 C 153.571 238.747,153.434 238.492,153.266 238.492 C 153.097 238.492,152.521 237.688,151.984 236.706 C 151.448 235.724,150.892 234.921,150.749 234.921 C 150.606 234.921,150.381 234.608,150.249 234.226 C 150.117 233.844,149.695 233.053,149.310 232.469 C 148.926 231.884,147.808 230.130,146.825 228.571 C 145.843 227.013,144.733 225.259,144.358 224.674 C 143.464 223.280,142.460 221.056,142.460 220.469 C 142.460 220.212,141.678 218.812,140.722 217.356 C 139.767 215.901,138.872 214.481,138.734 214.200 C 138.596 213.920,138.173 213.213,137.793 212.629 C 137.414 212.045,136.032 209.848,134.722 207.747 C 133.413 205.646,132.073 203.509,131.746 202.997 C 129.548 199.560,126.480 194.691,124.712 191.833 C 123.572 189.988,121.862 187.277,120.913 185.807 C 119.965 184.337,118.487 182.000,117.630 180.612 C 116.773 179.224,115.804 177.675,115.476 177.169 C 115.149 176.663,113.810 174.531,112.500 172.430 C 111.190 170.329,109.851 168.193,109.524 167.684 C 109.196 167.175,107.715 164.779,106.232 162.360 C 104.749 159.941,103.365 157.856,103.157 157.727 C 102.495 157.318,102.746 155.942,103.720 154.636 C 107.225 149.937,105.881 143.480,100.834 140.774 C 99.164 139.879,95.414 139.876,94.048 140.770 M299.100 140.904 C 294.530 143.316,293.334 149.468,296.498 154.286 C 297.843 156.333,297.565 158.194,295.656 159.921 C 295.535 160.030,295.224 160.476,294.965 160.913 C 294.460 161.763,290.325 168.409,289.206 170.168 C 288.834 170.752,288.298 171.613,288.015 172.080 C 287.309 173.245,284.064 178.420,283.333 179.546 C 282.785 180.391,279.929 184.950,275.615 191.865 C 274.662 193.393,273.709 194.835,273.498 195.070 C 273.286 195.305,272.990 195.886,272.839 196.360 C 272.689 196.834,272.399 197.222,272.195 197.222 C 271.992 197.222,271.825 197.391,271.825 197.596 C 271.825 197.802,270.799 199.579,269.544 201.545 C 268.289 203.511,266.190 206.824,264.881 208.907 C 263.571 210.991,261.473 214.296,260.218 216.252 C 258.963 218.208,257.937 220.167,257.937 220.605 C 257.937 221.376,254.725 227.043,253.688 228.104 C 253.405 228.392,253.175 228.868,253.175 229.162 C 253.175 229.456,253.031 229.755,252.856 229.828 C 252.681 229.901,251.844 231.121,250.995 232.540 C 250.147 233.958,249.340 235.208,249.202 235.317 C 249.063 235.427,248.827 235.784,248.677 236.111 C 248.527 236.438,248.051 237.242,247.619 237.897 C 247.187 238.552,246.625 239.489,246.369 239.980 C 246.113 240.471,245.774 240.873,245.614 240.873 C 245.455 240.873,245.212 241.319,245.075 241.865 C 244.938 242.411,244.651 242.857,244.437 242.857 C 244.223 242.857,244.048 243.039,244.048 243.262 C 244.048 243.484,243.560 244.422,242.964 245.345 C 242.369 246.268,241.699 247.316,241.476 247.673 C 241.254 248.030,240.268 249.599,239.286 251.159 C 236.779 255.140,235.723 257.210,235.718 258.155 C 235.716 258.602,235.520 259.163,235.282 259.400 C 234.774 259.909,234.296 267.293,234.675 268.801 L 234.936 269.841 263.115 269.841 C 285.316 269.841,291.326 269.736,291.441 269.345 C 291.614 268.759,292.582 259.352,293.472 249.603 C 293.821 245.784,294.362 240.427,294.674 237.698 C 294.985 234.970,295.239 231.935,295.237 230.952 C 295.235 229.970,295.407 227.827,295.620 226.190 C 295.834 224.554,296.282 220.179,296.617 216.468 C 296.952 212.758,297.415 207.758,297.645 205.357 C 297.875 202.956,298.223 199.206,298.420 197.024 C 298.616 194.841,298.958 191.270,299.182 189.087 C 299.405 186.905,299.863 182.083,300.200 178.373 C 300.538 174.663,301.078 169.038,301.401 165.873 C 301.724 162.708,302.032 159.583,302.085 158.929 C 302.172 157.867,302.355 157.712,303.770 157.496 C 312.072 156.231,313.798 144.711,306.266 140.837 C 304.313 139.832,301.072 139.863,299.100 140.904 M0.510 178.373 C 0.513 179.464,0.590 179.864,0.682 179.260 C 0.773 178.657,0.770 177.764,0.676 177.276 C 0.582 176.788,0.507 177.282,0.510 178.373 M0.489 217.857 C 0.489 218.621,0.571 218.934,0.670 218.552 C 0.770 218.170,0.770 217.545,0.670 217.163 C 0.571 216.781,0.489 217.093,0.489 217.857 M110.629 282.242 C 109.993 282.740,110.047 284.385,110.966 292.361 L 111.160 294.048 138.318 294.048 L 165.476 294.048 165.476 288.525 C 165.476 285.487,165.368 282.719,165.235 282.374 C 164.912 281.531,111.701 281.403,110.629 282.242 M234.721 283.036 C 234.591 283.745,234.538 286.468,234.604 289.087 L 234.722 293.849 261.905 293.849 L 289.087 293.849 289.645 288.442 C 289.951 285.468,290.091 282.745,289.955 282.390 C 289.730 281.804,287.225 281.746,262.332 281.746 L 234.957 281.746 234.721 283.036 " stroke="none" fill="#f2f3f2" fill-rule="evenodd"></path></g></svg>
