<svg id="svg" version="1.1" xmlns="http://www.w3.org/2000/svg" xmlns:xlink="http://www.w3.org/1999/xlink" width="400" height="397.6608187134503" viewBox="0, 0, 400,397.6608187134503"><g id="svgg"><path id="path0" d="M197.811 114.624 C 197.811 114.842,196.986 116.767,195.977 118.903 C 194.968 121.039,193.432 124.308,192.563 126.169 C 191.694 128.030,190.382 130.806,189.648 132.338 C 188.913 133.871,187.779 136.289,187.126 137.711 C 186.474 139.134,184.960 142.358,183.761 144.876 C 182.563 147.393,180.953 150.796,180.183 152.438 C 175.403 162.639,174.183 165.225,173.144 167.363 C 171.147 171.476,167.164 179.974,167.164 180.124 C 167.164 180.203,165.982 182.737,164.538 185.756 C 163.093 188.774,161.319 192.498,160.594 194.030 C 159.870 195.562,158.386 198.697,157.296 200.995 C 156.207 203.294,154.735 206.428,154.025 207.960 C 153.315 209.493,151.839 212.627,150.743 214.925 C 149.648 217.224,148.173 220.358,147.465 221.891 C 142.814 231.956,142.983 231.788,140.910 228.419 C 140.249 227.346,139.621 226.468,139.515 226.468 C 139.408 226.468,140.123 227.789,141.103 229.404 C 142.083 231.018,142.886 232.445,142.886 232.574 C 142.886 232.783,145.711 237.443,147.264 239.795 C 147.592 240.292,148.398 241.616,149.055 242.737 C 149.711 243.858,150.383 244.775,150.547 244.776 C 150.711 244.776,150.846 244.965,150.846 245.195 C 150.846 245.426,151.799 247.082,152.965 248.877 C 154.130 250.671,155.877 253.451,156.846 255.053 C 157.814 256.656,158.876 258.376,159.204 258.875 C 164.876 267.500,165.295 268.726,165.102 276.120 L 164.975 280.997 200.398 280.990 C 220.708 280.986,235.587 280.835,235.273 280.636 C 234.833 280.357,234.763 279.122,234.918 274.373 C 235.148 267.352,235.299 267.013,243.827 254.307 C 244.349 253.529,244.776 252.678,244.776 252.416 C 244.776 252.155,244.934 251.940,245.128 251.940 C 245.321 251.940,245.585 251.627,245.714 251.244 C 245.844 250.861,246.850 249.204,247.951 247.562 C 249.052 245.920,250.076 244.308,250.226 243.980 C 250.377 243.652,251.003 242.685,251.618 241.831 C 252.233 240.977,252.736 240.138,252.736 239.965 C 252.736 239.793,253.501 238.522,254.437 237.140 C 257.226 233.017,258.503 230.304,257.534 230.558 C 256.915 230.719,256.584 230.411,255.980 229.113 C 252.893 222.473,250.842 218.123,246.947 209.950 C 245.799 207.542,244.284 204.318,243.579 202.786 C 242.874 201.254,241.489 198.299,240.502 196.219 C 238.603 192.218,236.930 188.638,234.596 183.582 C 233.813 181.886,232.568 179.244,231.828 177.711 C 231.089 176.179,229.388 172.597,228.049 169.751 C 226.711 166.905,225.105 163.502,224.481 162.189 C 223.857 160.876,222.339 157.652,221.107 155.025 C 219.876 152.398,218.356 149.174,217.731 147.861 C 217.105 146.547,215.969 144.129,215.205 142.488 C 213.926 139.736,212.862 137.484,207.875 126.965 C 205.461 121.874,203.639 117.962,202.737 115.931 C 201.094 112.231,200.800 114.258,201.551 124.108 C 202.507 136.645,203.019 144.082,203.377 150.647 C 203.557 153.930,203.897 159.124,204.135 162.189 C 204.706 169.570,205.702 184.231,205.987 189.453 C 206.452 197.953,206.886 200.578,208.089 202.145 C 212.715 208.171,212.320 214.464,206.993 219.583 C 196.899 229.282,182.365 212.437,191.938 202.134 C 193.239 200.734,193.735 197.884,194.038 190.050 C 194.174 186.547,194.541 180.858,194.854 177.407 C 195.167 173.956,195.419 170.105,195.414 168.850 C 195.409 167.594,195.676 163.164,196.008 159.005 C 196.339 154.846,196.884 147.234,197.218 142.090 C 197.552 136.945,198.115 128.855,198.469 124.110 C 198.824 119.366,199.005 115.202,198.873 114.856 C 198.608 114.167,197.811 113.993,197.811 114.624 M94.695 150.692 C 86.338 153.258,86.715 165.710,95.223 168.155 C 97.749 168.881,97.802 168.966,98.047 172.736 C 98.131 174.026,98.172 173.671,98.148 171.872 C 98.099 168.291,98.243 168.505,95.387 167.761 C 91.289 166.694,89.072 163.729,89.105 159.365 C 89.128 156.406,90.920 152.438,92.234 152.438 C 92.457 152.438,92.850 152.183,93.109 151.872 C 94.622 150.048,99.996 150.694,102.470 152.998 C 104.622 155.003,104.901 154.785,102.832 152.716 C 101.902 151.786,100.636 151.051,99.288 150.659 C 96.880 149.959,97.086 149.958,94.695 150.692 M301.095 150.543 C 299.030 151.250,298.084 151.776,297.091 152.769 C 296.073 153.787,294.913 155.846,294.944 156.579 C 294.954 156.819,295.405 156.165,295.946 155.125 C 298.973 149.310,307.466 149.502,310.288 155.449 C 312.607 160.337,309.938 166.394,304.896 167.684 C 302.107 168.398,301.994 168.595,301.656 173.331 C 301.491 175.643,301.170 179.096,300.942 181.006 C 300.135 187.766,299.640 193.278,299.520 196.816 L 299.398 200.398 299.732 197.413 C 300.306 192.271,301.293 181.939,301.808 175.674 C 302.362 168.949,302.463 168.719,305.189 168.020 C 311.784 166.330,313.731 156.386,308.280 152.228 C 305.954 150.454,303.224 149.814,301.095 150.543 M104.495 155.821 C 105.705 158.713,104.909 163.227,102.786 165.518 C 102.294 166.050,101.891 166.641,101.891 166.833 C 101.891 167.386,103.975 170.387,104.202 170.160 C 104.314 170.047,104.154 169.641,103.845 169.256 C 102.272 167.298,102.170 166.737,103.188 165.627 C 105.430 163.180,106.350 157.058,104.705 155.530 C 104.254 155.111,104.218 155.160,104.495 155.821 M294.651 159.403 C 294.653 160.716,294.727 161.206,294.816 160.490 C 294.904 159.775,294.903 158.700,294.812 158.102 C 294.721 157.504,294.648 158.090,294.651 159.403 M294.941 162.303 C 294.924 162.873,295.942 164.567,297.012 165.747 C 297.906 166.732,297.901 166.773,296.716 168.519 C 296.169 169.326,295.721 170.090,295.721 170.218 C 295.721 170.346,295.040 171.458,294.207 172.688 C 293.374 173.919,291.997 176.090,291.147 177.512 C 290.296 178.935,289.480 180.189,289.332 180.299 C 289.184 180.408,288.937 180.900,288.783 181.393 C 288.629 181.886,288.337 182.289,288.132 182.289 C 287.928 182.289,287.761 182.478,287.761 182.710 C 287.761 183.558,288.496 182.626,290.790 178.872 C 293.894 173.792,293.735 174.047,295.352 171.542 C 298.472 166.710,298.381 166.999,297.244 165.501 C 296.692 164.774,295.952 163.642,295.599 162.985 C 295.246 162.328,294.950 162.021,294.941 162.303 M104.760 171.542 C 105.639 173.204,108.235 177.114,108.459 177.114 C 108.719 177.114,105.554 171.966,104.789 171.144 C 104.312 170.632,104.308 170.688,104.760 171.542 M98.588 178.507 C 98.977 183.807,99.454 187.173,99.238 183.085 C 99.139 181.224,98.900 178.716,98.706 177.512 C 98.407 175.655,98.390 175.806,98.588 178.507 M108.666 177.654 C 108.661 177.841,109.194 178.790,109.851 179.763 C 110.507 180.736,111.045 181.600,111.045 181.683 C 111.045 181.957,114.251 186.667,114.437 186.667 C 114.623 186.667,112.260 182.652,111.861 182.289 C 111.740 182.179,111.321 181.463,110.930 180.697 C 110.099 179.069,108.678 177.161,108.666 177.654 M286.288 185.254 C 285.675 186.281,284.413 188.289,283.483 189.717 C 282.552 191.145,281.791 192.453,281.791 192.625 C 281.791 192.797,281.522 193.160,281.194 193.433 C 280.866 193.705,280.597 194.110,280.597 194.331 C 280.597 194.553,280.955 194.279,281.393 193.722 C 281.831 193.166,282.189 192.530,282.189 192.309 C 282.189 192.088,282.333 191.847,282.509 191.774 C 282.684 191.701,283.518 190.478,284.361 189.055 C 285.204 187.632,286.332 185.874,286.868 185.148 C 287.403 184.422,287.742 183.729,287.621 183.608 C 287.500 183.487,286.900 184.228,286.288 185.254 M114.627 187.365 C 114.627 187.584,114.896 187.986,115.224 188.259 C 115.557 188.535,115.821 188.578,115.821 188.356 C 115.821 188.137,115.552 187.735,115.224 187.463 C 114.891 187.186,114.627 187.143,114.627 187.365 M99.763 191.045 C 99.893 192.687,100.129 195.373,100.288 197.015 L 100.576 200.000 100.602 197.413 C 100.616 195.990,100.380 193.303,100.078 191.443 L 99.528 188.060 99.763 191.045 M115.821 189.396 C 115.821 189.610,115.969 189.844,116.151 189.917 C 116.332 189.990,117.521 191.801,118.793 193.941 C 120.065 196.081,121.305 197.955,121.548 198.105 C 121.791 198.255,121.707 197.936,121.360 197.398 C 121.014 196.859,119.770 194.840,118.598 192.912 C 116.516 189.489,115.821 188.609,115.821 189.396 M278.614 197.449 C 277.729 198.783,276.806 200.260,276.565 200.733 C 275.691 202.442,277.220 200.504,278.947 197.711 C 281.018 194.364,280.785 194.181,278.614 197.449 M123.092 200.769 C 123.799 201.979,124.511 202.973,124.673 202.977 C 125.015 202.986,122.700 199.122,122.165 198.791 C 121.968 198.669,122.385 199.560,123.092 200.769 M100.950 203.582 C 101.067 205.333,101.296 208.199,101.459 209.950 L 101.756 213.134 101.789 210.348 C 101.807 208.816,101.578 205.950,101.280 203.980 L 100.738 200.398 100.950 203.582 M275.315 202.652 C 275.002 203.164,274.000 204.791,273.088 206.269 C 272.176 207.746,271.508 208.955,271.603 208.955 C 271.813 208.955,275.025 204.179,275.025 203.867 C 275.025 203.745,275.322 203.316,275.686 202.914 C 276.049 202.513,276.243 202.080,276.116 201.953 C 275.988 201.826,275.628 202.141,275.315 202.652 M298.739 204.297 C 298.559 205.784,298.509 207.099,298.628 207.219 C 298.946 207.536,299.397 204.133,299.219 202.763 C 299.119 201.989,298.956 202.509,298.739 204.297 M124.975 203.668 C 124.975 203.883,125.468 204.768,126.070 205.633 C 126.672 206.498,127.379 207.555,127.641 207.981 C 130.764 213.055,131.495 214.176,131.801 214.365 C 132.143 214.577,128.640 208.568,128.183 208.159 C 127.883 207.891,127.022 206.509,126.696 205.771 C 126.278 204.827,124.975 203.234,124.975 203.668 M298.179 210.320 C 298.095 212.206,297.061 222.639,296.520 227.065 C 296.305 228.816,296.053 232.398,295.959 235.025 C 295.866 237.652,295.857 239.085,295.940 238.209 C 296.183 235.650,297.246 225.188,297.942 218.507 C 298.295 215.114,298.509 211.532,298.416 210.547 L 298.249 208.756 298.179 210.320 M268.727 213.206 C 267.410 215.356,266.139 217.331,265.902 217.595 C 265.666 217.860,265.473 218.204,265.473 218.360 C 265.473 218.516,265.175 218.972,264.812 219.374 C 264.448 219.776,264.251 220.205,264.373 220.327 C 264.496 220.449,265.574 218.971,266.769 217.041 C 267.964 215.111,269.524 212.671,270.236 211.619 C 270.948 210.567,271.438 209.614,271.326 209.502 C 271.214 209.390,270.044 211.057,268.727 213.206 M101.936 215.299 C 101.911 216.490,102.067 218.460,102.282 219.678 C 102.497 220.895,102.880 224.129,103.132 226.866 C 103.385 229.602,103.716 233.184,103.869 234.826 L 104.147 237.811 104.205 235.423 C 104.237 234.109,103.999 231.065,103.677 228.657 C 103.355 226.249,103.074 223.294,103.053 222.090 C 102.991 218.534,101.996 212.483,101.936 215.299 M132.139 215.220 C 132.139 215.470,132.297 215.772,132.490 215.891 C 132.682 216.010,133.875 217.819,135.141 219.911 C 136.406 222.003,137.602 223.813,137.798 223.934 C 138.179 224.170,133.131 215.778,132.510 215.144 C 132.277 214.906,132.139 214.935,132.139 215.220 M262.953 222.388 C 262.438 223.209,261.538 224.642,260.953 225.572 C 260.369 226.502,260.027 227.263,260.194 227.263 C 260.361 227.263,261.035 226.345,261.692 225.224 C 262.348 224.102,263.195 222.670,263.574 222.040 C 264.595 220.342,264.044 220.651,262.953 222.388 M138.109 224.778 C 138.109 224.997,138.378 225.399,138.706 225.672 C 139.039 225.948,139.303 225.991,139.303 225.769 C 139.303 225.550,139.035 225.148,138.706 224.876 C 138.373 224.599,138.109 224.556,138.109 224.778 M259.005 228.671 C 258.011 230.000,258.140 230.371,259.150 229.087 C 259.613 228.499,259.926 227.955,259.846 227.879 C 259.767 227.802,259.388 228.159,259.005 228.671 M104.368 240.597 C 104.363 241.910,104.501 243.433,104.677 243.980 C 105.122 245.371,105.137 242.472,104.697 240.000 L 104.378 238.209 104.368 240.597 M295.227 241.194 C 295.067 241.741,294.955 243.174,294.977 244.378 L 295.018 246.567 295.384 244.378 C 295.585 243.174,295.697 241.741,295.633 241.194 L 295.517 240.199 295.227 241.194 M105.130 248.358 C 105.092 249.562,105.337 253.144,105.676 256.318 C 106.520 264.232,107.455 273.305,107.625 275.224 C 107.702 276.100,107.691 274.667,107.599 272.040 C 107.508 269.413,107.267 266.100,107.064 264.677 C 106.861 263.254,106.479 259.672,106.215 256.716 C 105.951 253.761,105.615 250.179,105.467 248.756 L 105.200 246.169 105.130 248.358 M294.582 249.353 C 294.538 250.667,294.245 253.622,293.930 255.920 C 293.616 258.219,293.353 261.121,293.346 262.368 C 293.339 263.616,293.143 265.527,292.909 266.614 C 292.676 267.702,292.542 269.278,292.611 270.117 C 292.684 271.006,292.948 269.651,293.244 266.866 C 294.781 252.409,294.989 250.011,294.833 248.557 C 294.693 247.259,294.646 247.406,294.582 249.353 M292.058 275.985 C 291.876 278.812,291.598 280.455,291.262 280.692 C 290.864 280.973,290.882 281.019,291.343 280.893 C 292.076 280.693,292.611 277.386,292.452 274.030 C 292.361 272.128,292.281 272.526,292.058 275.985 M107.900 278.882 C 107.878 279.799,108.052 280.668,108.285 280.812 C 108.942 281.218,108.965 280.936,108.433 279.005 L 107.939 277.214 107.900 278.882 M109.719 292.802 C 109.573 292.948,109.474 293.620,109.500 294.295 L 109.547 295.522 109.802 294.328 L 110.058 293.134 137.626 293.032 L 165.195 292.930 165.085 299.002 L 164.975 305.075 138.258 305.177 L 111.542 305.279 111.056 304.108 C 110.790 303.464,110.420 301.268,110.236 299.229 L 109.901 295.522 110.038 299.616 C 110.130 302.370,110.369 304.005,110.768 304.613 L 111.360 305.517 200.124 305.495 C 248.945 305.483,289.016 305.345,289.172 305.190 C 289.610 304.751,290.118 301.687,290.082 299.701 C 290.055 298.234,289.986 298.414,289.704 300.697 C 289.515 302.229,289.183 303.886,288.967 304.378 L 288.574 305.274 261.942 305.274 C 238.023 305.274,235.284 305.209,235.067 304.644 C 234.935 304.298,234.826 301.522,234.826 298.475 L 234.826 292.935 262.465 292.935 L 290.103 292.935 290.260 294.428 L 290.416 295.920 290.382 294.328 L 290.348 292.736 200.167 292.636 C 150.567 292.581,109.865 292.655,109.719 292.802 " stroke="none" fill="#049cc3" fill-rule="evenodd"></path><path id="path1" d="M94.457 151.099 C 93.980 151.205,93.376 151.549,93.114 151.865 C 92.853 152.180,92.457 152.438,92.234 152.438 C 90.920 152.438,89.128 156.406,89.105 159.365 C 89.072 163.729,91.289 166.694,95.387 167.761 C 98.249 168.507,97.990 168.015,98.377 173.433 C 98.561 176.005,98.889 179.083,99.107 180.272 C 99.324 181.462,99.499 183.342,99.496 184.451 C 99.492 185.560,99.758 188.886,100.087 191.841 C 100.416 194.796,100.960 200.169,101.296 203.781 C 102.187 213.360,103.041 222.129,103.526 226.667 C 103.760 228.856,104.113 232.706,104.310 235.224 C 104.508 237.741,104.928 242.577,105.243 245.970 C 105.559 249.363,106.008 254.199,106.240 256.716 C 106.472 259.234,106.849 262.905,107.078 264.876 C 107.308 266.846,107.656 270.697,107.852 273.433 C 108.048 276.169,108.367 278.945,108.561 279.602 L 108.913 280.796 136.944 280.796 L 164.975 280.796 165.096 276.020 C 165.282 268.706,164.859 267.475,159.204 258.875 C 158.876 258.376,157.814 256.656,156.846 255.053 C 155.877 253.451,154.130 250.671,152.965 248.877 C 151.799 247.082,150.846 245.426,150.846 245.195 C 150.846 244.965,150.711 244.776,150.547 244.776 C 150.383 244.775,149.711 243.862,149.055 242.746 C 147.628 240.320,147.447 240.029,145.617 237.214 C 144.835 236.010,143.528 233.785,142.712 232.270 C 141.897 230.754,140.578 228.516,139.782 227.295 C 138.985 226.074,138.148 224.766,137.923 224.388 C 137.477 223.644,133.110 216.647,132.139 215.123 C 131.113 213.512,128.141 208.793,127.641 207.981 C 127.379 207.555,126.672 206.498,126.070 205.633 C 125.468 204.768,124.975 203.900,124.975 203.705 C 124.975 203.509,124.789 203.133,124.562 202.869 C 123.942 202.148,120.802 197.257,118.503 193.433 C 117.385 191.572,116.356 189.960,116.216 189.851 C 116.076 189.741,115.834 189.383,115.677 189.055 C 115.260 188.183,114.626 187.168,112.734 184.350 C 111.805 182.966,111.045 181.766,111.045 181.683 C 111.045 181.600,110.507 180.736,109.851 179.763 C 109.194 178.790,108.657 177.897,108.657 177.778 C 108.657 177.660,107.851 176.386,106.866 174.947 C 105.881 173.508,105.075 172.233,105.075 172.114 C 105.075 171.994,104.358 170.842,103.483 169.552 C 101.623 166.813,101.617 166.782,102.786 165.509 C 108.689 159.078,102.981 149.203,94.457 151.099 M300.414 151.215 C 294.743 153.050,293.168 160.142,297.242 165.501 C 298.381 166.999,298.472 166.709,295.352 171.542 C 294.575 172.746,293.758 174.025,293.537 174.383 C 291.543 177.614,288.242 182.917,287.761 183.662 C 287.433 184.171,286.191 186.174,285.001 188.114 C 283.812 190.054,282.737 191.731,282.613 191.841 C 282.489 191.950,282.175 192.398,281.915 192.836 C 281.253 193.951,276.960 200.832,276.124 202.119 C 275.743 202.705,275.306 203.446,275.153 203.766 C 275.000 204.086,274.103 205.476,273.159 206.854 C 272.215 208.233,271.443 209.458,271.443 209.577 C 271.443 209.696,270.492 211.261,269.330 213.056 C 266.395 217.588,263.756 221.720,263.284 222.526 C 263.065 222.898,262.348 224.117,261.692 225.233 C 261.035 226.350,260.363 227.263,260.199 227.263 C 260.035 227.263,259.900 227.510,259.900 227.812 C 259.900 228.114,259.676 228.546,259.402 228.774 C 259.128 229.002,258.282 230.412,257.523 231.907 C 256.764 233.403,255.376 235.758,254.440 237.140 C 253.503 238.522,252.736 239.793,252.736 239.965 C 252.736 240.138,252.233 240.977,251.618 241.831 C 251.003 242.685,250.377 243.652,250.226 243.980 C 250.076 244.308,249.052 245.920,247.951 247.562 C 246.850 249.204,245.844 250.861,245.714 251.244 C 245.585 251.627,245.321 251.940,245.128 251.940 C 244.934 251.940,244.776 252.155,244.776 252.416 C 244.776 252.678,244.349 253.529,243.827 254.307 C 235.299 267.013,235.148 267.352,234.918 274.373 C 234.763 279.122,234.833 280.357,235.273 280.636 C 235.952 281.066,290.560 281.101,291.236 280.672 C 291.554 280.470,291.872 278.277,292.144 274.409 C 292.374 271.136,292.736 267.598,292.948 266.548 C 293.160 265.497,293.337 263.616,293.341 262.368 C 293.346 261.121,293.533 258.846,293.758 257.313 C 294.167 254.527,295.053 244.811,295.718 235.821 C 295.913 233.194,296.259 229.433,296.489 227.463 C 296.718 225.493,297.180 221.015,297.516 217.512 C 297.851 214.010,298.311 209.264,298.539 206.965 C 298.766 204.667,299.101 200.726,299.283 198.209 C 299.650 193.139,300.308 186.309,300.942 181.006 C 301.170 179.096,301.491 175.643,301.656 173.331 C 301.994 168.595,302.107 168.398,304.896 167.684 C 313.827 165.399,312.862 151.609,303.730 151.013 C 302.500 150.933,301.007 151.024,300.414 151.215 M110.074 293.294 C 109.718 293.870,110.587 303.115,111.103 304.248 L 111.573 305.279 138.274 305.177 L 164.975 305.075 165.085 299.005 L 165.195 292.935 137.745 292.935 C 121.871 292.935,110.202 293.087,110.074 293.294 M234.826 298.475 C 234.826 301.522,234.935 304.298,235.067 304.644 C 235.459 305.664,288.356 305.598,288.900 304.577 C 289.345 303.742,290.147 297.478,290.148 294.826 L 290.149 292.935 262.488 292.935 L 234.826 292.935 234.826 298.475 " stroke="none" fill="#f2f2f2" fill-rule="evenodd"></path><path id="path2" d="M171.602 0.401 C 169.117 0.554,166.968 0.864,166.826 1.091 C 166.684 1.317,165.059 1.570,163.215 1.653 C 161.025 1.751,159.807 1.973,159.699 2.295 C 159.592 2.617,158.652 2.786,156.969 2.786 C 155.055 2.786,154.345 2.938,154.174 3.383 C 154.006 3.820,153.317 3.980,151.599 3.980 C 149.780 3.980,149.254 4.114,149.254 4.577 C 149.254 5.036,148.744 5.174,147.052 5.174 C 145.462 5.174,144.787 5.340,144.622 5.771 C 144.466 6.176,143.831 6.368,142.644 6.368 C 141.355 6.368,140.896 6.525,140.896 6.965 C 140.896 7.407,140.431 7.562,139.104 7.562 C 137.778 7.562,137.313 7.717,137.313 8.159 C 137.313 8.588,136.876 8.756,135.764 8.756 C 134.754 8.756,134.135 8.964,133.985 9.353 C 133.834 9.747,133.211 9.950,132.152 9.950 C 130.991 9.950,130.547 10.115,130.547 10.547 C 130.547 10.989,130.083 11.144,128.756 11.144 C 127.430 11.144,126.965 11.299,126.965 11.741 C 126.965 12.184,126.501 12.338,125.174 12.338 C 123.847 12.338,123.383 12.493,123.383 12.935 C 123.383 13.333,122.985 13.532,122.189 13.532 C 121.393 13.532,120.995 13.731,120.995 14.129 C 120.995 14.527,120.597 14.726,119.801 14.726 C 119.005 14.726,118.607 14.925,118.607 15.323 C 118.607 15.755,118.165 15.920,117.015 15.920 C 115.865 15.920,115.423 16.086,115.423 16.517 C 115.423 16.915,115.025 17.114,114.229 17.114 C 113.433 17.114,113.035 17.313,113.035 17.711 C 113.035 18.109,112.637 18.308,111.841 18.308 C 111.045 18.308,110.647 18.507,110.647 18.905 C 110.647 19.281,110.268 19.502,109.623 19.502 C 109.060 19.502,108.331 19.771,108.003 20.100 C 107.674 20.428,107.060 20.697,106.638 20.697 C 106.216 20.697,105.871 20.876,105.871 21.095 C 105.871 21.313,105.525 21.493,105.103 21.493 C 104.681 21.493,104.067 21.761,103.738 22.090 C 103.410 22.418,102.866 22.687,102.530 22.687 C 102.193 22.687,101.368 23.224,100.697 23.881 C 100.025 24.537,99.117 25.075,98.680 25.075 C 98.243 25.075,97.782 25.343,97.656 25.672 C 97.530 26.000,96.999 26.269,96.475 26.269 C 95.894 26.269,95.522 26.501,95.522 26.866 C 95.522 27.264,95.124 27.463,94.328 27.463 C 93.532 27.463,93.134 27.662,93.134 28.060 C 93.134 28.388,92.866 28.657,92.537 28.657 C 92.209 28.657,91.940 28.925,91.940 29.254 C 91.940 29.652,91.542 29.851,90.746 29.851 C 89.950 29.851,89.552 30.050,89.552 30.448 C 89.552 30.776,89.284 31.045,88.955 31.045 C 88.627 31.045,88.358 31.313,88.358 31.642 C 88.358 32.040,87.960 32.239,87.164 32.239 C 86.368 32.239,85.970 32.438,85.970 32.836 C 85.970 33.164,85.701 33.433,85.373 33.433 C 85.045 33.433,84.776 33.701,84.776 34.030 C 84.776 34.403,84.399 34.627,83.769 34.627 C 83.214 34.627,82.658 34.896,82.532 35.224 C 82.406 35.552,82.053 35.821,81.748 35.821 C 81.444 35.821,81.194 36.090,81.194 36.418 C 81.194 36.746,80.925 37.015,80.597 37.015 C 80.269 37.015,80.000 37.284,80.000 37.612 C 80.000 37.983,79.624 38.209,79.005 38.209 C 78.386 38.209,78.010 38.434,78.010 38.806 C 78.010 39.134,77.822 39.403,77.593 39.403 C 77.364 39.403,76.772 39.838,76.279 40.371 C 75.786 40.903,74.899 41.459,74.308 41.608 C 73.717 41.756,73.234 42.037,73.234 42.232 C 73.234 42.427,72.965 42.587,72.637 42.587 C 72.308 42.587,72.040 42.856,72.040 43.184 C 72.040 43.512,71.771 43.781,71.443 43.781 C 71.114 43.781,70.846 44.050,70.846 44.378 C 70.846 44.706,70.577 44.975,70.249 44.975 C 69.920 44.975,69.652 45.244,69.652 45.572 C 69.652 45.900,69.383 46.169,69.055 46.169 C 68.726 46.169,68.458 46.438,68.458 46.766 C 68.458 47.124,68.091 47.363,67.544 47.363 C 67.016 47.363,66.216 47.861,65.653 48.540 C 65.116 49.188,64.453 49.725,64.179 49.734 C 63.905 49.744,63.682 50.020,63.682 50.348 C 63.682 50.677,63.413 50.945,63.085 50.945 C 62.756 50.945,62.488 51.214,62.488 51.542 C 62.488 51.871,62.219 52.139,61.891 52.139 C 61.562 52.139,61.294 52.408,61.294 52.736 C 61.294 53.065,61.025 53.333,60.697 53.333 C 60.368 53.333,60.100 53.602,60.100 53.930 C 60.100 54.259,59.831 54.527,59.502 54.527 C 59.174 54.527,58.905 54.715,58.905 54.944 C 58.905 55.174,58.458 55.776,57.910 56.284 C 57.363 56.791,56.915 57.409,56.915 57.658 C 56.915 57.906,56.647 58.109,56.318 58.109 C 55.990 58.109,55.721 58.378,55.721 58.706 C 55.721 59.035,55.542 59.303,55.323 59.303 C 55.104 59.303,54.209 60.020,53.333 60.896 C 52.458 61.771,51.562 62.488,51.343 62.488 C 51.124 62.488,50.945 62.756,50.945 63.085 C 50.945 63.413,50.677 63.682,50.348 63.682 C 50.020 63.682,49.744 63.905,49.734 64.179 C 49.725 64.453,49.188 65.116,48.540 65.653 C 47.861 66.216,47.363 67.016,47.363 67.544 C 47.363 68.091,47.124 68.458,46.766 68.458 C 46.438 68.458,46.169 68.726,46.169 69.055 C 46.169 69.383,45.900 69.652,45.572 69.652 C 45.244 69.652,44.975 69.920,44.975 70.249 C 44.975 70.577,44.706 70.846,44.378 70.846 C 44.050 70.846,43.781 71.114,43.781 71.443 C 43.781 71.771,43.512 72.040,43.184 72.040 C 42.856 72.040,42.587 72.289,42.587 72.594 C 42.587 72.899,42.318 73.252,41.990 73.378 C 41.662 73.504,41.393 74.060,41.393 74.614 C 41.393 75.245,41.169 75.622,40.796 75.622 C 40.468 75.622,40.199 75.810,40.199 76.039 C 40.199 76.268,39.751 76.871,39.204 77.378 C 38.657 77.885,38.209 78.615,38.209 78.999 C 38.209 79.383,37.403 80.470,36.418 81.414 C 35.426 82.364,34.627 83.497,34.627 83.953 C 34.627 84.419,34.368 84.776,34.030 84.776 C 33.701 84.776,33.433 85.026,33.433 85.331 C 33.433 85.635,33.164 85.988,32.836 86.114 C 32.507 86.240,32.239 86.797,32.239 87.351 C 32.239 87.981,32.015 88.358,31.642 88.358 C 31.313 88.358,31.045 88.627,31.045 88.955 C 31.045 89.284,30.776 89.552,30.448 89.552 C 30.050 89.552,29.851 89.950,29.851 90.746 C 29.851 91.542,29.652 91.940,29.254 91.940 C 28.856 91.940,28.657 92.338,28.657 93.134 C 28.657 93.930,28.458 94.328,28.060 94.328 C 27.731 94.328,27.463 94.597,27.463 94.925 C 27.463 95.254,27.194 95.522,26.866 95.522 C 26.468 95.522,26.269 95.920,26.269 96.716 C 26.269 97.512,26.070 97.910,25.672 97.910 C 25.298 97.910,25.075 98.288,25.075 98.918 C 25.075 99.472,24.806 100.029,24.478 100.155 C 24.149 100.281,23.881 100.614,23.881 100.896 C 23.881 101.177,23.612 101.510,23.284 101.636 C 22.955 101.762,22.687 102.207,22.687 102.625 C 22.687 103.043,22.418 103.608,22.090 103.881 C 21.761 104.153,21.493 104.636,21.493 104.953 C 21.493 105.270,21.224 105.798,20.896 106.127 C 20.567 106.455,20.299 107.069,20.299 107.491 C 20.299 107.913,20.119 108.259,19.900 108.259 C 19.682 108.259,19.502 108.604,19.502 109.026 C 19.502 109.448,19.234 110.063,18.905 110.391 C 18.577 110.719,18.308 111.448,18.308 112.011 C 18.308 112.656,18.087 113.035,17.711 113.035 C 17.313 113.035,17.114 113.433,17.114 114.229 C 17.114 115.025,16.915 115.423,16.517 115.423 C 16.075 115.423,15.920 115.887,15.920 117.214 C 15.920 118.541,15.766 119.005,15.323 119.005 C 14.959 119.005,14.726 119.376,14.726 119.957 C 14.726 120.481,14.458 121.013,14.129 121.139 C 13.735 121.290,13.532 121.913,13.532 122.973 C 13.532 124.133,13.367 124.577,12.935 124.577 C 12.537 124.577,12.338 124.975,12.338 125.771 C 12.338 126.567,12.139 126.965,11.741 126.965 C 11.299 126.965,11.144 127.430,11.144 128.756 C 11.144 130.083,10.989 130.547,10.547 130.547 C 10.105 130.547,9.950 131.012,9.950 132.338 C 9.950 133.665,9.795 134.129,9.353 134.129 C 8.911 134.129,8.756 134.594,8.756 135.920 C 8.756 137.247,8.601 137.711,8.159 137.711 C 7.727 137.711,7.562 138.155,7.562 139.316 C 7.562 140.375,7.359 140.998,6.965 141.150 C 6.537 141.314,6.368 141.984,6.368 143.525 C 6.368 145.168,6.228 145.672,5.771 145.672 C 5.331 145.672,5.174 146.131,5.174 147.420 C 5.174 148.607,4.982 149.242,4.577 149.398 C 4.125 149.571,3.980 150.305,3.980 152.425 C 3.980 154.648,3.857 155.224,3.383 155.224 C 2.910 155.224,2.786 155.794,2.786 157.967 C 2.786 160.039,2.640 160.767,2.189 160.940 C 1.726 161.118,1.592 161.895,1.592 164.394 C 1.592 166.558,1.417 167.794,1.059 168.152 C -0.429 169.640,-0.429 227.176,1.059 228.664 C 1.417 229.022,1.592 230.258,1.592 232.422 C 1.592 234.921,1.726 235.698,2.189 235.876 C 2.640 236.049,2.786 236.777,2.786 238.849 C 2.786 241.022,2.910 241.592,3.383 241.592 C 3.857 241.592,3.980 242.168,3.980 244.391 C 3.980 246.511,4.125 247.245,4.577 247.418 C 4.982 247.574,5.174 248.209,5.174 249.396 C 5.174 250.685,5.331 251.144,5.771 251.144 C 6.230 251.144,6.368 251.654,6.368 253.346 C 6.368 254.936,6.534 255.611,6.965 255.776 C 7.354 255.926,7.562 256.545,7.562 257.555 C 7.562 258.667,7.731 259.104,8.159 259.104 C 8.601 259.104,8.756 259.569,8.756 260.896 C 8.756 262.222,8.911 262.687,9.353 262.687 C 9.795 262.687,9.950 263.151,9.950 264.478 C 9.950 265.804,10.105 266.269,10.547 266.269 C 10.989 266.269,11.144 266.733,11.144 268.060 C 11.144 269.386,11.299 269.851,11.741 269.851 C 12.139 269.851,12.338 270.249,12.338 271.045 C 12.338 271.841,12.537 272.239,12.935 272.239 C 13.367 272.239,13.532 272.682,13.532 273.843 C 13.532 274.902,13.735 275.526,14.129 275.677 C 14.470 275.808,14.726 276.401,14.726 277.058 C 14.726 277.816,14.930 278.209,15.323 278.209 C 15.755 278.209,15.920 278.651,15.920 279.801 C 15.920 280.951,16.086 281.393,16.517 281.393 C 16.915 281.393,17.114 281.791,17.114 282.587 C 17.114 283.383,17.313 283.781,17.711 283.781 C 18.087 283.781,18.308 284.160,18.308 284.805 C 18.308 285.367,18.577 286.097,18.905 286.425 C 19.234 286.753,19.502 287.367,19.502 287.790 C 19.502 288.212,19.682 288.557,19.900 288.557 C 20.119 288.557,20.299 288.903,20.299 289.325 C 20.299 289.747,20.537 290.331,20.828 290.622 C 21.120 290.914,21.481 291.643,21.632 292.243 C 21.783 292.843,22.081 293.333,22.296 293.333 C 22.511 293.333,22.687 293.652,22.687 294.041 C 22.687 294.430,23.224 295.336,23.881 296.055 C 24.537 296.774,25.075 297.710,25.075 298.134 C 25.075 298.558,25.343 298.905,25.672 298.905 C 26.070 298.905,26.269 299.303,26.269 300.100 C 26.269 300.896,26.468 301.294,26.866 301.294 C 27.194 301.294,27.463 301.562,27.463 301.891 C 27.463 302.219,27.731 302.488,28.060 302.488 C 28.458 302.488,28.657 302.886,28.657 303.682 C 28.657 304.478,28.856 304.876,29.254 304.876 C 29.652 304.876,29.851 305.274,29.851 306.070 C 29.851 306.866,30.050 307.264,30.448 307.264 C 30.776 307.264,31.045 307.532,31.045 307.861 C 31.045 308.189,31.313 308.458,31.642 308.458 C 32.040 308.458,32.239 308.856,32.239 309.652 C 32.239 310.448,32.438 310.846,32.836 310.846 C 33.164 310.846,33.433 311.114,33.433 311.443 C 33.433 311.771,33.701 312.040,34.030 312.040 C 34.403 312.040,34.627 312.417,34.627 313.047 C 34.627 313.601,34.896 314.158,35.224 314.284 C 35.552 314.410,35.821 314.763,35.821 315.067 C 35.821 315.372,36.090 315.622,36.418 315.622 C 36.746 315.622,37.015 315.891,37.015 316.219 C 37.015 316.547,37.284 316.816,37.612 316.816 C 37.956 316.816,38.209 317.176,38.209 317.666 C 38.209 318.133,38.657 318.931,39.204 319.438 C 39.751 319.945,40.199 320.548,40.199 320.777 C 40.199 321.006,40.468 321.194,40.796 321.194 C 41.169 321.194,41.393 321.571,41.393 322.202 C 41.393 322.756,41.662 323.312,41.990 323.438 C 42.318 323.564,42.587 323.917,42.587 324.222 C 42.587 324.527,42.856 324.776,43.184 324.776 C 43.512 324.776,43.781 325.045,43.781 325.373 C 43.781 325.701,44.050 325.970,44.378 325.970 C 44.706 325.970,44.975 326.239,44.975 326.567 C 44.975 326.896,45.244 327.164,45.572 327.164 C 45.900 327.164,46.169 327.433,46.169 327.761 C 46.169 328.090,46.438 328.358,46.766 328.358 C 47.124 328.358,47.363 328.725,47.363 329.272 C 47.363 329.800,47.861 330.600,48.540 331.163 C 49.188 331.700,49.725 332.363,49.734 332.637 C 49.744 332.910,50.020 333.134,50.348 333.134 C 50.677 333.134,50.945 333.403,50.945 333.731 C 50.945 334.060,51.214 334.328,51.542 334.328 C 51.871 334.328,52.139 334.597,52.139 334.925 C 52.139 335.254,52.408 335.522,52.736 335.522 C 53.065 335.522,53.333 335.791,53.333 336.119 C 53.333 336.448,53.602 336.716,53.930 336.716 C 54.259 336.716,54.527 336.985,54.527 337.313 C 54.527 337.642,54.796 337.910,55.124 337.910 C 55.453 337.910,55.721 338.090,55.721 338.308 C 55.721 338.527,55.990 338.706,56.318 338.706 C 56.647 338.706,56.915 338.910,56.915 339.158 C 56.915 339.407,57.363 340.025,57.910 340.532 C 58.458 341.040,58.905 341.642,58.905 341.872 C 58.905 342.101,59.174 342.289,59.502 342.289 C 59.831 342.289,60.100 342.557,60.100 342.886 C 60.100 343.214,60.368 343.483,60.697 343.483 C 61.025 343.483,61.294 343.751,61.294 344.080 C 61.294 344.408,61.562 344.677,61.891 344.677 C 62.219 344.677,62.488 344.945,62.488 345.274 C 62.488 345.602,62.756 345.871,63.085 345.871 C 63.413 345.871,63.682 346.139,63.682 346.468 C 63.682 346.796,63.905 347.072,64.179 347.082 C 64.453 347.091,65.116 347.628,65.653 348.276 C 66.216 348.955,67.016 349.453,67.544 349.453 C 68.091 349.453,68.458 349.692,68.458 350.050 C 68.458 350.378,68.726 350.647,69.055 350.647 C 69.383 350.647,69.652 350.915,69.652 351.244 C 69.652 351.572,69.920 351.841,70.249 351.841 C 70.577 351.841,70.846 352.109,70.846 352.438 C 70.846 352.766,71.114 353.035,71.443 353.035 C 71.771 353.035,72.040 353.303,72.040 353.632 C 72.040 353.960,72.289 354.229,72.594 354.229 C 72.899 354.229,73.252 354.498,73.378 354.826 C 73.504 355.154,74.060 355.423,74.614 355.423 C 75.245 355.423,75.622 355.646,75.622 356.020 C 75.622 356.348,75.891 356.617,76.219 356.617 C 76.547 356.617,76.816 356.821,76.816 357.071 C 76.816 357.740,78.078 358.580,79.104 358.594 C 79.630 358.602,80.000 358.854,80.000 359.204 C 80.000 359.532,80.269 359.801,80.597 359.801 C 80.925 359.801,81.194 360.070,81.194 360.398 C 81.194 360.726,81.463 360.995,81.791 360.995 C 82.119 360.995,82.388 361.264,82.388 361.592 C 82.388 361.990,82.786 362.189,83.582 362.189 C 84.378 362.189,84.776 362.388,84.776 362.786 C 84.776 363.114,85.045 363.383,85.373 363.383 C 85.701 363.383,85.970 363.652,85.970 363.980 C 85.970 364.378,86.368 364.577,87.164 364.577 C 87.960 364.577,88.358 364.776,88.358 365.174 C 88.358 365.502,88.627 365.771,88.955 365.771 C 89.284 365.771,89.552 366.040,89.552 366.368 C 89.552 366.766,89.950 366.965,90.746 366.965 C 91.542 366.965,91.940 367.164,91.940 367.562 C 91.940 367.891,92.209 368.159,92.537 368.159 C 92.866 368.159,93.134 368.428,93.134 368.756 C 93.134 369.154,93.532 369.353,94.328 369.353 C 95.124 369.353,95.522 369.552,95.522 369.950 C 95.522 370.315,95.894 370.547,96.475 370.547 C 96.999 370.547,97.530 370.816,97.656 371.144 C 97.782 371.473,98.339 371.741,98.893 371.741 C 99.523 371.741,99.900 371.965,99.900 372.338 C 99.900 372.667,100.150 372.935,100.455 372.935 C 100.760 372.935,101.112 373.204,101.238 373.532 C 101.364 373.861,101.902 374.129,102.432 374.129 C 102.963 374.129,103.501 374.398,103.627 374.726 C 103.753 375.055,104.290 375.323,104.821 375.323 C 105.351 375.323,105.889 375.592,106.015 375.920 C 106.141 376.249,106.678 376.517,107.209 376.517 C 107.739 376.517,108.277 376.786,108.403 377.114 C 108.529 377.443,109.085 377.711,109.639 377.711 C 110.193 377.711,110.647 377.891,110.647 378.109 C 110.647 378.328,111.184 378.507,111.841 378.507 C 112.637 378.507,113.035 378.706,113.035 379.104 C 113.035 379.502,113.433 379.701,114.229 379.701 C 115.025 379.701,115.423 379.900,115.423 380.299 C 115.423 380.730,115.865 380.896,117.015 380.896 C 118.165 380.896,118.607 381.061,118.607 381.493 C 118.607 381.891,119.005 382.090,119.801 382.090 C 120.597 382.090,120.995 382.289,120.995 382.687 C 120.995 383.085,121.393 383.284,122.189 383.284 C 122.985 383.284,123.383 383.483,123.383 383.881 C 123.383 384.323,123.847 384.478,125.174 384.478 C 126.501 384.478,126.965 384.632,126.965 385.075 C 126.965 385.517,127.430 385.672,128.756 385.672 C 130.083 385.672,130.547 385.826,130.547 386.269 C 130.547 386.667,130.945 386.866,131.741 386.866 C 132.537 386.866,132.935 387.065,132.935 387.463 C 132.935 387.895,133.379 388.060,134.540 388.060 C 135.599 388.060,136.222 388.263,136.373 388.657 C 136.538 389.085,137.208 389.254,138.749 389.254 C 140.392 389.254,140.896 389.394,140.896 389.851 C 140.896 390.293,141.360 390.448,142.687 390.448 C 144.013 390.448,144.478 390.603,144.478 391.045 C 144.478 391.509,145.008 391.642,146.866 391.642 C 148.723 391.642,149.254 391.774,149.254 392.239 C 149.254 392.698,149.764 392.836,151.455 392.836 C 153.045 392.836,153.720 393.002,153.886 393.433 C 154.058 393.882,154.782 394.030,156.816 394.030 C 158.850 394.030,159.573 394.177,159.746 394.627 C 159.924 395.092,160.715 395.224,163.328 395.224 C 165.941 395.224,166.732 395.356,166.910 395.821 C 167.090 396.291,167.907 396.418,170.748 396.418 C 173.421 396.418,174.614 396.587,175.352 397.070 C 176.871 398.066,223.129 398.066,224.648 397.070 C 225.386 396.587,226.579 396.418,229.252 396.418 C 232.093 396.418,232.910 396.291,233.090 395.821 C 233.268 395.356,234.059 395.224,236.672 395.224 C 239.285 395.224,240.076 395.092,240.254 394.627 C 240.427 394.177,241.150 394.030,243.184 394.030 C 245.218 394.030,245.942 393.882,246.114 393.433 C 246.280 393.002,246.955 392.836,248.545 392.836 C 250.236 392.836,250.746 392.698,250.746 392.239 C 250.746 391.774,251.277 391.642,253.134 391.642 C 254.992 391.642,255.522 391.509,255.522 391.045 C 255.522 390.603,255.987 390.448,257.313 390.448 C 258.640 390.448,259.104 390.293,259.104 389.851 C 259.104 389.394,259.608 389.254,261.251 389.254 C 262.792 389.254,263.462 389.085,263.627 388.657 C 263.778 388.263,264.401 388.060,265.460 388.060 C 266.621 388.060,267.065 387.895,267.065 387.463 C 267.065 387.065,267.463 386.866,268.259 386.866 C 269.055 386.866,269.453 386.667,269.453 386.269 C 269.453 385.826,269.917 385.672,271.244 385.672 C 272.570 385.672,273.035 385.517,273.035 385.075 C 273.035 384.632,273.499 384.478,274.826 384.478 C 276.153 384.478,276.617 384.323,276.617 383.881 C 276.617 383.483,277.015 383.284,277.811 383.284 C 278.607 383.284,279.005 383.085,279.005 382.687 C 279.005 382.289,279.403 382.090,280.199 382.090 C 280.995 382.090,281.393 381.891,281.393 381.493 C 281.393 381.064,281.831 380.896,282.942 380.896 C 283.953 380.896,284.572 380.688,284.721 380.299 C 284.847 379.970,285.404 379.701,285.958 379.701 C 286.588 379.701,286.965 379.478,286.965 379.104 C 286.965 378.706,287.363 378.507,288.159 378.507 C 288.816 378.507,289.353 378.328,289.353 378.109 C 289.353 377.891,289.891 377.711,290.547 377.711 C 291.343 377.711,291.741 377.512,291.741 377.114 C 291.741 376.741,292.119 376.517,292.749 376.517 C 293.303 376.517,293.859 376.249,293.985 375.920 C 294.111 375.592,294.649 375.323,295.179 375.323 C 295.710 375.323,296.247 375.055,296.373 374.726 C 296.499 374.398,297.037 374.129,297.568 374.129 C 298.098 374.129,298.636 373.861,298.762 373.532 C 298.888 373.204,299.240 372.935,299.545 372.935 C 299.850 372.935,300.100 372.667,300.100 372.338 C 300.100 371.965,300.477 371.741,301.107 371.741 C 301.661 371.741,302.218 371.473,302.344 371.144 C 302.470 370.816,303.007 370.547,303.538 370.547 C 304.068 370.547,304.606 370.279,304.732 369.950 C 304.858 369.622,305.389 369.353,305.913 369.353 C 306.495 369.353,306.866 369.121,306.866 368.756 C 306.866 368.428,307.134 368.159,307.463 368.159 C 307.791 368.159,308.060 367.891,308.060 367.562 C 308.060 367.164,308.458 366.965,309.254 366.965 C 310.050 366.965,310.448 366.766,310.448 366.368 C 310.448 366.040,310.716 365.771,311.045 365.771 C 311.373 365.771,311.642 365.502,311.642 365.174 C 311.642 364.776,312.040 364.577,312.836 364.577 C 313.632 364.577,314.030 364.378,314.030 363.980 C 314.030 363.652,314.299 363.383,314.627 363.383 C 314.955 363.383,315.224 363.114,315.224 362.786 C 315.224 362.388,315.622 362.189,316.418 362.189 C 317.214 362.189,317.612 361.990,317.612 361.592 C 317.612 361.264,317.881 360.995,318.209 360.995 C 318.537 360.995,318.806 360.726,318.806 360.398 C 318.806 360.070,319.075 359.801,319.403 359.801 C 319.731 359.801,320.000 359.532,320.000 359.204 C 320.000 358.845,320.368 358.607,320.923 358.607 C 321.906 358.607,324.378 356.659,324.378 355.885 C 324.378 355.631,324.831 355.423,325.386 355.423 C 325.940 355.423,326.496 355.154,326.622 354.826 C 326.748 354.498,327.101 354.229,327.406 354.229 C 327.711 354.229,327.960 353.960,327.960 353.632 C 327.960 353.303,328.229 353.035,328.557 353.035 C 328.886 353.035,329.154 352.766,329.154 352.438 C 329.154 352.109,329.423 351.841,329.751 351.841 C 330.080 351.841,330.348 351.572,330.348 351.244 C 330.348 350.915,330.617 350.647,330.945 350.647 C 331.274 350.647,331.542 350.378,331.542 350.050 C 331.542 349.692,331.909 349.453,332.456 349.453 C 332.984 349.453,333.784 348.955,334.347 348.276 C 334.884 347.628,335.547 347.091,335.821 347.082 C 336.095 347.072,336.318 346.796,336.318 346.468 C 336.318 346.139,336.587 345.871,336.915 345.871 C 337.244 345.871,337.512 345.602,337.512 345.274 C 337.512 344.945,337.781 344.677,338.109 344.677 C 338.438 344.677,338.706 344.408,338.706 344.080 C 338.706 343.751,338.975 343.483,339.303 343.483 C 339.632 343.483,339.900 343.214,339.900 342.886 C 339.900 342.557,340.169 342.289,340.498 342.289 C 340.826 342.289,341.095 342.020,341.095 341.692 C 341.095 341.363,341.363 341.095,341.692 341.095 C 342.020 341.095,342.289 340.826,342.289 340.498 C 342.289 340.169,342.468 339.900,342.687 339.900 C 342.905 339.900,343.085 339.632,343.085 339.303 C 343.085 338.975,343.353 338.706,343.682 338.706 C 344.010 338.706,344.279 338.527,344.279 338.308 C 344.279 338.090,344.547 337.910,344.876 337.910 C 345.204 337.910,345.473 337.642,345.473 337.313 C 345.473 336.985,345.741 336.716,346.070 336.716 C 346.398 336.716,346.667 336.448,346.667 336.119 C 346.667 335.791,346.935 335.522,347.264 335.522 C 347.592 335.522,347.861 335.254,347.861 334.925 C 347.861 334.597,348.129 334.328,348.458 334.328 C 348.786 334.328,349.055 334.060,349.055 333.731 C 349.055 333.403,349.323 333.134,349.652 333.134 C 349.980 333.134,350.256 332.910,350.266 332.637 C 350.275 332.363,350.812 331.700,351.460 331.163 C 352.139 330.600,352.637 329.800,352.637 329.272 C 352.637 328.725,352.876 328.358,353.234 328.358 C 353.562 328.358,353.831 328.090,353.831 327.761 C 353.831 327.433,354.100 327.164,354.428 327.164 C 354.756 327.164,355.025 326.896,355.025 326.567 C 355.025 326.239,355.294 325.970,355.622 325.970 C 355.950 325.970,356.219 325.701,356.219 325.373 C 356.219 325.045,356.488 324.776,356.816 324.776 C 357.144 324.776,357.413 324.527,357.413 324.222 C 357.413 323.917,357.682 323.564,358.010 323.438 C 358.338 323.312,358.607 322.756,358.607 322.202 C 358.607 321.571,358.831 321.194,359.204 321.194 C 359.532 321.194,359.801 320.925,359.801 320.597 C 359.801 320.269,360.070 320.000,360.398 320.000 C 360.726 320.000,360.995 319.731,360.995 319.403 C 360.995 319.075,361.174 318.806,361.393 318.806 C 361.612 318.806,361.791 318.358,361.791 317.811 C 361.791 317.192,362.017 316.816,362.388 316.816 C 362.716 316.816,362.985 316.547,362.985 316.219 C 362.985 315.891,363.254 315.622,363.582 315.622 C 363.910 315.622,364.179 315.372,364.179 315.067 C 364.179 314.763,364.448 314.410,364.776 314.284 C 365.104 314.158,365.373 313.601,365.373 313.047 C 365.373 312.417,365.597 312.040,365.970 312.040 C 366.299 312.040,366.567 311.771,366.567 311.443 C 366.567 311.114,366.836 310.846,367.164 310.846 C 367.562 310.846,367.761 310.448,367.761 309.652 C 367.761 308.856,367.960 308.458,368.358 308.458 C 368.687 308.458,368.955 308.189,368.955 307.861 C 368.955 307.532,369.224 307.264,369.552 307.264 C 369.950 307.264,370.149 306.866,370.149 306.070 C 370.149 305.274,370.348 304.876,370.746 304.876 C 371.144 304.876,371.343 304.478,371.343 303.682 C 371.343 302.886,371.542 302.488,371.940 302.488 C 372.269 302.488,372.537 302.219,372.537 301.891 C 372.537 301.562,372.806 301.294,373.134 301.294 C 373.532 301.294,373.731 300.896,373.731 300.100 C 373.731 299.303,373.930 298.905,374.328 298.905 C 374.657 298.905,374.925 298.558,374.925 298.134 C 374.925 297.710,375.463 296.774,376.119 296.055 C 376.776 295.336,377.313 294.506,377.313 294.211 C 377.313 293.916,377.582 293.406,377.910 293.077 C 378.239 292.749,378.507 292.154,378.507 291.755 C 378.507 291.357,378.776 290.927,379.104 290.801 C 379.433 290.675,379.701 290.138,379.701 289.607 C 379.701 289.077,379.970 288.539,380.299 288.413 C 380.627 288.287,380.896 287.731,380.896 287.177 C 380.896 286.623,381.075 286.169,381.294 286.169 C 381.512 286.169,381.692 285.632,381.692 284.975 C 381.692 284.179,381.891 283.781,382.289 283.781 C 382.687 283.781,382.886 283.383,382.886 282.587 C 382.886 281.791,383.085 281.393,383.483 281.393 C 383.914 281.393,384.080 280.951,384.080 279.801 C 384.080 278.651,384.245 278.209,384.677 278.209 C 385.070 278.209,385.274 277.816,385.274 277.058 C 385.274 276.401,385.530 275.808,385.871 275.677 C 386.265 275.526,386.468 274.902,386.468 273.843 C 386.468 272.682,386.633 272.239,387.065 272.239 C 387.463 272.239,387.662 271.841,387.662 271.045 C 387.662 270.249,387.861 269.851,388.259 269.851 C 388.701 269.851,388.856 269.386,388.856 268.060 C 388.856 266.733,389.011 266.269,389.453 266.269 C 389.895 266.269,390.050 265.804,390.050 264.478 C 390.050 263.151,390.205 262.687,390.647 262.687 C 391.089 262.687,391.244 262.222,391.244 260.896 C 391.244 259.569,391.399 259.104,391.841 259.104 C 392.269 259.104,392.438 258.667,392.438 257.555 C 392.438 256.545,392.646 255.926,393.035 255.776 C 393.466 255.611,393.632 254.936,393.632 253.346 C 393.632 251.654,393.770 251.144,394.229 251.144 C 394.669 251.144,394.826 250.685,394.826 249.396 C 394.826 248.209,395.018 247.574,395.423 247.418 C 395.875 247.245,396.020 246.511,396.020 244.391 C 396.020 242.168,396.143 241.592,396.617 241.592 C 397.090 241.592,397.214 241.022,397.214 238.849 C 397.214 236.777,397.360 236.049,397.811 235.876 C 398.274 235.698,398.408 234.918,398.408 232.395 C 398.408 229.757,398.540 229.046,399.104 228.633 C 399.757 228.156,399.801 226.249,399.801 198.408 C 399.801 170.566,399.757 168.660,399.104 168.183 C 398.540 167.770,398.408 167.059,398.408 164.421 C 398.408 161.898,398.274 161.118,397.811 160.940 C 397.360 160.767,397.214 160.039,397.214 157.967 C 397.214 155.794,397.090 155.224,396.617 155.224 C 396.143 155.224,396.020 154.648,396.020 152.425 C 396.020 150.305,395.875 149.571,395.423 149.398 C 395.018 149.242,394.826 148.607,394.826 147.420 C 394.826 146.131,394.669 145.672,394.229 145.672 C 393.772 145.672,393.632 145.168,393.632 143.525 C 393.632 141.984,393.463 141.314,393.035 141.150 C 392.641 140.998,392.438 140.375,392.438 139.316 C 392.438 138.155,392.273 137.711,391.841 137.711 C 391.399 137.711,391.244 137.247,391.244 135.920 C 391.244 134.594,391.089 134.129,390.647 134.129 C 390.205 134.129,390.050 133.665,390.050 132.338 C 390.050 131.012,389.895 130.547,389.453 130.547 C 389.011 130.547,388.856 130.083,388.856 128.756 C 388.856 127.430,388.701 126.965,388.259 126.965 C 387.861 126.965,387.662 126.567,387.662 125.771 C 387.662 124.975,387.463 124.577,387.065 124.577 C 386.633 124.577,386.468 124.133,386.468 122.973 C 386.468 121.913,386.265 121.290,385.871 121.139 C 385.542 121.013,385.274 120.481,385.274 119.957 C 385.274 119.376,385.041 119.005,384.677 119.005 C 384.234 119.005,384.080 118.541,384.080 117.214 C 384.080 115.887,383.925 115.423,383.483 115.423 C 383.085 115.423,382.886 115.025,382.886 114.229 C 382.886 113.433,382.687 113.035,382.289 113.035 C 381.891 113.035,381.692 112.637,381.692 111.841 C 381.692 111.184,381.512 110.647,381.294 110.647 C 381.075 110.647,380.896 110.301,380.896 109.879 C 380.896 109.457,380.657 108.873,380.366 108.582 C 380.074 108.290,379.713 107.561,379.562 106.961 C 379.411 106.361,379.113 105.871,378.898 105.871 C 378.683 105.871,378.507 105.534,378.507 105.123 C 378.507 104.712,378.239 104.153,377.910 103.881 C 377.582 103.608,377.313 103.043,377.313 102.625 C 377.313 102.207,377.045 101.762,376.716 101.636 C 376.388 101.510,376.119 101.177,376.119 100.896 C 376.119 100.614,375.851 100.281,375.522 100.155 C 375.194 100.029,374.925 99.472,374.925 98.918 C 374.925 98.288,374.702 97.910,374.328 97.910 C 373.930 97.910,373.731 97.512,373.731 96.716 C 373.731 95.920,373.532 95.522,373.134 95.522 C 372.806 95.522,372.537 95.254,372.537 94.925 C 372.537 94.597,372.269 94.328,371.940 94.328 C 371.542 94.328,371.343 93.930,371.343 93.134 C 371.343 92.338,371.144 91.940,370.746 91.940 C 370.348 91.940,370.149 91.542,370.149 90.746 C 370.149 89.950,369.950 89.552,369.552 89.552 C 369.224 89.552,368.955 89.284,368.955 88.955 C 368.955 88.627,368.687 88.358,368.358 88.358 C 367.985 88.358,367.761 87.981,367.761 87.351 C 367.761 86.797,367.493 86.240,367.164 86.114 C 366.836 85.988,366.567 85.635,366.567 85.331 C 366.567 85.026,366.299 84.776,365.970 84.776 C 365.632 84.776,365.373 84.419,365.373 83.953 C 365.373 83.497,364.574 82.364,363.582 81.414 C 362.597 80.470,361.791 79.383,361.791 78.999 C 361.791 78.615,361.343 77.885,360.796 77.378 C 360.249 76.871,359.801 76.268,359.801 76.039 C 359.801 75.810,359.532 75.622,359.204 75.622 C 358.831 75.622,358.607 75.245,358.607 74.614 C 358.607 74.060,358.338 73.504,358.010 73.378 C 357.682 73.252,357.413 72.899,357.413 72.594 C 357.413 72.289,357.144 72.040,356.816 72.040 C 356.488 72.040,356.219 71.771,356.219 71.443 C 356.219 71.114,355.950 70.846,355.622 70.846 C 355.294 70.846,355.025 70.577,355.025 70.249 C 355.025 69.920,354.756 69.652,354.428 69.652 C 354.100 69.652,353.831 69.383,353.831 69.055 C 353.831 68.726,353.562 68.458,353.234 68.458 C 352.876 68.458,352.637 68.091,352.637 67.544 C 352.637 67.016,352.139 66.216,351.460 65.653 C 350.812 65.116,350.275 64.453,350.266 64.179 C 350.256 63.905,349.980 63.682,349.652 63.682 C 349.323 63.682,349.055 63.413,349.055 63.085 C 349.055 62.756,348.876 62.488,348.657 62.488 C 348.438 62.488,347.542 61.771,346.667 60.896 C 345.791 60.020,344.896 59.303,344.677 59.303 C 344.458 59.303,344.279 59.035,344.279 58.706 C 344.279 58.378,344.010 58.109,343.682 58.109 C 343.353 58.109,343.085 57.841,343.085 57.512 C 343.085 57.184,342.905 56.915,342.687 56.915 C 342.468 56.915,342.289 56.647,342.289 56.318 C 342.289 55.990,342.020 55.721,341.692 55.721 C 341.363 55.721,341.095 55.453,341.095 55.124 C 341.095 54.796,340.826 54.527,340.498 54.527 C 340.169 54.527,339.900 54.259,339.900 53.930 C 339.900 53.602,339.632 53.333,339.303 53.333 C 338.975 53.333,338.706 53.065,338.706 52.736 C 338.706 52.408,338.438 52.139,338.109 52.139 C 337.781 52.139,337.512 51.871,337.512 51.542 C 337.512 51.214,337.244 50.945,336.915 50.945 C 336.587 50.945,336.318 50.677,336.318 50.348 C 336.318 50.020,336.095 49.744,335.821 49.734 C 335.547 49.725,334.884 49.188,334.347 48.540 C 333.784 47.861,332.984 47.363,332.456 47.363 C 331.909 47.363,331.542 47.124,331.542 46.766 C 331.542 46.438,331.274 46.169,330.945 46.169 C 330.617 46.169,330.348 45.900,330.348 45.572 C 330.348 45.244,330.080 44.975,329.751 44.975 C 329.423 44.975,329.154 44.706,329.154 44.378 C 329.154 44.050,328.886 43.781,328.557 43.781 C 328.229 43.781,327.960 43.512,327.960 43.184 C 327.960 42.856,327.692 42.587,327.363 42.587 C 327.035 42.587,326.766 42.427,326.766 42.232 C 326.766 42.037,326.297 41.760,325.723 41.616 C 324.579 41.328,323.582 40.497,323.582 39.829 C 323.582 39.595,323.308 39.403,322.973 39.403 C 322.637 39.403,322.260 39.134,322.134 38.806 C 322.008 38.478,321.476 38.209,320.952 38.209 C 320.371 38.209,320.000 37.976,320.000 37.612 C 320.000 37.284,319.731 37.015,319.403 37.015 C 319.075 37.015,318.806 36.746,318.806 36.418 C 318.806 36.090,318.556 35.821,318.252 35.821 C 317.947 35.821,317.594 35.552,317.468 35.224 C 317.342 34.896,316.786 34.627,316.231 34.627 C 315.601 34.627,315.224 34.403,315.224 34.030 C 315.224 33.701,314.955 33.433,314.627 33.433 C 314.299 33.433,314.030 33.164,314.030 32.836 C 314.030 32.438,313.632 32.239,312.836 32.239 C 312.040 32.239,311.642 32.040,311.642 31.642 C 311.642 31.313,311.373 31.045,311.045 31.045 C 310.716 31.045,310.448 30.776,310.448 30.448 C 310.448 30.050,310.050 29.851,309.254 29.851 C 308.458 29.851,308.060 29.652,308.060 29.254 C 308.060 28.925,307.791 28.657,307.463 28.657 C 307.134 28.657,306.866 28.388,306.866 28.060 C 306.866 27.686,306.488 27.463,305.858 27.463 C 305.304 27.463,304.748 27.194,304.622 26.866 C 304.496 26.537,303.983 26.269,303.483 26.269 C 302.982 26.269,302.470 26.000,302.344 25.672 C 302.218 25.343,301.757 25.075,301.320 25.075 C 300.883 25.075,299.975 24.537,299.303 23.881 C 298.632 23.224,297.807 22.687,297.470 22.687 C 297.134 22.687,296.590 22.418,296.262 22.090 C 295.933 21.761,295.319 21.493,294.897 21.493 C 294.475 21.493,294.129 21.313,294.129 21.095 C 294.129 20.876,293.784 20.697,293.362 20.697 C 292.940 20.697,292.326 20.428,291.997 20.100 C 291.669 19.771,290.940 19.502,290.377 19.502 C 289.732 19.502,289.353 19.281,289.353 18.905 C 289.353 18.507,288.955 18.308,288.159 18.308 C 287.363 18.308,286.965 18.109,286.965 17.711 C 286.965 17.313,286.567 17.114,285.771 17.114 C 284.975 17.114,284.577 16.915,284.577 16.517 C 284.577 16.086,284.135 15.920,282.985 15.920 C 281.835 15.920,281.393 15.755,281.393 15.323 C 281.393 14.925,280.995 14.726,280.199 14.726 C 279.403 14.726,279.005 14.527,279.005 14.129 C 279.005 13.731,278.607 13.532,277.811 13.532 C 277.015 13.532,276.617 13.333,276.617 12.935 C 276.617 12.493,276.153 12.338,274.826 12.338 C 273.499 12.338,273.035 12.184,273.035 11.741 C 273.035 11.299,272.570 11.144,271.244 11.144 C 269.917 11.144,269.453 10.989,269.453 10.547 C 269.453 10.119,269.015 9.950,267.903 9.950 C 266.893 9.950,266.274 9.742,266.125 9.353 C 265.974 8.959,265.350 8.756,264.291 8.756 C 263.130 8.756,262.687 8.591,262.687 8.159 C 262.687 7.717,262.222 7.562,260.896 7.562 C 259.569 7.562,259.104 7.407,259.104 6.965 C 259.104 6.525,258.645 6.368,257.356 6.368 C 256.169 6.368,255.534 6.176,255.378 5.771 C 255.213 5.340,254.538 5.174,252.948 5.174 C 251.256 5.174,250.746 5.036,250.746 4.577 C 250.746 4.114,250.220 3.980,248.401 3.980 C 246.683 3.980,245.994 3.820,245.826 3.383 C 245.655 2.938,244.945 2.786,243.031 2.786 C 241.348 2.786,240.408 2.617,240.301 2.295 C 240.193 1.973,238.975 1.751,236.785 1.653 C 234.941 1.570,233.322 1.327,233.187 1.112 C 232.570 0.130,184.931 -0.421,171.602 0.401 M198.873 114.856 C 199.005 115.202,198.824 119.366,198.469 124.110 C 198.115 128.855,197.552 136.945,197.218 142.090 C 196.884 147.234,196.339 154.846,196.008 159.005 C 195.676 163.164,195.409 167.594,195.414 168.850 C 195.419 170.105,195.167 173.956,194.854 177.407 C 194.541 180.858,194.174 186.547,194.038 190.050 C 193.735 197.884,193.239 200.734,191.938 202.134 C 187.535 206.873,187.862 214.468,192.676 219.282 C 200.250 226.856,213.103 219.110,210.959 208.264 C 210.414 205.507,210.012 204.650,208.089 202.145 C 206.886 200.578,206.452 197.953,205.987 189.453 C 205.702 184.231,204.706 169.570,204.135 162.189 C 203.897 159.124,203.557 153.930,203.377 150.647 C 203.019 144.082,202.507 136.645,201.551 124.108 C 200.800 114.258,201.094 112.231,202.737 115.931 C 203.639 117.962,205.461 121.874,207.875 126.965 C 212.862 137.484,213.926 139.736,215.205 142.488 C 215.969 144.129,217.105 146.547,217.731 147.861 C 218.356 149.174,219.876 152.398,221.107 155.025 C 222.339 157.652,223.857 160.876,224.481 162.189 C 225.105 163.502,226.711 166.905,228.049 169.751 C 229.388 172.597,231.089 176.179,231.828 177.711 C 232.568 179.244,233.813 181.886,234.596 183.582 C 236.930 188.638,238.603 192.218,240.502 196.219 C 241.489 198.299,242.874 201.254,243.579 202.786 C 244.284 204.318,245.799 207.542,246.947 209.950 C 250.842 218.123,252.893 222.473,255.980 229.113 C 256.807 230.892,257.795 231.093,258.523 229.631 C 258.869 228.937,262.657 222.810,264.374 220.169 C 264.754 219.584,265.189 218.836,265.340 218.507 C 265.490 218.179,265.726 217.821,265.863 217.711 C 266.000 217.602,266.538 216.796,267.060 215.920 C 267.582 215.045,269.526 211.910,271.381 208.955 C 273.236 206.000,275.147 202.955,275.627 202.189 C 276.107 201.423,277.376 199.453,278.449 197.811 C 279.521 196.169,280.534 194.557,280.701 194.229 C 280.868 193.900,281.316 193.153,281.696 192.567 C 282.394 191.493,286.612 184.744,287.488 183.300 C 287.747 182.872,288.184 182.277,288.458 181.978 C 288.731 181.680,288.955 181.195,288.955 180.900 C 288.955 180.606,289.099 180.305,289.275 180.232 C 289.450 180.159,290.291 178.935,291.143 177.512 C 291.995 176.090,293.374 173.919,294.207 172.688 C 295.040 171.458,295.721 170.346,295.721 170.218 C 295.721 170.090,296.169 169.326,296.716 168.519 C 297.901 166.773,297.906 166.732,297.012 165.747 C 293.096 161.429,294.161 153.639,298.977 151.371 C 302.451 149.735,305.364 150.004,308.280 152.228 C 313.731 156.386,311.784 166.330,305.189 168.020 C 302.463 168.719,302.362 168.949,301.808 175.674 C 301.341 181.359,300.896 186.143,299.493 200.597 C 299.163 203.990,298.737 208.915,298.547 211.542 C 298.356 214.169,298.005 218.109,297.768 220.299 C 297.376 223.912,296.961 228.043,295.691 240.995 C 295.455 243.403,295.113 247.343,294.931 249.751 C 294.749 252.159,294.409 255.920,294.174 258.109 C 293.776 261.824,292.944 270.226,292.243 277.612 L 291.940 280.796 200.000 280.796 L 108.060 280.796 107.769 277.413 C 107.608 275.552,107.210 271.343,106.883 268.060 C 106.556 264.776,106.014 259.313,105.677 255.920 C 105.340 252.527,104.996 248.587,104.912 247.164 C 104.691 243.420,103.522 230.821,103.287 229.652 C 103.177 229.104,102.890 226.418,102.650 223.682 C 101.414 209.599,101.113 206.223,100.535 200.000 C 100.189 196.279,99.648 190.547,99.333 187.264 C 99.018 183.980,98.554 178.876,98.302 175.920 C 97.657 168.361,97.878 168.918,95.223 168.155 C 86.528 165.657,86.358 153.154,94.986 150.646 C 103.055 148.300,109.060 159.212,103.214 165.600 C 102.042 166.880,101.782 166.319,108.159 176.287 C 109.965 179.110,111.443 181.600,111.443 181.821 C 111.443 182.042,111.587 182.282,111.762 182.355 C 111.938 182.428,112.789 183.626,113.653 185.018 C 114.517 186.410,115.493 187.968,115.821 188.481 C 116.149 188.993,117.734 191.526,119.342 194.109 C 120.951 196.692,123.145 200.149,124.218 201.791 C 125.291 203.433,126.347 205.134,126.566 205.572 C 127.060 206.561,127.889 207.895,128.176 208.159 C 128.294 208.269,129.442 210.060,130.727 212.139 C 132.012 214.219,134.333 217.948,135.885 220.426 C 137.437 222.904,138.891 225.233,139.118 225.600 C 143.226 232.279,142.520 232.592,147.465 221.891 C 148.173 220.358,149.648 217.224,150.743 214.925 C 151.839 212.627,153.315 209.493,154.025 207.960 C 154.735 206.428,156.207 203.294,157.296 200.995 C 158.386 198.697,159.870 195.562,160.594 194.030 C 161.319 192.498,163.093 188.774,164.538 185.756 C 165.982 182.737,167.164 180.203,167.164 180.124 C 167.164 179.974,171.147 171.476,173.144 167.363 C 174.183 165.225,175.403 162.639,180.183 152.438 C 180.953 150.796,182.563 147.393,183.761 144.876 C 184.960 142.358,186.474 139.134,187.126 137.711 C 187.779 136.289,188.913 133.871,189.648 132.338 C 190.382 130.806,191.694 128.030,192.563 126.169 C 193.432 124.308,194.968 121.039,195.977 118.903 C 196.986 116.767,197.811 114.842,197.811 114.624 C 197.811 113.993,198.608 114.167,198.873 114.856 M290.252 296.119 C 290.118 300.838,289.771 304.200,289.345 304.888 C 289.030 305.399,277.810 305.475,200.172 305.495 L 111.360 305.517 110.794 304.654 C 110.221 303.780,109.260 293.569,109.686 292.880 C 109.805 292.687,149.653 292.580,200.124 292.636 L 290.348 292.736 290.252 296.119 " stroke="none" fill="#1b1414" fill-rule="evenodd"></path></g></svg>