<svg id="svg" version="1.1" xmlns="http://www.w3.org/2000/svg" xmlns:xlink="http://www.w3.org/1999/xlink" width="400" height="397.6608187134503" viewBox="0, 0, 400,397.6608187134503"><g id="svgg"><path id="path0" d="M175.753 0.443 C 172.924 0.623,170.506 0.934,170.380 1.133 C 170.253 1.332,168.370 1.571,166.195 1.664 C 163.615 1.775,162.186 2.000,162.082 2.310 C 161.982 2.613,161.004 2.786,159.398 2.786 C 157.684 2.786,156.681 2.978,156.276 3.383 C 155.902 3.757,154.924 3.980,153.660 3.980 C 152.131 3.980,151.642 4.125,151.642 4.577 C 151.642 5.041,151.111 5.174,149.254 5.174 C 147.396 5.174,146.866 5.307,146.866 5.771 C 146.866 6.230,146.356 6.368,144.664 6.368 C 143.074 6.368,142.399 6.534,142.233 6.965 C 142.084 7.356,141.464 7.562,140.442 7.562 C 139.421 7.562,138.801 7.769,138.651 8.159 C 138.502 8.550,137.882 8.756,136.860 8.756 C 135.839 8.756,135.219 8.963,135.069 9.353 C 134.920 9.742,134.301 9.950,133.291 9.950 C 132.179 9.950,131.741 10.119,131.741 10.547 C 131.741 10.989,131.277 11.144,129.950 11.144 C 128.624 11.144,128.159 11.299,128.159 11.741 C 128.159 12.170,127.722 12.338,126.610 12.338 C 125.600 12.338,124.981 12.546,124.831 12.935 C 124.697 13.284,124.101 13.532,123.396 13.532 C 122.588 13.532,122.189 13.730,122.189 14.129 C 122.189 14.558,121.752 14.726,120.640 14.726 C 119.629 14.726,119.010 14.934,118.861 15.323 C 118.735 15.652,118.198 15.920,117.667 15.920 C 117.136 15.920,116.599 16.189,116.473 16.517 C 116.347 16.846,115.791 17.114,115.236 17.114 C 114.606 17.114,114.229 17.338,114.229 17.711 C 114.229 18.109,113.831 18.308,113.035 18.308 C 112.239 18.308,111.841 18.507,111.841 18.905 C 111.841 19.281,111.462 19.502,110.817 19.502 C 110.254 19.502,109.525 19.771,109.197 20.100 C 108.869 20.428,108.254 20.697,107.832 20.697 C 107.410 20.697,107.065 20.876,107.065 21.095 C 107.065 21.313,106.611 21.493,106.057 21.493 C 105.503 21.493,104.947 21.761,104.821 22.090 C 104.695 22.418,104.265 22.687,103.866 22.687 C 103.468 22.687,102.873 22.955,102.544 23.284 C 102.216 23.612,101.571 23.881,101.110 23.881 C 100.650 23.881,100.170 24.149,100.044 24.478 C 99.918 24.806,99.471 25.075,99.049 25.075 C 98.628 25.075,98.180 25.343,98.054 25.672 C 97.928 26.000,97.595 26.269,97.313 26.269 C 97.032 26.269,96.698 26.537,96.572 26.866 C 96.446 27.194,95.890 27.463,95.336 27.463 C 94.706 27.463,94.328 27.686,94.328 28.060 C 94.328 28.433,93.951 28.657,93.321 28.657 C 92.767 28.657,92.210 28.925,92.084 29.254 C 91.958 29.582,91.606 29.851,91.301 29.851 C 90.996 29.851,90.746 30.119,90.746 30.448 C 90.746 30.821,90.369 31.045,89.739 31.045 C 89.185 31.045,88.628 31.313,88.502 31.642 C 88.376 31.970,88.024 32.239,87.719 32.239 C 87.414 32.239,87.164 32.507,87.164 32.836 C 87.164 33.164,86.819 33.433,86.397 33.433 C 85.974 33.433,85.360 33.701,85.032 34.030 C 84.704 34.358,84.243 34.627,84.009 34.627 C 83.774 34.627,83.582 34.896,83.582 35.224 C 83.582 35.552,83.313 35.821,82.985 35.821 C 82.657 35.821,82.388 36.090,82.388 36.418 C 82.388 36.816,81.990 37.015,81.194 37.015 C 80.398 37.015,80.000 37.214,80.000 37.612 C 80.000 37.940,79.731 38.209,79.403 38.209 C 79.075 38.209,78.806 38.478,78.806 38.806 C 78.806 39.177,78.430 39.403,77.811 39.403 C 77.192 39.403,76.816 39.629,76.816 40.000 C 76.816 40.328,76.613 40.597,76.364 40.597 C 76.116 40.597,75.497 41.045,74.990 41.592 C 74.483 42.139,73.880 42.587,73.651 42.587 C 73.421 42.587,73.234 42.856,73.234 43.184 C 73.234 43.512,72.920 43.782,72.537 43.783 C 72.154 43.784,71.268 44.321,70.569 44.977 C 69.869 45.633,69.108 46.169,68.877 46.169 C 68.647 46.169,68.458 46.438,68.458 46.766 C 68.458 47.095,68.189 47.363,67.861 47.363 C 67.532 47.363,67.264 47.632,67.264 47.960 C 67.264 48.289,66.995 48.557,66.667 48.557 C 66.338 48.557,66.070 48.826,66.070 49.154 C 66.070 49.483,65.801 49.751,65.473 49.751 C 65.144 49.751,64.876 50.020,64.876 50.348 C 64.876 50.677,64.607 50.945,64.279 50.945 C 63.950 50.945,63.682 51.214,63.682 51.542 C 63.682 51.871,63.329 52.139,62.899 52.139 C 62.250 52.139,59.303 54.577,59.303 55.114 C 59.303 55.456,52.867 61.692,52.513 61.692 C 52.308 61.692,52.139 61.960,52.139 62.289 C 52.139 62.617,51.871 62.886,51.542 62.886 C 51.171 62.886,50.945 63.261,50.945 63.881 C 50.945 64.500,50.720 64.876,50.348 64.876 C 50.020 64.876,49.751 65.144,49.751 65.473 C 49.751 65.801,49.483 66.070,49.154 66.070 C 48.826 66.070,48.557 66.338,48.557 66.667 C 48.557 66.995,48.289 67.264,47.960 67.264 C 47.632 67.264,47.363 67.532,47.363 67.861 C 47.363 68.189,47.095 68.458,46.766 68.458 C 46.438 68.458,46.169 68.726,46.169 69.055 C 46.169 69.383,45.900 69.652,45.572 69.652 C 45.244 69.652,44.975 69.901,44.975 70.206 C 44.975 70.511,44.706 70.864,44.378 70.990 C 44.050 71.116,43.781 71.672,43.781 72.226 C 43.781 72.857,43.558 73.234,43.184 73.234 C 42.856 73.234,42.587 73.502,42.587 73.831 C 42.587 74.159,42.318 74.428,41.990 74.428 C 41.662 74.428,41.393 74.598,41.393 74.805 C 41.393 75.013,40.941 75.671,40.388 76.267 C 39.836 76.863,39.279 77.768,39.151 78.277 C 39.023 78.787,38.759 79.204,38.564 79.204 C 38.369 79.204,38.209 79.473,38.209 79.801 C 38.209 80.129,37.940 80.398,37.612 80.398 C 37.284 80.398,37.015 80.648,37.015 80.952 C 37.015 81.257,36.746 81.610,36.418 81.736 C 36.090 81.862,35.813 82.284,35.804 82.674 C 35.795 83.064,35.257 83.822,34.610 84.359 C 33.931 84.923,33.433 85.723,33.433 86.250 C 33.433 86.797,33.193 87.164,32.836 87.164 C 32.507 87.164,32.239 87.433,32.239 87.761 C 32.239 88.090,31.970 88.358,31.642 88.358 C 31.244 88.358,31.045 88.756,31.045 89.552 C 31.045 90.348,30.846 90.746,30.448 90.746 C 30.119 90.746,29.851 90.938,29.851 91.173 C 29.851 91.407,29.582 91.868,29.254 92.196 C 28.925 92.525,28.657 93.139,28.657 93.561 C 28.657 93.983,28.388 94.328,28.060 94.328 C 27.662 94.328,27.463 94.726,27.463 95.522 C 27.463 96.318,27.264 96.716,26.866 96.716 C 26.537 96.716,26.269 96.966,26.269 97.271 C 26.269 97.576,26.000 97.928,25.672 98.054 C 25.343 98.180,25.075 98.737,25.075 99.291 C 25.075 99.921,24.851 100.299,24.478 100.299 C 24.113 100.299,23.881 100.670,23.881 101.251 C 23.881 101.775,23.612 102.306,23.284 102.432 C 22.955 102.558,22.687 103.096,22.687 103.627 C 22.687 104.157,22.418 104.695,22.090 104.821 C 21.761 104.947,21.493 105.484,21.493 106.015 C 21.493 106.545,21.224 107.083,20.896 107.209 C 20.567 107.335,20.299 107.891,20.299 108.445 C 20.299 108.999,20.119 109.453,19.900 109.453 C 19.682 109.453,19.502 109.798,19.502 110.220 C 19.502 110.643,19.234 111.257,18.905 111.585 C 18.577 111.913,18.308 112.643,18.308 113.205 C 18.308 113.850,18.087 114.229,17.711 114.229 C 17.313 114.229,17.114 114.627,17.114 115.423 C 17.114 116.219,16.915 116.617,16.517 116.617 C 16.119 116.617,15.920 117.015,15.920 117.811 C 15.920 118.607,15.721 119.005,15.323 119.005 C 14.925 119.005,14.726 119.403,14.726 120.199 C 14.726 120.995,14.527 121.393,14.129 121.393 C 13.698 121.393,13.532 121.835,13.532 122.985 C 13.532 124.135,13.367 124.577,12.935 124.577 C 12.493 124.577,12.338 125.041,12.338 126.368 C 12.338 127.695,12.184 128.159,11.741 128.159 C 11.343 128.159,11.144 128.557,11.144 129.353 C 11.144 130.149,10.945 130.547,10.547 130.547 C 10.105 130.547,9.950 131.012,9.950 132.338 C 9.950 133.665,9.795 134.129,9.353 134.129 C 8.911 134.129,8.756 134.594,8.756 135.920 C 8.756 137.247,8.601 137.711,8.159 137.711 C 7.719 137.711,7.562 138.171,7.562 139.460 C 7.562 140.647,7.370 141.282,6.965 141.437 C 6.546 141.598,6.368 142.251,6.368 143.627 C 6.368 145.002,6.190 145.655,5.771 145.816 C 5.342 145.980,5.174 146.652,5.174 148.204 C 5.174 149.756,5.006 150.427,4.577 150.592 C 4.148 150.756,3.980 151.428,3.980 152.980 C 3.980 154.532,3.812 155.203,3.383 155.368 C 2.936 155.539,2.786 156.256,2.786 158.225 C 2.786 160.030,2.599 161.040,2.189 161.450 C 1.768 161.870,1.592 162.897,1.592 164.924 C 1.592 166.506,1.416 167.977,1.200 168.193 C -0.400 169.793,-0.432 229.026,1.167 230.038 C 1.350 230.154,1.569 231.646,1.654 233.353 C 1.739 235.061,2.006 236.583,2.248 236.736 C 2.489 236.890,2.765 238.257,2.860 239.776 C 2.962 241.418,3.224 242.600,3.506 242.694 C 3.795 242.791,3.980 243.697,3.980 245.021 C 3.980 246.581,4.148 247.253,4.577 247.418 C 5.006 247.583,5.174 248.254,5.174 249.806 C 5.174 251.358,5.342 252.030,5.771 252.194 C 6.161 252.344,6.368 252.964,6.368 253.985 C 6.368 255.007,6.575 255.627,6.965 255.776 C 7.384 255.937,7.562 256.590,7.562 257.966 C 7.562 259.341,7.740 259.994,8.159 260.155 C 8.524 260.295,8.756 260.898,8.756 261.706 C 8.756 262.433,9.025 263.296,9.353 263.625 C 9.682 263.953,9.950 264.759,9.950 265.416 C 9.950 266.072,10.219 266.878,10.547 267.207 C 10.876 267.535,11.144 268.264,11.144 268.827 C 11.144 269.472,11.365 269.851,11.741 269.851 C 12.173 269.851,12.338 270.294,12.338 271.455 C 12.338 272.514,12.541 273.138,12.935 273.289 C 13.276 273.419,13.532 274.013,13.532 274.669 C 13.532 275.428,13.736 275.821,14.129 275.821 C 14.561 275.821,14.726 276.263,14.726 277.413 C 14.726 278.563,14.892 279.005,15.323 279.005 C 15.721 279.005,15.920 279.403,15.920 280.199 C 15.920 280.995,16.119 281.393,16.517 281.393 C 16.915 281.393,17.114 281.791,17.114 282.587 C 17.114 283.383,17.313 283.781,17.711 283.781 C 18.109 283.781,18.308 284.179,18.308 284.975 C 18.308 285.771,18.507 286.169,18.905 286.169 C 19.303 286.169,19.502 286.567,19.502 287.363 C 19.502 288.020,19.682 288.557,19.900 288.557 C 20.119 288.557,20.299 288.903,20.299 289.325 C 20.299 289.747,20.567 290.361,20.896 290.689 C 21.224 291.018,21.493 291.663,21.493 292.123 C 21.493 292.584,21.761 293.063,22.090 293.189 C 22.418 293.315,22.687 293.853,22.687 294.383 C 22.687 294.914,22.955 295.451,23.284 295.577 C 23.612 295.703,23.881 296.235,23.881 296.759 C 23.881 297.340,24.113 297.711,24.478 297.711 C 25.000 297.711,25.277 298.447,25.118 299.414 C 25.090 299.584,25.338 299.827,25.668 299.954 C 25.998 300.081,26.269 300.434,26.269 300.739 C 26.269 301.044,26.537 301.294,26.866 301.294 C 27.264 301.294,27.463 301.692,27.463 302.488 C 27.463 303.284,27.662 303.682,28.060 303.682 C 28.388 303.682,28.657 303.950,28.657 304.279 C 28.657 304.607,28.925 304.876,29.254 304.876 C 29.652 304.876,29.851 305.274,29.851 306.070 C 29.851 306.866,30.050 307.264,30.448 307.264 C 30.821 307.264,31.045 307.641,31.045 308.271 C 31.045 308.825,31.313 309.382,31.642 309.508 C 31.970 309.634,32.239 309.986,32.239 310.291 C 32.239 310.596,32.507 310.846,32.836 310.846 C 33.209 310.846,33.433 311.223,33.433 311.853 C 33.433 312.407,33.701 312.964,34.030 313.090 C 34.358 313.216,34.627 313.568,34.627 313.873 C 34.627 314.178,34.896 314.428,35.224 314.428 C 35.552 314.428,35.821 314.697,35.821 315.025 C 35.821 315.353,36.090 315.622,36.418 315.622 C 36.789 315.622,37.015 315.998,37.015 316.617 C 37.015 317.236,37.240 317.612,37.612 317.612 C 37.940 317.612,38.209 317.815,38.209 318.064 C 38.209 318.312,38.636 318.911,39.157 319.395 C 39.679 319.878,40.241 320.705,40.407 321.231 C 40.572 321.758,41.131 322.583,41.647 323.066 C 42.164 323.548,42.587 324.130,42.587 324.359 C 42.587 324.588,42.856 324.776,43.184 324.776 C 43.512 324.776,43.781 325.045,43.781 325.373 C 43.781 325.701,44.050 325.970,44.378 325.970 C 44.752 325.970,44.975 326.347,44.975 326.978 C 44.975 327.532,45.244 328.088,45.572 328.214 C 45.900 328.340,46.169 328.693,46.169 328.998 C 46.169 329.303,46.438 329.552,46.766 329.552 C 47.095 329.552,47.363 329.821,47.363 330.149 C 47.363 330.478,47.632 330.746,47.960 330.746 C 48.289 330.746,48.557 331.015,48.557 331.343 C 48.557 331.672,48.826 331.940,49.154 331.940 C 49.483 331.940,49.751 332.209,49.751 332.537 C 49.751 332.866,50.020 333.134,50.348 333.134 C 50.677 333.134,50.945 333.403,50.945 333.731 C 50.945 334.060,51.214 334.328,51.542 334.328 C 51.871 334.328,52.139 334.597,52.139 334.925 C 52.139 335.254,52.408 335.522,52.736 335.522 C 53.065 335.522,53.333 335.791,53.333 336.119 C 53.333 336.448,53.521 336.716,53.750 336.716 C 53.980 336.716,54.582 337.164,55.090 337.711 C 55.597 338.259,56.215 338.706,56.464 338.706 C 56.712 338.706,56.915 338.910,56.915 339.158 C 56.915 339.407,57.363 340.025,57.910 340.532 C 58.458 341.040,58.905 341.642,58.905 341.872 C 58.905 342.101,59.174 342.289,59.502 342.289 C 59.831 342.289,60.100 342.557,60.100 342.886 C 60.100 343.214,60.368 343.483,60.697 343.483 C 61.025 343.483,61.294 343.751,61.294 344.080 C 61.294 344.408,61.562 344.677,61.891 344.677 C 62.219 344.677,62.488 344.945,62.488 345.274 C 62.488 345.602,62.756 345.871,63.085 345.871 C 63.413 345.871,63.682 346.139,63.682 346.468 C 63.682 346.796,63.950 347.065,64.279 347.065 C 64.607 347.065,64.876 347.333,64.876 347.662 C 64.876 347.990,65.144 348.259,65.473 348.259 C 65.801 348.259,66.070 348.527,66.070 348.856 C 66.070 349.184,66.338 349.453,66.667 349.453 C 66.995 349.453,67.264 349.721,67.264 350.050 C 67.264 350.378,67.449 350.647,67.675 350.647 C 67.901 350.647,68.612 351.184,69.254 351.841 C 69.896 352.498,70.785 353.035,71.230 353.035 C 71.685 353.035,72.040 353.297,72.040 353.632 C 72.040 353.960,72.308 354.229,72.637 354.229 C 72.965 354.229,73.234 354.498,73.234 354.826 C 73.234 355.154,73.421 355.423,73.651 355.423 C 73.880 355.423,74.462 355.846,74.944 356.363 C 75.426 356.879,76.224 357.429,76.716 357.583 C 77.209 357.738,77.612 358.032,77.612 358.236 C 77.612 358.440,77.797 358.607,78.023 358.607 C 78.250 358.607,78.960 359.144,79.602 359.801 C 80.244 360.458,81.133 360.995,81.579 360.995 C 82.033 360.995,82.388 361.257,82.388 361.592 C 82.388 361.920,82.657 362.189,82.985 362.189 C 83.313 362.189,83.582 362.458,83.582 362.786 C 83.582 363.184,83.980 363.383,84.776 363.383 C 85.572 363.383,85.970 363.582,85.970 363.980 C 85.970 364.308,86.239 364.577,86.567 364.577 C 86.896 364.577,87.164 364.846,87.164 365.174 C 87.164 365.572,87.562 365.771,88.358 365.771 C 89.154 365.771,89.552 365.970,89.552 366.368 C 89.552 366.697,89.821 366.965,90.149 366.965 C 90.478 366.965,90.746 367.234,90.746 367.562 C 90.746 367.960,91.144 368.159,91.940 368.159 C 92.736 368.159,93.134 368.358,93.134 368.756 C 93.134 369.085,93.384 369.353,93.689 369.353 C 93.994 369.353,94.346 369.622,94.472 369.950 C 94.598 370.279,95.155 370.547,95.709 370.547 C 96.339 370.547,96.716 370.771,96.716 371.144 C 96.716 371.509,97.088 371.741,97.669 371.741 C 98.193 371.741,98.724 372.010,98.850 372.338 C 98.976 372.667,99.452 372.935,99.907 372.935 C 100.362 372.935,101.138 373.371,101.631 373.903 C 102.124 374.435,103.011 374.992,103.602 375.140 C 104.193 375.288,104.677 375.550,104.677 375.721 C 104.677 375.893,105.146 376.151,105.720 376.295 C 106.293 376.439,107.023 376.817,107.340 377.134 C 107.658 377.452,108.263 377.711,108.685 377.711 C 109.107 377.711,109.453 377.891,109.453 378.109 C 109.453 378.328,109.990 378.507,110.647 378.507 C 111.443 378.507,111.841 378.706,111.841 379.104 C 111.841 379.502,112.239 379.701,113.035 379.701 C 113.831 379.701,114.229 379.900,114.229 380.299 C 114.229 380.730,114.671 380.896,115.821 380.896 C 116.971 380.896,117.413 381.061,117.413 381.493 C 117.413 381.891,117.811 382.090,118.607 382.090 C 119.403 382.090,119.801 382.289,119.801 382.687 C 119.801 383.080,120.194 383.284,120.952 383.284 C 121.609 383.284,122.202 383.540,122.333 383.881 C 122.484 384.275,123.108 384.478,124.167 384.478 C 125.328 384.478,125.771 384.643,125.771 385.075 C 125.771 385.517,126.235 385.672,127.562 385.672 C 128.889 385.672,129.353 385.826,129.353 386.269 C 129.353 386.667,129.751 386.866,130.547 386.866 C 131.343 386.866,131.741 387.065,131.741 387.463 C 131.741 387.905,132.206 388.060,133.532 388.060 C 134.859 388.060,135.323 388.214,135.323 388.657 C 135.323 389.089,135.767 389.254,136.928 389.254 C 137.987 389.254,138.610 389.457,138.762 389.851 C 138.926 390.279,139.596 390.448,141.137 390.448 C 142.780 390.448,143.284 390.588,143.284 391.045 C 143.284 391.509,143.814 391.642,145.672 391.642 C 147.529 391.642,148.060 391.774,148.060 392.239 C 148.060 392.703,148.590 392.836,150.448 392.836 C 152.305 392.836,152.836 392.968,152.836 393.433 C 152.836 393.885,153.325 394.030,154.854 394.030 C 156.118 394.030,157.096 394.253,157.470 394.627 C 157.899 395.056,158.943 395.224,161.180 395.224 C 163.580 395.224,164.345 395.361,164.522 395.821 C 164.701 396.286,165.492 396.418,168.114 396.418 C 170.023 396.418,171.534 396.592,171.610 396.820 C 172.104 398.303,226.769 398.447,228.248 396.969 C 228.627 396.590,229.807 396.418,232.024 396.418 C 234.523 396.418,235.300 396.284,235.478 395.821 C 235.655 395.361,236.420 395.224,238.820 395.224 C 241.002 395.224,242.105 395.052,242.508 394.649 C 242.825 394.332,244.040 394.020,245.223 393.953 C 246.674 393.870,247.331 393.671,247.264 393.333 C 247.193 392.980,247.854 392.836,249.552 392.836 C 251.410 392.836,251.940 392.703,251.940 392.239 C 251.940 391.774,252.471 391.642,254.328 391.642 C 256.186 391.642,256.716 391.509,256.716 391.045 C 256.716 390.588,257.220 390.448,258.863 390.448 C 260.404 390.448,261.074 390.279,261.238 389.851 C 261.390 389.457,262.013 389.254,263.072 389.254 C 264.233 389.254,264.677 389.089,264.677 388.657 C 264.677 388.214,265.141 388.060,266.468 388.060 C 267.794 388.060,268.259 387.905,268.259 387.463 C 268.259 387.065,268.657 386.866,269.453 386.866 C 270.249 386.866,270.647 386.667,270.647 386.269 C 270.647 385.826,271.111 385.672,272.438 385.672 C 273.765 385.672,274.229 385.517,274.229 385.075 C 274.229 384.643,274.672 384.478,275.833 384.478 C 276.892 384.478,277.516 384.275,277.667 383.881 C 277.798 383.540,278.391 383.284,279.048 383.284 C 279.806 383.284,280.199 383.080,280.199 382.687 C 280.199 382.289,280.597 382.090,281.393 382.090 C 282.189 382.090,282.587 381.891,282.587 381.493 C 282.587 381.061,283.029 380.896,284.179 380.896 C 285.329 380.896,285.771 380.730,285.771 380.299 C 285.771 379.900,286.169 379.701,286.965 379.701 C 287.761 379.701,288.159 379.502,288.159 379.104 C 288.159 378.706,288.557 378.507,289.353 378.507 C 290.010 378.507,290.547 378.328,290.547 378.109 C 290.547 377.891,290.893 377.711,291.315 377.711 C 291.737 377.711,292.342 377.452,292.660 377.134 C 292.977 376.817,293.707 376.439,294.280 376.295 C 294.854 376.151,295.323 375.893,295.323 375.721 C 295.323 375.550,295.807 375.288,296.398 375.140 C 296.989 374.992,297.876 374.435,298.369 373.903 C 298.862 373.371,299.638 372.935,300.093 372.935 C 300.548 372.935,301.024 372.667,301.150 372.338 C 301.276 372.010,301.807 371.741,302.331 371.741 C 302.912 371.741,303.284 371.509,303.284 371.144 C 303.284 370.771,303.661 370.547,304.291 370.547 C 304.845 370.547,305.402 370.279,305.528 369.950 C 305.654 369.622,306.006 369.353,306.311 369.353 C 306.616 369.353,306.866 369.085,306.866 368.756 C 306.866 368.358,307.264 368.159,308.060 368.159 C 308.856 368.159,309.254 367.960,309.254 367.562 C 309.254 367.234,309.522 366.965,309.851 366.965 C 310.179 366.965,310.448 366.697,310.448 366.368 C 310.448 365.970,310.846 365.771,311.642 365.771 C 312.438 365.771,312.836 365.572,312.836 365.174 C 312.836 364.846,313.104 364.577,313.433 364.577 C 313.761 364.577,314.030 364.308,314.030 363.980 C 314.030 363.582,314.428 363.383,315.224 363.383 C 316.020 363.383,316.418 363.184,316.418 362.786 C 316.418 362.458,316.687 362.189,317.015 362.189 C 317.343 362.189,317.612 361.920,317.612 361.592 C 317.612 361.257,317.967 360.995,318.421 360.995 C 318.867 360.995,319.756 360.458,320.398 359.801 C 321.040 359.144,321.750 358.607,321.977 358.607 C 322.203 358.607,322.388 358.440,322.388 358.236 C 322.388 358.032,322.791 357.738,323.284 357.583 C 323.776 357.429,324.574 356.879,325.056 356.363 C 325.538 355.846,326.120 355.423,326.349 355.423 C 326.579 355.423,326.766 355.154,326.766 354.826 C 326.766 354.498,327.035 354.229,327.363 354.229 C 327.692 354.229,327.960 353.960,327.960 353.632 C 327.960 353.274,328.327 353.035,328.874 353.035 C 329.402 353.035,330.202 352.537,330.765 351.858 C 331.302 351.210,331.965 350.673,332.239 350.664 C 332.512 350.654,332.736 350.378,332.736 350.050 C 332.736 349.721,333.005 349.453,333.333 349.453 C 333.662 349.453,333.930 349.184,333.930 348.856 C 333.930 348.527,334.199 348.259,334.527 348.259 C 334.856 348.259,335.124 347.990,335.124 347.662 C 335.124 347.333,335.393 347.065,335.721 347.065 C 336.050 347.065,336.318 346.796,336.318 346.468 C 336.318 346.139,336.587 345.871,336.915 345.871 C 337.244 345.871,337.512 345.602,337.512 345.274 C 337.512 344.945,337.781 344.677,338.109 344.677 C 338.438 344.677,338.706 344.408,338.706 344.080 C 338.706 343.751,338.975 343.483,339.303 343.483 C 339.632 343.483,339.900 343.214,339.900 342.886 C 339.900 342.557,340.169 342.289,340.498 342.289 C 340.826 342.289,341.095 342.101,341.095 341.872 C 341.095 341.642,341.542 341.040,342.090 340.532 C 342.637 340.025,343.085 339.407,343.085 339.158 C 343.085 338.910,343.288 338.706,343.536 338.706 C 343.785 338.706,344.403 338.259,344.910 337.711 C 345.418 337.164,346.020 336.716,346.250 336.716 C 346.479 336.716,346.667 336.448,346.667 336.119 C 346.667 335.791,346.935 335.522,347.264 335.522 C 347.592 335.522,347.861 335.254,347.861 334.925 C 347.861 334.597,348.129 334.328,348.458 334.328 C 348.786 334.328,349.055 334.060,349.055 333.731 C 349.055 333.403,349.323 333.134,349.652 333.134 C 349.980 333.134,350.249 332.866,350.249 332.537 C 350.249 332.209,350.517 331.940,350.846 331.940 C 351.174 331.940,351.443 331.672,351.443 331.343 C 351.443 331.015,351.711 330.746,352.040 330.746 C 352.368 330.746,352.637 330.478,352.637 330.149 C 352.637 329.821,352.905 329.552,353.234 329.552 C 353.562 329.552,353.831 329.303,353.831 328.998 C 353.831 328.693,354.100 328.340,354.428 328.214 C 354.756 328.088,355.025 327.532,355.025 326.978 C 355.025 326.347,355.248 325.970,355.622 325.970 C 355.950 325.970,356.219 325.701,356.219 325.373 C 356.219 325.045,356.488 324.776,356.816 324.776 C 357.144 324.776,357.413 324.588,357.413 324.359 C 357.413 324.130,357.848 323.539,358.380 323.045 C 358.913 322.552,359.469 321.665,359.618 321.074 C 359.766 320.483,360.137 320.000,360.441 320.000 C 360.746 320.000,360.995 319.731,360.995 319.403 C 360.995 319.075,361.174 318.806,361.393 318.806 C 361.612 318.806,361.791 318.537,361.791 318.209 C 361.791 317.881,362.060 317.612,362.388 317.612 C 362.760 317.612,362.985 317.236,362.985 316.617 C 362.985 315.998,363.211 315.622,363.582 315.622 C 363.910 315.622,364.179 315.353,364.179 315.025 C 364.179 314.697,364.448 314.428,364.776 314.428 C 365.104 314.428,365.373 314.178,365.373 313.873 C 365.373 313.568,365.642 313.216,365.970 313.090 C 366.299 312.964,366.567 312.407,366.567 311.853 C 366.567 311.223,366.791 310.846,367.164 310.846 C 367.493 310.846,367.761 310.596,367.761 310.291 C 367.761 309.986,368.030 309.634,368.358 309.508 C 368.687 309.382,368.955 308.825,368.955 308.271 C 368.955 307.641,369.179 307.264,369.552 307.264 C 369.950 307.264,370.149 306.866,370.149 306.070 C 370.149 305.274,370.348 304.876,370.746 304.876 C 371.075 304.876,371.343 304.607,371.343 304.279 C 371.343 303.950,371.612 303.682,371.940 303.682 C 372.338 303.682,372.537 303.284,372.537 302.488 C 372.537 301.692,372.736 301.294,373.134 301.294 C 373.532 301.294,373.731 300.896,373.731 300.100 C 373.731 299.303,373.930 298.905,374.328 298.905 C 374.657 298.905,374.925 298.637,374.925 298.308 C 374.925 297.980,375.194 297.711,375.522 297.711 C 375.887 297.711,376.119 297.340,376.119 296.759 C 376.119 296.235,376.388 295.703,376.716 295.577 C 377.045 295.451,377.313 294.914,377.313 294.383 C 377.313 293.853,377.582 293.315,377.910 293.189 C 378.239 293.063,378.507 292.526,378.507 291.995 C 378.507 291.465,378.776 290.927,379.104 290.801 C 379.433 290.675,379.701 290.138,379.701 289.607 C 379.701 289.077,379.970 288.539,380.299 288.413 C 380.627 288.287,380.896 287.731,380.896 287.177 C 380.896 286.623,381.075 286.169,381.294 286.169 C 381.512 286.169,381.692 285.632,381.692 284.975 C 381.692 284.179,381.891 283.781,382.289 283.781 C 382.687 283.781,382.886 283.383,382.886 282.587 C 382.886 281.791,383.085 281.393,383.483 281.393 C 383.881 281.393,384.080 280.995,384.080 280.199 C 384.080 279.403,384.279 279.005,384.677 279.005 C 385.108 279.005,385.274 278.563,385.274 277.413 C 385.274 276.263,385.439 275.821,385.871 275.821 C 386.264 275.821,386.468 275.428,386.468 274.669 C 386.468 274.013,386.724 273.419,387.065 273.289 C 387.459 273.138,387.662 272.514,387.662 271.455 C 387.662 270.294,387.827 269.851,388.259 269.851 C 388.652 269.851,388.856 269.457,388.856 268.699 C 388.856 268.043,389.112 267.449,389.453 267.319 C 389.843 267.169,390.050 266.549,390.050 265.528 C 390.050 264.506,390.256 263.886,390.647 263.737 C 391.037 263.587,391.244 262.967,391.244 261.946 C 391.244 260.924,391.450 260.304,391.841 260.155 C 392.260 259.994,392.438 259.341,392.438 257.966 C 392.438 256.590,392.616 255.937,393.035 255.776 C 393.425 255.627,393.632 255.007,393.632 253.985 C 393.632 252.964,393.839 252.344,394.229 252.194 C 394.658 252.030,394.826 251.358,394.826 249.806 C 394.826 248.254,394.994 247.583,395.423 247.418 C 395.846 247.256,396.020 246.596,396.020 245.158 C 396.020 243.884,396.242 242.905,396.617 242.530 C 397.022 242.125,397.214 241.122,397.214 239.408 C 397.214 237.772,397.385 236.825,397.700 236.720 C 398.010 236.617,398.243 235.412,398.343 233.403 C 398.430 231.668,398.688 230.131,398.916 229.987 C 400.416 229.042,400.347 168.540,398.846 168.040 C 398.580 167.951,398.408 166.743,398.408 164.970 C 398.408 162.902,398.233 161.872,397.811 161.450 C 397.401 161.040,397.214 160.030,397.214 158.225 C 397.214 156.256,397.064 155.539,396.617 155.368 C 396.188 155.203,396.020 154.532,396.020 152.980 C 396.020 151.428,395.852 150.756,395.423 150.592 C 394.994 150.427,394.826 149.756,394.826 148.204 C 394.826 146.652,394.658 145.980,394.229 145.816 C 393.810 145.655,393.632 145.002,393.632 143.627 C 393.632 142.251,393.454 141.598,393.035 141.437 C 392.630 141.282,392.438 140.647,392.438 139.460 C 392.438 138.171,392.281 137.711,391.841 137.711 C 391.399 137.711,391.244 137.247,391.244 135.920 C 391.244 134.594,391.089 134.129,390.647 134.129 C 390.205 134.129,390.050 133.665,390.050 132.338 C 390.050 131.012,389.895 130.547,389.453 130.547 C 389.055 130.547,388.856 130.149,388.856 129.353 C 388.856 128.557,388.657 128.159,388.259 128.159 C 387.816 128.159,387.662 127.695,387.662 126.368 C 387.662 125.041,387.507 124.577,387.065 124.577 C 386.633 124.577,386.468 124.135,386.468 122.985 C 386.468 121.835,386.302 121.393,385.871 121.393 C 385.473 121.393,385.274 120.995,385.274 120.199 C 385.274 119.403,385.075 119.005,384.677 119.005 C 384.279 119.005,384.080 118.607,384.080 117.811 C 384.080 117.015,383.881 116.617,383.483 116.617 C 383.085 116.617,382.886 116.219,382.886 115.423 C 382.886 114.627,382.687 114.229,382.289 114.229 C 381.891 114.229,381.692 113.831,381.692 113.035 C 381.692 112.378,381.512 111.841,381.294 111.841 C 381.075 111.841,380.896 111.387,380.896 110.833 C 380.896 110.279,380.627 109.723,380.299 109.597 C 379.970 109.471,379.701 108.933,379.701 108.403 C 379.701 107.872,379.433 107.335,379.104 107.209 C 378.776 107.083,378.507 106.545,378.507 106.015 C 378.507 105.484,378.239 104.947,377.910 104.821 C 377.582 104.695,377.313 104.157,377.313 103.627 C 377.313 103.096,377.045 102.558,376.716 102.432 C 376.388 102.306,376.119 101.775,376.119 101.251 C 376.119 100.670,375.887 100.299,375.522 100.299 C 375.149 100.299,374.925 99.921,374.925 99.291 C 374.925 98.737,374.657 98.180,374.328 98.054 C 374.000 97.928,373.731 97.576,373.731 97.271 C 373.731 96.966,373.463 96.716,373.134 96.716 C 372.736 96.716,372.537 96.318,372.537 95.522 C 372.537 94.726,372.338 94.328,371.940 94.328 C 371.567 94.328,371.343 93.951,371.343 93.321 C 371.343 92.767,371.075 92.210,370.746 92.084 C 370.418 91.958,370.149 91.606,370.149 91.301 C 370.149 90.996,369.881 90.746,369.552 90.746 C 369.154 90.746,368.955 90.348,368.955 89.552 C 368.955 88.756,368.756 88.358,368.358 88.358 C 368.030 88.358,367.761 88.090,367.761 87.761 C 367.761 87.433,367.493 87.164,367.164 87.164 C 366.791 87.164,366.567 86.787,366.567 86.157 C 366.567 85.603,366.299 85.046,365.970 84.920 C 365.642 84.794,365.373 84.441,365.373 84.137 C 365.373 83.832,365.104 83.582,364.776 83.582 C 364.405 83.582,364.179 83.206,364.179 82.587 C 364.179 81.968,363.954 81.592,363.582 81.592 C 363.254 81.592,362.985 81.323,362.985 80.995 C 362.985 80.667,362.716 80.398,362.388 80.398 C 362.060 80.398,361.791 80.129,361.791 79.801 C 361.791 79.473,361.631 79.204,361.436 79.204 C 361.241 79.204,360.960 78.721,360.812 78.130 C 360.663 77.539,360.107 76.652,359.574 76.159 C 359.042 75.665,358.607 75.074,358.607 74.845 C 358.607 74.616,358.338 74.428,358.010 74.428 C 357.682 74.428,357.413 74.159,357.413 73.831 C 357.413 73.502,357.144 73.234,356.816 73.234 C 356.442 73.234,356.219 72.857,356.219 72.226 C 356.219 71.672,355.950 71.116,355.622 70.990 C 355.294 70.864,355.025 70.511,355.025 70.206 C 355.025 69.901,354.756 69.652,354.428 69.652 C 354.100 69.652,353.831 69.383,353.831 69.055 C 353.831 68.726,353.562 68.458,353.234 68.458 C 352.905 68.458,352.637 68.189,352.637 67.861 C 352.637 67.532,352.368 67.264,352.040 67.264 C 351.711 67.264,351.443 66.995,351.443 66.667 C 351.443 66.338,351.174 66.070,350.846 66.070 C 350.517 66.070,350.249 65.801,350.249 65.473 C 350.249 65.144,349.980 64.876,349.652 64.876 C 349.323 64.876,349.055 64.607,349.055 64.279 C 349.055 63.950,348.786 63.682,348.458 63.682 C 348.086 63.682,347.861 63.306,347.861 62.687 C 347.861 62.067,347.635 61.692,347.264 61.692 C 346.935 61.692,346.667 61.423,346.667 61.095 C 346.667 60.766,346.398 60.498,346.070 60.498 C 345.741 60.498,345.473 60.229,345.473 59.900 C 345.473 59.572,345.294 59.303,345.075 59.303 C 344.558 59.303,343.085 57.830,343.085 57.313 C 343.085 57.095,342.816 56.915,342.488 56.915 C 342.159 56.915,341.891 56.647,341.891 56.318 C 341.891 55.990,341.622 55.721,341.294 55.721 C 340.965 55.721,340.697 55.548,340.697 55.337 C 340.697 54.631,337.895 52.139,337.101 52.139 C 336.671 52.139,336.318 51.871,336.318 51.542 C 336.318 51.214,336.050 50.945,335.721 50.945 C 335.393 50.945,335.124 50.677,335.124 50.348 C 335.124 50.020,334.856 49.751,334.527 49.751 C 334.199 49.751,333.930 49.483,333.930 49.154 C 333.930 48.826,333.662 48.557,333.333 48.557 C 333.005 48.557,332.736 48.289,332.736 47.960 C 332.736 47.632,332.468 47.363,332.139 47.363 C 331.811 47.363,331.542 47.095,331.542 46.766 C 331.542 46.438,331.349 46.169,331.114 46.169 C 330.878 46.169,330.148 45.632,329.491 44.975 C 328.834 44.318,327.953 43.781,327.532 43.781 C 327.111 43.781,326.766 43.512,326.766 43.184 C 326.766 42.856,326.579 42.587,326.349 42.587 C 326.120 42.587,325.517 42.139,325.010 41.592 C 324.503 41.045,323.884 40.597,323.636 40.597 C 323.387 40.597,323.184 40.328,323.184 40.000 C 323.184 39.629,322.808 39.403,322.189 39.403 C 321.570 39.403,321.194 39.177,321.194 38.806 C 321.194 38.478,320.925 38.209,320.597 38.209 C 320.269 38.209,320.000 37.940,320.000 37.612 C 320.000 37.214,319.602 37.015,318.806 37.015 C 318.010 37.015,317.612 36.816,317.612 36.418 C 317.612 36.090,317.343 35.821,317.015 35.821 C 316.687 35.821,316.418 35.552,316.418 35.224 C 316.418 34.896,316.168 34.627,315.863 34.627 C 315.559 34.627,315.206 34.358,315.080 34.030 C 314.954 33.701,314.397 33.433,313.843 33.433 C 313.213 33.433,312.836 33.209,312.836 32.836 C 312.836 32.507,312.586 32.239,312.281 32.239 C 311.976 32.239,311.624 31.970,311.498 31.642 C 311.372 31.313,310.815 31.045,310.261 31.045 C 309.631 31.045,309.254 30.821,309.254 30.448 C 309.254 30.119,309.062 29.851,308.827 29.851 C 308.593 29.851,308.132 29.582,307.804 29.254 C 307.475 28.925,306.861 28.657,306.439 28.657 C 306.017 28.657,305.672 28.388,305.672 28.060 C 305.672 27.695,305.300 27.463,304.719 27.463 C 304.195 27.463,303.664 27.194,303.538 26.866 C 303.412 26.537,303.053 26.269,302.742 26.269 C 302.430 26.269,302.072 26.000,301.946 25.672 C 301.820 25.343,301.372 25.075,300.951 25.075 C 300.529 25.075,300.082 24.806,299.956 24.478 C 299.830 24.149,299.350 23.881,298.890 23.881 C 298.429 23.881,297.784 23.612,297.456 23.284 C 297.127 22.955,296.532 22.687,296.134 22.687 C 295.735 22.687,295.305 22.418,295.179 22.090 C 295.053 21.761,294.497 21.493,293.943 21.493 C 293.389 21.493,292.935 21.313,292.935 21.095 C 292.935 20.876,292.590 20.697,292.168 20.697 C 291.746 20.697,291.131 20.428,290.803 20.100 C 290.475 19.771,289.746 19.502,289.183 19.502 C 288.538 19.502,288.159 19.281,288.159 18.905 C 288.159 18.507,287.761 18.308,286.965 18.308 C 286.169 18.308,285.771 18.109,285.771 17.711 C 285.771 17.338,285.394 17.114,284.764 17.114 C 284.209 17.114,283.653 16.846,283.527 16.517 C 283.401 16.189,282.864 15.920,282.333 15.920 C 281.802 15.920,281.265 15.652,281.139 15.323 C 280.990 14.934,280.371 14.726,279.360 14.726 C 278.248 14.726,277.811 14.558,277.811 14.129 C 277.811 13.736,277.418 13.532,276.659 13.532 C 276.003 13.532,275.410 13.276,275.279 12.935 C 275.128 12.541,274.504 12.338,273.445 12.338 C 272.284 12.338,271.841 12.173,271.841 11.741 C 271.841 11.299,271.376 11.144,270.050 11.144 C 268.723 11.144,268.259 10.989,268.259 10.547 C 268.259 10.119,267.821 9.950,266.709 9.950 C 265.699 9.950,265.080 9.742,264.931 9.353 C 264.781 8.963,264.161 8.756,263.140 8.756 C 262.118 8.756,261.498 8.550,261.349 8.159 C 261.204 7.781,260.593 7.562,259.686 7.562 C 258.897 7.562,257.983 7.294,257.655 6.965 C 257.289 6.600,256.314 6.368,255.139 6.368 C 253.800 6.368,253.150 6.188,252.990 5.771 C 252.825 5.340,252.150 5.174,250.560 5.174 C 248.868 5.174,248.358 5.036,248.358 4.577 C 248.358 4.125,247.869 3.980,246.340 3.980 C 245.076 3.980,244.098 3.757,243.724 3.383 C 243.319 2.978,242.316 2.786,240.602 2.786 C 238.996 2.786,238.018 2.613,237.918 2.310 C 237.814 2.000,236.385 1.775,233.805 1.664 C 231.630 1.571,229.753 1.341,229.633 1.154 C 228.979 0.127,188.988 -0.400,175.753 0.443 M198.659 110.946 C 198.380 114.393,197.997 120.064,197.808 123.547 C 197.618 127.029,197.278 132.134,197.051 134.890 C 196.493 141.661,195.832 151.373,195.435 158.607 C 195.256 161.891,194.914 166.995,194.676 169.950 C 194.438 172.905,194.053 178.279,193.821 181.891 C 193.381 188.754,192.948 191.538,192.286 191.759 C 191.487 192.025,189.556 195.690,189.056 197.890 C 186.862 207.526,197.735 215.798,205.694 210.547 C 211.882 206.465,213.093 197.324,208.146 192.040 C 206.928 190.738,206.459 187.982,205.979 179.303 C 205.636 173.098,204.606 158.163,203.961 150.050 C 203.639 146.000,203.378 141.701,203.381 140.498 C 203.385 139.294,203.210 136.070,202.994 133.333 C 201.691 116.860,201.047 105.029,201.414 104.308 C 201.693 103.759,202.489 105.254,206.169 113.234 C 209.318 120.062,210.628 122.828,210.975 123.383 C 211.180 123.711,211.459 124.249,211.595 124.577 C 212.165 125.955,213.927 129.789,215.528 133.134 C 216.470 135.104,218.082 138.507,219.109 140.697 C 220.136 142.886,221.607 146.020,222.378 147.662 C 223.149 149.303,224.491 152.169,225.361 154.030 C 226.231 155.891,227.706 159.025,228.639 160.995 C 229.572 162.965,231.180 166.368,232.214 168.557 C 233.247 170.746,234.694 173.791,235.429 175.323 C 236.164 176.856,237.383 179.453,238.139 181.095 C 238.895 182.736,240.317 185.781,241.300 187.861 C 242.283 189.940,243.841 193.254,244.761 195.224 C 246.704 199.381,248.562 203.322,250.953 208.358 C 253.106 212.891,256.020 219.083,256.854 220.896 C 257.206 221.662,257.498 222.046,257.503 221.749 C 257.508 221.453,258.050 220.414,258.706 219.441 C 259.363 218.468,259.900 217.575,259.900 217.458 C 259.900 217.341,260.416 216.499,261.046 215.587 C 262.873 212.944,266.491 207.290,267.328 205.771 C 267.749 205.005,268.801 203.303,269.665 201.990 C 270.529 200.677,271.416 199.301,271.638 198.934 C 271.859 198.566,273.338 196.193,274.925 193.660 C 276.512 191.127,279.109 186.978,280.697 184.441 C 282.284 181.903,283.851 179.405,284.179 178.889 C 284.507 178.373,285.818 176.285,287.091 174.249 C 288.364 172.213,290.558 168.756,291.967 166.567 C 293.376 164.378,294.651 162.318,294.800 161.990 C 294.949 161.662,295.665 160.522,296.391 159.458 C 297.953 157.168,297.995 156.738,296.816 155.092 C 293.513 150.482,294.322 144.790,298.701 141.836 C 304.101 138.194,311.244 142.419,311.244 149.254 C 311.244 153.470,307.562 158.010,304.142 158.010 C 302.397 158.010,302.194 158.549,301.744 164.378 C 301.286 170.312,300.676 176.716,300.074 181.891 C 299.858 183.751,299.505 187.423,299.291 190.050 C 299.076 192.677,298.643 197.512,298.327 200.796 C 298.011 204.080,297.565 208.826,297.336 211.343 C 297.107 213.861,296.737 217.532,296.514 219.502 C 296.075 223.378,295.476 230.062,294.943 237.020 C 294.759 239.431,294.416 243.102,294.182 245.179 C 293.763 248.899,292.900 257.722,292.161 265.834 C 291.924 268.443,291.592 270.099,291.265 270.307 C 290.980 270.489,278.209 270.595,262.886 270.543 L 235.025 270.448 234.806 265.672 L 234.588 260.896 234.508 265.530 C 234.442 269.339,234.316 270.207,233.798 270.405 C 232.495 270.905,166.556 270.675,166.050 270.169 C 165.747 269.866,165.543 268.083,165.492 265.294 L 165.412 260.896 165.194 265.672 L 164.975 270.448 137.066 270.550 C 105.843 270.664,108.357 270.919,108.056 267.604 C 107.472 261.171,106.567 251.579,106.222 248.159 C 105.563 241.625,104.684 232.133,104.303 227.442 C 104.106 225.023,103.757 221.262,103.526 219.084 C 102.866 212.844,101.251 195.984,100.097 183.284 C 99.758 179.562,99.226 174.100,98.913 171.144 C 98.600 168.189,98.240 164.259,98.112 162.410 C 97.848 158.608,97.534 158.015,95.772 157.997 C 87.999 157.914,86.502 145.198,93.793 141.188 C 101.373 137.019,109.615 150.037,102.915 155.598 C 101.951 156.397,102.110 156.881,104.706 161.072 C 106.036 163.219,107.334 165.333,107.591 165.771 C 107.848 166.209,108.427 167.104,108.879 167.761 C 109.331 168.418,110.675 170.532,111.865 172.459 C 113.056 174.386,114.341 176.446,114.722 177.036 C 115.103 177.626,115.539 178.371,115.692 178.691 C 115.846 179.011,116.743 180.401,117.687 181.780 C 118.631 183.158,119.403 184.384,119.403 184.503 C 119.403 184.622,120.180 185.918,121.129 187.384 C 123.909 191.676,127.132 196.735,127.562 197.481 C 128.021 198.276,131.253 203.445,132.139 204.799 C 132.468 205.301,133.811 207.436,135.124 209.543 C 136.438 211.650,137.781 213.793,138.109 214.306 C 138.438 214.818,139.409 216.376,140.268 217.768 C 143.006 222.205,142.661 222.047,143.886 219.431 C 147.337 212.061,151.052 204.192,153.624 198.806 C 154.879 196.179,156.399 192.955,157.003 191.642 C 158.148 189.151,159.013 187.318,163.355 178.176 C 164.793 175.149,165.970 172.603,165.970 172.520 C 165.970 172.437,167.027 170.168,168.320 167.478 C 170.783 162.350,173.724 156.147,176.393 150.448 C 177.265 148.587,178.491 145.990,179.118 144.677 C 179.745 143.363,181.138 140.408,182.215 138.109 C 187.872 126.028,188.901 123.843,192.248 116.816 C 196.336 108.232,197.425 105.892,197.841 104.797 C 198.858 102.122,199.178 104.527,198.659 110.946 M164.697 283.065 C 165.023 283.392,165.174 285.338,165.174 289.237 L 165.174 294.931 138.010 294.829 L 110.846 294.726 110.379 291.144 C 109.761 286.405,109.744 283.649,110.328 283.065 C 111.019 282.374,164.006 282.374,164.697 283.065 M233.993 283.139 C 234.302 283.512,234.415 285.480,234.340 289.209 L 234.229 294.726 200.000 294.726 L 165.771 294.726 165.661 289.293 C 165.568 284.744,165.654 283.756,166.187 283.223 C 167.087 282.323,233.247 282.241,233.993 283.139 M289.672 283.065 C 290.267 283.660,290.244 287.313,289.618 291.542 L 289.147 294.726 262.086 294.726 L 235.025 294.726 234.914 289.209 C 234.839 285.480,234.951 283.512,235.261 283.139 C 235.890 282.381,288.915 282.308,289.672 283.065 " stroke="none" fill="#049cc4" fill-rule="evenodd"></path><path id="path1" d="M171.642 0.672 C 172.025 0.772,172.652 0.772,173.035 0.672 C 173.418 0.572,173.104 0.490,172.338 0.490 C 171.572 0.490,171.259 0.572,171.642 0.672 M226.965 0.672 C 227.348 0.772,227.975 0.772,228.358 0.672 C 228.741 0.572,228.428 0.490,227.662 0.490 C 226.896 0.490,226.582 0.572,226.965 0.672 M197.841 104.797 C 197.425 105.892,196.336 108.232,192.248 116.816 C 188.901 123.843,187.872 126.028,182.215 138.109 C 181.138 140.408,179.745 143.363,179.118 144.677 C 178.491 145.990,177.265 148.587,176.393 150.448 C 173.724 156.147,170.783 162.350,168.320 167.478 C 167.027 170.168,165.970 172.437,165.970 172.520 C 165.970 172.603,164.793 175.149,163.355 178.176 C 159.013 187.318,158.148 189.151,157.003 191.642 C 156.399 192.955,154.879 196.179,153.624 198.806 C 151.051 204.193,147.221 212.305,143.928 219.342 C 142.641 222.093,142.641 222.124,143.972 224.187 C 144.569 225.113,145.241 226.168,145.465 226.531 C 145.688 226.893,146.856 228.745,148.060 230.645 C 149.264 232.545,150.500 234.576,150.808 235.159 C 151.115 235.742,151.484 236.308,151.628 236.418 C 151.772 236.527,152.584 237.781,153.434 239.204 C 154.283 240.627,155.590 242.687,156.338 243.781 C 157.086 244.876,157.860 246.129,158.058 246.567 C 158.256 247.005,159.574 249.154,160.986 251.343 C 165.076 257.681,165.221 258.101,165.463 264.279 C 165.578 267.234,165.851 269.876,166.069 270.149 C 166.513 270.706,233.035 270.895,233.879 270.342 C 234.155 270.161,234.397 268.002,234.515 264.677 C 234.760 257.745,234.186 259.059,243.258 244.657 C 248.325 236.614,251.685 231.250,254.153 227.264 C 255.441 225.184,256.634 223.423,256.805 223.350 C 257.230 223.168,257.195 221.434,256.748 220.592 C 256.547 220.212,255.544 218.109,254.518 215.920 C 253.493 213.731,251.889 210.328,250.953 208.358 C 248.562 203.322,246.704 199.381,244.761 195.224 C 243.841 193.254,242.283 189.940,241.300 187.861 C 240.317 185.781,238.895 182.736,238.139 181.095 C 237.383 179.453,236.164 176.856,235.429 175.323 C 234.694 173.791,233.247 170.746,232.214 168.557 C 231.180 166.368,229.572 162.965,228.639 160.995 C 227.706 159.025,226.231 155.891,225.361 154.030 C 224.491 152.169,223.149 149.303,222.378 147.662 C 221.607 146.020,220.136 142.886,219.109 140.697 C 218.082 138.507,216.470 135.104,215.528 133.134 C 213.927 129.789,212.165 125.955,211.595 124.577 C 211.459 124.249,211.180 123.711,210.975 123.383 C 210.628 122.828,209.318 120.062,206.169 113.234 C 202.489 105.254,201.693 103.759,201.414 104.308 C 201.047 105.029,201.691 116.860,202.994 133.333 C 203.210 136.070,203.385 139.294,203.381 140.498 C 203.378 141.701,203.639 146.000,203.961 150.050 C 204.606 158.163,205.636 173.098,205.979 179.303 C 206.459 187.982,206.928 190.738,208.146 192.040 C 213.093 197.324,211.882 206.465,205.694 210.547 C 197.735 215.798,186.862 207.526,189.056 197.890 C 189.556 195.690,191.487 192.025,192.286 191.759 C 192.948 191.538,193.381 188.754,193.821 181.891 C 194.053 178.279,194.438 172.905,194.676 169.950 C 194.914 166.995,195.256 161.891,195.435 158.607 C 195.832 151.373,196.493 141.661,197.051 134.890 C 197.278 132.134,197.618 127.029,197.808 123.547 C 197.997 120.064,198.380 114.393,198.659 110.946 C 199.178 104.527,198.858 102.122,197.841 104.797 M166.187 283.223 C 165.654 283.756,165.568 284.744,165.661 289.293 L 165.771 294.726 200.000 294.726 L 234.229 294.726 234.340 289.209 C 234.415 285.480,234.302 283.512,233.993 283.139 C 233.247 282.241,167.087 282.323,166.187 283.223 " stroke="none" fill="#1b1415" fill-rule="evenodd"></path><path id="path2" d="M93.584 141.292 C 86.475 145.261,88.132 157.916,95.772 157.997 C 97.534 158.015,97.848 158.608,98.112 162.410 C 98.240 164.259,98.600 168.189,98.913 171.144 C 99.226 174.100,99.758 179.562,100.097 183.284 C 101.251 195.984,102.866 212.844,103.526 219.084 C 103.757 221.262,104.106 225.023,104.303 227.442 C 104.684 232.133,105.563 241.625,106.222 248.159 C 106.567 251.579,107.472 261.171,108.056 267.604 C 108.357 270.919,105.843 270.664,137.066 270.550 L 164.975 270.448 164.970 264.279 L 164.965 258.109 161.189 251.993 C 159.112 248.630,157.144 245.460,156.816 244.949 C 156.488 244.439,155.144 242.297,153.831 240.190 C 152.517 238.083,151.174 235.944,150.846 235.436 C 150.517 234.929,149.545 233.375,148.686 231.983 C 147.826 230.592,146.169 227.977,145.004 226.173 C 143.839 224.369,142.886 222.692,142.886 222.447 C 142.886 222.075,140.624 218.219,138.109 214.304 C 137.781 213.793,136.438 211.650,135.124 209.543 C 133.811 207.436,132.468 205.301,132.139 204.799 C 131.253 203.445,128.021 198.276,127.562 197.481 C 127.132 196.735,123.909 191.676,121.129 187.384 C 120.180 185.918,119.403 184.622,119.403 184.503 C 119.403 184.384,118.631 183.158,117.687 181.780 C 116.743 180.401,115.846 179.011,115.692 178.691 C 115.539 178.371,115.103 177.626,114.722 177.036 C 114.341 176.446,113.056 174.386,111.865 172.459 C 110.675 170.532,109.331 168.418,108.879 167.761 C 108.427 167.104,107.848 166.209,107.591 165.771 C 107.334 165.333,106.036 163.219,104.706 161.072 C 102.110 156.881,101.951 156.397,102.915 155.598 C 109.738 149.935,101.294 136.988,93.584 141.292 M298.701 141.836 C 295.979 143.672,294.925 145.740,294.925 149.246 C 294.925 151.983,295.202 152.840,296.816 155.092 C 297.995 156.738,297.953 157.168,296.391 159.458 C 295.665 160.522,294.949 161.662,294.800 161.990 C 294.651 162.318,293.376 164.378,291.967 166.567 C 290.558 168.756,288.364 172.213,287.091 174.249 C 285.818 176.285,284.507 178.373,284.179 178.889 C 283.851 179.405,282.284 181.903,280.697 184.441 C 279.109 186.978,276.512 191.127,274.925 193.660 C 273.338 196.193,271.859 198.566,271.638 198.934 C 271.416 199.301,270.529 200.677,269.665 201.990 C 268.801 203.303,267.749 205.005,267.328 205.771 C 266.491 207.290,262.873 212.944,261.046 215.587 C 260.416 216.499,259.900 217.341,259.900 217.458 C 259.900 217.575,259.386 218.442,258.756 219.383 C 258.127 220.324,257.477 221.532,257.312 222.068 C 257.015 223.031,254.798 226.880,254.319 227.264 C 254.183 227.373,253.948 227.731,253.797 228.060 C 253.647 228.388,253.169 229.194,252.736 229.851 C 252.303 230.507,251.824 231.307,251.671 231.627 C 251.518 231.947,250.620 233.336,249.676 234.715 C 248.732 236.094,247.960 237.322,247.960 237.445 C 247.960 237.567,247.423 238.448,246.766 239.403 C 246.109 240.357,245.572 241.330,245.572 241.564 C 245.572 241.798,245.438 241.990,245.274 241.990 C 245.109 241.991,244.438 242.904,243.781 244.021 C 243.124 245.137,242.408 246.352,242.189 246.722 C 241.970 247.091,241.144 248.371,240.353 249.567 C 239.562 250.763,238.039 253.254,236.970 255.103 L 235.025 258.465 235.025 264.456 L 235.025 270.448 262.886 270.543 C 278.209 270.595,290.980 270.489,291.265 270.307 C 291.592 270.099,291.924 268.443,292.161 265.834 C 292.900 257.722,293.763 248.899,294.182 245.179 C 294.416 243.102,294.759 239.431,294.943 237.020 C 295.476 230.062,296.075 223.378,296.514 219.502 C 296.737 217.532,297.107 213.861,297.336 211.343 C 297.565 208.826,298.011 204.080,298.327 200.796 C 298.643 197.512,299.076 192.677,299.291 190.050 C 299.505 187.423,299.858 183.751,300.074 181.891 C 300.676 176.716,301.286 170.312,301.744 164.378 C 302.194 158.549,302.397 158.010,304.142 158.010 C 306.245 158.010,309.272 155.597,310.480 152.957 C 313.999 145.265,305.506 137.246,298.701 141.836 M110.328 283.065 C 109.744 283.649,109.761 286.405,110.379 291.144 L 110.846 294.726 138.010 294.829 L 165.174 294.931 165.174 289.237 C 165.174 285.338,165.023 283.392,164.697 283.065 C 164.006 282.374,111.019 282.374,110.328 283.065 M235.261 283.139 C 234.951 283.512,234.839 285.480,234.914 289.209 L 235.025 294.726 262.086 294.726 L 289.147 294.726 289.618 291.542 C 290.244 287.313,290.267 283.660,289.672 283.065 C 288.915 282.308,235.890 282.381,235.261 283.139 " stroke="none" fill="#f2f3f3" fill-rule="evenodd"></path></g></svg>