<svg id="svg" version="1.1" xmlns="http://www.w3.org/2000/svg" xmlns:xlink="http://www.w3.org/1999/xlink" width="400" height="400" viewBox="0, 0, 400,400"><g id="svgg"><path id="path0" d="M182.188 1.250 C 182.188 1.445,180.373 1.563,177.369 1.562 C 172.309 1.562,171.563 1.667,171.563 2.377 C 171.563 2.726,170.790 2.813,167.677 2.812 C 164.067 2.812,163.778 2.857,163.594 3.437 C 163.415 4.001,163.121 4.062,160.604 4.062 C 158.444 4.063,157.813 4.160,157.813 4.492 C 157.813 4.812,157.127 4.958,155.121 5.063 C 153.030 5.173,152.364 5.321,152.137 5.727 C 151.911 6.131,151.389 6.250,149.844 6.250 C 148.346 6.250,147.774 6.374,147.567 6.744 C 147.381 7.076,146.653 7.295,145.337 7.415 C 144.118 7.525,143.322 7.751,143.220 8.015 C 143.119 8.280,142.555 8.437,141.711 8.438 C 140.066 8.438,139.375 8.678,139.375 9.252 C 139.375 9.567,138.938 9.688,137.803 9.688 C 136.747 9.688,136.175 9.831,136.063 10.123 C 135.965 10.378,135.205 10.644,134.224 10.767 C 133.305 10.882,132.482 11.158,132.397 11.381 C 132.311 11.603,131.637 11.867,130.897 11.966 C 130.158 12.065,129.408 12.344,129.230 12.585 C 129.052 12.827,128.278 13.108,127.511 13.210 C 126.744 13.312,125.955 13.616,125.758 13.886 C 125.561 14.155,124.946 14.375,124.389 14.375 C 123.663 14.375,123.336 14.540,123.225 14.963 C 123.107 15.413,122.698 15.587,121.471 15.704 C 120.590 15.789,119.817 16.017,119.753 16.210 C 119.688 16.404,119.377 16.563,119.062 16.563 C 118.155 16.563,117.500 16.904,117.500 17.377 C 117.500 17.667,117.131 17.813,116.396 17.813 C 115.738 17.813,115.225 17.989,115.125 18.251 C 115.032 18.491,114.467 18.780,113.868 18.893 C 113.269 19.005,112.702 19.300,112.606 19.548 C 112.509 19.803,112.025 20.000,111.500 20.000 C 110.829 20.000,110.520 20.176,110.403 20.625 C 110.286 21.073,109.977 21.250,109.309 21.250 C 108.642 21.250,108.333 21.427,108.216 21.875 C 108.092 22.349,107.789 22.500,106.966 22.500 C 106.142 22.500,105.839 22.651,105.716 23.125 C 105.593 23.595,105.289 23.750,104.495 23.750 C 103.763 23.750,103.438 23.894,103.438 24.219 C 103.438 24.534,103.122 24.688,102.471 24.688 C 101.767 24.687,101.460 24.857,101.341 25.312 C 101.218 25.782,100.914 25.937,100.120 25.938 C 99.388 25.938,99.063 26.082,99.063 26.406 C 99.063 26.664,98.853 26.875,98.596 26.875 C 98.340 26.875,97.955 27.156,97.740 27.500 C 97.498 27.888,97.011 28.125,96.458 28.125 C 95.829 28.125,95.518 28.309,95.403 28.750 C 95.301 29.139,94.977 29.375,94.543 29.375 C 94.159 29.375,93.521 29.656,93.125 30.000 C 92.729 30.344,92.285 30.625,92.140 30.625 C 91.994 30.625,91.875 30.830,91.875 31.080 C 91.875 31.352,91.436 31.617,90.781 31.739 C 90.180 31.852,89.688 32.123,89.688 32.342 C 89.688 32.561,89.406 32.813,89.063 32.903 C 88.719 32.993,88.438 33.291,88.438 33.564 C 88.438 33.911,88.149 34.063,87.490 34.063 C 86.823 34.063,86.217 34.387,85.448 35.156 C 84.846 35.758,84.083 36.250,83.751 36.250 C 83.419 36.250,82.996 36.531,82.813 36.875 C 82.629 37.219,82.272 37.500,82.020 37.500 C 81.768 37.500,81.563 37.683,81.563 37.906 C 81.562 38.129,81.070 38.490,80.469 38.707 C 79.867 38.925,79.375 39.225,79.375 39.374 C 79.375 39.523,79.094 39.735,78.750 39.844 C 78.406 39.953,78.125 40.244,78.125 40.490 C 78.125 40.736,77.860 40.938,77.536 40.938 C 77.211 40.938,76.875 41.217,76.784 41.563 C 76.675 41.982,76.358 42.188,75.822 42.188 C 75.342 42.188,74.888 42.438,74.688 42.813 C 74.504 43.156,74.147 43.438,73.895 43.438 C 73.643 43.438,73.438 43.632,73.438 43.870 C 73.438 44.108,73.156 44.376,72.812 44.466 C 72.469 44.555,72.187 44.853,72.187 45.127 C 72.188 45.401,72.005 45.625,71.782 45.625 C 71.559 45.625,71.032 46.049,70.610 46.567 C 70.189 47.085,69.387 47.710,68.828 47.957 C 68.270 48.204,67.813 48.553,67.813 48.734 C 67.813 48.915,67.607 49.063,67.355 49.063 C 67.103 49.063,66.746 49.344,66.562 49.688 C 66.379 50.031,66.038 50.313,65.807 50.313 C 65.575 50.313,65.312 50.594,65.222 50.938 C 65.132 51.281,64.834 51.563,64.561 51.563 C 64.287 51.563,64.063 51.773,64.063 52.031 C 64.063 52.289,63.861 52.500,63.615 52.500 C 63.369 52.500,63.078 52.781,62.969 53.125 C 62.860 53.469,62.569 53.750,62.323 53.750 C 62.076 53.750,61.875 53.961,61.875 54.219 C 61.875 54.477,61.651 54.688,61.377 54.688 C 61.103 54.688,60.805 54.969,60.716 55.313 C 60.626 55.656,60.421 55.938,60.261 55.938 C 59.847 55.937,57.188 58.612,57.188 59.028 C 57.188 59.219,56.963 59.375,56.689 59.375 C 56.416 59.375,56.118 59.656,56.028 60.000 C 55.938 60.344,55.657 60.625,55.403 60.625 C 55.149 60.625,54.868 60.906,54.778 61.250 C 54.688 61.594,54.420 61.875,54.182 61.875 C 53.945 61.875,53.750 62.086,53.750 62.344 C 53.750 62.602,53.526 62.813,53.252 62.813 C 52.978 62.813,52.680 63.094,52.591 63.438 C 52.501 63.781,52.249 64.063,52.031 64.063 C 51.814 64.063,51.562 64.344,51.472 64.688 C 51.382 65.031,51.084 65.313,50.811 65.313 C 50.537 65.313,50.313 65.457,50.313 65.635 C 50.313 65.812,49.750 66.474,49.063 67.106 C 48.375 67.738,47.813 68.362,47.813 68.492 C 47.812 68.623,47.320 69.221,46.719 69.823 C 46.117 70.424,45.625 71.203,45.625 71.552 C 45.625 71.902,45.465 72.188,45.270 72.188 C 44.864 72.188,43.438 73.643,43.438 74.058 C 43.438 74.209,43.156 74.422,42.813 74.531 C 42.469 74.640,42.188 74.935,42.188 75.187 C 42.188 75.439,41.985 75.722,41.738 75.817 C 41.491 75.912,41.198 76.400,41.088 76.901 C 40.978 77.402,40.685 77.813,40.436 77.813 C 40.188 77.813,39.851 78.164,39.687 78.594 C 39.524 79.023,39.246 79.375,39.070 79.375 C 38.894 79.375,38.750 79.552,38.750 79.769 C 38.750 79.985,38.469 80.338,38.125 80.552 C 37.772 80.773,37.500 81.281,37.500 81.721 C 37.500 82.225,37.324 82.500,37.002 82.500 C 36.728 82.500,36.433 82.772,36.346 83.103 C 36.259 83.435,35.991 83.782,35.750 83.875 C 35.510 83.967,35.313 84.224,35.313 84.446 C 35.313 84.668,35.031 85.025,34.688 85.240 C 34.334 85.461,34.063 85.969,34.063 86.409 C 34.063 86.837,33.887 87.188,33.672 87.189 C 33.296 87.191,32.336 88.543,31.789 89.841 C 31.645 90.184,31.324 90.578,31.076 90.716 C 30.828 90.855,30.625 91.141,30.625 91.352 C 30.625 91.563,30.344 91.977,30.000 92.271 C 29.656 92.566,29.375 93.055,29.375 93.359 C 29.375 93.663,29.094 94.088,28.750 94.302 C 28.406 94.517,28.125 94.973,28.125 95.315 C 28.125 95.657,27.879 96.209,27.578 96.540 C 26.443 97.791,26.232 98.138,26.048 99.056 C 25.944 99.575,25.681 100.000,25.463 100.000 C 25.020 100.000,24.687 100.682,24.687 101.588 C 24.687 101.918,24.477 102.188,24.219 102.188 C 23.894 102.188,23.750 102.513,23.750 103.245 C 23.750 104.039,23.595 104.343,23.125 104.466 C 22.751 104.563,22.500 104.892,22.500 105.283 C 22.500 105.647,22.298 105.938,22.045 105.938 C 21.775 105.938,21.509 106.372,21.390 107.010 C 21.279 107.599,21.005 108.152,20.780 108.238 C 20.555 108.325,20.270 108.862,20.146 109.432 C 20.023 110.002,19.830 110.539,19.719 110.625 C 19.201 111.025,17.813 114.216,17.813 115.008 C 17.813 115.621,17.619 115.957,17.188 116.094 C 16.722 116.241,16.563 116.567,16.563 117.365 C 16.563 118.110,16.419 118.438,16.094 118.438 C 15.773 118.438,15.625 118.759,15.625 119.456 C 15.625 120.136,15.417 120.604,15.000 120.865 C 14.610 121.109,14.375 121.594,14.375 122.157 C 14.375 122.652,14.182 123.132,13.945 123.223 C 13.709 123.314,13.415 124.061,13.292 124.884 C 13.168 125.706,12.855 126.535,12.596 126.724 C 12.336 126.914,12.050 127.729,11.959 128.535 C 11.852 129.487,11.644 130.000,11.366 130.000 C 11.107 130.000,10.937 130.341,10.935 130.859 C 10.934 131.332,10.654 132.141,10.313 132.656 C 9.971 133.172,9.691 134.121,9.690 134.766 C 9.688 135.554,9.546 135.938,9.255 135.938 C 8.779 135.938,8.448 136.866,8.442 138.225 C 8.439 138.710,8.227 139.318,7.969 139.576 C 7.660 139.885,7.500 140.663,7.500 141.861 C 7.500 143.414,7.410 143.701,6.875 143.841 C 6.344 143.979,6.250 144.267,6.250 145.752 C 6.250 147.041,6.135 147.500,5.813 147.500 C 5.501 147.500,5.313 148.124,5.158 149.674 C 5.033 150.917,4.751 152.005,4.501 152.213 C 4.189 152.471,4.063 153.324,4.063 155.158 C 4.063 157.477,3.999 157.756,3.438 157.903 C 2.874 158.050,2.813 158.329,2.813 160.752 C 2.813 162.839,2.716 163.438,2.377 163.438 C 1.714 163.438,1.562 164.164,1.563 167.354 C 1.563 169.817,1.476 170.330,1.016 170.587 C -0.397 171.378,-0.397 228.168,1.016 229.200 C 1.467 229.530,1.563 230.096,1.563 232.431 C 1.563 235.525,1.717 236.250,2.377 236.250 C 2.717 236.250,2.813 236.862,2.813 239.026 C 2.813 241.539,2.872 241.818,3.438 241.966 C 3.997 242.112,4.063 242.392,4.063 244.620 C 4.063 246.362,4.193 247.219,4.496 247.471 C 4.734 247.668,5.028 248.749,5.148 249.873 C 5.288 251.183,5.525 251.976,5.808 252.085 C 6.094 252.195,6.250 252.729,6.250 253.602 C 6.250 255.247,6.491 255.937,7.065 255.938 C 7.388 255.938,7.500 256.415,7.500 257.790 C 7.500 258.920,7.663 259.806,7.918 260.061 C 8.148 260.290,8.419 261.104,8.522 261.869 C 8.625 262.634,8.929 263.420,9.198 263.617 C 9.475 263.820,9.688 264.436,9.690 265.034 C 9.691 265.617,9.971 266.516,10.313 267.031 C 10.654 267.547,10.934 268.355,10.935 268.828 C 10.937 269.383,11.104 269.688,11.406 269.688 C 11.691 269.688,11.875 269.978,11.875 270.430 C 11.875 271.791,12.261 273.125,12.655 273.125 C 12.870 273.125,13.135 273.688,13.245 274.375 C 13.374 275.184,13.609 275.625,13.910 275.625 C 14.253 275.625,14.375 275.994,14.375 277.029 C 14.375 278.094,14.526 278.526,15.000 278.823 C 15.417 279.083,15.625 279.551,15.625 280.231 C 15.625 280.928,15.773 281.250,16.094 281.250 C 16.381 281.250,16.563 281.542,16.563 282.006 C 16.563 283.084,16.873 283.750,17.377 283.750 C 17.666 283.750,17.813 284.117,17.813 284.844 C 17.813 285.569,17.959 285.938,18.246 285.938 C 18.495 285.938,18.768 286.405,18.886 287.031 C 19.008 287.686,19.273 288.125,19.545 288.125 C 19.859 288.125,20.000 288.474,20.000 289.248 C 20.000 290.108,20.146 290.409,20.625 290.534 C 21.067 290.650,21.250 290.961,21.250 291.596 C 21.250 292.156,21.485 292.642,21.875 292.885 C 22.263 293.127,22.500 293.614,22.500 294.167 C 22.500 294.796,22.684 295.107,23.125 295.222 C 23.595 295.345,23.750 295.648,23.750 296.443 C 23.750 297.137,23.899 297.500,24.184 297.500 C 24.433 297.500,24.706 297.967,24.823 298.594 C 24.946 299.248,25.211 299.687,25.483 299.688 C 25.760 299.688,25.938 299.994,25.938 300.472 C 25.938 300.903,26.219 301.497,26.563 301.791 C 26.906 302.086,27.188 302.510,27.188 302.736 C 27.188 302.961,27.398 303.226,27.656 303.324 C 27.914 303.423,28.125 303.772,28.125 304.099 C 28.125 304.426,28.406 304.934,28.750 305.229 C 29.094 305.523,29.375 305.912,29.375 306.094 C 29.375 306.275,29.656 306.664,30.000 306.959 C 30.344 307.253,30.625 307.781,30.625 308.132 C 30.625 308.483,30.831 308.849,31.082 308.945 C 31.333 309.041,31.624 309.388,31.728 309.716 C 31.832 310.044,32.119 310.312,32.365 310.313 C 32.657 310.313,32.813 310.648,32.813 311.279 C 32.813 311.983,32.982 312.290,33.437 312.409 C 33.781 312.499,34.062 312.821,34.063 313.125 C 34.063 313.429,34.344 313.751,34.688 313.841 C 35.112 313.952,35.313 314.267,35.313 314.824 C 35.313 315.275,35.523 315.726,35.781 315.824 C 36.039 315.923,36.250 316.213,36.250 316.469 C 36.250 316.724,36.531 317.007,36.875 317.097 C 37.279 317.203,37.500 317.523,37.500 318.003 C 37.500 318.411,37.781 318.920,38.125 319.135 C 38.469 319.350,38.750 319.707,38.750 319.929 C 38.750 320.151,38.947 320.408,39.188 320.500 C 39.429 320.593,39.697 320.940,39.784 321.272 C 39.870 321.603,40.149 321.875,40.403 321.875 C 40.657 321.875,40.938 322.156,41.028 322.500 C 41.118 322.844,41.398 323.125,41.650 323.125 C 41.910 323.125,42.191 323.532,42.297 324.063 C 42.407 324.612,42.681 325.000,42.961 325.000 C 43.229 325.000,43.438 325.273,43.438 325.625 C 43.438 325.972,43.646 326.250,43.906 326.250 C 44.167 326.250,44.375 326.528,44.375 326.875 C 44.375 327.292,44.583 327.500,45.000 327.500 C 45.417 327.500,45.625 327.708,45.625 328.125 C 45.625 328.469,45.821 328.750,46.060 328.750 C 46.299 328.750,46.582 329.096,46.688 329.519 C 46.794 329.942,47.348 330.751,47.919 331.316 C 48.490 331.881,49.047 332.590,49.157 332.891 C 49.266 333.191,49.571 333.438,49.834 333.438 C 50.097 333.438,50.313 333.648,50.313 333.906 C 50.313 334.164,50.537 334.375,50.811 334.375 C 51.084 334.375,51.382 334.656,51.472 335.000 C 51.562 335.344,51.814 335.625,52.031 335.625 C 52.249 335.625,52.501 335.906,52.591 336.250 C 52.680 336.594,52.978 336.875,53.252 336.875 C 53.526 336.875,53.750 337.031,53.750 337.222 C 53.750 337.660,56.420 340.312,56.860 340.313 C 57.040 340.313,57.188 340.472,57.188 340.666 C 57.188 341.105,59.801 343.750,60.235 343.750 C 60.409 343.750,60.626 344.031,60.716 344.375 C 60.805 344.719,61.103 345.000,61.377 345.000 C 61.651 345.000,61.875 345.211,61.875 345.469 C 61.875 345.729,62.153 345.938,62.500 345.938 C 62.917 345.938,63.125 346.146,63.125 346.563 C 63.125 346.910,63.333 347.188,63.594 347.188 C 63.852 347.188,64.063 347.383,64.063 347.622 C 64.063 347.862,64.414 348.145,64.844 348.253 C 65.273 348.361,65.625 348.594,65.625 348.771 C 65.625 349.264,67.206 350.618,68.023 350.823 C 68.423 350.923,68.750 351.201,68.750 351.440 C 68.750 351.679,69.031 351.875,69.375 351.875 C 69.792 351.875,70.000 352.083,70.000 352.500 C 70.000 352.853,70.208 353.125,70.479 353.125 C 70.742 353.125,71.038 353.336,71.137 353.594 C 71.236 353.852,71.513 354.063,71.752 354.063 C 71.992 354.063,72.188 354.278,72.188 354.541 C 72.188 354.804,72.434 355.108,72.734 355.216 C 73.035 355.324,73.533 355.671,73.840 355.988 C 74.148 356.304,74.659 356.563,74.976 356.563 C 75.293 356.563,75.626 356.844,75.716 357.188 C 75.805 357.531,76.103 357.813,76.377 357.813 C 76.651 357.813,76.875 358.023,76.875 358.281 C 76.875 358.539,77.064 358.750,77.295 358.750 C 77.526 358.750,77.970 359.031,78.281 359.375 C 78.592 359.719,79.160 360.000,79.543 360.000 C 79.977 360.000,80.301 360.236,80.403 360.625 C 80.493 360.969,80.791 361.250,81.064 361.250 C 81.338 361.250,81.563 361.461,81.563 361.719 C 81.563 361.977,81.778 362.188,82.041 362.188 C 82.304 362.187,82.599 362.395,82.696 362.648 C 82.793 362.901,83.351 363.198,83.936 363.308 C 84.521 363.417,85.000 363.693,85.000 363.920 C 85.000 364.147,85.268 364.418,85.596 364.522 C 85.924 364.626,86.271 364.917,86.368 365.168 C 86.464 365.419,86.912 365.625,87.363 365.625 C 87.921 365.625,88.236 365.825,88.347 366.250 C 88.437 366.594,88.705 366.875,88.943 366.875 C 89.180 366.875,89.656 367.156,90.000 367.500 C 90.344 367.844,90.906 368.125,91.250 368.125 C 91.594 368.125,91.881 368.301,91.888 368.516 C 91.903 368.944,93.879 370.313,94.483 370.313 C 94.691 370.313,95.102 370.594,95.396 370.938 C 95.691 371.281,96.250 371.563,96.641 371.563 C 97.031 371.563,97.525 371.844,97.740 372.188 C 97.989 372.586,98.469 372.812,99.065 372.813 C 99.688 372.813,100.000 372.969,100.000 373.281 C 100.000 373.539,100.211 373.750,100.469 373.750 C 100.727 373.750,101.219 374.031,101.563 374.375 C 101.906 374.719,102.469 375.000,102.813 375.000 C 103.156 375.000,103.438 375.195,103.438 375.434 C 103.438 375.684,103.909 375.956,104.548 376.076 C 105.158 376.191,105.734 376.484,105.828 376.727 C 105.921 376.971,106.467 377.258,107.040 377.366 C 107.613 377.473,108.151 377.741,108.235 377.960 C 108.319 378.179,108.877 378.450,109.476 378.563 C 110.075 378.675,110.644 378.974,110.741 379.227 C 110.843 379.493,111.319 379.687,111.865 379.688 C 112.496 379.688,112.813 379.843,112.813 380.153 C 112.813 380.453,113.253 380.688,114.057 380.817 C 114.741 380.926,115.234 381.124,115.152 381.256 C 114.975 381.543,115.747 381.875,116.588 381.875 C 116.918 381.875,117.469 382.156,117.812 382.500 C 118.192 382.879,118.854 383.125,119.498 383.125 C 120.109 383.125,120.628 383.307,120.723 383.554 C 120.813 383.790,121.377 384.075,121.975 384.188 C 122.573 384.300,123.234 384.599,123.444 384.852 C 123.655 385.105,124.303 385.313,124.885 385.313 C 125.557 385.313,126.139 385.541,126.479 385.938 C 126.775 386.284,127.401 386.563,127.882 386.563 C 128.359 386.563,129.031 386.844,129.375 387.188 C 129.792 387.604,130.417 387.813,131.250 387.813 C 131.938 387.813,132.500 387.931,132.500 388.075 C 132.500 388.473,133.979 389.063,134.976 389.063 C 135.463 389.063,136.036 389.273,136.250 389.531 C 136.473 389.800,137.155 390.000,137.851 390.000 C 138.646 390.000,139.277 390.215,139.687 390.625 C 140.162 391.099,140.729 391.250,142.041 391.250 C 143.262 391.250,143.821 391.383,143.943 391.703 C 144.059 392.005,144.828 392.225,146.259 392.366 C 147.630 392.501,148.460 392.732,148.565 393.007 C 148.683 393.315,149.345 393.438,150.891 393.438 C 152.789 393.438,153.072 393.514,153.216 394.063 C 153.359 394.610,153.642 394.688,155.493 394.688 C 157.068 394.688,157.761 394.827,158.211 395.234 C 158.669 395.649,159.502 395.808,161.663 395.893 C 163.845 395.979,164.599 396.124,164.885 396.515 C 165.184 396.924,165.987 397.048,168.957 397.140 C 171.697 397.225,172.721 397.367,172.906 397.690 C 173.107 398.039,174.390 398.125,179.391 398.125 C 184.724 398.125,185.625 398.193,185.625 398.594 C 185.625 399.004,187.431 399.063,200.000 399.063 C 212.569 399.063,214.375 399.004,214.375 398.594 C 214.375 398.193,215.276 398.125,220.609 398.125 C 225.574 398.125,226.895 398.037,227.094 397.695 C 227.276 397.381,228.348 397.227,231.057 397.126 C 233.959 397.018,234.848 396.881,235.129 396.496 C 235.400 396.126,236.207 395.977,238.395 395.893 C 240.716 395.804,241.381 395.671,241.700 395.234 C 242.012 394.809,242.559 394.688,244.172 394.688 C 245.906 394.688,246.308 394.585,246.635 394.063 C 246.963 393.538,247.364 393.437,249.138 393.438 C 250.807 393.438,251.250 393.339,251.250 392.969 C 251.250 392.661,251.558 392.500,252.144 392.500 C 253.987 392.500,255.938 392.095,255.938 391.713 C 255.938 391.454,256.632 391.279,258.007 391.191 C 259.479 391.097,260.187 390.907,260.463 390.530 C 260.702 390.203,261.278 390.000,261.965 390.000 C 262.579 390.000,263.268 389.812,263.498 389.582 C 263.728 389.352,264.542 389.081,265.306 388.978 C 266.071 388.875,266.842 388.593,267.020 388.351 C 267.198 388.108,268.038 387.832,268.887 387.737 C 269.774 387.637,270.587 387.350,270.797 387.063 C 270.998 386.788,271.573 386.563,272.074 386.563 C 272.599 386.563,273.213 386.297,273.521 385.938 C 273.869 385.531,274.443 385.313,275.163 385.313 C 275.833 385.313,276.337 385.137,276.441 384.867 C 276.535 384.622,277.163 384.328,277.837 384.215 C 278.586 384.088,279.063 383.836,279.063 383.566 C 279.063 383.260,279.444 383.125,280.313 383.125 C 281.146 383.125,281.771 382.917,282.188 382.500 C 282.531 382.156,283.147 381.875,283.555 381.875 C 283.964 381.875,284.466 381.673,284.671 381.426 C 284.876 381.180,285.465 380.885,285.980 380.772 C 286.496 380.659,286.993 380.368,287.086 380.127 C 287.179 379.885,287.581 379.688,287.980 379.688 C 288.379 379.688,288.918 379.475,289.178 379.215 C 289.438 378.954,290.093 378.653,290.634 378.545 C 291.174 378.437,291.686 378.166,291.772 377.943 C 291.857 377.721,292.347 377.446,292.860 377.333 C 293.373 377.221,293.862 376.947,293.947 376.724 C 294.033 376.502,294.498 376.241,294.982 376.144 C 295.466 376.047,296.080 375.750,296.346 375.484 C 296.613 375.218,297.051 375.000,297.321 375.000 C 297.592 375.000,298.094 374.719,298.437 374.375 C 298.781 374.031,299.273 373.750,299.531 373.750 C 299.789 373.750,300.000 373.539,300.000 373.281 C 300.000 372.970,300.311 372.813,300.927 372.813 C 301.533 372.813,301.968 372.597,302.188 372.188 C 302.371 371.844,302.779 371.563,303.094 371.563 C 303.408 371.563,304.001 371.316,304.411 371.016 C 304.821 370.715,305.693 370.195,306.350 369.861 C 307.006 369.527,307.673 369.011,307.831 368.715 C 307.990 368.418,308.543 368.083,309.060 367.969 C 309.577 367.856,310.000 367.630,310.000 367.467 C 310.000 367.305,310.352 367.038,310.781 366.875 C 311.211 366.712,311.563 366.364,311.563 366.101 C 311.563 365.779,311.869 365.625,312.510 365.625 C 313.053 365.625,313.532 365.430,313.632 365.168 C 313.729 364.917,314.076 364.626,314.404 364.522 C 314.732 364.418,315.000 364.147,315.000 363.920 C 315.000 363.693,315.492 363.415,316.094 363.302 C 316.748 363.179,317.188 362.914,317.188 362.642 C 317.188 362.392,317.469 362.188,317.813 362.188 C 318.160 362.188,318.438 361.979,318.438 361.719 C 318.438 361.461,318.662 361.250,318.936 361.250 C 319.209 361.250,319.507 360.969,319.597 360.625 C 319.687 360.279,320.023 360.000,320.349 360.000 C 320.673 360.000,321.194 359.743,321.508 359.429 C 321.822 359.115,322.314 358.768,322.602 358.658 C 322.890 358.547,323.125 358.322,323.125 358.156 C 323.125 357.990,323.406 357.765,323.750 357.656 C 324.094 357.547,324.375 357.268,324.375 357.035 C 324.375 356.802,324.797 356.520,325.313 356.406 C 325.828 356.293,326.250 356.001,326.250 355.756 C 326.250 355.512,326.515 355.313,326.839 355.313 C 327.164 355.313,327.500 355.033,327.591 354.688 C 327.680 354.344,327.978 354.063,328.252 354.063 C 328.526 354.063,328.750 353.852,328.750 353.594 C 328.750 353.336,328.974 353.125,329.248 353.125 C 329.522 353.125,329.820 352.844,329.909 352.500 C 330.000 352.154,330.336 351.875,330.661 351.875 C 330.985 351.875,331.250 351.664,331.250 351.406 C 331.250 351.148,331.472 350.938,331.743 350.938 C 332.015 350.938,332.793 350.375,333.474 349.688 C 334.155 349.000,334.787 348.438,334.880 348.438 C 335.193 348.438,336.875 346.613,336.875 346.274 C 336.875 346.089,337.156 345.938,337.500 345.938 C 337.847 345.938,338.125 345.729,338.125 345.469 C 338.125 345.211,338.349 345.000,338.623 345.000 C 338.897 345.000,339.195 344.719,339.284 344.375 C 339.374 344.031,339.607 343.748,339.802 343.745 C 340.251 343.738,341.562 342.370,341.563 341.909 C 341.563 341.718,341.787 341.563,342.061 341.563 C 342.334 341.563,342.629 341.294,342.714 340.966 C 342.800 340.639,343.153 340.296,343.498 340.206 C 343.843 340.116,344.039 339.902,343.933 339.731 C 343.827 339.560,344.024 339.330,344.370 339.220 C 344.717 339.110,345.000 338.828,345.000 338.594 C 345.000 338.359,345.281 338.078,345.625 337.969 C 345.969 337.860,346.250 337.569,346.250 337.323 C 346.250 337.076,346.445 336.875,346.682 336.875 C 346.920 336.875,347.188 336.594,347.278 336.250 C 347.368 335.906,347.666 335.625,347.939 335.625 C 348.213 335.625,348.438 335.465,348.438 335.270 C 348.438 334.864,349.893 333.438,350.308 333.438 C 350.459 333.437,350.662 333.191,350.759 332.891 C 350.857 332.590,351.429 331.809,352.030 331.154 C 352.632 330.500,353.125 329.692,353.125 329.358 C 353.125 328.958,353.339 328.750,353.750 328.750 C 354.167 328.750,354.375 328.542,354.375 328.125 C 354.375 327.781,354.570 327.500,354.807 327.500 C 355.045 327.500,355.313 327.219,355.403 326.875 C 355.493 326.531,355.791 326.250,356.064 326.250 C 356.354 326.250,356.563 325.989,356.563 325.625 C 356.563 325.281,356.762 325.000,357.006 325.000 C 357.251 325.000,357.543 324.578,357.656 324.063 C 357.774 323.524,358.064 323.125,358.335 323.125 C 358.596 323.125,358.882 322.844,358.972 322.500 C 359.062 322.156,359.320 321.875,359.547 321.875 C 359.773 321.875,360.043 321.607,360.147 321.279 C 360.251 320.951,360.542 320.604,360.793 320.507 C 361.044 320.411,361.250 320.187,361.250 320.010 C 361.250 319.833,361.531 319.406,361.875 319.063 C 362.219 318.719,362.500 318.156,362.500 317.813 C 362.500 317.469,362.701 317.188,362.948 317.188 C 363.194 317.187,363.481 316.919,363.585 316.591 C 363.689 316.263,363.979 315.916,364.231 315.820 C 364.487 315.722,364.688 315.245,364.688 314.734 C 364.688 314.086,364.868 313.776,365.313 313.659 C 365.656 313.570,365.938 313.272,365.938 312.998 C 365.938 312.724,366.133 312.500,366.371 312.500 C 366.620 312.500,366.893 312.033,367.011 311.406 C 367.133 310.752,367.398 310.312,367.670 310.313 C 367.920 310.313,368.125 310.107,368.125 309.855 C 368.125 309.603,368.406 309.246,368.750 309.062 C 369.159 308.843,369.375 308.408,369.375 307.802 C 369.375 307.178,369.531 306.875,369.854 306.875 C 370.117 306.875,370.423 306.629,370.533 306.328 C 370.644 306.027,370.921 305.669,371.148 305.531 C 371.376 305.394,371.563 305.006,371.563 304.669 C 371.563 304.332,371.844 303.816,372.188 303.521 C 372.531 303.227,372.813 302.806,372.813 302.587 C 372.813 302.367,373.094 301.906,373.438 301.563 C 373.781 301.219,374.063 300.656,374.063 300.313 C 374.063 299.965,374.271 299.688,374.531 299.688 C 374.859 299.688,375.000 299.358,375.000 298.594 C 375.000 297.708,375.119 297.500,375.625 297.500 C 376.127 297.500,376.250 297.292,376.250 296.443 C 376.250 295.648,376.405 295.345,376.875 295.222 C 377.316 295.107,377.500 294.796,377.500 294.167 C 377.500 293.614,377.737 293.127,378.125 292.885 C 378.524 292.636,378.750 292.156,378.750 291.560 C 378.750 290.950,378.908 290.625,379.205 290.625 C 379.479 290.625,379.743 290.181,379.869 289.506 C 379.984 288.891,380.272 288.313,380.508 288.223 C 380.751 288.130,380.938 287.614,380.938 287.034 C 380.938 286.273,381.098 285.968,381.563 285.847 C 382.012 285.730,382.188 285.421,382.188 284.750 C 382.188 284.209,382.384 283.741,382.656 283.637 C 382.929 283.532,383.125 283.065,383.125 282.521 C 383.125 281.904,383.338 281.470,383.750 281.250 C 384.129 281.047,384.375 280.596,384.375 280.102 C 384.375 279.654,384.600 279.123,384.875 278.922 C 385.156 278.717,385.449 277.911,385.541 277.090 C 385.648 276.145,385.857 275.625,386.131 275.625 C 386.383 275.625,386.635 275.126,386.752 274.394 C 386.860 273.717,387.128 273.095,387.348 273.010 C 387.568 272.926,387.846 272.144,387.966 271.272 C 388.110 270.222,388.332 269.688,388.623 269.688 C 388.902 269.688,389.063 269.348,389.063 268.758 C 389.063 268.246,389.343 267.367,389.686 266.804 C 390.029 266.242,390.311 265.384,390.311 264.900 C 390.312 264.415,390.523 263.807,390.781 263.549 C 391.039 263.291,391.250 262.535,391.250 261.868 C 391.250 261.053,391.424 260.559,391.780 260.359 C 392.170 260.141,392.345 259.519,392.441 258.000 C 392.530 256.613,392.702 255.938,392.969 255.938 C 393.430 255.938,393.740 254.964,393.746 253.493 C 393.748 252.922,393.961 252.244,394.219 251.987 C 394.526 251.679,394.687 250.903,394.688 249.735 C 394.688 248.338,394.823 247.835,395.313 247.416 C 395.840 246.965,395.938 246.494,395.938 244.415 C 395.938 242.211,396.004 241.930,396.563 241.784 C 397.126 241.637,397.188 241.358,397.188 238.936 C 397.188 236.857,397.285 236.250,397.620 236.250 C 398.230 236.250,398.428 235.248,398.433 232.143 C 398.436 230.162,398.550 229.399,398.861 229.279 C 400.274 228.737,400.271 170.949,398.858 170.407 C 398.547 170.288,398.438 169.483,398.438 167.310 C 398.438 164.792,398.349 164.286,397.813 163.750 C 397.290 163.228,397.188 162.708,397.188 160.596 C 397.188 158.329,397.123 158.050,396.563 157.903 C 396.004 157.757,395.938 157.477,395.938 155.276 C 395.938 153.229,395.832 152.707,395.313 152.187 C 394.816 151.691,394.688 151.146,394.688 149.531 C 394.688 147.934,394.587 147.500,394.219 147.500 C 393.911 147.500,393.750 147.192,393.750 146.602 C 393.750 145.050,393.376 143.750,392.930 143.750 C 392.626 143.750,392.499 143.315,392.496 142.266 C 392.490 140.336,392.220 139.375,391.682 139.375 C 391.445 139.375,391.267 139.270,391.287 139.141 C 391.491 137.851,391.188 135.938,390.781 135.938 C 390.447 135.938,390.313 135.597,390.313 134.746 C 390.313 133.987,390.086 133.312,389.688 132.884 C 389.344 132.515,389.063 131.782,389.063 131.253 C 389.063 130.713,388.869 130.219,388.620 130.123 C 388.366 130.026,388.086 129.287,387.962 128.392 C 387.844 127.533,387.563 126.760,387.337 126.673 C 387.112 126.587,386.831 125.813,386.712 124.954 C 386.594 124.096,386.315 123.323,386.092 123.237 C 385.869 123.152,385.596 122.599,385.485 122.010 C 385.366 121.372,385.100 120.938,384.830 120.938 C 384.508 120.938,384.375 120.573,384.375 119.688 C 384.375 118.646,384.271 118.438,383.750 118.438 C 383.243 118.438,383.125 118.229,383.125 117.334 C 383.125 116.641,382.950 116.163,382.656 116.051 C 382.367 115.940,382.188 115.465,382.188 114.810 C 382.188 114.167,381.942 113.504,381.563 113.125 C 381.219 112.781,380.938 112.229,380.938 111.897 C 380.938 111.566,380.748 111.105,380.516 110.873 C 380.284 110.641,379.922 109.928,379.710 109.288 C 379.499 108.648,379.197 108.125,379.038 108.125 C 378.880 108.125,378.750 107.844,378.750 107.500 C 378.750 107.156,378.469 106.594,378.125 106.250 C 377.781 105.906,377.500 105.401,377.500 105.127 C 377.500 104.853,377.219 104.555,376.875 104.466 C 376.405 104.343,376.250 104.039,376.250 103.245 C 376.250 102.396,376.127 102.188,375.625 102.188 C 375.119 102.188,375.000 101.979,375.000 101.094 C 375.000 100.330,374.859 100.000,374.531 100.000 C 374.271 100.000,374.063 99.722,374.063 99.375 C 374.063 99.031,373.781 98.469,373.438 98.125 C 373.094 97.781,372.813 97.285,372.813 97.021 C 372.813 96.758,372.614 96.467,372.372 96.374 C 372.130 96.281,371.848 95.873,371.746 95.468 C 371.645 95.063,371.384 94.546,371.168 94.319 C 370.951 94.092,370.594 93.555,370.375 93.125 C 369.620 91.648,369.118 90.853,368.822 90.661 C 368.658 90.555,368.291 90.012,368.004 89.453 C 367.718 88.895,367.347 88.438,367.179 88.438 C 367.012 88.438,366.875 88.156,366.875 87.813 C 366.875 87.469,366.675 87.188,366.431 87.188 C 366.187 87.188,365.892 86.756,365.777 86.229 C 365.661 85.702,365.368 85.194,365.127 85.102 C 364.885 85.009,364.688 84.733,364.688 84.488 C 364.688 84.243,364.482 83.964,364.231 83.868 C 363.979 83.771,363.689 83.424,363.585 83.096 C 363.481 82.768,363.194 82.500,362.948 82.500 C 362.701 82.500,362.500 82.219,362.500 81.875 C 362.500 81.531,362.219 80.969,361.875 80.625 C 361.531 80.281,361.250 79.894,361.250 79.763 C 361.250 79.633,360.773 79.089,360.190 78.554 C 359.607 78.019,359.029 77.261,358.905 76.870 C 358.780 76.478,358.202 75.682,357.621 75.100 C 357.039 74.518,356.563 73.982,356.563 73.910 C 356.563 73.664,354.973 72.188,354.707 72.188 C 354.562 72.188,354.350 71.817,354.236 71.363 C 354.122 70.910,353.617 70.101,353.113 69.566 C 350.435 66.722,349.688 65.865,349.688 65.637 C 349.688 65.498,349.406 65.312,349.063 65.222 C 348.719 65.132,348.438 64.851,348.438 64.597 C 348.438 64.343,348.156 64.062,347.813 63.972 C 347.469 63.882,347.188 63.584,347.188 63.311 C 347.188 63.037,346.977 62.813,346.719 62.813 C 346.461 62.813,346.250 62.602,346.250 62.344 C 346.250 62.083,345.972 61.875,345.625 61.875 C 345.208 61.875,345.000 61.667,345.000 61.250 C 345.000 60.903,344.792 60.625,344.531 60.625 C 344.273 60.625,344.063 60.401,344.063 60.127 C 344.063 59.853,343.794 59.559,343.466 59.473 C 343.139 59.387,342.800 59.049,342.714 58.721 C 342.629 58.393,342.334 58.125,342.061 58.125 C 341.787 58.125,341.563 57.992,341.563 57.829 C 341.562 57.418,340.156 55.937,339.766 55.937 C 339.591 55.938,339.374 55.656,339.284 55.313 C 339.195 54.969,338.897 54.688,338.623 54.688 C 338.349 54.688,338.125 54.477,338.125 54.219 C 338.125 53.958,337.847 53.750,337.500 53.750 C 337.083 53.750,336.875 53.542,336.875 53.125 C 336.875 52.781,336.728 52.500,336.549 52.500 C 336.369 52.500,335.468 51.727,334.545 50.781 C 333.622 49.836,332.784 49.062,332.683 49.063 C 332.582 49.063,332.219 48.781,331.875 48.438 C 331.531 48.094,330.985 47.813,330.661 47.813 C 330.336 47.813,330.000 47.533,329.909 47.188 C 329.820 46.844,329.522 46.563,329.248 46.563 C 328.974 46.563,328.750 46.352,328.750 46.094 C 328.750 45.836,328.549 45.625,328.302 45.625 C 328.056 45.625,327.765 45.344,327.656 45.000 C 327.547 44.656,327.256 44.375,327.010 44.375 C 326.764 44.375,326.563 44.164,326.563 43.906 C 326.563 43.648,326.286 43.438,325.948 43.438 C 325.611 43.437,325.184 43.156,325.000 42.812 C 324.811 42.460,324.346 42.187,323.932 42.187 C 323.461 42.187,323.139 41.964,323.034 41.563 C 322.945 41.219,322.647 40.938,322.373 40.938 C 322.099 40.938,321.875 40.736,321.875 40.490 C 321.875 40.244,321.594 39.953,321.250 39.844 C 320.906 39.735,320.625 39.523,320.625 39.374 C 320.625 39.225,320.133 38.925,319.531 38.707 C 318.930 38.490,318.438 38.129,318.438 37.906 C 318.438 37.683,318.156 37.500,317.813 37.500 C 317.469 37.500,317.188 37.304,317.188 37.065 C 317.188 36.587,316.531 36.250,315.599 36.250 C 315.270 36.250,315.000 36.049,315.000 35.802 C 315.000 35.556,314.732 35.269,314.404 35.165 C 314.076 35.061,313.729 34.771,313.632 34.519 C 313.534 34.263,313.057 34.062,312.546 34.063 C 311.898 34.063,311.588 33.882,311.472 33.438 C 311.382 33.094,311.084 32.813,310.811 32.813 C 310.537 32.813,310.313 32.619,310.313 32.383 C 310.313 32.146,309.898 31.870,309.392 31.769 C 308.886 31.668,307.960 31.088,307.334 30.480 C 306.702 29.866,305.877 29.375,305.478 29.375 C 305.023 29.375,304.701 29.146,304.597 28.750 C 304.487 28.328,304.171 28.125,303.623 28.125 C 303.177 28.125,302.496 27.837,302.109 27.485 C 301.723 27.134,301.184 26.642,300.911 26.392 C 300.639 26.142,300.058 25.937,299.620 25.937 C 299.086 25.937,298.769 25.731,298.659 25.313 C 298.542 24.863,298.233 24.688,297.563 24.688 C 297.021 24.688,296.554 24.491,296.449 24.219 C 296.347 23.950,295.880 23.750,295.359 23.750 C 294.711 23.750,294.401 23.570,294.284 23.125 C 294.161 22.651,293.858 22.500,293.034 22.500 C 292.211 22.500,291.908 22.349,291.784 21.875 C 291.666 21.422,291.358 21.250,290.665 21.250 C 290.029 21.250,289.598 21.041,289.375 20.625 C 289.156 20.216,288.721 20.000,288.114 20.000 C 287.512 20.000,287.188 19.841,287.188 19.545 C 287.188 19.275,286.753 19.009,286.115 18.890 C 285.526 18.779,284.968 18.491,284.875 18.251 C 284.775 17.989,284.262 17.813,283.604 17.813 C 282.835 17.813,282.500 17.671,282.500 17.347 C 282.500 17.048,282.062 16.812,281.269 16.686 C 280.592 16.577,279.964 16.294,279.873 16.057 C 279.766 15.780,279.213 15.625,278.328 15.625 C 277.211 15.625,276.917 15.506,276.784 15.000 C 276.664 14.538,276.358 14.375,275.611 14.375 C 275.054 14.375,274.439 14.155,274.242 13.886 C 274.045 13.616,273.256 13.312,272.489 13.210 C 271.722 13.108,270.948 12.827,270.770 12.585 C 270.592 12.344,269.819 12.064,269.052 11.965 C 268.284 11.865,267.551 11.606,267.423 11.390 C 267.294 11.173,266.496 10.901,265.649 10.785 C 264.771 10.664,264.036 10.383,263.939 10.130 C 263.826 9.834,263.276 9.687,262.272 9.688 C 261.114 9.688,260.687 9.546,260.385 9.063 C 260.082 8.577,259.656 8.438,258.473 8.438 C 257.562 8.438,256.808 8.265,256.594 8.007 C 256.398 7.770,255.481 7.514,254.557 7.437 C 253.561 7.354,252.665 7.085,252.354 6.774 C 251.973 6.392,251.284 6.250,249.821 6.250 C 248.319 6.250,247.813 6.141,247.813 5.818 C 247.813 5.306,247.100 5.143,244.371 5.033 C 243.014 4.978,242.261 4.804,242.094 4.507 C 241.909 4.178,241.161 4.062,239.214 4.062 C 236.904 4.063,236.544 3.986,236.250 3.438 C 235.945 2.867,235.596 2.813,232.252 2.813 C 228.926 2.813,228.552 2.755,228.198 2.188 C 227.834 1.605,227.469 1.563,222.828 1.563 C 219.846 1.563,217.772 1.437,217.656 1.250 C 217.390 0.819,182.188 0.819,182.188 1.250 M215.385 6.714 C 218.948 6.966,222.182 7.250,222.572 7.346 C 222.962 7.441,225.039 7.722,227.188 7.971 C 231.027 8.417,236.301 9.263,239.688 9.977 C 245.161 11.131,247.512 11.659,248.906 12.045 C 249.766 12.283,250.820 12.558,251.250 12.656 C 253.129 13.085,259.482 14.949,260.938 15.498 C 261.539 15.725,262.523 16.049,263.125 16.218 C 264.617 16.636,266.827 17.434,268.016 17.983 C 268.558 18.233,269.117 18.437,269.259 18.437 C 269.667 18.438,275.035 20.588,276.312 21.264 C 276.948 21.600,277.607 21.875,277.778 21.875 C 278.465 21.875,292.978 28.925,293.694 29.607 C 293.921 29.823,294.236 30.000,294.394 30.000 C 294.552 30.000,296.302 30.949,298.284 32.109 C 300.265 33.270,302.130 34.360,302.428 34.533 C 303.591 35.210,311.939 40.689,312.188 40.938 C 312.273 41.025,312.977 41.516,313.750 42.030 C 315.496 43.191,325.646 51.138,327.344 52.674 C 328.031 53.296,329.357 54.460,330.290 55.262 C 335.341 59.599,341.880 66.141,346.250 71.226 C 347.195 72.327,348.190 73.450,348.460 73.723 C 348.731 73.996,350.133 75.695,351.576 77.500 C 353.018 79.305,354.344 80.942,354.521 81.139 C 355.360 82.071,360.503 89.251,362.325 92.035 C 363.450 93.752,364.476 95.297,364.606 95.469 C 365.293 96.372,366.559 98.474,369.220 103.125 C 370.351 105.102,371.403 106.930,371.559 107.188 C 372.060 108.015,378.041 120.101,378.750 121.719 C 379.127 122.578,379.626 123.703,379.860 124.219 C 380.093 124.734,380.659 126.141,381.116 127.344 C 381.573 128.547,382.033 129.672,382.138 129.844 C 382.355 130.199,382.950 131.848,384.167 135.469 C 384.630 136.844,385.162 138.391,385.352 138.906 C 385.541 139.422,385.881 140.477,386.108 141.250 C 386.335 142.023,386.666 143.078,386.843 143.594 C 387.019 144.109,387.459 145.586,387.820 146.875 C 388.181 148.164,388.668 149.852,388.903 150.625 C 389.138 151.398,389.422 152.594,389.534 153.281 C 389.646 153.969,389.919 155.023,390.141 155.625 C 390.363 156.227,390.645 157.544,390.768 158.553 C 390.891 159.563,391.191 160.951,391.433 161.640 C 391.676 162.328,391.877 163.401,391.879 164.024 C 391.881 164.647,392.088 165.930,392.340 166.875 C 392.592 167.820,392.879 169.438,392.977 170.469 C 393.076 171.500,393.359 173.609,393.606 175.156 C 395.484 186.926,395.386 218.842,393.452 225.310 C 393.272 225.911,393.126 226.966,393.127 227.654 C 393.130 229.161,391.450 238.244,390.266 243.125 C 389.255 247.290,388.980 248.433,388.609 250.000 C 388.216 251.664,387.581 253.820,386.722 256.406 C 386.494 257.094,385.916 258.922,385.437 260.469 C 384.958 262.016,384.384 263.633,384.160 264.063 C 383.937 264.492,383.753 265.033,383.752 265.265 C 383.751 265.497,383.560 266.130,383.328 266.672 C 383.096 267.213,382.584 268.500,382.190 269.531 C 381.358 271.708,379.265 276.781,378.450 278.594 C 378.141 279.281,377.801 280.055,377.696 280.313 C 377.590 280.570,377.379 280.992,377.226 281.250 C 377.074 281.508,376.642 282.422,376.268 283.281 C 375.893 284.141,375.454 285.055,375.292 285.313 C 375.131 285.570,374.858 286.133,374.687 286.563 C 374.516 286.992,374.241 287.555,374.077 287.813 C 373.913 288.070,373.340 289.125,372.805 290.156 C 372.269 291.188,371.499 292.594,371.093 293.281 C 370.687 293.969,370.135 294.953,369.866 295.469 C 369.597 295.984,369.095 296.828,368.750 297.344 C 368.406 297.859,367.943 298.633,367.722 299.063 C 366.915 300.629,361.566 308.890,359.468 311.809 C 347.593 328.338,331.972 344.238,316.727 355.313 C 315.426 356.258,313.593 357.594,312.654 358.281 C 310.760 359.669,305.880 362.937,304.256 363.906 C 303.680 364.250,302.311 365.064,301.214 365.716 C 300.116 366.367,299.008 367.031,298.750 367.190 C 294.561 369.775,280.427 376.875,279.471 376.875 C 279.288 376.875,278.964 377.086,278.750 377.344 C 278.536 377.602,278.147 377.813,277.887 377.813 C 277.626 377.813,276.834 378.083,276.128 378.414 C 274.968 378.957,271.557 380.298,267.344 381.868 C 266.484 382.189,264.656 382.820,263.281 383.271 C 261.906 383.722,260.500 384.213,260.156 384.362 C 259.813 384.512,258.898 384.800,258.125 385.002 C 257.352 385.204,255.805 385.632,254.688 385.952 C 253.570 386.273,252.023 386.694,251.250 386.889 C 250.477 387.083,249.211 387.435,248.438 387.669 C 247.664 387.904,246.258 388.233,245.313 388.400 C 244.367 388.566,243.198 388.854,242.714 389.039 C 242.230 389.224,241.483 389.375,241.053 389.375 C 240.623 389.375,239.050 389.646,237.558 389.978 C 234.298 390.702,231.480 391.151,227.500 391.582 C 225.867 391.759,223.195 392.103,221.563 392.346 C 213.100 393.607,186.425 393.524,177.031 392.207 C 175.828 392.038,173.648 391.754,172.188 391.575 C 168.061 391.070,165.392 390.633,162.442 389.978 C 160.950 389.646,159.377 389.375,158.947 389.375 C 158.517 389.375,157.770 389.224,157.286 389.039 C 156.802 388.854,155.633 388.564,154.688 388.394 C 153.742 388.224,152.195 387.872,151.250 387.611 C 144.196 385.664,141.093 384.773,139.844 384.336 C 139.328 384.155,138.405 383.884,137.792 383.734 C 137.179 383.583,136.265 383.245,135.761 382.982 C 135.256 382.719,134.654 382.503,134.422 382.502 C 134.190 382.501,133.558 382.310,133.016 382.078 C 131.124 381.267,128.579 380.312,128.309 380.313 C 128.160 380.313,127.424 380.031,126.675 379.688 C 125.926 379.344,124.699 378.781,123.950 378.437 C 123.201 378.094,122.472 377.812,122.330 377.812 C 122.188 377.812,121.465 377.531,120.724 377.188 C 119.982 376.844,118.707 376.265,117.891 375.900 C 114.124 374.220,103.456 368.736,102.500 367.988 C 102.242 367.786,101.680 367.452,101.250 367.245 C 100.820 367.038,100.047 366.590,99.531 366.250 C 99.016 365.910,98.383 365.534,98.125 365.415 C 97.867 365.296,97.305 364.962,96.875 364.674 C 96.445 364.386,94.406 363.044,92.344 361.692 C 88.336 359.064,79.245 352.497,77.598 351.038 C 77.050 350.553,76.215 349.875,75.743 349.531 C 74.682 348.760,73.023 347.419,72.813 347.165 C 72.727 347.060,71.883 346.301,70.938 345.477 C 65.213 340.485,59.474 334.736,52.451 326.958 C 51.318 325.703,47.564 321.152,45.551 318.594 C 42.157 314.279,35.963 305.468,34.567 302.969 C 34.279 302.453,33.802 301.661,33.506 301.209 C 32.959 300.372,28.397 292.512,27.516 290.889 C 25.813 287.751,21.679 279.119,20.057 275.313 C 19.728 274.539,19.228 273.393,18.948 272.765 C 18.667 272.138,18.438 271.431,18.437 271.194 C 18.437 270.958,18.243 270.486,18.005 270.146 C 17.766 269.806,17.425 269.036,17.246 268.436 C 17.067 267.835,16.556 266.359,16.112 265.156 C 15.014 262.186,14.303 260.050,13.303 256.719 C 12.839 255.172,12.257 253.339,12.011 252.646 C 11.764 251.953,11.563 251.168,11.563 250.902 C 11.563 250.635,11.300 249.515,10.979 248.412 C 10.178 245.662,9.662 243.569,9.329 241.719 C 9.174 240.859,8.850 239.313,8.610 238.281 C 8.180 236.435,7.346 231.599,6.400 225.469 C 6.135 223.750,5.777 220.164,5.606 217.500 C 5.434 214.836,5.157 211.892,4.991 210.958 C 4.593 208.731,4.598 190.917,4.997 188.729 C 5.167 187.795,5.440 184.901,5.602 182.298 C 5.869 178.020,6.206 175.195,7.180 169.063 C 8.055 163.557,8.423 161.526,8.595 161.247 C 8.699 161.080,8.977 159.851,9.213 158.518 C 9.449 157.185,9.807 155.461,10.009 154.688 C 10.211 153.914,10.647 152.227,10.978 150.938 C 11.713 148.078,12.721 144.546,13.164 143.281 C 13.345 142.766,13.616 141.842,13.766 141.230 C 13.917 140.617,14.255 139.703,14.518 139.198 C 14.781 138.694,14.998 138.000,15.000 137.656 C 15.002 137.313,15.201 136.654,15.441 136.193 C 15.682 135.732,15.980 134.888,16.104 134.318 C 16.228 133.748,16.523 133.004,16.759 132.665 C 16.995 132.326,17.188 131.828,17.188 131.559 C 17.187 131.290,17.469 130.518,17.812 129.844 C 18.156 129.170,18.437 128.398,18.438 128.128 C 18.438 127.859,18.629 127.362,18.864 127.023 C 19.099 126.684,19.393 126.055,19.518 125.625 C 19.643 125.195,20.027 124.211,20.372 123.438 C 20.716 122.664,21.184 121.609,21.413 121.094 C 22.167 119.390,28.197 107.368,28.937 106.094 C 29.336 105.406,29.878 104.422,30.143 103.906 C 30.407 103.391,30.870 102.594,31.171 102.137 C 31.472 101.679,32.194 100.484,32.775 99.481 C 33.912 97.518,38.186 91.035,40.375 87.952 C 50.717 73.390,63.641 59.619,76.461 49.501 C 78.150 48.168,79.742 46.891,80.000 46.663 C 81.742 45.124,85.838 42.207,91.406 38.542 C 93.641 37.071,95.820 35.626,96.250 35.332 C 96.680 35.037,98.930 33.709,101.250 32.381 C 103.570 31.053,105.680 29.841,105.938 29.687 C 107.217 28.924,118.579 23.371,120.625 22.509 C 121.914 21.966,123.391 21.328,123.906 21.092 C 124.870 20.649,129.455 18.862,132.500 17.741 C 133.445 17.393,134.711 16.923,135.313 16.697 C 135.914 16.471,136.758 16.200,137.188 16.094 C 137.617 15.988,138.461 15.718,139.063 15.493 C 142.642 14.158,153.060 11.385,157.500 10.585 C 158.445 10.415,159.922 10.082,160.781 9.846 C 161.641 9.610,163.188 9.325,164.219 9.214 C 165.250 9.102,166.938 8.821,167.969 8.589 C 169.000 8.358,170.898 8.081,172.188 7.975 C 173.477 7.868,175.379 7.639,176.416 7.464 C 183.196 6.324,204.170 5.920,215.385 6.714 M196.770 108.516 C 196.003 110.105,194.788 112.672,194.069 114.219 C 193.351 115.766,192.298 118.016,191.730 119.219 C 188.996 125.006,186.769 129.736,185.141 133.209 C 184.676 134.201,184.173 135.088,184.023 135.181 C 183.873 135.273,183.750 135.561,183.750 135.821 C 183.750 136.080,182.855 138.146,181.760 140.412 C 180.666 142.677,179.105 145.938,178.290 147.656 C 176.701 151.011,175.625 153.300,170.941 163.281 C 170.215 164.828,169.089 167.219,168.438 168.594 C 167.788 169.969,166.763 172.148,166.160 173.438 C 165.557 174.727,164.264 177.469,163.286 179.531 C 162.308 181.594,161.114 184.125,160.633 185.156 C 160.152 186.188,159.093 188.438,158.280 190.156 C 157.467 191.875,156.310 194.336,155.709 195.625 C 155.107 196.914,154.491 198.180,154.338 198.438 C 154.186 198.695,153.913 199.258,153.733 199.688 C 153.335 200.636,152.787 201.810,150.378 206.875 C 147.936 212.009,146.983 214.050,146.581 215.000 C 146.400 215.430,146.128 215.992,145.978 216.250 C 145.827 216.508,145.258 217.668,144.714 218.828 C 143.694 221.000,142.734 221.615,142.275 220.391 C 142.162 220.090,141.633 219.211,141.100 218.438 C 140.566 217.664,139.726 216.328,139.232 215.469 C 138.739 214.609,138.244 213.836,138.131 213.750 C 138.019 213.664,137.473 212.820,136.918 211.875 C 136.363 210.930,135.352 209.313,134.671 208.281 C 133.991 207.250,133.256 206.055,133.038 205.625 C 132.819 205.195,131.957 203.789,131.121 202.500 C 129.139 199.446,127.825 197.380,126.696 195.543 C 126.193 194.725,125.043 192.917,124.141 191.524 C 123.238 190.132,122.500 188.937,122.500 188.868 C 122.500 188.800,122.040 188.077,121.477 187.262 C 120.915 186.448,120.284 185.430,120.075 185.000 C 119.866 184.570,118.849 182.953,117.814 181.406 C 116.780 179.859,115.796 178.274,115.627 177.882 C 115.459 177.491,115.175 176.999,114.996 176.789 C 114.817 176.578,114.228 175.703,113.686 174.844 C 113.144 173.984,112.304 172.677,111.819 171.937 C 111.334 171.198,110.938 170.529,110.938 170.450 C 110.938 170.371,110.472 169.640,109.902 168.825 C 109.333 168.010,108.768 167.133,108.647 166.875 C 108.526 166.617,108.016 165.773,107.513 165.000 C 102.856 157.841,102.812 157.710,104.537 156.094 C 106.307 154.435,106.879 149.340,105.582 146.784 C 101.410 138.564,90.026 141.258,90.010 150.469 C 90.002 154.906,93.691 159.375,97.361 159.375 C 98.626 159.375,98.992 160.110,99.191 163.041 C 99.293 164.548,99.589 167.680,99.849 170.000 C 100.108 172.320,100.464 176.398,100.639 179.063 C 100.814 181.727,101.080 184.398,101.229 185.000 C 101.378 185.602,101.584 187.736,101.688 189.744 C 101.791 191.752,102.015 194.424,102.186 195.682 C 102.505 198.040,103.203 205.337,103.763 212.188 C 103.939 214.336,104.286 217.852,104.535 220.000 C 104.783 222.148,105.061 225.172,105.152 226.719 C 105.243 228.266,105.519 231.219,105.767 233.281 C 106.014 235.344,106.377 238.930,106.572 241.250 C 106.768 243.570,107.049 246.453,107.198 247.656 C 107.346 248.859,107.476 250.828,107.485 252.031 C 107.494 253.234,107.706 255.414,107.954 256.875 C 108.203 258.336,108.553 261.852,108.732 264.688 C 109.000 268.926,109.152 269.913,109.589 270.234 C 110.369 270.809,289.772 270.809,290.245 270.234 C 290.684 269.702,291.251 266.485,291.246 264.552 C 291.243 263.073,291.868 256.454,292.995 246.037 C 293.258 243.599,293.592 239.706,293.736 237.387 C 293.881 235.067,294.091 233.019,294.205 232.835 C 294.318 232.652,294.541 230.427,294.701 227.892 C 294.861 225.356,295.198 221.383,295.452 219.063 C 296.115 212.987,296.531 208.558,296.893 203.750 C 297.067 201.430,297.412 197.984,297.658 196.094 C 297.905 194.203,298.189 191.072,298.289 189.137 C 298.389 187.201,298.608 184.810,298.774 183.824 C 298.940 182.838,299.215 180.063,299.385 177.656 C 299.555 175.250,299.833 172.297,300.004 171.094 C 300.174 169.891,300.435 166.974,300.584 164.613 C 300.873 160.023,301.105 159.377,302.460 159.372 C 308.777 159.348,312.260 149.778,307.842 144.582 C 304.794 140.997,298.344 141.090,295.619 144.757 C 292.876 148.451,292.975 153.494,295.854 156.585 L 296.893 157.701 296.090 159.085 C 295.014 160.940,294.706 161.431,293.516 163.184 C 292.957 164.008,292.500 164.754,292.500 164.844 C 292.500 164.933,292.008 165.707,291.406 166.563 C 290.805 167.418,290.313 168.218,290.313 168.339 C 290.313 168.461,289.978 169.060,289.568 169.671 C 287.569 172.656,285.431 176.006,284.450 177.692 C 283.569 179.207,283.225 179.748,281.953 181.622 C 281.395 182.445,280.938 183.192,280.938 183.281 C 280.938 183.371,280.473 184.110,279.904 184.925 C 279.336 185.740,278.387 187.227,277.795 188.230 C 276.264 190.824,276.248 190.849,274.565 193.438 C 273.073 195.732,272.676 196.359,270.179 200.372 C 269.505 201.456,268.325 203.328,267.559 204.531 C 265.693 207.461,264.797 208.890,263.125 211.602 C 262.352 212.857,261.121 214.778,260.391 215.872 C 259.660 216.966,259.063 217.938,259.063 218.031 C 259.063 218.726,257.258 220.921,256.740 220.857 C 256.052 220.771,256.070 220.805,250.946 209.844 C 247.673 202.843,242.395 191.672,240.463 187.656 C 239.884 186.453,238.832 184.203,238.124 182.656 C 237.417 181.109,236.705 179.633,236.542 179.375 C 236.379 179.117,236.168 178.695,236.072 178.438 C 235.976 178.180,235.699 177.547,235.457 177.031 C 235.215 176.516,234.873 175.742,234.697 175.313 C 234.521 174.883,234.244 174.320,234.082 174.063 C 233.919 173.805,233.229 172.398,232.547 170.938 C 231.865 169.477,230.717 167.016,229.995 165.469 C 229.273 163.922,227.983 161.180,227.129 159.375 C 226.274 157.570,225.112 155.109,224.547 153.906 C 223.982 152.703,222.922 150.453,222.193 148.906 C 221.463 147.359,220.404 145.109,219.840 143.906 C 216.193 136.137,215.432 134.521,212.253 127.813 C 211.398 126.008,210.322 123.688,209.861 122.656 C 209.401 121.625,208.891 120.570,208.729 120.313 C 208.566 120.055,208.354 119.633,208.257 119.375 C 208.159 119.117,207.949 118.695,207.788 118.438 C 207.627 118.180,207.410 117.758,207.304 117.500 C 206.891 116.491,205.944 114.412,204.719 111.828 C 204.014 110.341,203.438 109.016,203.438 108.883 C 203.438 108.751,203.245 108.421,203.010 108.150 C 202.774 107.878,202.446 107.234,202.280 106.719 C 201.175 103.278,200.704 110.727,201.549 118.300 C 201.725 119.879,202.015 124.599,202.194 128.789 C 202.373 132.978,202.650 136.828,202.810 137.344 C 202.970 137.859,203.253 141.924,203.440 146.376 C 203.627 150.828,203.895 154.695,204.037 154.970 C 204.178 155.244,204.371 157.859,204.465 160.781 C 204.558 163.703,204.856 169.117,205.125 172.813 C 205.394 176.508,205.750 181.711,205.915 184.375 C 206.295 190.515,206.427 191.129,207.703 192.690 C 214.291 200.748,209.663 212.500,199.902 212.500 C 190.316 212.500,185.690 200.826,192.129 192.884 C 193.462 191.240,193.610 190.475,194.051 182.969 C 194.243 179.703,194.537 175.548,194.703 173.735 C 195.116 169.247,195.358 161.636,194.981 165.000 C 194.735 167.197,194.537 169.796,193.729 181.406 C 193.067 190.931,193.053 191.012,191.871 192.505 C 188.359 196.940,187.631 201.581,189.739 206.094 C 192.383 211.755,198.916 214.503,204.088 212.129 C 205.780 211.353,209.375 208.360,209.375 207.728 C 209.375 207.544,209.571 207.171,209.811 206.900 C 212.514 203.845,211.496 196.359,207.816 192.223 C 207.299 191.641,206.870 190.938,206.864 190.661 C 206.858 190.383,206.718 188.750,206.553 187.031 C 206.388 185.313,206.113 180.711,205.942 176.805 C 205.771 172.900,205.493 169.085,205.323 168.329 C 205.154 167.572,204.868 163.455,204.689 159.180 C 204.510 154.904,204.238 150.984,204.085 150.469 C 203.932 149.953,203.724 147.141,203.624 144.219 C 203.524 141.297,203.235 136.305,202.981 133.125 C 202.728 129.945,202.376 125.164,202.199 122.500 C 202.022 119.836,201.710 115.330,201.506 112.487 C 201.131 107.288,201.290 105.243,201.940 106.875 C 202.111 107.305,202.378 107.867,202.533 108.125 C 202.687 108.383,202.954 108.945,203.126 109.375 C 203.297 109.805,203.579 110.367,203.752 110.625 C 203.925 110.883,204.145 111.305,204.241 111.563 C 204.337 111.820,204.681 112.594,205.006 113.281 C 205.330 113.969,206.250 115.938,207.050 117.656 C 208.682 121.163,210.682 125.417,212.560 129.375 C 213.253 130.836,214.278 133.016,214.839 134.219 C 215.399 135.422,216.423 137.602,217.115 139.063 C 217.807 140.523,218.862 142.773,219.460 144.063 C 221.627 148.731,222.274 150.016,222.541 150.181 C 222.690 150.274,222.813 150.565,222.813 150.829 C 222.813 151.093,223.569 152.878,224.493 154.795 C 225.417 156.713,226.556 159.125,227.023 160.156 C 228.186 162.724,230.034 166.618,230.359 167.188 C 230.506 167.445,230.767 168.008,230.938 168.438 C 231.109 168.867,231.391 169.430,231.564 169.688 C 231.737 169.945,231.957 170.367,232.053 170.625 C 232.149 170.883,232.426 171.516,232.668 172.031 C 232.910 172.547,233.252 173.320,233.428 173.750 C 233.604 174.180,233.875 174.742,234.030 175.000 C 234.290 175.432,234.863 176.635,237.902 183.125 C 239.911 187.414,241.921 191.686,243.342 194.688 C 244.115 196.320,245.313 198.852,246.004 200.313 C 246.694 201.773,247.731 203.953,248.307 205.156 C 248.883 206.359,249.500 207.695,249.677 208.125 C 249.854 208.555,250.115 209.117,250.258 209.375 C 251.119 210.926,251.811 212.455,251.992 213.203 C 252.106 213.676,252.337 214.063,252.506 214.063 C 252.675 214.063,252.813 214.225,252.813 214.423 C 252.813 215.050,255.887 221.494,256.311 221.756 C 256.981 222.170,256.537 223.106,253.703 227.253 C 253.385 227.719,253.125 228.177,253.125 228.272 C 253.125 228.366,252.668 229.117,252.109 229.941 C 250.855 231.789,250.490 232.362,249.683 233.750 C 249.334 234.352,248.498 235.688,247.825 236.719 C 246.252 239.132,243.943 242.879,243.780 243.281 C 243.710 243.453,243.292 244.069,242.851 244.651 C 242.411 245.232,241.554 246.534,240.947 247.543 C 240.340 248.552,238.812 251.053,237.550 253.101 C 234.386 258.239,234.288 258.571,234.130 264.688 C 234.042 268.082,233.875 269.922,233.639 270.073 C 233.211 270.348,167.145 270.396,166.432 270.123 C 166.015 269.963,165.938 269.278,165.938 265.767 C 165.938 258.802,165.619 257.975,158.911 247.500 C 158.195 246.383,157.058 244.579,156.383 243.491 C 155.708 242.403,154.559 240.599,153.828 239.482 C 153.098 238.365,152.500 237.390,152.500 237.316 C 152.500 237.242,152.031 236.514,151.458 235.698 C 150.885 234.883,150.357 234.065,150.286 233.880 C 150.215 233.695,149.268 232.149,148.181 230.444 C 147.095 228.739,146.041 227.076,145.838 226.749 C 145.635 226.421,145.012 225.440,144.453 224.568 C 143.193 222.601,143.178 222.867,144.726 219.688 C 146.345 216.363,149.061 210.622,152.636 202.969 C 153.439 201.250,154.230 199.633,154.394 199.375 C 154.558 199.117,154.772 198.695,154.871 198.438 C 155.264 197.412,156.305 195.130,156.583 194.688 C 156.744 194.430,157.021 193.867,157.197 193.438 C 157.639 192.356,158.475 190.563,158.798 190.000 C 158.946 189.742,159.227 189.180,159.421 188.750 C 160.282 186.853,163.581 179.810,166.155 174.375 C 168.477 169.471,170.014 166.216,171.098 163.906 C 175.752 153.989,177.199 150.919,181.076 142.744 C 182.031 140.729,182.813 138.953,182.813 138.797 C 182.813 138.642,183.020 138.342,183.273 138.132 C 183.526 137.922,183.822 137.277,183.931 136.698 C 184.039 136.120,184.324 135.484,184.564 135.285 C 184.804 135.086,185.000 134.780,185.000 134.605 C 185.000 134.290,186.070 131.837,186.600 130.938 C 186.752 130.680,187.017 130.117,187.188 129.688 C 187.359 129.258,187.641 128.695,187.813 128.438 C 187.985 128.180,188.272 127.617,188.451 127.188 C 188.629 126.758,189.174 125.563,189.660 124.531 C 190.147 123.500,191.110 121.461,191.800 120.000 C 192.490 118.539,193.644 116.078,194.365 114.531 C 195.085 112.984,196.144 110.734,196.717 109.531 C 197.290 108.328,197.849 107.066,197.959 106.728 C 198.741 104.316,198.868 112.944,198.096 115.983 C 197.936 116.609,197.675 120.195,197.514 123.951 C 197.227 130.671,196.697 138.764,195.776 150.469 C 195.519 153.734,195.334 157.250,195.364 158.281 C 195.448 161.090,196.069 153.955,196.873 140.938 C 197.282 134.307,197.710 127.973,198.277 120.156 C 199.447 104.007,199.341 103.186,196.770 108.516 M138.820 282.109 L 111.233 282.191 110.949 282.940 C 110.792 283.352,110.729 284.511,110.808 285.516 C 111.165 290.027,111.677 293.938,111.958 294.297 C 112.459 294.936,287.280 294.863,287.919 294.224 C 288.479 293.664,288.873 290.182,288.892 285.625 L 288.906 282.344 257.813 282.154 C 226.935 281.966,191.730 281.953,138.820 282.109 M233.747 283.119 C 233.953 283.503,234.045 285.718,233.992 288.978 L 233.906 294.219 200.000 294.219 L 166.094 294.219 166.008 288.978 C 165.955 285.718,166.047 283.503,166.253 283.119 C 166.580 282.508,167.019 282.500,200.000 282.500 C 232.981 282.500,233.420 282.508,233.747 283.119 M192.740 398.036 C 192.270 398.107,191.427 398.109,190.865 398.039 C 190.303 397.969,190.688 397.911,191.719 397.909 C 192.750 397.908,193.210 397.964,192.740 398.036 M208.832 398.032 C 208.448 398.107,207.745 398.109,207.270 398.037 C 206.795 397.965,207.109 397.904,207.969 397.902 C 208.828 397.900,209.217 397.958,208.832 398.032 " stroke="none" fill="#0c9dc3" fill-rule="evenodd"></path><path id="path1" d="M197.959 106.728 C 197.849 107.066,197.290 108.328,196.717 109.531 C 196.144 110.734,195.085 112.984,194.365 114.531 C 193.644 116.078,192.490 118.539,191.800 120.000 C 191.110 121.461,190.147 123.500,189.660 124.531 C 189.174 125.563,188.629 126.758,188.451 127.188 C 188.272 127.617,187.985 128.180,187.813 128.438 C 187.641 128.695,187.359 129.258,187.188 129.688 C 187.017 130.117,186.752 130.680,186.600 130.938 C 186.070 131.837,185.000 134.290,185.000 134.605 C 185.000 134.780,184.804 135.086,184.564 135.285 C 184.324 135.484,184.039 136.120,183.931 136.698 C 183.822 137.277,183.526 137.922,183.273 138.132 C 183.020 138.342,182.813 138.642,182.813 138.797 C 182.813 138.953,182.031 140.729,181.076 142.744 C 177.199 150.919,175.752 153.989,171.098 163.906 C 170.014 166.216,168.477 169.471,166.155 174.375 C 163.581 179.810,160.282 186.853,159.421 188.750 C 159.227 189.180,158.942 189.742,158.789 190.000 C 158.636 190.258,158.205 191.172,157.830 192.031 C 157.455 192.891,157.017 193.805,156.855 194.063 C 156.693 194.320,156.417 194.883,156.241 195.313 C 155.799 196.392,154.963 198.186,154.640 198.750 C 154.492 199.008,154.283 199.430,154.174 199.688 C 154.066 199.945,153.348 201.492,152.577 203.125 C 151.807 204.758,150.482 207.570,149.632 209.375 C 146.884 215.214,146.042 216.984,144.726 219.688 C 143.178 222.867,143.193 222.601,144.453 224.568 C 145.012 225.440,145.635 226.421,145.838 226.749 C 146.041 227.076,147.095 228.739,148.181 230.444 C 149.268 232.149,150.215 233.695,150.286 233.880 C 150.357 234.065,150.885 234.883,151.458 235.698 C 152.031 236.514,152.500 237.242,152.500 237.316 C 152.500 237.390,153.098 238.365,153.828 239.482 C 154.559 240.599,155.708 242.403,156.383 243.491 C 157.058 244.579,158.195 246.383,158.911 247.500 C 165.619 257.975,165.938 258.802,165.938 265.767 C 165.938 269.278,166.015 269.963,166.432 270.123 C 167.145 270.396,233.211 270.348,233.639 270.073 C 233.875 269.922,234.042 268.082,234.130 264.688 C 234.288 258.571,234.386 258.239,237.550 253.101 C 238.812 251.053,240.340 248.552,240.947 247.543 C 241.554 246.534,242.411 245.232,242.851 244.651 C 243.292 244.069,243.710 243.453,243.780 243.281 C 243.943 242.879,246.252 239.132,247.825 236.719 C 248.498 235.688,249.334 234.352,249.683 233.750 C 250.490 232.362,250.855 231.789,252.109 229.941 C 252.668 229.117,253.125 228.366,253.125 228.272 C 253.125 228.177,253.385 227.719,253.703 227.253 C 256.537 223.106,256.981 222.170,256.311 221.756 C 255.887 221.494,252.813 215.050,252.813 214.423 C 252.813 214.225,252.675 214.063,252.506 214.063 C 252.337 214.063,252.106 213.676,251.992 213.203 C 251.811 212.455,251.119 210.926,250.258 209.375 C 250.115 209.117,249.854 208.555,249.677 208.125 C 249.500 207.695,248.883 206.359,248.307 205.156 C 247.731 203.953,246.694 201.773,246.004 200.313 C 245.313 198.852,244.115 196.320,243.342 194.688 C 241.921 191.686,239.911 187.414,237.902 183.125 C 234.863 176.635,234.290 175.432,234.030 175.000 C 233.875 174.742,233.604 174.180,233.428 173.750 C 232.990 172.680,232.152 170.880,231.828 170.313 C 231.681 170.055,231.421 169.492,231.249 169.063 C 231.078 168.633,230.796 168.070,230.623 167.813 C 230.450 167.555,230.231 167.133,230.136 166.875 C 230.041 166.617,229.493 165.422,228.918 164.219 C 228.343 163.016,227.490 161.188,227.023 160.156 C 226.556 159.125,225.417 156.713,224.493 154.795 C 223.569 152.878,222.813 151.093,222.813 150.829 C 222.813 150.565,222.690 150.274,222.541 150.181 C 222.274 150.016,221.627 148.731,219.460 144.063 C 218.862 142.773,217.807 140.523,217.115 139.063 C 216.423 137.602,215.399 135.422,214.839 134.219 C 214.278 133.016,213.253 130.836,212.560 129.375 C 210.682 125.417,208.682 121.163,207.050 117.656 C 206.250 115.938,205.330 113.969,205.006 113.281 C 204.681 112.594,204.337 111.820,204.241 111.563 C 204.145 111.305,203.925 110.883,203.752 110.625 C 203.579 110.367,203.297 109.805,203.126 109.375 C 202.954 108.945,202.687 108.383,202.533 108.125 C 202.378 107.867,202.111 107.305,201.940 106.875 C 201.290 105.243,201.131 107.288,201.506 112.487 C 201.710 115.330,202.022 119.836,202.199 122.500 C 202.376 125.164,202.728 129.945,202.981 133.125 C 203.235 136.305,203.524 141.297,203.624 144.219 C 203.724 147.141,203.932 149.953,204.085 150.469 C 204.238 150.984,204.510 154.904,204.689 159.180 C 204.868 163.455,205.154 167.572,205.323 168.329 C 205.493 169.085,205.771 172.900,205.942 176.805 C 206.113 180.711,206.388 185.313,206.553 187.031 C 206.718 188.750,206.858 190.383,206.864 190.661 C 206.870 190.938,207.299 191.641,207.816 192.223 C 211.496 196.359,212.514 203.845,209.811 206.900 C 209.571 207.171,209.375 207.544,209.375 207.728 C 209.375 207.912,208.566 208.803,207.578 209.707 C 200.795 215.918,191.614 212.969,188.942 203.723 C 187.898 200.108,188.905 196.250,191.871 192.505 C 192.812 191.317,192.966 190.858,193.171 188.626 C 193.449 185.594,194.077 176.727,194.998 162.813 C 195.674 152.596,196.288 143.659,196.747 137.344 C 197.010 133.734,197.356 127.708,197.516 123.951 C 197.675 120.195,197.936 116.609,198.096 115.983 C 198.868 112.944,198.741 104.316,197.959 106.728 M399.448 175.000 C 399.448 175.602,399.512 175.848,399.590 175.547 C 399.669 175.246,399.669 174.754,399.590 174.453 C 399.512 174.152,399.448 174.398,399.448 175.000 M166.253 283.119 C 166.047 283.503,165.955 285.718,166.008 288.978 L 166.094 294.219 200.000 294.219 L 233.906 294.219 233.992 288.978 C 234.045 285.718,233.953 283.503,233.747 283.119 C 233.420 282.508,232.981 282.500,200.000 282.500 C 167.019 282.500,166.580 282.508,166.253 283.119 " stroke="none" fill="#1d1515" fill-rule="evenodd"></path><path id="path2" d="M183.916 6.740 C 180.827 6.964,177.452 7.290,176.416 7.464 C 175.379 7.639,173.477 7.868,172.188 7.975 C 170.898 8.081,169.000 8.358,167.969 8.589 C 166.938 8.821,165.250 9.102,164.219 9.214 C 163.188 9.325,161.641 9.610,160.781 9.846 C 159.922 10.082,158.445 10.415,157.500 10.585 C 153.060 11.385,142.642 14.158,139.063 15.493 C 138.461 15.718,137.617 15.988,137.188 16.094 C 136.758 16.200,135.914 16.471,135.313 16.697 C 134.711 16.923,133.445 17.393,132.500 17.741 C 129.455 18.862,124.870 20.649,123.906 21.092 C 123.391 21.328,121.914 21.966,120.625 22.509 C 118.579 23.371,107.217 28.924,105.938 29.687 C 105.680 29.841,103.570 31.053,101.250 32.381 C 98.930 33.709,96.680 35.037,96.250 35.332 C 95.820 35.626,93.641 37.071,91.406 38.542 C 85.838 42.207,81.742 45.124,80.000 46.663 C 79.742 46.891,78.150 48.168,76.461 49.501 C 63.641 59.619,50.717 73.390,40.375 87.952 C 38.186 91.035,33.912 97.518,32.775 99.481 C 32.194 100.484,31.472 101.679,31.171 102.137 C 30.870 102.594,30.407 103.391,30.143 103.906 C 29.878 104.422,29.336 105.406,28.937 106.094 C 28.197 107.368,22.167 119.390,21.413 121.094 C 21.184 121.609,20.716 122.664,20.372 123.438 C 20.027 124.211,19.643 125.195,19.518 125.625 C 19.393 126.055,19.099 126.684,18.864 127.023 C 18.629 127.362,18.438 127.859,18.438 128.128 C 18.437 128.398,18.156 129.170,17.812 129.844 C 17.469 130.518,17.187 131.290,17.188 131.559 C 17.188 131.828,16.995 132.326,16.759 132.665 C 16.523 133.004,16.228 133.748,16.104 134.318 C 15.980 134.888,15.682 135.732,15.441 136.193 C 15.201 136.654,15.002 137.313,15.000 137.656 C 14.998 138.000,14.781 138.694,14.518 139.198 C 14.255 139.703,13.917 140.617,13.766 141.230 C 13.616 141.842,13.345 142.766,13.164 143.281 C 12.721 144.546,11.713 148.078,10.978 150.938 C 10.647 152.227,10.211 153.914,10.009 154.688 C 9.807 155.461,9.449 157.185,9.213 158.518 C 8.977 159.851,8.699 161.080,8.595 161.247 C 8.423 161.526,8.055 163.557,7.180 169.063 C 6.206 175.195,5.869 178.020,5.602 182.298 C 5.440 184.901,5.167 187.795,4.997 188.729 C 4.598 190.917,4.593 208.731,4.991 210.958 C 5.157 211.892,5.434 214.836,5.606 217.500 C 5.777 220.164,6.135 223.750,6.400 225.469 C 7.346 231.599,8.180 236.435,8.610 238.281 C 8.850 239.313,9.174 240.859,9.329 241.719 C 9.662 243.569,10.178 245.662,10.979 248.412 C 11.300 249.515,11.563 250.635,11.563 250.902 C 11.563 251.168,11.764 251.953,12.011 252.646 C 12.257 253.339,12.839 255.172,13.303 256.719 C 14.303 260.050,15.014 262.186,16.112 265.156 C 16.556 266.359,17.067 267.835,17.246 268.436 C 17.425 269.036,17.766 269.806,18.005 270.146 C 18.243 270.486,18.437 270.958,18.437 271.194 C 18.438 271.431,18.667 272.138,18.948 272.765 C 19.228 273.393,19.728 274.539,20.057 275.313 C 23.008 282.236,26.465 289.122,30.484 296.084 C 31.851 298.451,33.211 300.757,33.506 301.209 C 33.802 301.661,34.279 302.453,34.567 302.969 C 35.963 305.468,42.157 314.279,45.551 318.594 C 47.564 321.152,51.318 325.703,52.451 326.958 C 59.474 334.736,65.213 340.485,70.938 345.477 C 71.883 346.301,72.727 347.060,72.813 347.165 C 73.023 347.419,74.682 348.760,75.743 349.531 C 76.215 349.875,77.050 350.553,77.598 351.038 C 79.245 352.497,88.336 359.064,92.344 361.692 C 94.406 363.044,96.445 364.386,96.875 364.674 C 97.305 364.962,97.867 365.296,98.125 365.415 C 98.383 365.534,99.016 365.910,99.531 366.250 C 100.047 366.590,100.820 367.038,101.250 367.245 C 101.680 367.452,102.242 367.786,102.500 367.988 C 103.456 368.736,114.124 374.220,117.891 375.900 C 118.707 376.265,119.982 376.844,120.724 377.188 C 121.465 377.531,122.188 377.812,122.330 377.812 C 122.472 377.812,123.201 378.094,123.950 378.437 C 124.699 378.781,125.926 379.344,126.675 379.688 C 127.424 380.031,128.160 380.313,128.309 380.313 C 128.579 380.312,131.124 381.267,133.016 382.078 C 133.558 382.310,134.190 382.501,134.422 382.502 C 134.654 382.503,135.256 382.719,135.761 382.982 C 136.265 383.245,137.179 383.583,137.792 383.734 C 138.405 383.884,139.328 384.155,139.844 384.336 C 141.093 384.773,144.196 385.664,151.250 387.611 C 152.195 387.872,153.742 388.224,154.688 388.394 C 155.633 388.564,156.802 388.854,157.286 389.039 C 157.770 389.224,158.517 389.375,158.947 389.375 C 159.377 389.375,160.950 389.646,162.442 389.978 C 165.392 390.633,168.061 391.070,172.188 391.575 C 173.648 391.754,175.828 392.038,177.031 392.207 C 186.425 393.524,213.100 393.607,221.563 392.346 C 223.195 392.103,225.867 391.759,227.500 391.582 C 231.480 391.151,234.298 390.702,237.558 389.978 C 239.050 389.646,240.623 389.375,241.053 389.375 C 241.483 389.375,242.230 389.224,242.714 389.039 C 243.198 388.854,244.367 388.566,245.313 388.400 C 246.258 388.233,247.664 387.904,248.438 387.669 C 249.211 387.435,250.477 387.083,251.250 386.889 C 252.023 386.694,253.570 386.273,254.688 385.952 C 255.805 385.632,257.352 385.204,258.125 385.002 C 258.898 384.800,259.813 384.512,260.156 384.362 C 260.500 384.213,261.906 383.722,263.281 383.271 C 264.656 382.820,266.484 382.189,267.344 381.868 C 271.557 380.298,274.968 378.957,276.128 378.414 C 276.834 378.083,277.626 377.813,277.887 377.813 C 278.147 377.813,278.536 377.602,278.750 377.344 C 278.964 377.086,279.288 376.875,279.471 376.875 C 280.427 376.875,294.561 369.775,298.750 367.190 C 299.008 367.031,300.116 366.367,301.214 365.716 C 302.311 365.064,303.680 364.250,304.256 363.906 C 305.880 362.937,310.760 359.669,312.654 358.281 C 313.593 357.594,315.426 356.258,316.727 355.313 C 331.972 344.238,347.593 328.338,359.468 311.809 C 361.566 308.890,366.915 300.629,367.722 299.063 C 367.943 298.633,368.406 297.859,368.750 297.344 C 369.095 296.828,369.597 295.984,369.866 295.469 C 370.135 294.953,370.687 293.969,371.093 293.281 C 371.499 292.594,372.269 291.188,372.805 290.156 C 373.340 289.125,373.913 288.070,374.077 287.813 C 374.241 287.555,374.516 286.992,374.687 286.563 C 374.858 286.133,375.131 285.570,375.292 285.313 C 375.454 285.055,375.893 284.141,376.268 283.281 C 376.642 282.422,377.074 281.508,377.226 281.250 C 377.379 280.992,377.590 280.570,377.696 280.313 C 377.801 280.055,378.141 279.281,378.450 278.594 C 379.265 276.781,381.358 271.708,382.190 269.531 C 382.584 268.500,383.096 267.213,383.328 266.672 C 383.560 266.130,383.751 265.497,383.752 265.265 C 383.753 265.033,383.937 264.492,384.160 264.063 C 384.384 263.633,384.958 262.016,385.437 260.469 C 385.916 258.922,386.494 257.094,386.722 256.406 C 387.581 253.820,388.216 251.664,388.609 250.000 C 388.980 248.433,389.255 247.290,390.266 243.125 C 391.450 238.244,393.130 229.161,393.127 227.654 C 393.126 226.966,393.272 225.911,393.452 225.310 C 395.386 218.842,395.484 186.926,393.606 175.156 C 393.359 173.609,393.076 171.500,392.977 170.469 C 392.879 169.438,392.592 167.820,392.340 166.875 C 392.088 165.930,391.881 164.647,391.879 164.024 C 391.877 163.401,391.676 162.328,391.433 161.640 C 391.191 160.951,390.891 159.563,390.768 158.553 C 390.645 157.544,390.363 156.227,390.141 155.625 C 389.919 155.023,389.646 153.969,389.534 153.281 C 389.422 152.594,389.138 151.398,388.903 150.625 C 388.668 149.852,388.181 148.164,387.820 146.875 C 387.459 145.586,387.019 144.109,386.843 143.594 C 386.666 143.078,386.335 142.023,386.108 141.250 C 385.881 140.477,385.541 139.422,385.352 138.906 C 385.162 138.391,384.630 136.844,384.167 135.469 C 382.950 131.848,382.355 130.199,382.138 129.844 C 382.033 129.672,381.573 128.547,381.116 127.344 C 380.659 126.141,380.093 124.734,379.860 124.219 C 379.626 123.703,379.127 122.578,378.750 121.719 C 378.041 120.101,372.060 108.015,371.559 107.188 C 371.403 106.930,370.351 105.102,369.220 103.125 C 366.559 98.474,365.293 96.372,364.606 95.469 C 364.476 95.297,363.450 93.752,362.325 92.035 C 360.503 89.251,355.360 82.071,354.521 81.139 C 354.344 80.942,353.018 79.305,351.576 77.500 C 350.133 75.695,348.731 73.996,348.460 73.723 C 348.190 73.450,347.195 72.327,346.250 71.226 C 341.880 66.141,335.341 59.599,330.290 55.262 C 329.357 54.460,328.031 53.296,327.344 52.674 C 325.646 51.138,315.496 43.191,313.750 42.030 C 312.977 41.516,312.273 41.025,312.188 40.938 C 311.939 40.689,303.591 35.210,302.428 34.533 C 302.130 34.360,300.265 33.270,298.284 32.109 C 296.302 30.949,294.552 30.000,294.394 30.000 C 294.236 30.000,293.921 29.823,293.694 29.607 C 292.978 28.925,278.465 21.875,277.778 21.875 C 277.607 21.875,276.948 21.600,276.312 21.264 C 275.035 20.588,269.667 18.438,269.259 18.437 C 269.117 18.437,268.558 18.233,268.016 17.983 C 266.827 17.434,264.617 16.636,263.125 16.218 C 262.523 16.049,261.539 15.725,260.938 15.498 C 259.482 14.949,253.129 13.085,251.250 12.656 C 250.820 12.558,249.766 12.283,248.906 12.045 C 247.512 11.659,245.161 11.131,239.688 9.977 C 236.301 9.263,231.027 8.417,227.188 7.971 C 225.039 7.722,222.962 7.441,222.572 7.346 C 218.490 6.350,194.492 5.974,183.916 6.740 M198.920 106.293 C 199.149 107.015,198.968 110.906,198.281 120.000 C 198.040 123.180,197.757 127.469,197.651 129.531 C 197.545 131.594,197.329 134.484,197.171 135.953 C 197.012 137.423,196.738 142.063,196.560 146.266 C 196.382 150.468,196.105 154.258,195.944 154.688 C 195.784 155.117,195.508 158.844,195.332 162.969 C 195.156 167.094,194.874 171.945,194.706 173.750 C 194.537 175.555,194.243 179.703,194.051 182.969 C 193.610 190.475,193.462 191.240,192.129 192.884 C 185.690 200.826,190.316 212.500,199.902 212.500 C 209.663 212.500,214.291 200.748,207.703 192.690 C 206.427 191.129,206.295 190.515,205.915 184.375 C 205.750 181.711,205.394 176.508,205.125 172.813 C 204.856 169.117,204.558 163.703,204.465 160.781 C 204.371 157.859,204.178 155.244,204.037 154.970 C 203.895 154.695,203.627 150.828,203.440 146.376 C 203.253 141.924,202.970 137.859,202.810 137.344 C 202.650 136.828,202.373 132.978,202.194 128.789 C 202.015 124.599,201.725 119.879,201.549 118.300 C 200.704 110.727,201.175 103.278,202.280 106.719 C 202.446 107.234,202.774 107.878,203.010 108.150 C 203.245 108.421,203.438 108.751,203.438 108.883 C 203.438 109.016,204.014 110.341,204.719 111.828 C 205.944 114.412,206.891 116.491,207.304 117.500 C 207.410 117.758,207.627 118.180,207.788 118.438 C 207.949 118.695,208.159 119.117,208.257 119.375 C 208.354 119.633,208.566 120.055,208.729 120.313 C 208.891 120.570,209.401 121.625,209.861 122.656 C 210.322 123.688,211.398 126.008,212.253 127.813 C 215.432 134.521,216.193 136.137,219.840 143.906 C 220.404 145.109,221.463 147.359,222.193 148.906 C 222.922 150.453,223.982 152.703,224.547 153.906 C 225.112 155.109,226.274 157.570,227.129 159.375 C 227.983 161.180,229.273 163.922,229.995 165.469 C 230.717 167.016,231.865 169.477,232.547 170.938 C 233.229 172.398,233.919 173.805,234.082 174.063 C 234.244 174.320,234.521 174.883,234.697 175.313 C 234.873 175.742,235.215 176.516,235.457 177.031 C 235.699 177.547,235.976 178.180,236.072 178.438 C 236.168 178.695,236.379 179.117,236.542 179.375 C 236.705 179.633,237.417 181.109,238.124 182.656 C 238.832 184.203,239.884 186.453,240.463 187.656 C 242.395 191.672,247.673 202.843,250.946 209.844 C 256.070 220.805,256.052 220.771,256.740 220.857 C 257.258 220.921,259.063 218.726,259.063 218.031 C 259.063 217.938,259.660 216.966,260.391 215.872 C 261.121 214.778,262.352 212.857,263.125 211.602 C 264.797 208.890,265.693 207.461,267.559 204.531 C 268.325 203.328,269.505 201.456,270.179 200.372 C 272.676 196.359,273.073 195.732,274.565 193.438 C 276.248 190.849,276.264 190.824,277.795 188.230 C 278.387 187.227,279.336 185.740,279.904 184.925 C 280.473 184.110,280.938 183.371,280.938 183.281 C 280.938 183.192,281.395 182.445,281.953 181.622 C 283.225 179.748,283.569 179.207,284.450 177.692 C 285.431 176.006,287.569 172.656,289.568 169.671 C 289.978 169.060,290.313 168.461,290.313 168.339 C 290.313 168.218,290.805 167.418,291.406 166.563 C 292.008 165.707,292.500 164.933,292.500 164.844 C 292.500 164.754,292.957 164.008,293.516 163.184 C 294.706 161.431,295.014 160.940,296.090 159.085 L 296.893 157.701 295.854 156.585 C 292.975 153.494,292.876 148.451,295.619 144.757 C 298.344 141.090,304.794 140.997,307.842 144.582 C 312.260 149.778,308.777 159.348,302.460 159.372 C 301.105 159.377,300.873 160.023,300.584 164.613 C 300.435 166.974,300.174 169.891,300.004 171.094 C 299.833 172.297,299.555 175.250,299.385 177.656 C 299.215 180.063,298.940 182.838,298.774 183.824 C 298.608 184.810,298.389 187.201,298.289 189.137 C 298.189 191.072,297.905 194.203,297.658 196.094 C 297.412 197.984,297.067 201.430,296.893 203.750 C 296.531 208.558,296.115 212.987,295.452 219.063 C 295.198 221.383,294.861 225.356,294.701 227.892 C 294.541 230.427,294.318 232.652,294.205 232.835 C 294.091 233.019,293.881 235.067,293.736 237.387 C 293.592 239.706,293.258 243.599,292.995 246.037 C 291.868 256.454,291.243 263.073,291.246 264.552 C 291.251 266.485,290.684 269.702,290.245 270.234 C 289.772 270.809,110.369 270.809,109.589 270.234 C 109.152 269.913,109.000 268.926,108.732 264.688 C 108.553 261.852,108.203 258.336,107.954 256.875 C 107.706 255.414,107.494 253.234,107.485 252.031 C 107.476 250.828,107.346 248.859,107.198 247.656 C 107.049 246.453,106.768 243.570,106.572 241.250 C 106.377 238.930,106.014 235.344,105.767 233.281 C 105.519 231.219,105.243 228.266,105.152 226.719 C 105.061 225.172,104.783 222.148,104.535 220.000 C 104.286 217.852,103.939 214.336,103.763 212.188 C 103.203 205.337,102.505 198.040,102.186 195.682 C 102.015 194.424,101.791 191.752,101.688 189.744 C 101.584 187.736,101.378 185.602,101.229 185.000 C 101.080 184.398,100.814 181.727,100.639 179.063 C 100.464 176.398,100.108 172.320,99.849 170.000 C 99.589 167.680,99.293 164.548,99.191 163.041 C 98.992 160.110,98.626 159.375,97.361 159.375 C 93.691 159.375,90.002 154.906,90.010 150.469 C 90.026 141.258,101.410 138.564,105.582 146.784 C 106.879 149.340,106.307 154.435,104.537 156.094 C 102.812 157.710,102.856 157.841,107.513 165.000 C 108.016 165.773,108.526 166.617,108.647 166.875 C 108.768 167.133,109.333 168.010,109.902 168.825 C 110.472 169.640,110.938 170.371,110.938 170.450 C 110.938 170.529,111.334 171.198,111.819 171.937 C 112.304 172.677,113.144 173.984,113.686 174.844 C 114.228 175.703,114.817 176.578,114.996 176.789 C 115.175 176.999,115.459 177.491,115.627 177.882 C 115.796 178.274,116.780 179.859,117.814 181.406 C 118.849 182.953,119.866 184.570,120.075 185.000 C 120.284 185.430,120.915 186.448,121.477 187.262 C 122.040 188.077,122.500 188.800,122.500 188.868 C 122.500 188.937,123.238 190.132,124.141 191.524 C 125.043 192.917,126.193 194.725,126.696 195.543 C 127.825 197.380,129.139 199.446,131.121 202.500 C 131.957 203.789,132.819 205.195,133.038 205.625 C 133.256 206.055,133.991 207.250,134.671 208.281 C 135.352 209.313,136.363 210.930,136.918 211.875 C 137.473 212.820,138.019 213.664,138.131 213.750 C 138.244 213.836,138.739 214.609,139.232 215.469 C 139.726 216.328,140.566 217.664,141.100 218.438 C 141.633 219.211,142.162 220.090,142.275 220.391 C 142.734 221.615,143.694 221.000,144.714 218.828 C 145.258 217.668,145.827 216.508,145.978 216.250 C 146.128 215.992,146.400 215.430,146.581 215.000 C 146.983 214.050,147.936 212.009,150.378 206.875 C 152.787 201.810,153.335 200.636,153.733 199.688 C 153.913 199.258,154.186 198.695,154.338 198.438 C 154.491 198.180,155.107 196.914,155.709 195.625 C 156.310 194.336,157.467 191.875,158.280 190.156 C 159.093 188.438,160.152 186.188,160.633 185.156 C 161.114 184.125,162.308 181.594,163.286 179.531 C 164.264 177.469,165.557 174.727,166.160 173.438 C 166.763 172.148,167.788 169.969,168.438 168.594 C 169.089 167.219,170.215 164.828,170.941 163.281 C 175.625 153.300,176.701 151.011,178.290 147.656 C 179.105 145.938,180.666 142.677,181.760 140.412 C 182.855 138.146,183.750 136.080,183.750 135.821 C 183.750 135.561,183.873 135.273,184.023 135.181 C 184.173 135.088,184.676 134.201,185.141 133.209 C 186.769 129.736,188.996 125.006,191.730 119.219 C 192.298 118.016,193.351 115.766,194.069 114.219 C 198.119 105.499,198.481 104.909,198.920 106.293 M257.813 282.154 L 288.906 282.344 288.892 285.625 C 288.873 290.182,288.479 293.664,287.919 294.224 C 287.280 294.863,112.459 294.936,111.958 294.297 C 111.677 293.938,111.165 290.027,110.808 285.516 C 110.729 284.511,110.792 283.352,110.949 282.940 L 111.233 282.191 138.820 282.109 C 191.730 281.953,226.935 281.966,257.813 282.154 M190.865 398.039 C 191.427 398.109,192.270 398.107,192.740 398.036 C 193.210 397.964,192.750 397.908,191.719 397.909 C 190.688 397.911,190.303 397.969,190.865 398.039 M207.270 398.037 C 207.745 398.109,208.448 398.107,208.832 398.032 C 209.217 397.958,208.828 397.900,207.969 397.902 C 207.109 397.904,206.795 397.965,207.270 398.037 " stroke="none" fill="#fbfbfb" fill-rule="evenodd"></path></g></svg>