<svg id="svg" version="1.1" xmlns="http://www.w3.org/2000/svg" xmlns:xlink="http://www.w3.org/1999/xlink" width="400" height="397.6608187134503" viewBox="0, 0, 400,397.6608187134503"><g id="svgg"><path id="path0" d="M195.808 119.642 C 194.465 122.466,192.738 126.119,191.970 127.761 C 191.202 129.403,190.065 131.821,189.443 133.134 C 188.822 134.448,187.302 137.672,186.065 140.299 C 184.829 142.925,183.311 146.149,182.692 147.463 C 182.074 148.776,180.813 151.463,179.890 153.433 C 177.671 158.171,174.646 164.576,172.652 168.756 C 171.765 170.617,170.715 172.856,170.319 173.731 C 169.923 174.607,168.449 177.741,167.042 180.697 C 165.635 183.652,164.118 186.876,163.670 187.861 C 163.223 188.846,161.831 191.801,160.579 194.428 C 157.955 199.928,153.960 208.416,150.744 215.323 C 148.849 219.394,145.323 226.834,144.048 229.453 C 142.644 232.336,142.614 232.995,143.808 234.589 C 144.316 235.267,145.665 237.343,146.806 239.204 C 147.947 241.065,150.031 244.378,151.437 246.567 C 152.842 248.756,154.225 250.946,154.509 251.434 C 155.491 253.123,159.393 259.314,161.098 261.891 C 164.840 267.545,165.278 268.851,165.538 275.146 L 165.771 280.796 200.000 280.796 L 234.229 280.796 234.464 275.423 C 234.767 268.487,234.906 268.191,246.177 250.547 C 247.575 248.358,248.951 246.168,249.235 245.680 C 250.990 242.664,254.141 237.790,254.409 237.678 C 254.584 237.605,254.726 237.324,254.726 237.053 C 254.726 236.782,255.259 235.856,255.909 234.996 C 257.353 233.088,257.391 232.268,256.149 229.788 C 255.618 228.728,254.521 226.428,253.712 224.677 C 251.439 219.757,249.242 215.071,247.368 211.144 C 244.973 206.125,242.702 201.307,241.083 197.811 C 240.323 196.169,238.761 192.856,237.612 190.448 C 236.464 188.040,234.995 184.905,234.349 183.483 C 233.703 182.060,232.569 179.642,231.829 178.109 C 231.089 176.577,229.388 172.995,228.049 170.149 C 226.711 167.303,225.101 163.900,224.473 162.587 C 223.844 161.274,222.669 158.766,221.860 157.015 C 221.052 155.264,219.500 151.950,218.411 149.652 C 217.323 147.353,215.891 144.308,215.231 142.886 C 214.570 141.463,213.177 138.507,212.136 136.318 C 211.095 134.129,209.488 130.726,208.566 128.756 C 205.047 121.237,202.051 114.906,201.896 114.660 C 200.934 113.140,201.143 118.588,202.994 143.284 C 203.215 146.239,203.392 149.552,203.386 150.647 C 203.381 151.741,203.639 155.950,203.961 160.000 C 204.609 168.152,205.629 182.991,205.987 189.453 C 206.451 197.856,206.947 201.110,207.926 202.189 C 217.746 213.012,204.335 228.900,193.078 219.778 C 187.776 215.482,187.311 207.881,192.010 202.297 C 193.196 200.887,193.653 197.731,194.212 187.065 C 194.575 180.142,195.056 173.068,195.862 162.786 C 196.094 159.831,196.437 154.547,196.625 151.045 C 196.813 147.542,197.148 142.259,197.368 139.303 C 199.509 110.608,199.594 111.680,195.808 119.642 M165.815 293.563 C 165.224 295.101,165.553 305.181,166.202 305.430 C 167.160 305.798,233.359 305.706,233.941 305.337 C 234.325 305.093,234.423 303.559,234.339 299.074 L 234.229 293.134 200.143 293.033 C 169.318 292.941,166.034 292.991,165.815 293.563 " stroke="none" fill="#f2f2f2" fill-rule="evenodd"></path><path id="path1" d="M201.103 117.413 C 201.103 118.398,201.181 118.801,201.276 118.308 C 201.371 117.816,201.371 117.010,201.276 116.517 C 201.181 116.025,201.103 116.428,201.103 117.413 M202.289 135.124 C 202.294 136.000,202.375 136.311,202.471 135.816 C 202.566 135.321,202.562 134.605,202.463 134.224 C 202.363 133.844,202.285 134.249,202.289 135.124 M94.544 151.113 C 87.450 153.127,86.981 164.884,93.879 167.792 C 94.618 168.104,95.524 168.358,95.893 168.358 C 97.593 168.358,97.903 169.155,98.289 174.527 C 98.493 177.373,98.852 181.493,99.086 183.682 C 99.321 185.871,99.782 190.527,100.112 194.030 C 100.441 197.532,100.886 202.100,101.100 204.179 C 101.313 206.259,101.588 209.303,101.709 210.945 C 101.831 212.587,102.181 216.348,102.487 219.303 C 102.793 222.259,103.329 227.900,103.678 231.841 C 104.027 235.781,104.486 240.348,104.696 241.990 C 104.907 243.632,105.078 245.781,105.076 246.766 C 105.074 247.751,105.331 250.796,105.648 253.532 C 105.965 256.269,106.512 261.642,106.863 265.473 C 107.986 277.717,108.260 280.277,108.484 280.640 C 108.610 280.843,120.936 280.995,137.237 280.995 L 165.771 280.996 165.531 275.231 C 165.263 268.809,164.846 267.554,161.098 261.891 C 159.393 259.314,155.491 253.123,154.509 251.434 C 154.225 250.946,152.842 248.756,151.437 246.567 C 150.031 244.378,147.947 241.065,146.806 239.204 C 145.665 237.343,144.295 235.240,143.763 234.530 C 143.095 233.639,142.847 232.880,142.964 232.083 C 143.076 231.323,142.977 230.988,142.677 231.104 C 142.425 231.200,141.194 229.614,139.940 227.580 C 138.685 225.545,136.513 222.090,135.112 219.900 C 133.711 217.711,132.335 215.537,132.054 215.068 C 131.772 214.599,130.772 212.988,129.830 211.486 C 128.888 209.985,127.903 208.406,127.641 207.978 C 126.581 206.249,123.041 200.629,121.375 198.031 C 120.400 196.511,119.423 194.952,119.204 194.568 C 118.864 193.971,116.774 190.636,114.627 187.265 C 112.987 184.690,109.204 178.596,108.841 177.945 C 108.614 177.537,107.963 176.512,107.395 175.666 C 102.451 168.316,101.802 166.970,102.780 166.085 C 109.144 160.330,102.787 148.773,94.544 151.113 M300.697 151.162 C 298.154 152.068,296.912 153.201,295.430 155.966 C 294.117 158.415,295.024 163.624,297.166 165.938 L 298.057 166.901 297.276 168.326 C 296.846 169.110,296.187 170.225,295.810 170.804 C 295.433 171.382,293.695 174.158,291.948 176.973 C 290.200 179.787,288.041 183.164,287.148 184.478 C 286.256 185.791,285.401 187.134,285.248 187.463 C 285.095 187.791,284.568 188.687,284.077 189.453 C 283.586 190.220,282.647 191.715,281.990 192.777 C 281.333 193.838,280.021 195.897,279.074 197.353 C 278.128 198.809,276.426 201.498,275.293 203.328 C 274.161 205.159,272.922 207.129,272.542 207.707 C 272.161 208.284,271.724 209.025,271.570 209.353 C 271.416 209.682,270.518 211.081,269.575 212.463 C 268.632 213.845,267.861 215.057,267.861 215.157 C 267.861 215.257,267.368 216.097,266.766 217.023 C 266.164 217.949,265.581 218.886,265.471 219.104 C 265.155 219.731,262.324 224.109,261.053 225.936 C 260.419 226.847,259.900 227.690,259.900 227.809 C 259.900 228.419,257.774 231.031,257.348 230.944 C 257.013 230.875,256.910 231.224,257.027 232.026 C 257.156 232.902,256.879 233.647,255.964 234.892 C 255.283 235.818,254.726 236.793,254.726 237.060 C 254.726 237.327,254.584 237.605,254.409 237.678 C 254.141 237.790,250.990 242.664,249.235 245.680 C 248.951 246.168,247.575 248.358,246.177 250.547 C 234.886 268.224,234.779 268.450,234.470 275.512 L 234.229 280.996 262.763 280.995 C 281.031 280.995,291.383 280.854,291.538 280.604 C 291.789 280.197,292.018 278.105,293.127 266.070 C 293.489 262.129,294.043 256.667,294.357 253.930 C 294.671 251.194,294.927 248.048,294.927 246.939 C 294.926 245.830,295.095 243.949,295.303 242.760 C 295.511 241.570,295.874 238.179,296.111 235.224 C 296.525 230.049,297.161 223.169,298.079 213.930 C 298.318 211.522,298.689 207.582,298.903 205.174 C 299.447 199.047,300.427 188.801,300.921 184.080 C 301.149 181.891,301.508 177.862,301.717 175.128 C 302.177 169.106,302.259 168.819,303.609 168.526 C 311.954 166.711,314.123 156.420,307.114 151.898 C 305.900 151.115,302.063 150.675,300.697 151.162 M193.533 197.214 C 193.538 198.090,193.619 198.401,193.714 197.906 C 193.810 197.411,193.806 196.694,193.706 196.314 C 193.607 195.933,193.529 196.338,193.533 197.214 M109.964 293.612 C 109.588 294.592,110.554 304.484,111.089 305.128 C 111.463 305.578,116.272 305.671,139.054 305.666 C 154.186 305.662,166.330 305.509,166.040 305.325 C 165.631 305.066,165.542 303.643,165.642 298.963 L 165.771 292.934 137.997 292.935 C 112.225 292.935,110.205 292.984,109.964 293.612 M234.349 298.965 C 234.441 303.596,234.348 305.077,233.951 305.325 C 233.666 305.502,245.791 305.651,260.896 305.656 C 276.000 305.661,288.560 305.532,288.807 305.370 C 289.350 305.014,290.278 297.435,290.087 294.925 L 289.950 293.134 262.090 293.032 L 234.229 292.929 234.349 298.965 " stroke="none" fill="#f2143c" fill-rule="evenodd"></path><path id="path2" d="M173.963 0.372 C 170.848 0.526,169.366 0.754,169.253 1.095 C 169.138 1.440,168.062 1.592,165.725 1.592 C 163.104 1.592,162.313 1.724,162.134 2.189 C 161.958 2.649,161.194 2.786,158.812 2.786 C 156.549 2.786,155.587 2.946,155.224 3.383 C 154.896 3.778,154.005 3.980,152.588 3.980 C 150.951 3.980,150.448 4.120,150.448 4.577 C 150.448 5.041,149.917 5.174,148.060 5.174 C 146.202 5.174,145.672 5.307,145.672 5.771 C 145.672 6.213,145.207 6.368,143.881 6.368 C 142.554 6.368,142.090 6.523,142.090 6.965 C 142.090 7.424,141.580 7.562,139.888 7.562 C 138.298 7.562,137.623 7.728,137.457 8.159 C 137.308 8.548,136.689 8.756,135.679 8.756 C 134.567 8.756,134.129 8.925,134.129 9.353 C 134.129 9.795,133.665 9.950,132.338 9.950 C 131.012 9.950,130.547 10.105,130.547 10.547 C 130.547 10.945,130.149 11.144,129.353 11.144 C 128.557 11.144,128.159 11.343,128.159 11.741 C 128.159 12.184,127.695 12.338,126.368 12.338 C 125.041 12.338,124.577 12.493,124.577 12.935 C 124.577 13.333,124.179 13.532,123.383 13.532 C 122.587 13.532,122.189 13.731,122.189 14.129 C 122.189 14.572,121.725 14.726,120.398 14.726 C 119.071 14.726,118.607 14.881,118.607 15.323 C 118.607 15.721,118.209 15.920,117.413 15.920 C 116.617 15.920,116.219 16.119,116.219 16.517 C 116.219 16.889,115.843 17.114,115.224 17.114 C 114.605 17.114,114.229 17.340,114.229 17.711 C 114.229 18.109,113.831 18.308,113.035 18.308 C 112.239 18.308,111.841 18.507,111.841 18.905 C 111.841 19.303,111.443 19.502,110.647 19.502 C 109.990 19.502,109.453 19.682,109.453 19.900 C 109.453 20.119,109.107 20.299,108.685 20.299 C 108.263 20.299,107.649 20.567,107.321 20.896 C 106.992 21.224,106.347 21.493,105.887 21.493 C 105.426 21.493,104.947 21.761,104.821 22.090 C 104.695 22.418,104.157 22.687,103.627 22.687 C 103.096 22.687,102.558 22.955,102.432 23.284 C 102.306 23.612,101.769 23.881,101.238 23.881 C 100.708 23.881,100.170 24.149,100.044 24.478 C 99.918 24.806,99.381 25.075,98.850 25.075 C 98.320 25.075,97.782 25.343,97.656 25.672 C 97.530 26.000,97.178 26.269,96.873 26.269 C 96.568 26.269,96.318 26.537,96.318 26.866 C 96.318 27.237,95.943 27.463,95.323 27.463 C 94.704 27.463,94.328 27.688,94.328 28.060 C 94.328 28.458,93.930 28.657,93.134 28.657 C 92.338 28.657,91.940 28.856,91.940 29.254 C 91.940 29.582,91.672 29.851,91.343 29.851 C 91.015 29.851,90.746 30.119,90.746 30.448 C 90.746 30.846,90.348 31.045,89.552 31.045 C 88.756 31.045,88.358 31.244,88.358 31.642 C 88.358 31.970,88.090 32.239,87.761 32.239 C 87.433 32.239,87.164 32.507,87.164 32.836 C 87.164 33.234,86.766 33.433,85.970 33.433 C 85.174 33.433,84.776 33.632,84.776 34.030 C 84.776 34.358,84.507 34.627,84.179 34.627 C 83.851 34.627,83.582 34.896,83.582 35.224 C 83.582 35.597,83.205 35.821,82.575 35.821 C 82.020 35.821,81.464 36.090,81.338 36.418 C 81.212 36.746,80.859 37.015,80.554 37.015 C 80.249 37.015,80.000 37.284,80.000 37.612 C 80.000 37.940,79.731 38.209,79.403 38.209 C 79.075 38.209,78.806 38.478,78.806 38.806 C 78.806 39.142,78.450 39.403,77.991 39.403 C 77.543 39.403,76.761 39.851,76.254 40.398 C 75.747 40.945,75.128 41.393,74.880 41.393 C 74.631 41.393,74.428 41.662,74.428 41.990 C 74.428 42.318,74.082 42.587,73.660 42.587 C 73.238 42.587,72.624 42.856,72.296 43.184 C 71.967 43.512,71.507 43.781,71.272 43.781 C 71.038 43.781,70.846 44.050,70.846 44.378 C 70.846 44.706,70.577 44.975,70.249 44.975 C 69.920 44.975,69.652 45.244,69.652 45.572 C 69.652 45.900,69.383 46.169,69.055 46.169 C 68.726 46.169,68.458 46.438,68.458 46.766 C 68.458 47.095,68.189 47.363,67.861 47.363 C 67.532 47.363,67.264 47.632,67.264 47.960 C 67.264 48.289,66.995 48.557,66.667 48.557 C 66.338 48.557,66.070 48.826,66.070 49.154 C 66.070 49.502,65.708 49.751,65.205 49.751 C 64.701 49.751,63.627 50.496,62.625 51.542 C 61.681 52.527,60.727 53.333,60.504 53.333 C 60.282 53.333,60.100 53.512,60.100 53.731 C 60.100 53.950,59.383 54.846,58.507 55.721 C 57.632 56.597,56.915 57.493,56.915 57.711 C 56.915 57.930,56.647 58.109,56.318 58.109 C 55.990 58.109,55.721 58.378,55.721 58.706 C 55.721 59.035,55.453 59.303,55.124 59.303 C 54.796 59.303,54.527 59.572,54.527 59.900 C 54.527 60.229,54.259 60.498,53.930 60.498 C 53.602 60.498,53.333 60.766,53.333 61.095 C 53.333 61.423,53.167 61.692,52.964 61.692 C 52.216 61.692,49.751 64.399,49.751 65.221 C 49.751 65.710,49.498 66.070,49.154 66.070 C 48.826 66.070,48.557 66.338,48.557 66.667 C 48.557 66.995,48.289 67.264,47.960 67.264 C 47.632 67.264,47.363 67.532,47.363 67.861 C 47.363 68.189,47.095 68.458,46.766 68.458 C 46.438 68.458,46.169 68.726,46.169 69.055 C 46.169 69.383,45.900 69.652,45.572 69.652 C 45.244 69.652,44.975 69.920,44.975 70.249 C 44.975 70.577,44.706 70.846,44.378 70.846 C 44.050 70.846,43.781 71.095,43.781 71.400 C 43.781 71.705,43.512 72.058,43.184 72.184 C 42.856 72.310,42.587 72.866,42.587 73.420 C 42.587 74.051,42.363 74.428,41.990 74.428 C 41.662 74.428,41.393 74.697,41.393 75.025 C 41.393 75.353,41.124 75.622,40.796 75.622 C 40.468 75.622,40.199 75.891,40.199 76.219 C 40.199 76.547,40.023 76.816,39.809 76.816 C 39.594 76.816,39.297 77.308,39.150 77.910 C 39.002 78.512,38.461 79.399,37.948 79.881 C 37.435 80.364,37.015 80.946,37.015 81.175 C 37.015 81.404,36.746 81.592,36.418 81.592 C 36.046 81.592,35.821 81.968,35.821 82.587 C 35.821 83.206,35.595 83.582,35.224 83.582 C 34.896 83.582,34.627 83.851,34.627 84.179 C 34.627 84.507,34.358 84.776,34.030 84.776 C 33.632 84.776,33.433 85.174,33.433 85.970 C 33.433 86.766,33.234 87.164,32.836 87.164 C 32.507 87.164,32.239 87.433,32.239 87.761 C 32.239 88.090,31.970 88.358,31.642 88.358 C 31.244 88.358,31.045 88.756,31.045 89.552 C 31.045 90.348,30.846 90.746,30.448 90.746 C 30.119 90.746,29.851 91.015,29.851 91.343 C 29.851 91.672,29.582 91.940,29.254 91.940 C 28.856 91.940,28.657 92.338,28.657 93.134 C 28.657 93.930,28.458 94.328,28.060 94.328 C 27.731 94.328,27.463 94.597,27.463 94.925 C 27.463 95.254,27.194 95.522,26.866 95.522 C 26.468 95.522,26.269 95.920,26.269 96.716 C 26.269 97.512,26.070 97.910,25.672 97.910 C 25.298 97.910,25.075 98.288,25.075 98.918 C 25.075 99.472,24.806 100.029,24.478 100.155 C 24.149 100.281,23.881 100.793,23.881 101.294 C 23.881 101.794,23.612 102.306,23.284 102.432 C 22.955 102.558,22.687 103.115,22.687 103.669 C 22.687 104.299,22.463 104.677,22.090 104.677 C 21.761 104.677,21.493 104.945,21.493 105.274 C 21.493 105.602,21.328 105.871,21.126 105.871 C 20.925 105.871,20.642 106.408,20.498 107.065 C 20.353 107.721,20.070 108.259,19.869 108.259 C 19.667 108.259,19.502 108.604,19.502 109.026 C 19.502 109.448,19.234 110.063,18.905 110.391 C 18.570 110.726,18.308 111.699,18.308 112.608 C 18.308 113.783,18.144 114.229,17.711 114.229 C 17.313 114.229,17.114 114.627,17.114 115.423 C 17.114 116.219,16.915 116.617,16.517 116.617 C 16.119 116.617,15.920 117.015,15.920 117.811 C 15.920 118.607,15.721 119.005,15.323 119.005 C 14.925 119.005,14.726 119.403,14.726 120.199 C 14.726 120.995,14.527 121.393,14.129 121.393 C 13.698 121.393,13.532 121.835,13.532 122.985 C 13.532 124.135,13.367 124.577,12.935 124.577 C 12.542 124.577,12.338 124.970,12.338 125.729 C 12.338 126.385,12.082 126.979,11.741 127.109 C 11.347 127.260,11.144 127.884,11.144 128.943 C 11.144 130.104,10.979 130.547,10.547 130.547 C 10.105 130.547,9.950 131.012,9.950 132.338 C 9.950 133.665,9.795 134.129,9.353 134.129 C 8.911 134.129,8.756 134.594,8.756 135.920 C 8.756 137.247,8.601 137.711,8.159 137.711 C 7.717 137.711,7.562 138.176,7.562 139.502 C 7.562 140.829,7.407 141.294,6.965 141.294 C 6.507 141.294,6.368 141.802,6.368 143.483 C 6.368 145.163,6.229 145.672,5.771 145.672 C 5.307 145.672,5.174 146.202,5.174 148.060 C 5.174 149.917,5.041 150.448,4.577 150.448 C 4.113 150.448,3.980 150.978,3.980 152.836 C 3.980 154.693,3.847 155.224,3.383 155.224 C 2.910 155.224,2.786 155.794,2.786 157.967 C 2.786 160.039,2.640 160.767,2.189 160.940 C 1.724 161.119,1.592 161.910,1.592 164.531 C 1.592 166.624,1.427 167.949,1.154 168.040 C -0.400 168.558,-0.400 229.452,1.154 229.970 C 1.420 230.059,1.592 231.267,1.592 233.040 C 1.592 235.108,1.767 236.138,2.189 236.560 C 2.577 236.948,2.786 237.934,2.786 239.375 C 2.786 241.080,2.924 241.592,3.383 241.592 C 3.857 241.592,3.980 242.168,3.980 244.391 C 3.980 246.511,4.125 247.245,4.577 247.418 C 5.006 247.583,5.174 248.254,5.174 249.806 C 5.174 251.358,5.342 252.030,5.771 252.194 C 6.161 252.344,6.368 252.964,6.368 253.985 C 6.368 255.007,6.575 255.627,6.965 255.776 C 7.354 255.926,7.562 256.545,7.562 257.555 C 7.562 258.667,7.731 259.104,8.159 259.104 C 8.624 259.104,8.756 259.635,8.756 261.493 C 8.756 263.350,8.889 263.881,9.353 263.881 C 9.751 263.881,9.950 264.279,9.950 265.075 C 9.950 265.871,10.149 266.269,10.547 266.269 C 10.989 266.269,11.144 266.733,11.144 268.060 C 11.144 269.386,11.299 269.851,11.741 269.851 C 12.173 269.851,12.338 270.294,12.338 271.455 C 12.338 272.514,12.541 273.138,12.935 273.289 C 13.276 273.419,13.532 274.013,13.532 274.669 C 13.532 275.428,13.736 275.821,14.129 275.821 C 14.561 275.821,14.726 276.263,14.726 277.413 C 14.726 278.563,14.892 279.005,15.323 279.005 C 15.721 279.005,15.920 279.403,15.920 280.199 C 15.920 280.995,16.119 281.393,16.517 281.393 C 16.915 281.393,17.114 281.791,17.114 282.587 C 17.114 283.383,17.313 283.781,17.711 283.781 C 18.087 283.781,18.308 284.160,18.308 284.805 C 18.308 285.367,18.577 286.097,18.905 286.425 C 19.234 286.753,19.502 287.367,19.502 287.790 C 19.502 288.212,19.682 288.557,19.900 288.557 C 20.119 288.557,20.299 289.011,20.299 289.565 C 20.299 290.119,20.567 290.675,20.896 290.801 C 21.224 290.927,21.493 291.465,21.493 291.995 C 21.493 292.526,21.761 293.063,22.090 293.189 C 22.418 293.315,22.687 293.853,22.687 294.383 C 22.687 294.914,22.955 295.451,23.284 295.577 C 23.612 295.703,23.881 296.235,23.881 296.759 C 23.881 297.340,24.113 297.711,24.478 297.711 C 24.806 297.711,25.075 297.980,25.075 298.308 C 25.075 298.637,25.343 298.905,25.672 298.905 C 26.070 298.905,26.269 299.303,26.269 300.100 C 26.269 300.896,26.468 301.294,26.866 301.294 C 27.264 301.294,27.463 301.692,27.463 302.488 C 27.463 303.284,27.662 303.682,28.060 303.682 C 28.388 303.682,28.657 303.950,28.657 304.279 C 28.657 304.607,28.925 304.876,29.254 304.876 C 29.652 304.876,29.851 305.274,29.851 306.070 C 29.851 306.866,30.050 307.264,30.448 307.264 C 30.776 307.264,31.045 307.532,31.045 307.861 C 31.045 308.189,31.313 308.458,31.642 308.458 C 32.040 308.458,32.239 308.856,32.239 309.652 C 32.239 310.448,32.438 310.846,32.836 310.846 C 33.164 310.846,33.433 311.114,33.433 311.443 C 33.433 311.771,33.701 312.040,34.030 312.040 C 34.428 312.040,34.627 312.438,34.627 313.234 C 34.627 314.030,34.826 314.428,35.224 314.428 C 35.552 314.428,35.821 314.697,35.821 315.025 C 35.821 315.353,36.090 315.622,36.418 315.622 C 36.789 315.622,37.015 315.998,37.015 316.617 C 37.015 317.236,37.240 317.612,37.612 317.612 C 37.940 317.612,38.209 317.815,38.209 318.064 C 38.209 318.312,38.629 318.905,39.142 319.380 C 39.654 319.855,40.195 320.727,40.343 321.316 C 40.491 321.906,40.788 322.388,41.003 322.388 C 41.217 322.388,41.393 322.657,41.393 322.985 C 41.393 323.313,41.662 323.582,41.990 323.582 C 42.318 323.582,42.587 323.851,42.587 324.179 C 42.587 324.507,42.856 324.776,43.184 324.776 C 43.512 324.776,43.781 325.045,43.781 325.373 C 43.781 325.701,44.050 325.970,44.378 325.970 C 44.706 325.970,44.975 326.239,44.975 326.567 C 44.975 326.896,45.244 327.164,45.572 327.164 C 45.946 327.164,46.169 327.541,46.169 328.172 C 46.169 328.726,46.438 329.282,46.766 329.408 C 47.095 329.534,47.363 329.887,47.363 330.192 C 47.363 330.497,47.632 330.746,47.960 330.746 C 48.289 330.746,48.557 331.015,48.557 331.343 C 48.557 331.672,48.826 331.940,49.154 331.940 C 49.483 331.940,49.751 332.209,49.751 332.537 C 49.751 332.866,50.020 333.134,50.348 333.134 C 50.677 333.134,50.945 333.403,50.945 333.731 C 50.945 334.060,51.214 334.328,51.542 334.328 C 51.871 334.328,52.139 334.597,52.139 334.925 C 52.139 335.254,52.408 335.522,52.736 335.522 C 53.065 335.522,53.333 335.791,53.333 336.119 C 53.333 336.448,53.602 336.716,53.930 336.716 C 54.259 336.716,54.527 336.985,54.527 337.313 C 54.527 337.642,54.796 337.910,55.124 337.910 C 55.453 337.910,55.721 338.090,55.721 338.308 C 55.721 338.527,55.990 338.706,56.318 338.706 C 56.647 338.706,56.915 338.975,56.915 339.303 C 56.915 339.632,57.095 339.900,57.313 339.900 C 57.532 339.900,57.711 340.169,57.711 340.498 C 57.711 340.826,57.980 341.095,58.308 341.095 C 58.637 341.095,58.905 341.363,58.905 341.692 C 58.905 342.020,59.174 342.289,59.502 342.289 C 59.831 342.289,60.100 342.557,60.100 342.886 C 60.100 343.214,60.368 343.483,60.697 343.483 C 61.025 343.483,61.294 343.751,61.294 344.080 C 61.294 344.408,61.562 344.677,61.891 344.677 C 62.219 344.677,62.488 344.945,62.488 345.274 C 62.488 345.602,62.756 345.871,63.085 345.871 C 63.413 345.871,63.682 346.139,63.682 346.468 C 63.682 346.796,63.950 347.065,64.279 347.065 C 64.607 347.065,64.876 347.333,64.876 347.662 C 64.876 347.990,65.144 348.259,65.473 348.259 C 65.801 348.259,66.070 348.527,66.070 348.856 C 66.070 349.184,66.294 349.460,66.567 349.470 C 66.841 349.479,67.504 350.016,68.041 350.664 C 68.604 351.343,69.404 351.841,69.932 351.841 C 70.479 351.841,70.846 352.080,70.846 352.438 C 70.846 352.766,71.114 353.035,71.443 353.035 C 71.771 353.035,72.040 353.303,72.040 353.632 C 72.040 353.960,72.308 354.229,72.637 354.229 C 72.965 354.229,73.234 354.498,73.234 354.826 C 73.234 355.154,73.502 355.423,73.831 355.423 C 74.159 355.423,74.428 355.599,74.428 355.813 C 74.428 356.028,74.863 356.313,75.394 356.446 C 75.926 356.580,76.684 357.120,77.081 357.648 C 77.477 358.175,78.008 358.607,78.261 358.607 C 78.514 358.607,78.824 358.876,78.950 359.204 C 79.076 359.532,79.632 359.801,80.187 359.801 C 80.817 359.801,81.194 360.025,81.194 360.398 C 81.194 360.726,81.463 360.995,81.791 360.995 C 82.119 360.995,82.388 361.264,82.388 361.592 C 82.388 361.920,82.657 362.189,82.985 362.189 C 83.313 362.189,83.582 362.458,83.582 362.786 C 83.582 363.184,83.980 363.383,84.776 363.383 C 85.572 363.383,85.970 363.582,85.970 363.980 C 85.970 364.308,86.239 364.577,86.567 364.577 C 86.896 364.577,87.164 364.846,87.164 365.174 C 87.164 365.572,87.562 365.771,88.358 365.771 C 89.154 365.771,89.552 365.970,89.552 366.368 C 89.552 366.697,89.821 366.965,90.149 366.965 C 90.478 366.965,90.746 367.234,90.746 367.562 C 90.746 367.960,91.144 368.159,91.940 368.159 C 92.736 368.159,93.134 368.358,93.134 368.756 C 93.134 369.154,93.532 369.353,94.328 369.353 C 95.124 369.353,95.522 369.552,95.522 369.950 C 95.522 370.279,95.791 370.547,96.119 370.547 C 96.448 370.547,96.716 370.816,96.716 371.144 C 96.716 371.509,97.088 371.741,97.669 371.741 C 98.193 371.741,98.724 372.010,98.850 372.338 C 98.976 372.667,99.533 372.935,100.087 372.935 C 100.717 372.935,101.095 373.159,101.095 373.532 C 101.095 373.930,101.493 374.129,102.289 374.129 C 103.085 374.129,103.483 374.328,103.483 374.726 C 103.483 375.124,103.881 375.323,104.677 375.323 C 105.473 375.323,105.871 375.522,105.871 375.920 C 105.871 376.318,106.269 376.517,107.065 376.517 C 107.861 376.517,108.259 376.716,108.259 377.114 C 108.259 377.512,108.657 377.711,109.453 377.711 C 110.109 377.711,110.647 377.891,110.647 378.109 C 110.647 378.328,111.184 378.507,111.841 378.507 C 112.637 378.507,113.035 378.706,113.035 379.104 C 113.035 379.469,113.406 379.701,113.987 379.701 C 114.511 379.701,115.043 379.970,115.169 380.299 C 115.295 380.627,115.851 380.896,116.405 380.896 C 117.036 380.896,117.413 381.119,117.413 381.493 C 117.413 381.886,117.806 382.090,118.564 382.090 C 119.221 382.090,119.814 382.346,119.945 382.687 C 120.096 383.081,120.719 383.284,121.779 383.284 C 122.939 383.284,123.383 383.449,123.383 383.881 C 123.383 384.279,123.781 384.478,124.577 384.478 C 125.373 384.478,125.771 384.677,125.771 385.075 C 125.771 385.517,126.235 385.672,127.562 385.672 C 128.889 385.672,129.353 385.826,129.353 386.269 C 129.353 386.711,129.818 386.866,131.144 386.866 C 132.471 386.866,132.935 387.020,132.935 387.463 C 132.935 387.894,133.378 388.060,134.527 388.060 C 135.677 388.060,136.119 388.226,136.119 388.657 C 136.119 389.099,136.584 389.254,137.910 389.254 C 139.237 389.254,139.701 389.409,139.701 389.851 C 139.701 390.291,140.161 390.448,141.450 390.448 C 142.637 390.448,143.272 390.639,143.428 391.045 C 143.593 391.476,144.268 391.642,145.858 391.642 C 147.550 391.642,148.060 391.780,148.060 392.239 C 148.060 392.703,148.590 392.836,150.448 392.836 C 152.305 392.836,152.836 392.968,152.836 393.433 C 152.836 393.906,153.406 394.030,155.579 394.030 C 157.651 394.030,158.379 394.176,158.552 394.627 C 158.725 395.078,159.455 395.224,161.546 395.224 C 163.405 395.224,164.366 395.387,164.477 395.721 C 164.590 396.061,165.885 396.263,168.560 396.359 C 171.042 396.448,172.663 396.686,172.986 397.009 C 174.215 398.238,225.786 398.237,227.015 397.008 C 227.336 396.687,228.965 396.448,231.440 396.359 C 234.115 396.263,235.410 396.061,235.523 395.721 C 235.634 395.387,236.595 395.224,238.454 395.224 C 240.545 395.224,241.275 395.078,241.448 394.627 C 241.621 394.177,242.344 394.030,244.378 394.030 C 246.412 394.030,247.136 393.882,247.308 393.433 C 247.474 393.002,248.149 392.836,249.739 392.836 C 251.430 392.836,251.940 392.698,251.940 392.239 C 251.940 391.780,252.450 391.642,254.142 391.642 C 255.732 391.642,256.407 391.476,256.572 391.045 C 256.728 390.639,257.363 390.448,258.550 390.448 C 259.839 390.448,260.299 390.291,260.299 389.851 C 260.299 389.409,260.763 389.254,262.090 389.254 C 263.416 389.254,263.881 389.099,263.881 388.657 C 263.881 388.226,264.323 388.060,265.473 388.060 C 266.622 388.060,267.065 387.894,267.065 387.463 C 267.065 387.020,267.529 386.866,268.856 386.866 C 270.182 386.866,270.647 386.711,270.647 386.269 C 270.647 385.826,271.111 385.672,272.438 385.672 C 273.765 385.672,274.229 385.517,274.229 385.075 C 274.229 384.677,274.627 384.478,275.423 384.478 C 276.219 384.478,276.617 384.279,276.617 383.881 C 276.617 383.449,277.061 383.284,278.221 383.284 C 279.281 383.284,279.904 383.081,280.055 382.687 C 280.186 382.346,280.779 382.090,281.436 382.090 C 282.194 382.090,282.587 381.886,282.587 381.493 C 282.587 381.095,282.985 380.896,283.781 380.896 C 284.577 380.896,284.975 380.697,284.975 380.299 C 284.975 379.927,285.351 379.701,285.970 379.701 C 286.589 379.701,286.965 379.476,286.965 379.104 C 286.965 378.706,287.363 378.507,288.159 378.507 C 288.816 378.507,289.353 378.328,289.353 378.109 C 289.353 377.891,289.891 377.711,290.547 377.711 C 291.343 377.711,291.741 377.512,291.741 377.114 C 291.741 376.716,292.139 376.517,292.935 376.517 C 293.731 376.517,294.129 376.318,294.129 375.920 C 294.129 375.522,294.527 375.323,295.323 375.323 C 296.119 375.323,296.517 375.124,296.517 374.726 C 296.517 374.328,296.915 374.129,297.711 374.129 C 298.507 374.129,298.905 373.930,298.905 373.532 C 298.905 373.159,299.283 372.935,299.913 372.935 C 300.467 372.935,301.024 372.667,301.150 372.338 C 301.276 372.010,301.807 371.741,302.331 371.741 C 302.912 371.741,303.284 371.509,303.284 371.144 C 303.284 370.813,303.637 370.547,304.080 370.547 C 304.522 370.547,304.876 370.282,304.876 369.950 C 304.876 369.579,305.252 369.353,305.871 369.353 C 306.490 369.353,306.866 369.128,306.866 368.756 C 306.866 368.358,307.264 368.159,308.060 368.159 C 308.856 368.159,309.254 367.960,309.254 367.562 C 309.254 367.234,309.522 366.965,309.851 366.965 C 310.179 366.965,310.448 366.697,310.448 366.368 C 310.448 365.970,310.846 365.771,311.642 365.771 C 312.438 365.771,312.836 365.572,312.836 365.174 C 312.836 364.846,313.104 364.577,313.433 364.577 C 313.761 364.577,314.030 364.308,314.030 363.980 C 314.030 363.582,314.428 363.383,315.224 363.383 C 316.020 363.383,316.418 363.184,316.418 362.786 C 316.418 362.458,316.687 362.189,317.015 362.189 C 317.343 362.189,317.612 361.920,317.612 361.592 C 317.612 361.264,317.881 360.995,318.209 360.995 C 318.537 360.995,318.806 360.726,318.806 360.398 C 318.806 360.025,319.183 359.801,319.813 359.801 C 320.368 359.801,320.924 359.532,321.050 359.204 C 321.176 358.876,321.463 358.607,321.688 358.607 C 321.914 358.607,322.493 358.180,322.977 357.658 C 323.460 357.137,324.242 356.587,324.714 356.438 C 325.186 356.288,325.572 355.998,325.572 355.794 C 325.572 355.590,325.841 355.423,326.169 355.423 C 326.498 355.423,326.766 355.154,326.766 354.826 C 326.766 354.498,327.035 354.229,327.363 354.229 C 327.692 354.229,327.960 353.960,327.960 353.632 C 327.960 353.303,328.229 353.035,328.557 353.035 C 328.886 353.035,329.154 352.766,329.154 352.438 C 329.154 352.080,329.521 351.841,330.068 351.841 C 330.596 351.841,331.396 351.343,331.959 350.664 C 332.496 350.016,333.159 349.479,333.433 349.470 C 333.706 349.460,333.930 349.184,333.930 348.856 C 333.930 348.527,334.199 348.259,334.527 348.259 C 334.856 348.259,335.124 347.990,335.124 347.662 C 335.124 347.333,335.393 347.065,335.721 347.065 C 336.050 347.065,336.318 346.796,336.318 346.468 C 336.318 346.139,336.587 345.871,336.915 345.871 C 337.244 345.871,337.512 345.602,337.512 345.274 C 337.512 344.945,337.781 344.677,338.109 344.677 C 338.438 344.677,338.706 344.408,338.706 344.080 C 338.706 343.751,338.975 343.483,339.303 343.483 C 339.632 343.483,339.900 343.214,339.900 342.886 C 339.900 342.557,340.169 342.289,340.498 342.289 C 340.826 342.289,341.095 342.020,341.095 341.692 C 341.095 341.363,341.363 341.095,341.692 341.095 C 342.020 341.095,342.289 340.826,342.289 340.498 C 342.289 340.169,342.468 339.900,342.687 339.900 C 342.905 339.900,343.085 339.632,343.085 339.303 C 343.085 338.975,343.353 338.706,343.682 338.706 C 344.010 338.706,344.279 338.527,344.279 338.308 C 344.279 338.090,344.547 337.910,344.876 337.910 C 345.204 337.910,345.473 337.642,345.473 337.313 C 345.473 336.985,345.741 336.716,346.070 336.716 C 346.398 336.716,346.667 336.448,346.667 336.119 C 346.667 335.791,346.935 335.522,347.264 335.522 C 347.592 335.522,347.861 335.254,347.861 334.925 C 347.861 334.597,348.129 334.328,348.458 334.328 C 348.786 334.328,349.055 334.060,349.055 333.731 C 349.055 333.403,349.323 333.134,349.652 333.134 C 349.980 333.134,350.249 332.866,350.249 332.537 C 350.249 332.209,350.517 331.940,350.846 331.940 C 351.174 331.940,351.443 331.672,351.443 331.343 C 351.443 331.015,351.711 330.746,352.040 330.746 C 352.368 330.746,352.637 330.497,352.637 330.192 C 352.637 329.887,352.905 329.534,353.234 329.408 C 353.562 329.282,353.831 328.726,353.831 328.172 C 353.831 327.541,354.054 327.164,354.428 327.164 C 354.756 327.164,355.025 326.896,355.025 326.567 C 355.025 326.239,355.294 325.970,355.622 325.970 C 355.950 325.970,356.219 325.701,356.219 325.373 C 356.219 325.045,356.488 324.776,356.816 324.776 C 357.144 324.776,357.413 324.507,357.413 324.179 C 357.413 323.851,357.682 323.582,358.010 323.582 C 358.338 323.582,358.607 323.390,358.607 323.156 C 358.607 322.921,358.876 322.461,359.204 322.132 C 359.532 321.804,359.801 321.190,359.801 320.768 C 359.801 320.345,360.070 320.000,360.398 320.000 C 360.726 320.000,360.995 319.797,360.995 319.548 C 360.995 319.300,361.443 318.681,361.990 318.174 C 362.537 317.667,362.985 316.885,362.985 316.437 C 362.985 315.978,363.246 315.622,363.582 315.622 C 363.910 315.622,364.179 315.353,364.179 315.025 C 364.179 314.697,364.448 314.428,364.776 314.428 C 365.174 314.428,365.373 314.030,365.373 313.234 C 365.373 312.438,365.572 312.040,365.970 312.040 C 366.299 312.040,366.567 311.771,366.567 311.443 C 366.567 311.114,366.836 310.846,367.164 310.846 C 367.562 310.846,367.761 310.448,367.761 309.652 C 367.761 308.856,367.960 308.458,368.358 308.458 C 368.687 308.458,368.955 308.189,368.955 307.861 C 368.955 307.532,369.224 307.264,369.552 307.264 C 369.950 307.264,370.149 306.866,370.149 306.070 C 370.149 305.274,370.348 304.876,370.746 304.876 C 371.075 304.876,371.343 304.607,371.343 304.279 C 371.343 303.950,371.612 303.682,371.940 303.682 C 372.338 303.682,372.537 303.284,372.537 302.488 C 372.537 301.692,372.736 301.294,373.134 301.294 C 373.532 301.294,373.731 300.896,373.731 300.100 C 373.731 299.303,373.930 298.905,374.328 298.905 C 374.657 298.905,374.925 298.637,374.925 298.308 C 374.925 297.980,375.194 297.711,375.522 297.711 C 375.887 297.711,376.119 297.340,376.119 296.759 C 376.119 296.235,376.388 295.703,376.716 295.577 C 377.045 295.451,377.313 294.914,377.313 294.383 C 377.313 293.853,377.582 293.315,377.910 293.189 C 378.239 293.063,378.507 292.526,378.507 291.995 C 378.507 291.465,378.776 290.927,379.104 290.801 C 379.433 290.675,379.701 290.138,379.701 289.607 C 379.701 289.077,379.970 288.539,380.299 288.413 C 380.627 288.287,380.896 287.731,380.896 287.177 C 380.896 286.623,381.075 286.169,381.294 286.169 C 381.512 286.169,381.692 285.632,381.692 284.975 C 381.692 284.179,381.891 283.781,382.289 283.781 C 382.687 283.781,382.886 283.383,382.886 282.587 C 382.886 281.791,383.085 281.393,383.483 281.393 C 383.881 281.393,384.080 280.995,384.080 280.199 C 384.080 279.403,384.279 279.005,384.677 279.005 C 385.108 279.005,385.274 278.563,385.274 277.413 C 385.274 276.263,385.439 275.821,385.871 275.821 C 386.264 275.821,386.468 275.428,386.468 274.669 C 386.468 274.013,386.724 273.419,387.065 273.289 C 387.459 273.138,387.662 272.514,387.662 271.455 C 387.662 270.294,387.827 269.851,388.259 269.851 C 388.701 269.851,388.856 269.386,388.856 268.060 C 388.856 266.733,389.011 266.269,389.453 266.269 C 389.851 266.269,390.050 265.871,390.050 265.075 C 390.050 264.279,390.249 263.881,390.647 263.881 C 391.111 263.881,391.244 263.350,391.244 261.493 C 391.244 259.635,391.376 259.104,391.841 259.104 C 392.269 259.104,392.438 258.667,392.438 257.555 C 392.438 256.545,392.646 255.926,393.035 255.776 C 393.425 255.627,393.632 255.007,393.632 253.985 C 393.632 252.964,393.839 252.344,394.229 252.194 C 394.660 252.029,394.826 251.354,394.826 249.764 C 394.826 248.072,394.964 247.562,395.423 247.562 C 395.900 247.562,396.020 246.965,396.020 244.577 C 396.020 242.189,396.139 241.592,396.617 241.592 C 397.076 241.592,397.214 241.080,397.214 239.375 C 397.214 237.934,397.423 236.948,397.811 236.560 C 398.233 236.138,398.408 235.108,398.408 233.040 C 398.408 231.125,398.572 230.061,398.884 229.957 C 400.251 229.502,400.440 169.159,399.078 168.163 C 398.545 167.773,398.408 167.010,398.408 164.421 C 398.408 161.898,398.274 161.118,397.811 160.940 C 397.360 160.767,397.214 160.039,397.214 157.967 C 397.214 155.794,397.090 155.224,396.617 155.224 C 396.153 155.224,396.020 154.693,396.020 152.836 C 396.020 150.978,395.887 150.448,395.423 150.448 C 394.959 150.448,394.826 149.917,394.826 148.060 C 394.826 146.202,394.693 145.672,394.229 145.672 C 393.771 145.672,393.632 145.163,393.632 143.483 C 393.632 141.802,393.493 141.294,393.035 141.294 C 392.593 141.294,392.438 140.829,392.438 139.502 C 392.438 138.176,392.283 137.711,391.841 137.711 C 391.399 137.711,391.244 137.247,391.244 135.920 C 391.244 134.594,391.089 134.129,390.647 134.129 C 390.205 134.129,390.050 133.665,390.050 132.338 C 390.050 131.012,389.895 130.547,389.453 130.547 C 389.021 130.547,388.856 130.104,388.856 128.943 C 388.856 127.884,388.653 127.260,388.259 127.109 C 387.918 126.979,387.662 126.385,387.662 125.729 C 387.662 124.970,387.458 124.577,387.065 124.577 C 386.633 124.577,386.468 124.135,386.468 122.985 C 386.468 121.835,386.302 121.393,385.871 121.393 C 385.473 121.393,385.274 120.995,385.274 120.199 C 385.274 119.403,385.075 119.005,384.677 119.005 C 384.279 119.005,384.080 118.607,384.080 117.811 C 384.080 117.015,383.881 116.617,383.483 116.617 C 383.085 116.617,382.886 116.219,382.886 115.423 C 382.886 114.627,382.687 114.229,382.289 114.229 C 381.846 114.229,381.692 113.765,381.692 112.438 C 381.692 111.453,381.527 110.647,381.325 110.647 C 381.124 110.647,380.841 110.109,380.697 109.453 C 380.552 108.796,380.289 108.259,380.111 108.259 C 379.933 108.259,379.666 107.775,379.518 107.184 C 379.370 106.593,378.813 105.706,378.281 105.213 C 377.749 104.720,377.313 103.944,377.313 103.489 C 377.313 103.034,377.045 102.558,376.716 102.432 C 376.388 102.306,376.119 101.794,376.119 101.294 C 376.119 100.793,375.851 100.281,375.522 100.155 C 375.194 100.029,374.925 99.472,374.925 98.918 C 374.925 98.288,374.702 97.910,374.328 97.910 C 373.930 97.910,373.731 97.512,373.731 96.716 C 373.731 95.920,373.532 95.522,373.134 95.522 C 372.806 95.522,372.537 95.254,372.537 94.925 C 372.537 94.597,372.269 94.328,371.940 94.328 C 371.542 94.328,371.343 93.930,371.343 93.134 C 371.343 92.338,371.144 91.940,370.746 91.940 C 370.418 91.940,370.149 91.672,370.149 91.343 C 370.149 91.015,369.881 90.746,369.552 90.746 C 369.154 90.746,368.955 90.348,368.955 89.552 C 368.955 88.756,368.756 88.358,368.358 88.358 C 368.030 88.358,367.761 88.090,367.761 87.761 C 367.761 87.433,367.493 87.164,367.164 87.164 C 366.766 87.164,366.567 86.766,366.567 85.970 C 366.567 85.174,366.368 84.776,365.970 84.776 C 365.642 84.776,365.373 84.507,365.373 84.179 C 365.373 83.851,365.104 83.582,364.776 83.582 C 364.405 83.582,364.179 83.206,364.179 82.587 C 364.179 81.968,363.954 81.592,363.582 81.592 C 363.254 81.592,362.985 81.404,362.985 81.175 C 362.985 80.946,362.537 80.343,361.990 79.836 C 361.443 79.329,360.995 78.526,360.995 78.051 C 360.995 77.577,360.726 77.086,360.398 76.960 C 360.070 76.834,359.801 76.481,359.801 76.176 C 359.801 75.871,359.532 75.622,359.204 75.622 C 358.876 75.622,358.607 75.353,358.607 75.025 C 358.607 74.697,358.338 74.428,358.010 74.428 C 357.637 74.428,357.413 74.051,357.413 73.420 C 357.413 72.866,357.144 72.310,356.816 72.184 C 356.488 72.058,356.219 71.705,356.219 71.400 C 356.219 71.095,355.950 70.846,355.622 70.846 C 355.294 70.846,355.025 70.577,355.025 70.249 C 355.025 69.920,354.756 69.652,354.428 69.652 C 354.100 69.652,353.831 69.383,353.831 69.055 C 353.831 68.726,353.562 68.458,353.234 68.458 C 352.905 68.458,352.637 68.189,352.637 67.861 C 352.637 67.532,352.368 67.264,352.040 67.264 C 351.711 67.264,351.443 66.995,351.443 66.667 C 351.443 66.338,351.174 66.070,350.846 66.070 C 350.502 66.070,350.249 65.710,350.249 65.221 C 350.249 64.399,347.784 61.692,347.036 61.692 C 346.833 61.692,346.667 61.423,346.667 61.095 C 346.667 60.766,346.398 60.498,346.070 60.498 C 345.741 60.498,345.473 60.229,345.473 59.900 C 345.473 59.572,345.204 59.303,344.876 59.303 C 344.547 59.303,344.279 59.035,344.279 58.706 C 344.279 58.378,344.010 58.109,343.682 58.109 C 343.353 58.109,343.085 57.909,343.085 57.665 C 343.085 57.420,342.368 56.525,341.493 55.675 C 340.617 54.825,339.900 53.951,339.900 53.732 C 339.900 53.513,339.718 53.333,339.496 53.333 C 339.273 53.333,338.319 52.527,337.375 51.542 C 336.373 50.496,335.299 49.751,334.795 49.751 C 334.292 49.751,333.930 49.502,333.930 49.154 C 333.930 48.826,333.662 48.557,333.333 48.557 C 333.005 48.557,332.736 48.289,332.736 47.960 C 332.736 47.632,332.468 47.363,332.139 47.363 C 331.811 47.363,331.542 47.095,331.542 46.766 C 331.542 46.438,331.274 46.169,330.945 46.169 C 330.617 46.169,330.348 45.900,330.348 45.572 C 330.348 45.244,330.080 44.975,329.751 44.975 C 329.423 44.975,329.154 44.706,329.154 44.378 C 329.154 44.050,328.962 43.781,328.728 43.781 C 328.493 43.781,328.033 43.512,327.704 43.184 C 327.376 42.856,326.762 42.587,326.340 42.587 C 325.918 42.587,325.572 42.318,325.572 41.990 C 325.572 41.662,325.369 41.393,325.120 41.393 C 324.872 41.393,324.253 40.945,323.746 40.398 C 323.239 39.851,322.457 39.403,322.009 39.403 C 321.550 39.403,321.194 39.142,321.194 38.806 C 321.194 38.478,320.925 38.209,320.597 38.209 C 320.269 38.209,320.000 37.940,320.000 37.612 C 320.000 37.284,319.751 37.015,319.446 37.015 C 319.141 37.015,318.788 36.746,318.662 36.418 C 318.536 36.090,317.980 35.821,317.425 35.821 C 316.795 35.821,316.418 35.597,316.418 35.224 C 316.418 34.896,316.149 34.627,315.821 34.627 C 315.493 34.627,315.224 34.358,315.224 34.030 C 315.224 33.632,314.826 33.433,314.030 33.433 C 313.234 33.433,312.836 33.234,312.836 32.836 C 312.836 32.507,312.567 32.239,312.239 32.239 C 311.910 32.239,311.642 31.970,311.642 31.642 C 311.642 31.244,311.244 31.045,310.448 31.045 C 309.652 31.045,309.254 30.846,309.254 30.448 C 309.254 30.119,308.985 29.851,308.657 29.851 C 308.328 29.851,308.060 29.582,308.060 29.254 C 308.060 28.856,307.662 28.657,306.866 28.657 C 306.070 28.657,305.672 28.458,305.672 28.060 C 305.672 27.688,305.296 27.463,304.677 27.463 C 304.057 27.463,303.682 27.237,303.682 26.866 C 303.682 26.537,303.432 26.269,303.127 26.269 C 302.822 26.269,302.470 26.000,302.344 25.672 C 302.218 25.343,301.680 25.075,301.150 25.075 C 300.619 25.075,300.082 24.806,299.956 24.478 C 299.830 24.149,299.273 23.881,298.719 23.881 C 298.089 23.881,297.711 23.657,297.711 23.284 C 297.711 22.890,297.318 22.687,296.560 22.687 C 295.904 22.687,295.310 22.430,295.179 22.090 C 295.053 21.761,294.574 21.493,294.113 21.493 C 293.653 21.493,293.008 21.224,292.679 20.896 C 292.351 20.567,291.737 20.299,291.315 20.299 C 290.893 20.299,290.547 20.119,290.547 19.900 C 290.547 19.682,290.010 19.502,289.353 19.502 C 288.557 19.502,288.159 19.303,288.159 18.905 C 288.159 18.507,287.761 18.308,286.965 18.308 C 286.169 18.308,285.771 18.109,285.771 17.711 C 285.771 17.340,285.395 17.114,284.776 17.114 C 284.157 17.114,283.781 16.889,283.781 16.517 C 283.781 16.119,283.383 15.920,282.587 15.920 C 281.791 15.920,281.393 15.721,281.393 15.323 C 281.393 14.881,280.929 14.726,279.602 14.726 C 278.275 14.726,277.811 14.572,277.811 14.129 C 277.811 13.731,277.413 13.532,276.617 13.532 C 275.821 13.532,275.423 13.333,275.423 12.935 C 275.423 12.493,274.959 12.338,273.632 12.338 C 272.305 12.338,271.841 12.184,271.841 11.741 C 271.841 11.343,271.443 11.144,270.647 11.144 C 269.851 11.144,269.453 10.945,269.453 10.547 C 269.453 10.115,269.009 9.950,267.848 9.950 C 266.789 9.950,266.166 9.747,266.015 9.353 C 265.867 8.968,265.251 8.756,264.279 8.756 C 263.306 8.756,262.690 8.544,262.543 8.159 C 262.377 7.728,261.702 7.562,260.112 7.562 C 258.420 7.562,257.910 7.424,257.910 6.965 C 257.910 6.523,257.446 6.368,256.119 6.368 C 254.793 6.368,254.328 6.213,254.328 5.771 C 254.328 5.307,253.798 5.174,251.940 5.174 C 250.083 5.174,249.552 5.041,249.552 4.577 C 249.552 4.120,249.049 3.980,247.412 3.980 C 245.995 3.980,245.104 3.778,244.776 3.383 C 244.413 2.946,243.451 2.786,241.188 2.786 C 238.806 2.786,238.042 2.649,237.866 2.189 C 237.688 1.726,236.911 1.592,234.412 1.592 C 232.247 1.592,231.012 1.417,230.654 1.059 C 229.686 0.091,189.488 -0.395,173.963 0.372 M198.468 124.550 C 198.105 129.490,197.617 136.129,197.383 139.303 C 197.149 142.478,196.803 148.119,196.615 151.841 C 196.427 155.562,196.081 160.125,195.848 161.980 C 195.614 163.835,195.423 166.809,195.423 168.591 C 195.423 170.372,195.167 174.496,194.854 177.755 C 194.540 181.015,194.169 186.905,194.028 190.846 C 193.718 199.496,193.602 199.999,191.008 203.848 C 185.755 211.644,190.947 222.488,199.934 222.488 C 209.966 222.488,214.923 209.867,207.908 202.182 C 206.889 201.066,206.393 197.799,205.975 189.453 C 205.764 185.233,205.331 178.905,204.152 162.786 C 203.903 159.393,203.552 153.930,203.371 150.647 C 203.041 144.652,202.731 140.138,201.542 124.047 C 200.733 113.095,200.954 112.433,203.556 118.010 C 206.574 124.479,206.900 125.186,207.126 125.771 C 207.254 126.100,207.526 126.637,207.731 126.965 C 207.936 127.294,208.851 129.174,209.763 131.144 C 210.675 133.114,212.018 135.980,212.748 137.512 C 213.477 139.045,214.695 141.642,215.454 143.284 C 216.214 144.925,217.767 148.239,218.905 150.647 C 220.044 153.055,221.604 156.368,222.371 158.010 C 224.018 161.537,226.302 166.380,228.660 171.343 C 231.461 177.242,233.475 181.519,234.937 184.677 C 235.697 186.318,237.129 189.363,238.119 191.443 C 240.568 196.585,243.873 203.595,244.876 205.771 C 245.330 206.756,246.678 209.622,247.871 212.139 C 249.064 214.657,250.628 217.970,251.345 219.502 C 252.063 221.035,253.476 224.038,254.484 226.176 C 255.493 228.314,256.318 230.219,256.318 230.408 C 256.318 232.161,258.827 230.353,259.853 227.861 C 259.943 227.642,260.509 226.746,261.111 225.871 C 262.393 224.006,265.181 219.679,265.471 219.104 C 265.581 218.886,266.164 217.949,266.766 217.023 C 267.368 216.097,267.861 215.257,267.861 215.157 C 267.861 215.057,268.632 213.845,269.575 212.463 C 270.518 211.081,271.416 209.682,271.570 209.353 C 271.724 209.025,272.161 208.284,272.542 207.707 C 272.922 207.129,274.161 205.159,275.293 203.328 C 276.426 201.498,278.128 198.809,279.074 197.353 C 280.021 195.897,281.333 193.838,281.990 192.777 C 282.647 191.715,283.586 190.220,284.077 189.453 C 284.568 188.687,285.095 187.791,285.248 187.463 C 285.401 187.134,286.256 185.791,287.148 184.478 C 288.041 183.164,290.200 179.787,291.948 176.973 C 293.695 174.158,295.433 171.382,295.810 170.804 C 296.187 170.225,296.846 169.110,297.276 168.326 L 298.057 166.901 297.166 165.938 C 295.553 164.195,294.925 162.417,294.925 159.586 C 294.925 150.206,306.424 147.419,310.461 155.821 C 313.007 161.119,309.731 167.194,303.609 168.526 C 302.259 168.819,302.177 169.106,301.717 175.128 C 301.508 177.862,301.149 181.891,300.921 184.080 C 300.427 188.801,299.447 199.047,298.903 205.174 C 298.689 207.582,298.318 211.522,298.079 213.930 C 297.161 223.169,296.525 230.049,296.111 235.224 C 295.874 238.179,295.511 241.570,295.303 242.760 C 295.095 243.949,294.926 245.830,294.927 246.939 C 294.927 248.048,294.671 251.194,294.357 253.930 C 294.043 256.667,293.489 262.129,293.127 266.070 C 292.018 278.105,291.789 280.197,291.538 280.604 C 291.225 281.110,108.797 281.146,108.484 280.640 C 108.260 280.277,107.986 277.717,106.863 265.473 C 106.512 261.642,105.965 256.269,105.648 253.532 C 105.331 250.796,105.074 247.751,105.076 246.766 C 105.078 245.781,104.907 243.632,104.696 241.990 C 104.486 240.348,104.027 235.781,103.678 231.841 C 103.329 227.900,102.793 222.259,102.487 219.303 C 102.181 216.348,101.831 212.587,101.709 210.945 C 101.588 209.303,101.313 206.259,101.100 204.179 C 100.886 202.100,100.441 197.532,100.112 194.030 C 99.782 190.527,99.321 185.871,99.086 183.682 C 98.852 181.493,98.493 177.373,98.289 174.527 C 97.903 169.155,97.593 168.358,95.893 168.358 C 92.221 168.358,88.936 164.118,88.984 159.440 C 89.103 147.906,105.029 148.065,105.208 159.602 C 105.250 162.337,104.392 164.627,102.780 166.085 C 101.802 166.970,102.451 168.316,107.395 175.666 C 107.963 176.512,108.614 177.537,108.841 177.945 C 109.204 178.596,112.987 184.690,114.627 187.265 C 116.774 190.636,118.864 193.971,119.204 194.568 C 119.423 194.952,120.400 196.511,121.375 198.031 C 123.041 200.629,126.581 206.249,127.641 207.978 C 127.903 208.406,128.888 209.985,129.830 211.486 C 130.772 212.988,131.772 214.599,132.054 215.068 C 132.335 215.537,133.711 217.711,135.112 219.900 C 136.513 222.090,138.681 225.537,139.929 227.562 C 143.042 232.612,142.460 232.929,146.682 223.881 C 148.503 219.976,149.799 217.213,152.885 210.647 C 155.863 204.310,161.239 192.909,162.597 190.050 C 164.740 185.539,168.139 178.330,169.352 175.721 C 172.227 169.541,174.058 165.633,175.320 162.985 C 176.050 161.453,177.630 158.139,178.830 155.622 C 180.029 153.104,181.547 149.881,182.202 148.458 C 182.857 147.035,184.151 144.259,185.078 142.289 C 189.644 132.581,190.800 130.134,192.034 127.562 C 192.770 126.030,194.033 123.343,194.841 121.592 C 198.426 113.820,198.285 114.065,198.721 114.846 C 199.001 115.345,198.922 118.350,198.468 124.550 M290.087 294.925 C 290.278 297.437,289.349 305.015,288.807 305.366 C 287.888 305.962,111.586 305.726,111.089 305.128 C 110.554 304.483,109.588 294.592,109.964 293.611 C 110.208 292.975,115.777 292.940,200.087 293.034 L 289.950 293.134 290.087 294.925 " stroke="none" fill="#1c1414" fill-rule="evenodd"></path></g></svg>